<svg width="100%" height="100%" viewBox="0 0 70 70" fill="none" xmlns="http://www.w3.org/2000/svg">
  <path d="M70.0444 70.0445H0V0H70.0444V70.0445ZM1.4842 68.5603H68.5602V1.4842H1.4842V68.5603Z"
    fill="#2A374A" />
  <path
    d="M32.2812 5.54102L22.0946 32.9097H20.1751L9.78564 5.54102H11.631L19.8188 27.4528C20.0217 27.9475 20.2789 28.6995 20.5857 29.6593C20.8924 30.6191 21.0804 31.2177 21.1645 31.4502C21.2932 30.9126 21.7285 29.6049 22.4706 27.527L30.5793 5.54102H32.2812Z"
    fill="#2A374A" />
  <path d="M49.196 5.54102V32.9097H47.5684V5.54102H49.196Z" fill="#2A374A" />
  <path d="M31.4554 37.1343V38.5937H21.7685V64.5029H20.1161V38.5937H10.3896V37.1343H31.4554Z"
    fill="#2A374A" />
  <path
    d="M49.3696 37.1343L60.2538 64.5029H58.4035L54.9898 55.662H41.7952L38.2975 64.5029H36.4917L47.5985 37.1343H49.3696ZM54.4407 54.2768L49.4438 41.5918C49.3152 41.2851 49.1421 40.7953 48.9491 40.1076C48.7562 39.42 48.5682 38.9648 48.4544 38.6828C48.3802 38.8906 48.2713 39.1775 48.1279 39.5486L47.7469 40.5677C47.6282 40.8744 47.5193 41.1713 47.4204 41.4533L42.3048 54.2521L54.4407 54.2768Z"
    fill="#2A374A" />
</svg>