<svg width="360" height="442" viewBox="0 0 360 442" fill="none" xmlns="http://www.w3.org/2000/svg">
<path fill-rule="evenodd" clip-rule="evenodd" d="M128.126 4.41019C128.025 6.83608 127.705 9.0645 127.416 9.36212C126.345 10.4627 126.9 13.0604 128.623 15.0259C131.395 18.1848 142.881 25.6889 152.087 30.3563C155.373 32.0213 160.669 32.9643 166.864 32.9865C172.092 33.0052 174.708 33.2727 184.599 34.8012C189.01 35.4823 199.377 38.899 204.214 41.2651C208.758 43.4878 210.689 45.1136 214.441 49.8766C218.267 54.7324 223.736 59.8146 226.845 61.4023C235.958 66.0549 248.361 69.426 256.369 69.426C266.055 69.426 279.381 65.916 285.383 61.7835C293.526 56.1778 298.414 54.5087 303.632 55.5535C306.45 56.1175 305.044 57.0405 302.004 56.6216C298.684 56.1647 297.808 56.5767 290.601 61.9941C284.768 66.3775 280.516 68.38 270.98 71.2327C265.474 72.8801 263.989 73.0924 257.943 73.0986C253.531 73.1032 249.448 72.7481 246.387 72.0931C241.522 71.0529 229.925 66.9699 225.684 64.8041C222.122 62.9854 215.898 57.8195 213.586 54.7642C210.665 50.9032 204.414 45.5046 200.708 43.6426C197.429 41.9952 194.052 40.9106 187.844 39.5107C185.876 39.0674 183.062 38.3419 181.59 37.8991C177.234 36.588 171.403 35.863 163.996 35.7105L157.04 35.5671L164.281 42.8471C172.369 50.9789 173.225 51.5986 194.493 64.7182C197.746 66.7247 201.584 69.3531 203.021 70.5589C204.459 71.7648 207.427 73.4429 209.616 74.2885C211.804 75.1336 214.491 76.1841 215.585 76.6222C216.68 77.0604 221.157 78.3249 225.535 79.4317C232.153 81.1047 235.173 81.54 243.445 82.014C248.917 82.3276 254.489 82.4442 255.827 82.2735C261.51 81.5468 273.195 76.6399 283.244 70.7587C301.683 59.9683 311.401 55.2035 313.524 55.912C313.862 56.0247 312.961 56.8077 311.522 57.6516C310.083 58.4961 308.756 59.6553 308.575 60.2283C307.994 62.059 274.062 95.281 271.597 96.4316C267.79 98.2099 265.681 98.4455 261.483 97.5612C256.488 96.5096 245.429 96.5085 239.039 97.5584C236.303 98.0079 232.145 98.5093 229.799 98.6726C223.714 99.0971 220.157 99.6576 219.791 100.25C219.617 100.532 221.136 103.635 223.168 107.145C227.187 114.092 235.732 131.023 239.672 139.85C243.304 147.986 244.547 151.599 245.79 157.63C246.402 160.603 247.028 163.452 247.18 163.96C247.424 164.776 248.802 164.878 258.954 164.826C271.257 164.763 276.648 165.356 283.813 167.559C286.158 168.279 289.356 169.049 290.92 169.27C292.483 169.49 295.682 170.505 298.027 171.525C303.524 173.918 308.667 175.812 316.789 178.434C320.385 179.595 327.549 182.209 332.709 184.243C346.529 189.69 352.477 191.773 354.216 191.773C355.998 191.773 360 194.285 360 195.405C360 195.927 356.396 197.431 353.746 198.014C347.583 199.372 341.309 201.044 338.679 202.03C335.486 203.226 330.185 204.574 326.68 205.08C323.492 205.541 318.158 208.024 315.155 210.445C311.51 213.385 303.988 215.108 294.9 215.084C288.696 215.068 285.812 214.829 278.127 213.69L275.569 213.31L277.559 215.097C278.653 216.08 284.026 220.454 289.498 224.817C294.971 229.181 300.82 233.951 302.495 235.418C308.674 240.826 317.383 253.867 323.005 266.126C327.428 275.771 327.779 277.873 327.787 294.772C327.791 303.724 327.533 310.612 327.114 312.754C326.308 316.878 327.167 341.046 328.286 345.703C329.378 350.25 329.038 399.756 327.845 410.006C327.334 414.388 326.712 418.997 326.463 420.249L326.008 422.525L325.947 419.703C325.914 418.151 326.293 413.549 326.79 409.477C327.999 399.576 327.634 355.447 326.263 345.703C325.36 339.292 323.942 316.673 324.397 315.938C324.535 315.713 324.805 312.715 324.997 309.276C325.187 305.837 325.62 300.463 325.958 297.333C327.389 284.089 326.245 277.251 320.766 266.312C313.546 251.897 302.965 237.65 296.037 233.015C291.549 230.013 282.236 222.847 277.373 218.656C274.926 216.546 271.6 213.918 269.981 212.816C268.364 211.714 265.563 209.694 263.756 208.326C261.949 206.959 260.353 205.958 260.209 206.102C260.065 206.247 260.6 207.243 261.398 208.317C264.42 212.38 267.952 219.675 269.105 224.235C269.759 226.823 272.074 233.318 274.249 238.668C276.424 244.017 279.31 251.467 280.662 255.223C282.014 258.978 284.711 266.277 286.655 271.441C291.313 283.813 295.46 296.375 296.518 301.316C297.661 306.65 300.931 317.534 303.699 325.217C305.83 331.13 308.928 341.646 310.75 349.151C311.202 351.01 312.363 355.476 313.33 359.075C314.297 362.675 315.491 369.077 315.984 373.302C316.477 377.527 317.139 382.777 317.455 384.967C318.533 392.447 319.184 430.817 318.323 436.182L317.866 439.028L318.94 437.318C319.531 436.378 321.077 433.561 322.376 431.059C323.675 428.556 324.74 426.796 324.744 427.149C324.751 427.971 318.817 439.821 317.684 441.246C316.847 442.298 316.793 442.29 315.674 440.962C314.225 439.241 314.107 438.732 313.324 430.776C312.97 427.177 312.469 422.44 312.211 420.249C311.954 418.058 311.727 414.599 311.708 412.563C311.688 410.527 310.905 405.193 309.967 400.71C309.028 396.228 308.261 390.948 308.261 388.978C308.261 384.671 307.072 381.025 304.913 378.71C304.036 377.77 302.347 375.208 301.159 373.017C299.971 370.826 297.677 367.369 296.06 365.335C292.391 360.719 287.579 352.547 283.595 344.166C271.496 318.714 263.986 301.314 262.767 295.91C260.933 287.781 260.801 291.341 262.198 311.275C262.494 315.5 262.745 325.246 262.756 332.931C262.773 344.535 262.583 347.962 261.635 353.133C259.259 366.102 257.169 370.548 237.179 405.169C233.836 410.959 230.139 417.489 228.963 419.68C226.214 424.802 225.026 426.06 222.684 426.333C220.239 426.619 219.683 425.498 219.634 420.184C219.613 418.017 219.206 414.2 218.728 411.702C218.251 409.205 217.86 406.008 217.86 404.6C217.86 399.705 220.081 388.38 222.159 382.676C224.108 377.328 224.211 376.705 223.943 371.879C223.787 369.062 223.196 365.349 222.629 363.628C222.062 361.906 218.193 353.712 214.032 345.418C209.87 337.124 205.72 328.418 204.81 326.07C203.9 323.723 201.958 319.113 200.494 315.827C194.566 302.517 194.378 301.693 194.098 287.943C193.781 272.342 194.62 262.698 197.142 252.946C199.368 244.346 203.568 229.481 205.222 224.351C205.853 222.396 206.254 220.795 206.114 220.795C205.973 220.795 205.04 221.563 204.041 222.501C202.229 224.203 196.062 227.688 193.464 228.479C189.516 229.679 183.106 234.458 176.333 241.248C167.409 250.192 163.858 254.905 158.728 264.612C156.495 268.837 154.34 272.678 153.939 273.148C153.537 273.617 151.737 276.626 149.939 279.834C148.141 283.042 146.344 285.667 145.946 285.667C143.474 285.667 143.489 280.734 146 268.651C146.754 265.021 147.768 259.363 148.253 256.076C148.737 252.79 149.496 248.821 149.938 247.256C150.381 245.691 151.369 239.987 152.136 234.581C153.42 225.525 153.698 224.452 155.682 220.924C156.867 218.818 158.524 215.688 159.366 213.966C161.249 210.112 164.916 205.681 168.679 202.711C172.084 200.023 179.588 196.325 181.637 196.325C182.443 196.325 183.79 196.064 184.629 195.745C187.599 194.615 200.16 192.385 202.132 192.637C203.92 192.867 204.261 192.684 205.351 190.92C206.021 189.835 207.219 188.435 208.013 187.81C209.151 186.914 209.479 186.11 209.563 184.016C209.656 181.661 209.316 180.832 206.586 176.749C204.891 174.214 203.449 171.756 203.384 171.287C203.314 170.798 201.777 169.917 199.781 169.224C197.866 168.558 195.33 167.506 194.145 166.885C184.481 161.825 180.833 160.128 180.561 160.568C180.387 160.85 180.325 164.081 180.422 167.749C180.635 175.766 179.493 181.457 176.761 185.98C173.822 190.847 163.6 201.494 150.769 213.051C142.777 220.25 137.274 224.209 135.26 224.209C134.513 224.209 133.775 224.336 133.62 224.491C133.465 224.647 133.678 226.887 134.093 229.471C134.95 234.81 135.143 241.494 134.553 245.433C134.238 247.535 133.922 248.109 133.079 248.109C132.49 248.109 132.007 247.807 132.007 247.437C132.007 247.066 130.152 244.945 127.885 242.722C125.617 240.498 122.397 237.04 120.728 235.036C119.058 233.032 116.61 230.609 115.286 229.65C111.974 227.252 105.77 220.329 102.291 215.149C100.699 212.777 97.97 209.068 96.2279 206.908C94.4859 204.746 92.1559 201.673 91.0495 200.079C84.2159 190.223 82.3055 187.285 80.8768 184.434C78.358 179.408 74.303 166.847 73.7328 162.306C73.569 161.001 73.0596 158.314 72.6008 156.333C71.4324 151.289 70.9457 137.457 71.6956 130.599C72.7571 120.901 73.0153 120.047 76.4852 114.773C78.2744 112.054 79.8721 109.829 80.0353 109.829C80.3423 109.829 80.0171 110.531 76.9594 116.475C75.7142 118.896 75.1508 120.79 75.1508 122.555C75.1508 123.965 74.8688 125.84 74.5242 126.721C74.1791 127.602 73.6765 133.829 73.4064 140.558C72.9283 152.471 72.951 152.92 74.2661 157.63C75.0086 160.29 76.0645 164.387 76.612 166.735C79.4122 178.741 85.6385 190.303 97.6038 205.715C100.277 209.158 103.674 213.761 105.153 215.945C107.676 219.669 112.955 225.3 120.105 231.895C121.804 233.461 125.078 236.868 127.381 239.464C129.684 242.061 131.674 244.079 131.804 243.95C132.503 243.25 129.936 232.92 126.897 224.209C124.986 218.732 122.663 211.778 121.735 208.754C119.64 201.927 115.766 191.547 114.694 189.887C114.252 189.203 113.34 187.235 112.668 185.513C111.996 183.792 109.439 178.158 106.986 172.994C101.548 161.545 99.6501 156.741 97.3349 148.561C95.71 142.82 92.2446 134.138 89.2562 128.323C87.637 125.172 86.6579 122.337 85.1285 116.373C84.4058 113.556 83.3961 110.249 82.8838 109.023C82.0054 106.92 81.9076 106.856 81.1565 107.884C80.7187 108.483 80.2081 108.821 80.0222 108.634C79.635 108.247 81.8263 105.276 82.4994 105.276C83.2084 105.276 86.4202 112.679 88.243 118.516C89.1658 121.469 91.3536 126.932 93.1048 130.657C97.1183 139.191 98.0479 141.629 100.239 149.378C102.504 157.394 105.481 164.87 110.038 173.985C115.346 184.607 120.4 197.053 123.559 207.287C125.088 212.238 127.381 219.288 128.655 222.952C129.929 226.617 131.392 231.152 131.905 233.03C133.812 240.003 133.117 230.465 130.806 217.95C130.135 214.315 127.654 206.36 126.546 204.292C124.841 201.109 123.332 195.195 123.062 190.635C122.904 187.975 122.495 185.45 122.153 185.024C121.382 184.067 121.039 163.902 121.733 160.374C122.105 158.481 122.246 159.816 122.345 166.165C122.415 170.704 122.532 174.673 122.605 174.986C122.677 175.299 122.792 176.323 122.859 177.262C122.976 178.888 123.007 178.908 123.503 177.671C123.789 176.958 124.173 174.269 124.356 171.696C124.538 169.124 125.171 164.586 125.761 161.613C127.732 151.684 128.015 149.418 128.101 142.834C128.228 133.184 126.338 125.295 120.288 110.219C115.1 97.2898 112.516 93.4982 105.876 89.0658C103.831 87.7006 101.276 85.668 100.198 84.5486C99.1202 83.4299 98.0104 82.5142 97.7318 82.5142C97.4526 82.5142 97.3969 83.5334 97.6073 84.7791C97.9256 86.6678 97.7073 87.543 96.2916 90.0429C94.5802 93.0657 91.6391 101.596 91.6391 103.537C91.6391 104.166 92.1809 104.72 92.9951 104.925C95.4154 105.533 102.055 111.3 106.422 116.588C108.767 119.428 110.751 121.561 110.831 121.329C110.993 120.86 107.715 109.66 105.924 104.563C105.291 102.762 104.503 99.8175 104.174 98.0187C103.844 96.2205 102.36 92.3162 100.876 89.3429C97.5237 82.6269 97.6124 82.842 98.4032 83.3314C99.6438 84.0991 103.579 92.7322 104.963 97.7234C105.725 100.469 107.476 106.045 108.855 110.113C110.233 114.182 111.699 119.176 112.112 121.21C112.627 123.741 113.591 125.987 115.163 128.323C118.999 134.019 122.427 143.672 122.265 148.322L122.19 150.516L121.786 147.956C121.382 145.394 118.944 138.8 116.421 133.445C114.842 130.093 112.185 126.322 106.653 119.58C99.6387 111.032 94.5961 106.874 89.6929 105.596C87.8655 105.12 85.5532 104.248 84.5548 103.658C82.7115 102.569 81.3651 102.877 80.7864 104.519C80.6579 104.885 77.2658 108.904 73.249 113.45C69.2321 117.995 65.3943 122.744 64.7205 124.002C64.0468 125.259 62.5998 127.296 61.5053 128.527C59.6865 130.573 57.5254 135.3 57.5254 137.233C57.5254 137.668 56.6146 139.408 55.5007 141.1C49.6929 149.926 43.4978 160.841 38.7498 170.613C36.5733 175.092 33.5105 180.461 31.9447 182.543C30.3788 184.625 29.0973 186.725 29.0973 187.21C29.0973 188.421 27.2347 191.792 24.8086 194.973C23.6954 196.433 22.9136 197.911 23.0711 198.257C23.2286 198.603 24.2503 201.085 25.342 203.772C26.433 206.459 28.6197 210.538 30.2015 212.836C31.7832 215.134 33.0789 217.288 33.0806 217.624C33.0824 217.96 34.5532 220.468 36.3499 223.197C38.5957 226.611 42.7115 231.285 49.5297 238.165L59.4437 248.169L62.6066 246.759C64.3464 245.982 68.456 244.821 71.7394 244.178C75.0229 243.535 80.128 242.343 83.0839 241.53C86.5971 240.563 89.478 240.116 91.3997 240.239L94.3403 240.427L94.3949 236.134C94.425 233.773 94.8094 230.822 95.2489 229.574C96.3547 226.436 100.579 218.114 101.288 217.675C102.023 217.221 101.458 218.735 98.8137 224.313C96.2751 229.667 95.4388 233.368 95.9055 237.176L96.2745 240.185L97.2917 238.883C97.8506 238.168 98.9672 236.302 99.7723 234.737C101.667 231.056 106.58 224.062 107.483 223.76C107.868 223.632 107.01 225.281 105.576 227.424C104.143 229.569 102.238 232.888 101.343 234.802C100.448 236.715 98.8149 239.183 97.713 240.285C95.8925 242.107 95.4837 242.264 93.2191 242.009C91.4543 241.809 88.91 242.249 84.5025 243.514C81.0792 244.497 75.9752 245.542 73.1608 245.836C67.6554 246.412 62.9893 247.598 61.2637 248.861C60.2414 249.61 60.3073 249.776 62.6254 252.293L65.0617 254.938L70.5324 254.95C81.3907 254.972 87.9525 256.855 93.6808 261.593C95.1209 262.784 100.666 268.88 106.003 275.14C111.34 281.399 117.983 288.67 120.766 291.297C129.504 299.545 142.795 315.884 147.991 324.764C149.602 327.517 151.693 331.049 152.638 332.614C153.583 334.179 154.962 337.124 155.702 339.158L157.047 342.857L156.829 338.874C156.652 335.651 156.229 334.184 154.611 331.192C153.51 329.157 151.922 325.648 151.082 323.394C149.194 318.332 146.276 313.752 141.759 308.763C133.317 299.44 122.738 284.223 120.163 277.7C118.125 272.541 113.284 262.613 109.17 255.159C106.189 249.757 100.75 243.698 99.5494 244.441C99.264 244.618 99.0304 244.363 99.0304 243.875C99.0304 242.199 100.711 242.993 104.077 246.26C108.345 250.402 119.01 266.852 122.271 274.323C124.087 278.483 126.327 282 131.771 289.239C135.689 294.449 140.432 300.41 142.311 302.486C146.806 307.45 149.919 312.407 153.517 320.324C155.138 323.894 157.263 328.112 158.239 329.7C160.355 333.142 161.353 338.546 160.756 343.331C160.399 346.193 160.15 346.693 158.831 347.195C156.989 347.896 156.644 347.526 151.338 339.14C148.476 334.618 146.043 331.746 140.553 326.413C126.618 312.876 115.603 301.641 108.437 293.654C107.467 292.573 104.279 290.57 100.898 288.916C94.8571 285.961 93.8781 285.127 86.7261 276.825C85.1182 274.959 82.4318 272.612 80.7562 271.611C75.8314 268.666 75.6267 268.679 77.2323 271.829C78.1136 273.558 78.5229 275.123 78.3398 276.066C77.9817 277.913 78.631 278.724 82.3135 281.021C85.9495 283.29 95.9084 293.51 100.703 299.894C102.702 302.554 105.46 307.163 106.833 310.137C114.723 327.221 123.915 341.793 134.294 353.669C139.304 359.403 142.959 364.829 146.02 371.078C148.467 376.074 154.749 395.333 154.749 397.838C154.749 399.795 153.213 401.755 151.68 401.755C150.604 401.755 150.121 401.094 148.87 397.913C146.695 392.384 141.61 383.371 137.829 378.343C129.659 367.478 124.11 363.071 109.337 355.712C101.898 352.007 99.2913 350.207 95.9027 346.437C90.1517 340.039 86.3236 333.515 81.9928 322.733C77.657 311.939 75.9462 305.701 74.5953 295.756C73.9904 291.303 73.2006 286.82 72.8407 285.795C72.076 283.616 72.5439 280.391 73.8078 279.126C74.6101 278.322 74.5669 278.066 73.3473 276.405C72.6065 275.396 71.6587 273.896 71.2408 273.072C70.8223 272.247 69.3964 270.199 68.071 268.519C65.9839 265.874 64.712 264.989 58.5727 261.909C54.6735 259.953 51.1888 258.353 50.8289 258.353C50.4684 258.353 49.333 259.091 48.3061 259.993C47.2788 260.895 43.8799 263.23 40.7528 265.181C37.6257 267.132 34.1717 269.432 33.0772 270.293C31.9828 271.154 29.9359 272.436 28.5288 273.142C27.1216 273.848 25.8952 274.491 25.8036 274.57C25.6507 274.702 26.9112 277.868 27.9744 280.023C28.2183 280.517 28.1984 282.822 27.9301 285.144C27.6611 287.466 27.4303 291.219 27.4167 293.484C27.403 295.748 27.1432 298.693 26.8396 300.028C24.1588 311.807 23.6892 313.194 20.9822 317.321C19.4721 319.623 17.8369 322.853 17.3491 324.5C16.8607 326.146 15.7339 328.935 14.8446 330.698C13.0048 334.348 9.98228 345.301 9.528 349.97C9.36027 351.692 9.0703 356.96 8.88438 361.677C8.51993 370.906 8.90712 373.546 11.7596 381.269C13.9491 387.197 16.9983 401.023 17.3684 406.701C17.6482 410.998 17.551 412.091 16.8244 412.819C15.6099 414.034 15.1778 413.946 13.5074 412.14C9.95784 408.302 -0.0920453 393.513 0.217252 392.584C0.363372 392.145 7.64663 401.686 13.1912 409.579C14.9441 412.074 16.0204 412.658 16.0204 411.113C16.0204 409.805 12.6079 399.846 8.6797 389.689C6.779 384.775 4.43256 377.747 3.46601 374.072C2.49945 370.397 1.32652 366.434 0.859729 365.266C0.39294 364.098 0.0950133 362.568 0.197923 361.865C0.307087 361.12 1.40155 363.767 2.82807 368.226C8.8588 387.076 15.9329 407.033 15.9829 405.339C16.0034 404.65 15.6366 402.612 15.1676 400.808C14.6985 399.005 14.4364 397.137 14.5859 396.655C14.7349 396.173 14.6115 395.395 14.3102 394.926C13.8553 394.216 13.7524 394.264 13.6984 395.21C13.5898 397.1 12.7324 393.879 12.6659 391.332C12.6346 390.138 12.3202 388.62 11.9666 387.959C11.6135 387.298 11.1183 385.33 10.8669 383.586C10.6156 381.842 9.74407 378.11 8.93046 375.293C7.48745 370.298 7.45617 369.837 7.6546 356.515C7.84222 343.93 7.9582 342.611 9.13569 339.727C9.83843 338.006 10.7493 335.691 11.1592 334.584C11.5697 333.476 12.8063 330.779 13.9076 328.591C15.0089 326.402 16.1972 323.543 16.5486 322.237C16.9 320.931 17.7943 319.141 18.5357 318.259C20.6496 315.744 22.3644 312.071 23.2099 308.245C25.6297 297.303 26.2687 290.725 25.7354 282.253C25.2697 274.855 24.8189 273.068 22.5787 269.734C21.8425 268.638 20.4103 265.719 19.3954 263.248C16.2552 255.599 8.68822 245.657 4.26482 243.368L2.54265 242.476L1.60624 247.712C1.09113 250.591 0.582243 253.843 0.475922 254.938C0.369601 256.034 0.245663 252.705 0.200179 247.54C0.155262 242.376 0.305946 238.414 0.535645 238.737C1.42829 239.988 6.92399 243.517 6.93252 242.845C6.94275 242.015 11.3872 246.778 13.7496 250.15C15.3739 252.469 21.3848 264.119 23.0467 268.169C23.5282 269.343 24.2247 270.303 24.5949 270.303C24.965 270.303 27.7788 268.508 30.8479 266.315C33.9176 264.122 38.5485 261.268 41.1394 259.974C47.0383 257.028 48.6064 255.869 50.4348 253.104L51.8921 250.9L46.5658 244.81C38.0613 235.086 26.9845 217.826 23.6653 209.129C23.1314 207.729 22.3445 206.294 21.9164 205.938C21.4877 205.582 21.1375 204.938 21.1375 204.507C21.1375 204.076 20.9459 203.737 20.711 203.754C20.0379 203.803 13.4426 214.547 12.3657 217.347C11.3764 219.92 9.71337 222.62 8.10149 224.271C7.61026 224.775 5.67259 227.312 3.79634 229.91L0.384968 234.633L0.207015 232.197C0.0512291 230.069 0.446379 229.085 3.3341 224.408C5.15179 221.463 7.79048 217.075 9.19767 214.657C10.6049 212.239 12.2531 209.494 12.8598 208.557C13.467 207.619 15.3739 204.676 17.0972 202.016C18.8211 199.356 21.2893 195.899 22.5827 194.334C25.9338 190.279 28.5288 186.313 28.5288 185.246C28.5288 184.12 30.2242 180.74 32.4376 177.451C33.3507 176.095 35.2435 172.809 36.6438 170.149C42.5768 158.882 45.556 153.482 46.3282 152.597C46.7807 152.078 49.3569 147.374 52.053 142.142C59.4977 127.695 61.9749 123.728 67.7908 116.942C69.6687 114.751 72.2511 111.678 73.5292 110.113C77.1675 105.661 79.6532 103 80.1751 103C80.4384 103 80.9228 102.424 81.2509 101.72C81.5795 101.016 83.2465 98.9031 84.9562 97.0252C86.6653 95.1473 89.6497 91.1781 91.5885 88.2048C93.5273 85.2315 95.4234 82.5427 95.8015 82.2297C96.6049 81.5651 100.601 75.549 104.371 69.3275C105.826 66.9261 108.482 63.2972 110.273 61.2634C113.897 57.1474 115.146 56.732 118.233 58.6162C119.257 59.241 120.504 59.752 121.004 59.752C122.917 59.752 139.074 70.7177 151.054 80.1475C160.524 87.6016 183.729 112.702 184.689 116.53C185.109 118.203 182.577 125.22 180.331 128.608C179.398 130.016 178.633 131.356 178.631 131.586C178.63 131.815 177.468 134.423 176.049 137.381C173.623 142.44 167.757 150.884 163.563 155.353C162.535 156.449 160.083 159.906 158.113 163.036C153.592 170.221 152.33 171.869 145.534 179.465C141.887 183.543 138.742 187.812 136.311 191.985C134.282 195.468 131.588 199.406 130.325 200.737C129.061 202.068 128.029 203.348 128.031 203.582C128.033 203.816 128.899 206.312 129.954 209.129C131.01 211.946 132.198 216.093 132.594 218.345L133.315 222.439L135.077 222.099C136.047 221.911 137.991 220.983 139.398 220.035C142.085 218.226 152.241 209.253 153.484 207.591C153.882 207.058 155.74 205.546 157.614 204.231C159.487 202.916 161.585 200.919 162.275 199.794C162.966 198.669 165.841 195.29 168.664 192.285C174.123 186.474 178.137 179.871 177.031 178.523C176.227 177.541 176.167 147.614 176.956 141.055C177.575 135.91 179.046 132.329 182.3 128.039C182.943 127.19 185.026 122.092 185.729 119.645C186.265 117.779 188.027 118.038 191.182 120.446C193.877 122.504 196.895 125.713 204.475 134.583C206.615 137.087 208.647 139.391 208.991 139.704C209.334 140.017 212.01 142.898 214.937 146.106C217.864 149.314 220.517 151.939 220.831 151.939C221.146 151.939 220.542 150.956 219.489 149.754C218.437 148.553 216.211 145.801 214.543 143.637C212.876 141.474 208.888 136.888 205.683 133.445C202.477 130.002 196.769 123.728 193 119.503C185.943 111.593 164.63 90.4236 156.62 83.3678C154.133 81.177 148.562 76.8237 144.241 73.6939C139.919 70.5641 133.799 65.6986 130.64 62.8818C127.481 60.065 123.184 56.7645 121.091 55.5478L117.286 53.3353L120.314 49.7622C123.697 45.772 124.478 43.2431 125.753 32.1528C126.846 22.6439 126.757 22.9563 128.566 22.2063C130.089 21.5752 130.445 21.6947 133.243 23.7797C134.908 25.0214 136.847 26.3336 137.55 26.6961C139.735 27.8223 139.111 25.9546 136.698 24.1428C134.84 22.748 131.801 20.0302 127.072 15.5335C126.187 14.6925 125.753 13.63 125.753 12.3081C125.753 11.2241 125.582 9.8902 125.372 9.3439C125.094 8.61836 125.192 8.47439 125.734 8.81013C126.33 9.17888 126.424 8.35375 126.209 4.63554C125.954 0.232183 126 0.00114632 127.126 8.21121e-06C128.241 -0.00169896 128.3 0.258929 128.126 4.41019ZM123.594 3.84227C123.965 10.552 122.823 10.688 117.614 4.55359C113.036 -0.836504 113.901 -1.71171 118.598 3.55775C120.396 5.57619 121.796 6.74503 121.834 6.26076C121.87 5.79129 121.955 4.63895 122.023 3.70001C122.264 0.368756 122.347 0.00114632 122.862 0.00114632C123.148 0.00114632 123.477 1.72937 123.594 3.84227ZM110.79 3.84227C112.405 5.95518 115.398 9.53625 117.44 11.8005C119.484 14.0654 121.453 16.4981 121.815 17.2066C122.815 19.1573 117.047 13.4218 113.098 8.53698C111.2 6.18963 108.741 3.30907 107.634 2.13511C105.922 0.319249 105.789 0.00114632 106.738 0.00114632C107.448 0.00114632 108.926 1.40216 110.79 3.84227ZM89.6662 4.69586C89.0532 12.1624 88.251 16.5755 87.0041 19.3394C86.3668 20.7535 84.9983 24.7266 83.9623 28.1694C79.9961 41.3544 77.3119 47.4337 73.2813 52.3566C71.8736 54.0768 69.1422 58.5963 67.2125 62.4004L63.7034 69.3167L65.6501 72.0743C68.9137 76.6962 72.1857 82.6019 73.6583 86.5278C75.4407 91.2805 77.5348 95.6025 78.0556 95.6025C78.5315 95.6025 87.2151 86.4146 89.0811 83.9369C89.7884 82.9979 91.3986 80.3092 92.6596 77.9618C93.9207 75.6144 96.2546 71.5172 97.8466 68.8569C99.438 66.1966 101.636 62.2274 102.729 60.0365C104.386 56.7161 105.955 54.8752 112.149 48.9786C116.237 45.088 120.076 40.9322 120.682 39.744C121.582 37.9788 121.839 35.9495 122.088 28.6309C122.256 23.7063 122.492 19.5778 122.614 19.456C122.735 19.3342 123.127 19.4162 123.485 19.6376C123.954 19.9278 124.031 22.3667 123.76 28.3726C123.266 39.311 122.565 40.8702 114.698 48.5393C111.553 51.6054 108.279 54.5395 107.423 55.0601C106.428 55.6645 105.548 56.9631 104.988 58.6515C104.505 60.106 102.681 63.7018 100.934 66.6416C99.1878 69.5813 96.8704 73.8953 95.7839 76.2285C92.6733 82.908 86.9587 90.4862 80.9638 95.8802C77.4119 99.0766 77.1874 99.0669 67.0511 95.2884C54.516 90.6159 47.9548 87.6215 19.4318 73.5579C4.63781 66.2631 0.116052 63.6734 0.107524 62.4897C0.101269 61.5952 0.288881 61.5912 2.80135 62.4323C4.28644 62.9296 6.26391 63.8697 7.19521 64.5207C8.8719 65.6935 17.916 70.4082 31.0873 76.9762C34.8398 78.8478 39.9887 81.6299 42.529 83.1596C45.0694 84.6892 48.5234 86.4174 50.2046 87.0012C51.8858 87.5845 56.0755 89.2706 59.5153 90.7485C66.0942 93.5744 75.6813 96.9683 76.048 96.6012C76.5739 96.0748 71.0532 83.3263 68.3161 78.7471C63.3543 70.4451 60.1681 66.8954 54.114 62.9239C41.774 54.8291 30.7461 48.7516 23.6118 46.1146C21.1562 45.2069 17.8682 43.8412 16.3047 43.0792C13.4619 41.6947 4.48146 38.9092 1.81206 38.5848C1.0337 38.4898 0.319567 38.009 0.225754 37.5156C0.0779282 36.7377 0.530532 36.6796 3.63147 37.0757C9.36768 37.8081 17.4844 40.5014 24.0337 43.8458C26.0538 44.8775 26.4052 44.9053 27.8209 44.1457C31.4665 42.1898 36.376 35.3839 38.2119 29.7411C38.901 27.6248 40.1848 24.7408 41.0661 23.3324C43.6974 19.1248 47.3601 8.55292 48.1316 2.93577C48.458 0.562805 48.744 0.00114632 49.6258 0.00114632C50.5838 0.00114632 50.6742 0.294779 50.3712 2.41963C49.4296 9.0241 44.6867 22.1107 41.8644 25.8932C41.1633 26.8321 39.7607 29.6108 38.7469 32.0674C36.6973 37.0353 34.1058 40.7973 30.6143 43.8742L28.2911 45.9211L32.9596 48.277C42.6109 53.1481 56.4298 62.0527 60.7798 66.204L63.1809 68.4956L65.0958 64.2658C66.1482 61.94 67.4798 58.7562 68.054 57.1913C68.6288 55.6264 70.426 52.4254 72.0487 50.0781C73.672 47.7307 75.4106 45.0038 75.9127 44.0188C77.5314 40.8429 81.3794 28.7026 82.5097 23.2067C83.1129 20.2698 84.1352 16.5265 84.7805 14.8882C85.701 12.55 85.9534 10.6283 85.9534 5.95518V0.00114632H88.0025H90.0516L89.6662 4.69586ZM130.594 25.3241C131.225 25.9501 133.491 28.0545 135.631 30.0001L139.522 33.5379L140.31 37.9668C141.997 47.4541 141.967 46.9005 140.765 46.4219C138.913 45.6838 129.172 44.19 128.779 44.5833C128.077 45.286 129.141 45.6889 133.841 46.5015C136.429 46.9483 138.929 47.6539 139.398 48.0682C139.867 48.483 140.763 48.916 141.388 49.0304C142.317 49.2 142.59 49.8374 142.877 52.5091C143.337 56.7787 147.359 65.0863 151.344 69.995C153.886 73.1277 158.161 80.8509 158.161 82.3134C158.161 82.5569 156.946 81.577 155.46 80.1356C153.974 78.6942 149.433 75.137 145.368 72.2308C141.303 69.3241 135.494 64.8343 132.459 62.2536C129.425 59.6723 125.26 56.6194 123.205 55.4693L119.469 53.378L123.146 49.4766C127.561 44.7915 128.005 43.4622 128.067 34.7136C128.094 31.1143 128.415 27.2731 128.781 26.1777L129.448 24.186L130.594 25.3241ZM145.652 31.3806C147.372 32.2256 149.455 33.0798 150.282 33.2784C152.009 33.6927 155.6 36.8077 158.169 40.1196C162.458 45.6474 172.814 55.541 176.204 57.3495C178.106 58.3641 181.669 60.6454 184.121 62.4186C186.573 64.1912 190.114 66.6621 191.99 67.9089C193.866 69.1557 196.403 71.0694 197.629 72.1614C202.342 76.3639 220.243 83.4333 231.789 85.6526C237.951 86.8368 252.741 87.3461 256.806 86.5141C265.252 84.7859 275.707 80.1749 284.885 74.1315C290.365 70.5225 299.236 65.3248 299.486 65.5757C299.58 65.6691 296.411 69.0874 292.445 73.1721C288.479 77.2573 282.769 83.1863 279.757 86.3485C273.202 93.229 270.653 94.7461 266.514 94.2311C255.78 92.8967 253.801 92.8341 247.141 93.6171C243.388 94.0581 238.94 94.6852 237.256 95.0107C235.571 95.3362 233.012 95.6116 231.57 95.6224C230.127 95.6333 226.9 96.035 224.398 96.5147C216.49 98.0313 204.617 98.5195 199.381 97.5424C186.542 95.1473 173.657 91.132 168.773 88.0051C164.774 85.4449 160.939 80.6728 158.185 74.832C157.005 72.3281 154.733 68.656 153.137 66.6717C148.988 61.5132 145.786 54.5804 145.079 49.2245C144.831 47.3466 144.079 43.2778 143.407 40.1822C142.735 37.0871 142.261 33.4946 142.355 32.1995L142.525 29.8441L145.652 31.3806ZM116.656 59.6183C119.629 60.5988 123.278 62.6269 127.743 65.7823C149.299 81.0136 151.743 83.085 171.578 102.941C181.383 112.756 184.889 117.271 183.761 118.631C183.453 119.003 182.54 121.063 181.733 123.207C180.926 125.352 179.552 128.021 178.679 129.138C177.806 130.255 175.69 133.601 173.978 136.575C172.266 139.548 168.497 144.925 165.601 148.525C162.706 152.124 159.684 156.221 158.885 157.63C156.064 162.603 150.615 170.306 146.029 175.803C143.476 178.862 139.469 184.374 137.124 188.051C131.834 196.345 129.797 199.109 128.208 200.152C127.027 200.926 126.936 200.86 126.333 198.788C125.281 195.175 124.599 183.674 125.373 182.599C128.506 178.247 134.816 170.053 136.275 168.442C137.267 167.346 138.807 165.17 139.696 163.605C140.586 162.04 143.121 158.808 145.331 156.423C151.051 150.247 156.508 143.702 157.752 141.522C158.339 140.494 160.013 138.897 161.471 137.974C162.93 137.05 165.336 135.217 166.819 133.899C169.328 131.668 173.775 129.746 176.424 129.746C176.974 129.746 177.583 129.49 177.776 129.177C178.232 128.439 178.031 128.45 172.7 129.471C168.594 130.257 164.417 132.347 164.414 133.616C164.413 133.835 163.237 134.757 161.801 135.666C159.029 137.418 159.081 137.431 157.485 134.583C157.134 133.957 155.991 132.394 154.946 131.11C153.9 129.827 151.386 125.345 149.359 121.152C143.571 109.175 138.801 100.363 134.681 94.0319C132.591 90.8213 130.147 86.7241 129.25 84.927C127.349 81.1195 124.883 73.2181 124.326 69.1488C123.963 66.5027 122.524 62.7936 122.045 63.2728C121.802 63.5169 124.247 75.6776 125.06 78.2628C126.171 81.7989 129.436 88.6834 132.894 94.7854C134.858 98.2475 137.546 103.241 138.869 105.882C140.192 108.522 142.023 111.781 142.938 113.124C143.853 114.467 145.797 118.053 147.259 121.093C150.255 127.326 151.779 129.912 154.873 134.014C156.053 135.579 157.02 137.343 157.021 137.934C157.022 138.525 155.553 140.783 153.754 142.951C151.956 145.119 149.59 148.135 148.495 149.653C147.401 151.171 145.047 154.049 143.265 156.048C141.483 158.046 139.18 161.115 138.148 162.865C137.115 164.616 135.205 167.547 133.901 169.379C130.96 173.514 124.397 180.514 124.911 178.969C125.119 178.343 125.55 175.27 125.868 172.141C126.186 169.011 127.186 162.798 128.09 158.334C129.78 149.984 130.374 139.193 129.427 134.014C128.493 128.899 125.857 119.079 124.945 117.314C124.409 116.276 122.868 112.522 121.523 108.972C117.071 97.23 113.819 92.5274 106.754 87.6221C104.539 86.0834 102.041 83.9585 101.205 82.8995L99.6836 80.9744L102.509 76.7651C104.064 74.4502 106.224 70.9857 107.311 69.0663C109.39 65.3948 113.281 60.6318 114.866 59.818C115.381 59.5534 116.187 59.4635 116.656 59.6183ZM96.7561 85.8313C96.7561 86.5232 95.648 89.3247 94.2937 92.0573C92.9394 94.7894 91.3724 98.5235 90.8112 100.354C89.8578 103.467 89.6946 103.664 88.2988 103.383C85.8522 102.892 83.6792 101.928 83.6792 101.336C83.6792 101.03 84.7993 99.8431 86.1689 98.6976C89.0015 96.3275 91.7983 92.813 94.7337 87.9345C96.187 85.5189 96.7561 84.927 96.7561 85.8313ZM170.669 91.9924C175.71 94.5936 187.767 98.2902 195.686 99.6627C200.583 100.511 204.143 100.751 209.871 100.618L217.519 100.44L222.226 109.829C235.359 136.027 240.098 146.398 242.074 153.267C243.169 157.075 244.215 161.385 244.397 162.846L244.729 165.502L242.523 166.115C241.311 166.452 240.062 166.735 239.749 166.744C239.437 166.753 238.541 167.26 237.759 167.873C236.978 168.485 236.137 168.991 235.891 168.998C235.645 169.005 234.969 167.901 234.388 166.544C233.282 163.961 227.515 156.713 220.051 148.525C217.626 145.864 214.615 142.309 213.36 140.625C211.224 137.758 205.232 130.986 192.185 116.696C189.166 113.389 182.115 106.009 176.517 100.297C170.919 94.5856 166.482 89.9512 166.656 89.9985C166.831 90.0463 168.636 90.9437 170.669 91.9924ZM4.93346 97.485C15.6781 101.46 25.7434 104.688 30.3334 105.629C35.0422 106.595 35.6335 106.596 43.4103 105.65C51.4418 104.673 60.1243 103.165 67.0238 101.55C68.9643 101.096 71.3664 100.724 72.362 100.724C73.4275 100.724 74.4753 100.314 74.9074 99.7282C75.4288 99.0226 75.8217 98.9087 76.2572 99.3372C77.0009 100.07 76.1242 102.996 74.3935 105.561C72.7742 107.961 65.7832 116.314 62.1432 120.2C58.1161 124.497 56.3883 126.889 56.3883 128.166C56.3883 129.662 53.2697 135.674 50.2552 139.989C46.6016 145.217 42.2157 153.093 39.7408 158.866C38.5775 161.581 37.6257 163.98 37.6257 164.198C37.6257 164.894 33.5003 171.506 31.9089 173.362C30.1946 175.36 27.6731 180.412 26.5865 184.026C26.1942 185.332 23.3514 190.362 20.2704 195.204C17.1888 200.046 13.546 205.903 12.1758 208.219C10.8055 210.535 8.24191 214.376 6.47937 216.755C4.71626 219.133 2.56428 222.36 1.69779 223.925L0.121162 226.77L0.110924 223.607C0.100122 220.188 0.0534901 220.284 7.31459 208.845C9.20221 205.871 11.684 201.774 12.8296 199.74C13.9753 197.705 16.5725 193.624 18.6011 190.669C20.6303 187.714 22.9347 183.888 23.7227 182.166C24.5107 180.443 27.0602 176.159 29.3884 172.644C31.7167 169.13 34.9211 163.739 36.5091 160.664C38.0971 157.589 39.8744 154.56 40.4577 153.932C41.0417 153.306 42.1771 151.037 42.981 148.891C43.7855 146.744 46.1496 142.391 48.2351 139.217C50.32 136.042 52.9217 131.78 54.0162 129.746C58.032 122.28 59.9202 119.608 68.0881 109.829C71.6524 105.562 73.4451 103.031 73.4451 102.267C73.4451 102.136 72.1022 102.379 70.4602 102.807C59.0571 105.781 38.4013 109.041 34.9455 108.411C33.2097 108.094 33.0448 108.224 31.6354 111.008C29.5522 115.122 20.0646 125.018 13.3584 130.07C10.747 132.037 1.40667 137.144 0.41908 137.144C-0.687909 137.144 0.498112 135.824 2.80135 134.494C11.3537 129.552 15.3268 126.507 21.8152 119.915C31.5023 110.076 32.9914 107.553 29.1104 107.553C27.3046 107.553 17.7727 104.658 10.3348 101.851C7.67677 100.848 4.47861 99.6536 3.22777 99.1973C0.523697 98.2117 -0.072152 97.7052 0.189386 96.6166C0.346878 95.9605 1.27022 96.1295 4.93346 97.485ZM189.988 121.542C192.816 124.089 197.198 128.653 199.847 131.809C205.363 138.383 210.657 144.032 216.931 150.038C224.149 156.948 225.188 158.289 229.241 165.9C232.098 171.266 239.002 181.477 243.363 186.787C245.128 188.936 247.666 192.026 249.003 193.652C250.34 195.279 251.77 197.749 252.181 199.14C252.949 201.742 254.248 202.94 254.248 201.046C254.248 200.46 253.764 199.03 253.172 197.868C252.58 196.707 252.319 195.756 252.591 195.756C253.216 195.756 255.608 200.243 255.718 201.62C255.764 202.185 256.603 203.432 257.583 204.391C258.563 205.35 259.365 206.595 259.365 207.157C259.365 207.72 259.557 208.266 259.791 208.371C260.569 208.717 266.077 218.184 267.279 221.243C267.929 222.897 268.462 224.88 268.462 225.648C268.462 227.488 270.709 233.975 274.862 244.126C276.719 248.664 278.964 254.554 279.849 257.214C283.828 269.157 290.147 286.387 292.843 292.642C293.485 294.131 294.383 297.46 294.839 300.04C295.812 305.543 298.569 314.509 302.235 324.099C303.675 327.866 305.468 333.628 306.219 336.903C307.908 344.273 313.322 365.353 313.67 365.917C313.811 366.144 314.196 368.859 314.525 371.95C314.856 375.041 315.622 380.901 316.228 384.973C317.654 394.557 318.077 432.29 316.803 436.328C316.382 437.66 315.931 438.642 315.799 438.511C315.668 438.38 315.446 436.649 315.308 434.666C315.169 432.683 314.678 429.114 314.217 426.735C313.755 424.356 313.24 419.618 313.073 416.207C312.775 410.142 311.646 402.62 310.462 398.82C310.137 397.774 309.666 393.827 309.418 390.05C308.95 382.944 308.297 380.792 305.974 378.707C305.278 378.081 303.861 375.832 302.825 373.708C301.789 371.584 299.651 368.204 298.075 366.195C294.284 361.368 289.793 353.234 285.167 342.817C283.092 338.145 280.117 331.505 278.555 328.062C270.856 311.083 266.857 301.597 266.198 298.755C265.8 297.034 264.887 293.449 264.17 290.789C261.216 279.83 258.796 268.557 258.796 265.754C258.796 264.111 257.999 259.405 257.025 255.296C255.225 247.704 254.91 242.933 255.95 239.005C256.667 236.296 256.753 232.488 256.265 225.063C256.039 221.62 255.883 218.163 255.919 217.38C256.428 206.407 256.217 203.723 254.843 203.723C254.568 203.723 254.129 204.349 253.868 205.114L253.395 206.505L247.709 202.926C244.582 200.959 240.233 198.309 238.044 197.039C235.855 195.769 232.06 193.146 229.611 191.211C227.162 189.276 225.028 187.823 224.868 187.983C223.573 189.279 231.478 196.309 237.759 199.447C240.789 200.96 250.829 207.062 251.405 207.74C251.561 207.923 252.137 208.239 252.684 208.442C253.232 208.644 253.682 209.393 253.686 210.107C253.69 210.821 253.78 216.783 253.885 223.356C254.052 233.664 253.934 235.814 253.026 239.003C252.447 241.036 251.973 244.341 251.973 246.348V249.995L249.094 245.891C247.51 243.633 244.116 239.56 241.553 236.839C236.856 231.854 225.296 218.639 220.875 213.202C219.563 211.588 217.839 209.468 217.045 208.491C215.853 207.025 215.496 205.734 215 201.094C214.669 198.001 214.148 193.217 213.841 190.462C213.533 187.706 213.427 185.217 213.604 184.93C213.927 184.408 219.785 186.301 221.122 187.36C221.509 187.666 222.276 187.742 222.827 187.528C223.766 187.164 223.76 187.088 222.729 186.328C222.123 185.883 219.548 184.883 217.006 184.107C212.596 182.76 212.296 182.561 210.491 179.772C209.45 178.165 207.722 175.701 206.652 174.297C205.581 172.893 204.87 171.579 205.072 171.377C205.437 171.012 207.059 172.686 212.421 178.969C215.338 182.387 219.132 184.611 221.436 184.253C222.37 184.108 221.952 183.803 219.806 183.066C216.767 182.02 214.357 179.852 212.177 176.202L210.865 174.004L212.799 174.424C213.862 174.656 216.447 175.423 218.542 176.13C220.637 176.836 222.492 177.273 222.664 177.101C224.022 175.742 220.286 173.673 213.726 172.15C211.722 171.685 207.419 170.051 204.164 168.519C192.055 162.819 189.374 161.613 188.819 161.613C187.829 161.613 184.107 159.487 182.069 157.758L180.107 156.095V145.589C180.107 134.541 180.46 132.536 182.872 129.903C183.509 129.207 184.624 127.03 185.35 125.066C186.075 123.102 186.859 121.004 187.092 120.404C187.477 119.41 187.73 119.509 189.988 121.542ZM122.778 153.077C122.778 154.173 122.661 154.62 122.518 154.073C122.375 153.526 122.375 152.629 122.518 152.081C122.661 151.534 122.778 151.982 122.778 153.077ZM230.058 161.979C231.166 163.433 232.074 164.934 232.074 165.315C232.074 166.732 236.637 174.823 239.058 177.699C240.436 179.337 242.599 182.223 243.866 184.113C245.132 186.004 246.579 187.892 247.081 188.309C247.583 188.726 247.993 189.336 247.993 189.666C247.993 191.212 241.977 183.956 236.217 175.463C233.907 172.056 227.251 159.337 227.779 159.337C227.923 159.337 228.949 160.526 230.058 161.979ZM272.726 167.895C274.915 168.129 277.601 168.616 278.696 168.979C279.79 169.341 283.631 170.378 287.23 171.284C290.83 172.19 295.691 173.74 298.033 174.727C300.375 175.714 305.745 177.741 309.967 179.229C314.188 180.718 320.712 183.021 324.465 184.346C338.433 189.279 351.766 193.48 353.451 193.48C355.432 193.48 358.368 194.68 358.133 195.394C357.807 196.389 352.863 196.513 351.356 195.565C350.365 194.942 347.841 194.735 340.901 194.708C332.081 194.674 324.348 193.794 312.525 191.476C310.336 191.048 305.347 190.28 301.438 189.771C289.336 188.195 258.76 188.574 251.121 190.396C250.263 190.6 249.684 190.139 248.763 188.517C248.092 187.334 245.085 183.089 242.082 179.082C239.079 175.076 236.622 171.458 236.622 171.043C236.622 170.56 238.761 169.753 242.575 168.796C247.981 167.441 249.456 167.311 258.637 167.387C264.197 167.433 270.537 167.662 272.726 167.895ZM231.465 171.714C231.402 172.376 224.018 177.641 223.658 177.28C223.209 176.831 226.928 173.061 228.776 172.092C230.468 171.205 231.527 171.056 231.465 171.714ZM211.158 183.237C211.334 183.707 211.78 186.267 212.148 188.928C212.516 191.588 213.056 194.994 213.349 196.496C213.641 197.998 213.888 200.431 213.898 201.902C213.921 205.12 215.438 209.757 217.212 212.026C217.923 212.937 219.575 215.128 220.883 216.895C224.125 221.275 233.003 232.537 234.911 234.689C235.766 235.655 238.073 238.236 240.036 240.427C243.912 244.75 248.632 251.198 250.242 254.369C250.798 255.465 251.955 258.922 252.811 262.051C253.668 265.181 254.884 269.534 255.514 271.725C257.147 277.404 257.723 282.394 257.943 292.78C258.05 297.788 258.411 305.47 258.746 309.852C259.081 314.234 259.357 324.94 259.36 333.644C259.364 348.426 259.273 349.87 257.969 355.553C255.976 364.236 252.234 373.199 246.9 382.064C245.374 384.6 242.226 390.132 239.904 394.357C234.926 403.414 224.859 421.384 223.698 423.286C222.486 425.27 222.211 424.384 223.26 421.875C223.765 420.668 225.181 415.839 226.407 411.144C227.633 406.449 229.52 399.279 230.601 395.21C232.813 386.883 235.679 373.128 236.923 364.869C238.592 353.785 237.801 345.222 233.473 327.52C231.072 317.701 229.958 309.516 229.246 296.479C228.89 289.956 228.187 283.969 227.21 279.123C226.042 273.336 225.611 268.998 225.228 259.206C224.527 241.26 222.788 227.915 220.062 219.55C218.876 215.911 216.706 211.517 216.297 211.926C216.174 212.05 216.591 213.903 217.222 216.045C220.153 225.981 222.115 240.902 222.748 258.068C223.044 266.108 223.482 270.024 224.785 276.278C225.95 281.872 226.603 287.152 226.977 294.006C227.656 306.468 229.289 318.075 231.809 328.347C235.691 344.168 235.754 344.587 235.739 354.238C235.725 362.651 235.541 364.252 233.316 375.293C231.992 381.866 229.657 391.981 228.126 397.771C226.596 403.561 224.834 410.347 224.212 412.851C223.59 415.355 222.762 418.172 222.371 419.111C221.687 420.757 221.635 420.646 220.904 415.981C219.427 406.544 219.399 404.108 220.68 396.403C221.352 392.364 222.242 388.395 222.658 387.582C226.457 380.169 226.928 371.431 223.995 362.778C223.358 360.898 219.647 352.83 215.747 344.849C211.848 336.868 207.437 327.263 205.946 323.504C204.455 319.746 202.592 315.392 201.806 313.83C201.021 312.268 199.658 308.942 198.777 306.438C197.242 302.071 197.167 301.363 196.945 289.082C196.644 272.508 197.148 268.297 201.672 249.532C203.03 243.898 204.564 236.984 205.08 234.168C205.596 231.351 207.019 226.052 208.243 222.394C209.467 218.735 210.476 214.894 210.485 213.858C210.494 212.822 210.978 210.226 211.562 208.089C212.835 203.421 212.726 195.281 211.307 189.036C210.46 185.308 210.351 181.092 211.158 183.237ZM228.284 186.963C229.482 187.403 231.785 187.923 233.401 188.118C235.016 188.314 237.873 188.86 239.749 189.332C241.626 189.804 243.736 190.194 244.44 190.199C246.011 190.21 246.073 190.709 244.617 191.619C243.716 192.182 243.044 192.101 240.955 191.175C239.547 190.552 236.294 189.778 233.727 189.456C228.794 188.837 225.251 187.677 225.251 186.68C225.251 185.936 225.567 185.966 228.284 186.963ZM209.9 189.136C209.9 189.648 209.652 190.066 209.349 190.066C209.047 190.066 207.781 191.416 206.536 193.067L204.272 196.068L204.87 200.322C205.53 205.025 205.146 217.353 204.289 218.934C202.797 221.688 197.684 224.898 191.275 227.105C186.718 228.674 179.191 233.871 173.442 239.419C165.362 247.214 160.506 253.617 155.408 263.196C149.183 274.889 147.38 278.081 147.368 277.425C147.359 276.89 148.836 272.976 155.753 255.223C157.46 250.841 159.826 245.207 161.01 242.703C162.194 240.2 164.588 235.12 166.33 231.416C169.929 223.767 174.108 218.64 178.699 216.242C180.198 215.46 183.162 213.392 185.286 211.647C187.409 209.902 190.81 207.543 192.843 206.405C196.44 204.392 203.646 197.666 203.646 196.323C203.646 195.955 201.791 197.3 199.524 199.312C197.256 201.325 194.25 203.587 192.843 204.341C189.48 206.14 184.954 209.452 183.177 211.411C182.396 212.273 180.093 214.067 178.06 215.398C176.028 216.729 173.31 218.936 172.021 220.302C169.157 223.338 165.547 229.514 163.583 234.737C162.777 236.878 161.891 238.907 161.612 239.244C160.014 241.184 152.964 258.7 147.551 274.176C146.751 276.463 145.983 278.221 145.845 278.082C145.706 277.943 146.352 274.408 147.28 270.225C148.207 266.043 149.259 260.572 149.616 258.068C149.973 255.564 150.867 250.699 151.601 247.256C152.336 243.813 153.234 238.82 153.597 236.159C154.829 227.135 155.314 225.169 156.95 222.553C157.849 221.116 159.449 218.286 160.505 216.265C163.189 211.125 167.642 206.551 174.024 202.38C178.735 199.3 180.338 198.594 185.736 197.217C194.945 194.869 199.057 194.152 201.46 194.475C203.472 194.745 203.801 194.559 206.752 191.484C208.708 189.447 209.9 188.558 209.9 189.136ZM210.497 194.191C210.514 195.834 210.729 198.972 210.976 201.162C211.35 204.482 211.246 205.567 210.353 207.671C209.763 209.06 209.129 211.364 208.945 212.792C208.279 217.942 207.822 216.746 207.723 209.592C207.668 205.582 207.356 200.822 207.029 199.015C206.459 195.874 206.503 195.631 208.025 193.479C208.9 192.241 209.807 191.223 210.042 191.216C210.277 191.21 210.481 192.549 210.497 194.191ZM294.528 192.373C295.888 192.647 300.238 193.142 304.194 193.473C308.151 193.804 312.795 194.308 314.515 194.594C328.663 196.941 329.53 197.012 339.73 196.641C347.915 196.344 349.832 196.415 349.639 197.01C349.507 197.416 347.883 198.09 346.029 198.508C344.176 198.926 340.959 199.771 338.881 200.386C336.803 201.001 332.965 201.733 330.352 202.012C324.887 202.596 319.465 204.566 316.2 207.154C314.953 208.142 312.592 209.309 310.955 209.747C307.444 210.684 296.246 211.679 283.529 212.183L274.432 212.544L271.137 210.371C269.325 209.176 266.201 206.971 264.196 205.471C262.191 203.971 259.813 202.438 258.911 202.064C257.958 201.669 256.862 200.527 256.297 199.339C255.761 198.215 254.439 196.216 253.36 194.898L251.397 192.5L254.954 192.164C260.435 191.648 291.744 191.813 294.528 192.373ZM23.5789 202.059C24.1122 203.291 24.5488 204.454 24.5488 204.642C24.5488 205.284 28.1387 212.54 29.584 214.82C30.3777 216.072 31.7036 218.376 32.5309 219.941C37.6206 229.574 40.1888 232.86 54.9703 248.658C60.6917 254.772 66.3278 260.927 67.4951 262.336C70.2981 265.717 76.5437 275.281 77.5973 277.804C78.0561 278.903 79.2928 280.336 80.3446 280.988C81.397 281.641 84.7128 284.688 87.7131 287.762C96.1944 296.449 102.072 305.03 104.987 312.982C110.635 328.386 120.028 343.389 132.778 357.368C136.994 361.991 140.558 367.426 143.516 373.743C145.606 378.209 148.677 386.959 148.153 386.959C148.032 386.959 146.113 383.31 143.888 378.85C140.882 372.825 138.792 369.498 135.758 365.904C133.512 363.244 129.818 358.566 127.548 355.509C125.277 352.453 120.939 347.459 117.906 344.413C112.255 338.736 110.386 336.45 102.917 326.07C98.6625 320.158 95.5024 314.464 92.4942 307.291C87.7365 295.947 83.4091 288.215 78.4825 282.253C77.3187 280.844 75.0337 277.003 73.4047 273.717C69.9439 266.735 66.0413 261.707 59.2749 255.513C56.593 253.058 53.119 249.451 51.5555 247.497C49.9919 245.544 47.0024 242.096 44.9118 239.837C42.8212 237.576 40.1735 234.261 39.0278 232.468C37.8822 230.676 36.1156 228.276 35.1019 227.136C34.0887 225.996 32.2932 223.147 31.1117 220.805C29.9303 218.464 28.1359 215.253 27.1244 213.67C26.1124 212.087 24.9553 209.777 24.5534 208.537C24.1514 207.298 23.3463 205.604 22.7641 204.774C21.685 203.233 21.3433 200.6 22.1575 200.097C22.4054 199.943 23.045 200.826 23.5789 202.059ZM113.813 230.968C113.813 231.252 113.133 231.654 112.302 231.863C111.47 232.072 108.648 234.402 106.029 237.04C101.729 241.374 99.0014 243.148 98.0723 242.219C97.887 242.033 98.4692 241.602 99.3664 241.261C100.264 240.92 101.139 240.465 101.313 240.249C101.486 240.034 103.41 238.141 105.588 236.042C109.208 232.553 113.813 229.713 113.813 230.968ZM57.6687 256.574C62.2473 261.231 63.186 262.643 60.5103 260.85C57.5686 258.877 53.9219 257.214 52.538 257.214C51.1427 257.214 44.1551 261.23 34.2144 267.745C27.3467 272.245 25.2828 273.307 24.8291 272.573C24.6352 272.259 24.9406 271.833 25.508 271.627C26.0748 271.421 28.4577 269.822 30.803 268.075C36.4795 263.844 40.3253 261.465 42.7428 260.689C44.872 260.006 49.2829 256.228 50.9534 253.658C51.5128 252.797 52.2616 252.093 52.617 252.093C52.9729 252.093 55.246 254.109 57.6687 256.574ZM75.1508 257.016C78.8811 257.37 83.3909 258.485 85.6692 259.618C89.2284 261.388 95.9931 266.757 97.8534 269.289C100.576 272.995 111.155 284.717 120.08 293.918C128.038 302.123 133.876 308.744 140.651 317.25C144.873 322.551 153.853 337.451 152.826 337.451C152.721 337.451 151.725 336.078 150.611 334.398C147.953 330.392 140.128 322.199 133.147 316.115C130.074 313.435 125.297 308.645 122.534 305.468C108.529 289.373 107.777 288.664 101.306 285.477C97.1564 283.434 94.6439 281.781 93.0616 280.056C83.7435 269.894 83.1288 269.354 77.8026 266.637C73.461 264.421 72.084 263.377 70.0025 260.723C68.6123 258.949 67.3899 257.307 67.2859 257.072C67.1022 256.659 71.081 256.631 75.1508 257.016ZM76.0036 281.32C77.7423 284.269 81.5403 289.9 82.0065 290.22C82.2345 290.376 83.8708 293.284 85.6419 296.682C87.4129 300.08 89.0868 303.281 89.3608 303.795C89.6355 304.309 91.8864 308.828 94.3636 313.835C100.849 326.946 104.361 331.758 117.205 345.134C120.812 348.889 125.042 353.836 126.606 356.125C128.169 358.415 131.262 362.384 133.478 364.945C135.695 367.507 138.723 371.78 140.208 374.44C142.898 379.258 145.829 385.835 145.453 386.21C145.345 386.318 144.274 384.803 143.074 382.842C134.664 369.099 125.278 360.723 108.762 352.219C103.055 349.28 99.687 346.06 94.9543 339.016C88.1435 328.877 81.7023 311.871 78.3046 295.057C77.7986 292.553 76.7371 288.789 75.945 286.693C75.1536 284.597 74.5868 282.096 74.6863 281.136L74.8665 279.391L76.0036 281.32ZM325.837 423.379C325.82 423.848 325.587 424.744 325.318 425.37L324.829 426.509L324.798 425.37C324.78 424.744 325.015 423.848 325.318 423.379C325.808 422.62 325.865 422.62 325.837 423.379Z" fill="white"/>
</svg>
