<svg width="360" height="442" viewBox="0 0 360 442" fill="none" xmlns="http://www.w3.org/2000/svg">
<path fill-rule="evenodd" clip-rule="evenodd" d="M231.874 4.41019C231.975 6.83608 232.295 9.0645 232.584 9.36212C233.655 10.4627 233.1 13.0604 231.377 15.0259C228.605 18.1848 217.119 25.6889 207.913 30.3563C204.627 32.0213 199.331 32.9643 193.136 32.9865C187.908 33.0052 185.292 33.2727 175.401 34.8012C170.99 35.4823 160.623 38.899 155.786 41.2651C151.242 43.4878 149.311 45.1136 145.559 49.8766C141.733 54.7324 136.264 59.8146 133.155 61.4023C124.042 66.0549 111.639 69.426 103.631 69.426C93.9451 69.426 80.6186 65.916 74.6169 61.7835C66.4745 56.1778 61.586 54.5087 56.3677 55.5535C53.55 56.1175 54.956 57.0405 57.9955 56.6216C61.3165 56.1647 62.1921 56.5767 69.3992 61.9941C75.232 66.3775 79.4843 68.38 89.0196 71.2327C94.5262 72.8801 96.0107 73.0924 102.057 73.0986C106.469 73.1032 110.552 72.7481 113.613 72.0931C118.478 71.0529 130.075 66.9699 134.316 64.8041C137.878 62.9854 144.102 57.8195 146.414 54.7642C149.335 50.9032 155.586 45.5046 159.292 43.6426C162.571 41.9952 165.948 40.9106 172.156 39.5107C174.124 39.0674 176.938 38.3419 178.41 37.8991C182.766 36.588 188.597 35.863 196.004 35.7105L202.96 35.5671L195.719 42.8471C187.631 50.9789 186.775 51.5986 165.507 64.7182C162.254 66.7247 158.416 69.3531 156.979 70.5589C155.541 71.7648 152.573 73.4429 150.384 74.2885C148.196 75.1336 145.509 76.1841 144.415 76.6222C143.32 77.0604 138.843 78.3249 134.465 79.4317C127.847 81.1047 124.827 81.54 116.555 82.014C111.083 82.3276 105.511 82.4442 104.173 82.2735C98.4896 81.5468 86.8045 76.6399 76.7558 70.7587C58.3173 59.9683 48.5995 55.2035 46.4759 55.912C46.1382 56.0247 47.0394 56.8077 48.4784 57.6516C49.9174 58.4961 51.2439 59.6553 51.4252 60.2283C52.0057 62.059 85.938 95.281 88.4028 96.4316C92.2098 98.2099 94.3186 98.4455 98.5175 97.5612C103.512 96.5096 114.571 96.5085 120.961 97.5584C123.697 98.0079 127.855 98.5093 130.201 98.6726C136.286 99.0971 139.843 99.6576 140.209 100.25C140.383 100.532 138.864 103.635 136.832 107.145C132.813 114.092 124.268 131.023 120.328 139.85C116.696 147.986 115.453 151.599 114.21 157.63C113.598 160.603 112.972 163.452 112.82 163.96C112.576 164.776 111.198 164.878 101.046 164.826C88.7428 164.763 83.3522 165.356 76.1872 167.559C73.8419 168.279 70.6437 169.049 69.0802 169.27C67.5167 169.49 64.3185 170.505 61.9732 171.525C56.4758 173.918 51.3326 175.812 43.2107 178.434C39.6145 179.595 32.4506 182.209 27.2909 184.243C13.4715 189.69 7.5232 191.773 5.78397 191.773C4.00153 191.773 0 194.285 0 195.405C0 195.927 3.60411 197.431 6.25417 198.014C12.4168 199.372 18.6915 201.044 21.321 202.03C24.5141 203.226 29.8148 204.574 33.32 205.08C36.5079 205.541 41.8421 208.024 44.8453 210.445C48.4903 213.385 56.0118 215.108 65.1003 215.084C71.3038 215.068 74.1882 214.829 81.8728 213.69L84.4314 213.31L82.4414 215.097C81.3469 216.08 75.974 220.454 70.5016 224.817C65.0292 229.181 59.1804 233.951 57.5049 235.418C51.3263 240.826 42.6165 253.867 36.9946 266.126C32.5717 275.771 32.2209 277.873 32.213 294.772C32.209 303.724 32.4666 310.612 32.8856 312.754C33.6918 316.878 32.8327 341.046 31.7143 345.703C30.6221 350.25 30.9616 399.756 32.155 410.006C32.6656 414.388 33.2876 418.997 33.5372 420.249L33.992 422.525L34.0528 419.703C34.0864 418.151 33.7072 413.549 33.2097 409.477C32.0009 399.576 32.3659 355.447 33.7373 345.703C34.6396 339.292 36.0576 316.673 35.6033 315.938C35.4646 315.713 35.1945 312.715 35.0035 309.276C34.813 305.837 34.3798 300.463 34.042 297.333C32.611 284.089 33.7555 277.251 39.2341 266.312C46.4543 251.897 57.0352 237.65 63.9631 233.015C68.4508 230.013 77.7638 222.847 82.6273 218.656C85.0744 216.546 88.4005 213.918 90.0186 212.816C91.6362 211.714 94.4375 209.694 96.2443 208.326C98.0507 206.959 99.6466 205.958 99.791 206.102C99.9355 206.247 99.4004 207.243 98.6022 208.317C95.5797 212.38 92.0478 219.675 90.8953 224.235C90.2415 226.823 87.9263 233.318 85.751 238.668C83.5757 244.017 80.6897 251.467 79.3376 255.223C77.9856 258.978 75.2889 266.277 73.345 271.441C68.6873 283.813 64.5402 296.375 63.4816 301.316C62.3393 306.65 59.069 317.534 56.3012 325.217C54.1702 331.13 51.0722 341.646 49.2499 349.151C48.7985 351.01 47.6375 355.476 46.6704 359.075C45.7032 362.675 44.5087 369.077 44.0157 373.302C43.5228 377.527 42.861 382.777 42.5454 384.967C41.4669 392.447 40.8164 430.817 41.6773 436.182L42.1338 439.028L41.0598 437.318C40.4691 436.378 38.9231 433.561 37.624 431.059C36.3254 428.556 35.2599 426.796 35.2565 427.149C35.2491 427.971 41.1832 439.821 42.3163 441.246C43.1527 442.298 43.2067 442.29 44.3256 440.962C45.7754 439.241 45.8926 438.732 46.676 430.776C47.0303 427.177 47.5306 422.44 47.7887 420.249C48.0463 418.058 48.2731 414.599 48.2925 412.563C48.3118 410.527 49.0953 405.193 50.0334 400.71C50.9715 396.228 51.7391 390.948 51.7391 388.978C51.7391 384.671 52.9279 381.025 55.0873 378.71C55.9641 377.77 57.6533 375.208 58.841 373.017C60.0287 370.826 62.3234 367.369 63.9404 365.335C67.6093 360.719 72.4211 352.547 76.405 344.166C88.504 318.714 96.0141 301.314 97.2331 295.91C99.0667 287.781 99.1986 291.341 97.8022 311.275C97.506 315.5 97.2553 325.246 97.2439 332.931C97.2274 344.535 97.4173 347.962 98.3651 353.133C100.741 366.102 102.831 370.548 122.821 405.169C126.164 410.959 129.861 417.489 131.037 419.68C133.786 424.802 134.974 426.06 137.316 426.333C139.761 426.619 140.317 425.498 140.366 420.184C140.387 418.017 140.794 414.2 141.272 411.702C141.749 409.205 142.14 406.008 142.14 404.6C142.14 399.705 139.919 388.38 137.841 382.676C135.892 377.328 135.789 376.705 136.057 371.879C136.213 369.062 136.804 365.349 137.371 363.628C137.938 361.906 141.807 353.712 145.968 345.418C150.13 337.124 154.28 328.418 155.19 326.07C156.1 323.723 158.042 319.113 159.506 315.827C165.434 302.517 165.622 301.693 165.902 287.943C166.219 272.342 165.38 262.698 162.858 252.946C160.632 244.346 156.432 229.481 154.778 224.351C154.147 222.396 153.746 220.795 153.886 220.795C154.027 220.795 154.96 221.563 155.959 222.501C157.771 224.203 163.938 227.688 166.536 228.479C170.484 229.679 176.894 234.458 183.667 241.248C192.591 250.192 196.142 254.905 201.272 264.612C203.505 268.837 205.66 272.678 206.061 273.148C206.463 273.617 208.263 276.626 210.061 279.834C211.859 283.042 213.656 285.667 214.054 285.667C216.526 285.667 216.511 280.734 214 268.651C213.246 265.021 212.232 259.363 211.747 256.076C211.263 252.79 210.504 248.821 210.062 247.256C209.619 245.691 208.631 239.987 207.864 234.581C206.58 225.525 206.302 224.452 204.318 220.924C203.133 218.818 201.476 215.688 200.634 213.966C198.751 210.112 195.084 205.681 191.321 202.711C187.916 200.023 180.412 196.325 178.363 196.325C177.557 196.325 176.21 196.064 175.371 195.745C172.401 194.615 159.84 192.385 157.868 192.637C156.08 192.867 155.739 192.684 154.649 190.92C153.979 189.835 152.781 188.435 151.987 187.81C150.849 186.914 150.521 186.11 150.437 184.016C150.344 181.661 150.684 180.832 153.414 176.749C155.109 174.214 156.551 171.756 156.616 171.287C156.686 170.798 158.223 169.917 160.219 169.224C162.134 168.558 164.67 167.506 165.855 166.885C175.519 161.825 179.167 160.128 179.439 160.568C179.613 160.85 179.675 164.081 179.578 167.749C179.365 175.766 180.507 181.457 183.239 185.98C186.178 190.847 196.4 201.494 209.231 213.051C217.223 220.25 222.726 224.209 224.74 224.209C225.487 224.209 226.225 224.336 226.38 224.491C226.535 224.647 226.322 226.887 225.907 229.471C225.05 234.81 224.857 241.494 225.447 245.433C225.762 247.535 226.078 248.109 226.921 248.109C227.51 248.109 227.993 247.807 227.993 247.437C227.993 247.066 229.848 244.945 232.115 242.722C234.383 240.498 237.603 237.04 239.272 235.036C240.942 233.032 243.39 230.609 244.714 229.65C248.026 227.252 254.23 220.329 257.709 215.149C259.301 212.777 262.03 209.068 263.772 206.908C265.514 204.746 267.844 201.673 268.951 200.079C275.784 190.223 277.694 187.285 279.123 184.434C281.642 179.408 285.697 166.847 286.267 162.306C286.431 161.001 286.94 158.314 287.399 156.333C288.568 151.289 289.054 137.457 288.304 130.599C287.243 120.901 286.985 120.047 283.515 114.773C281.726 112.054 280.128 109.829 279.965 109.829C279.658 109.829 279.983 110.531 283.041 116.475C284.286 118.896 284.849 120.79 284.849 122.555C284.849 123.965 285.131 125.84 285.476 126.721C285.821 127.602 286.323 133.829 286.594 140.558C287.072 152.471 287.049 152.92 285.734 157.63C284.991 160.29 283.936 164.387 283.388 166.735C280.588 178.741 274.362 190.303 262.396 205.715C259.723 209.158 256.326 213.761 254.847 215.945C252.324 219.669 247.045 225.3 239.895 231.895C238.196 233.461 234.922 236.868 232.619 239.464C230.316 242.061 228.326 244.079 228.196 243.95C227.497 243.25 230.064 232.92 233.103 224.209C235.014 218.732 237.337 211.778 238.265 208.754C240.36 201.927 244.234 191.547 245.306 189.887C245.748 189.203 246.66 187.235 247.332 185.513C248.004 183.792 250.561 178.158 253.014 172.994C258.452 161.545 260.35 156.741 262.665 148.561C264.29 142.82 267.755 134.138 270.744 128.323C272.363 125.172 273.342 122.337 274.872 116.373C275.594 113.556 276.604 110.249 277.116 109.023C277.995 106.92 278.092 106.856 278.844 107.884C279.281 108.483 279.792 108.821 279.978 108.634C280.365 108.247 278.174 105.276 277.501 105.276C276.792 105.276 273.58 112.679 271.757 118.516C270.834 121.469 268.646 126.932 266.895 130.657C262.882 139.191 261.952 141.629 259.761 149.378C257.496 157.394 254.519 164.87 249.962 173.985C244.654 184.607 239.6 197.053 236.441 207.287C234.912 212.238 232.619 219.288 231.345 222.952C230.071 226.617 228.608 231.152 228.095 233.03C226.188 240.003 226.883 230.465 229.194 217.95C229.865 214.315 232.346 206.36 233.454 204.292C235.159 201.109 236.668 195.195 236.938 190.635C237.096 187.975 237.505 185.45 237.847 185.024C238.618 184.067 238.961 163.902 238.267 160.374C237.895 158.481 237.754 159.816 237.655 166.165C237.585 170.704 237.468 174.673 237.395 174.986C237.323 175.299 237.208 176.323 237.141 177.262C237.024 178.888 236.993 178.908 236.497 177.671C236.211 176.958 235.827 174.269 235.644 171.696C235.462 169.124 234.829 164.586 234.239 161.613C232.268 151.684 231.985 149.418 231.899 142.834C231.772 133.184 233.662 125.295 239.712 110.219C244.9 97.2898 247.484 93.4982 254.124 89.0658C256.169 87.7006 258.724 85.668 259.802 84.5486C260.88 83.4299 261.99 82.5142 262.268 82.5142C262.547 82.5142 262.603 83.5334 262.393 84.7791C262.074 86.6678 262.293 87.543 263.708 90.0429C265.42 93.0657 268.361 101.596 268.361 103.537C268.361 104.166 267.819 104.72 267.005 104.925C264.585 105.533 257.945 111.3 253.578 116.588C251.233 119.428 249.249 121.561 249.169 121.329C249.007 120.86 252.285 109.66 254.076 104.563C254.709 102.762 255.497 99.8175 255.826 98.0187C256.156 96.2205 257.64 92.3162 259.124 89.3429C262.476 82.6269 262.388 82.842 261.597 83.3314C260.356 84.0991 256.421 92.7322 255.037 97.7234C254.275 100.469 252.524 106.045 251.145 110.113C249.767 114.182 248.301 119.176 247.888 121.21C247.373 123.741 246.409 125.987 244.837 128.323C241.001 134.019 237.573 143.672 237.735 148.322L237.81 150.516L238.214 147.956C238.618 145.394 241.056 138.8 243.579 133.445C245.158 130.093 247.815 126.322 253.347 119.58C260.361 111.032 265.404 106.874 270.307 105.596C272.134 105.12 274.447 104.248 275.445 103.658C277.289 102.569 278.635 102.877 279.214 104.519C279.342 104.885 282.734 108.904 286.751 113.45C290.768 117.995 294.606 122.744 295.279 124.002C295.953 125.259 297.4 127.296 298.495 128.527C300.314 130.573 302.475 135.3 302.475 137.233C302.475 137.668 303.385 139.408 304.499 141.1C310.307 149.926 316.502 160.841 321.25 170.613C323.427 175.092 326.49 180.461 328.055 182.543C329.621 184.625 330.903 186.725 330.903 187.21C330.903 188.421 332.765 191.792 335.191 194.973C336.305 196.433 337.086 197.911 336.929 198.257C336.771 198.603 335.75 201.085 334.658 203.772C333.567 206.459 331.38 210.538 329.799 212.836C328.217 215.134 326.921 217.288 326.919 217.624C326.918 217.96 325.447 220.468 323.65 223.197C321.404 226.611 317.288 231.285 310.47 238.165L300.556 248.169L297.393 246.759C295.654 245.982 291.544 244.821 288.261 244.178C284.977 243.535 279.872 242.343 276.916 241.53C273.403 240.563 270.522 240.116 268.6 240.239L265.66 240.427L265.605 236.134C265.575 233.773 265.191 230.822 264.751 229.574C263.645 226.436 259.421 218.114 258.712 217.675C257.977 217.221 258.542 218.735 261.186 224.313C263.725 229.667 264.561 233.368 264.094 237.176L263.725 240.185L262.708 238.883C262.149 238.168 261.033 236.302 260.228 234.737C258.333 231.056 253.42 224.062 252.517 223.76C252.132 223.632 252.99 225.281 254.424 227.424C255.857 229.569 257.762 232.888 258.657 234.802C259.552 236.715 261.185 239.183 262.287 240.285C264.108 242.107 264.516 242.264 266.781 242.009C268.546 241.809 271.09 242.249 275.498 243.514C278.921 244.497 284.025 245.542 286.839 245.836C292.345 246.412 297.011 247.598 298.736 248.861C299.759 249.61 299.693 249.776 297.375 252.293L294.938 254.938L289.468 254.95C278.609 254.972 272.047 256.855 266.319 261.593C264.879 262.784 259.334 268.88 253.997 275.14C248.66 281.399 242.017 288.67 239.234 291.297C230.496 299.545 217.205 315.884 212.009 324.764C210.398 327.517 208.307 331.049 207.362 332.614C206.417 334.179 205.038 337.124 204.298 339.158L202.953 342.857L203.171 338.874C203.348 335.651 203.771 334.184 205.389 331.192C206.49 329.157 208.078 325.648 208.918 323.394C210.806 318.332 213.724 313.752 218.241 308.763C226.683 299.44 237.262 284.223 239.837 277.7C241.875 272.541 246.716 262.613 250.83 255.159C253.811 249.757 259.25 243.698 260.451 244.441C260.736 244.618 260.97 244.363 260.97 243.875C260.97 242.199 259.289 242.993 255.923 246.26C251.655 250.402 240.99 266.852 237.729 274.323C235.913 278.483 233.673 282 228.229 289.239C224.311 294.449 219.568 300.41 217.689 302.486C213.194 307.45 210.081 312.407 206.483 320.324C204.862 323.894 202.737 328.112 201.761 329.7C199.645 333.142 198.647 338.546 199.244 343.331C199.601 346.193 199.85 346.693 201.169 347.195C203.011 347.896 203.356 347.526 208.662 339.14C211.524 334.618 213.957 331.746 219.447 326.413C233.382 312.876 244.397 301.641 251.563 293.654C252.533 292.573 255.721 290.57 259.102 288.916C265.143 285.961 266.122 285.127 273.274 276.825C274.882 274.959 277.568 272.612 279.244 271.611C284.169 268.666 284.373 268.679 282.768 271.829C281.886 273.558 281.477 275.123 281.66 276.066C282.018 277.913 281.369 278.724 277.686 281.021C274.051 283.29 264.092 293.51 259.297 299.894C257.298 302.554 254.54 307.163 253.167 310.137C245.277 327.221 236.085 341.793 225.706 353.669C220.696 359.403 217.041 364.829 213.98 371.078C211.533 376.074 205.251 395.333 205.251 397.838C205.251 399.795 206.787 401.755 208.32 401.755C209.396 401.755 209.879 401.094 211.13 397.913C213.305 392.384 218.39 383.371 222.171 378.343C230.341 367.478 235.89 363.071 250.663 355.712C258.102 352.007 260.709 350.207 264.097 346.437C269.848 340.039 273.676 333.515 278.007 322.733C282.343 311.939 284.054 305.701 285.405 295.756C286.01 291.303 286.799 286.82 287.159 285.795C287.924 283.616 287.456 280.391 286.192 279.126C285.39 278.322 285.433 278.066 286.653 276.405C287.394 275.396 288.341 273.896 288.759 273.072C289.178 272.247 290.604 270.199 291.929 268.519C294.016 265.874 295.288 264.989 301.427 261.909C305.327 259.953 308.811 258.353 309.171 258.353C309.532 258.353 310.667 259.091 311.694 259.993C312.721 260.895 316.12 263.23 319.247 265.181C322.374 267.132 325.828 269.432 326.923 270.293C328.017 271.154 330.064 272.436 331.471 273.142C332.878 273.848 334.105 274.491 334.196 274.57C334.349 274.702 333.089 277.868 332.026 280.023C331.782 280.517 331.802 282.822 332.07 285.144C332.339 287.466 332.57 291.219 332.583 293.484C332.597 295.748 332.857 298.693 333.16 300.028C335.841 311.807 336.311 313.194 339.018 317.321C340.528 319.623 342.163 322.853 342.651 324.5C343.139 326.146 344.266 328.935 345.155 330.698C346.995 334.348 350.018 345.301 350.472 349.97C350.64 351.692 350.93 356.96 351.116 361.677C351.48 370.906 351.093 373.546 348.24 381.269C346.051 387.197 343.002 401.023 342.632 406.701C342.352 410.998 342.449 412.091 343.176 412.819C344.39 414.034 344.822 413.946 346.493 412.14C350.042 408.302 360.092 393.513 359.783 392.584C359.637 392.145 352.353 401.686 346.809 409.579C345.056 412.074 343.98 412.658 343.98 411.113C343.98 409.805 347.392 399.846 351.32 389.689C353.221 384.775 355.567 377.747 356.534 374.072C357.501 370.397 358.673 366.434 359.14 365.266C359.607 364.098 359.905 362.568 359.802 361.865C359.693 361.12 358.598 363.767 357.172 368.226C351.141 387.076 344.067 407.033 344.017 405.339C343.997 404.65 344.363 402.612 344.832 400.808C345.302 399.005 345.564 397.137 345.414 396.655C345.265 396.173 345.388 395.395 345.69 394.926C346.145 394.216 346.248 394.264 346.302 395.21C346.41 397.1 347.268 393.879 347.334 391.332C347.365 390.138 347.68 388.62 348.033 387.959C348.387 387.298 348.882 385.33 349.133 383.586C349.384 381.842 350.256 378.11 351.07 375.293C352.513 370.298 352.544 369.837 352.345 356.515C352.158 343.93 352.042 342.611 350.864 339.727C350.162 338.006 349.251 335.691 348.841 334.584C348.43 333.476 347.194 330.779 346.092 328.591C344.991 326.402 343.803 323.543 343.451 322.237C343.1 320.931 342.206 319.141 341.464 318.259C339.35 315.744 337.636 312.071 336.79 308.245C334.37 297.303 333.731 290.725 334.265 282.253C334.73 274.855 335.181 273.068 337.421 269.734C338.158 268.638 339.59 265.719 340.605 263.248C343.745 255.599 351.312 245.657 355.735 243.368L357.457 242.476L358.394 247.712C358.909 250.591 359.418 253.843 359.524 254.938C359.63 256.034 359.754 252.705 359.8 247.54C359.845 242.376 359.694 238.414 359.464 238.737C358.572 239.988 353.076 243.517 353.067 242.845C353.057 242.015 348.613 246.778 346.25 250.15C344.626 252.469 338.615 264.119 336.953 268.169C336.472 269.343 335.775 270.303 335.405 270.303C335.035 270.303 332.221 268.508 329.152 266.315C326.082 264.122 321.451 261.268 318.861 259.974C312.962 257.028 311.394 255.869 309.565 253.104L308.108 250.9L313.434 244.81C321.939 235.086 333.015 217.826 336.335 209.129C336.869 207.729 337.655 206.294 338.084 205.938C338.512 205.582 338.863 204.938 338.863 204.507C338.863 204.076 339.054 203.737 339.289 203.754C339.962 203.803 346.557 214.547 347.634 217.347C348.624 219.92 350.287 222.62 351.899 224.271C352.39 224.775 354.327 227.312 356.204 229.91L359.615 234.633L359.793 232.197C359.949 230.069 359.554 229.085 356.666 224.408C354.848 221.463 352.21 217.075 350.802 214.657C349.395 212.239 347.747 209.494 347.14 208.557C346.533 207.619 344.626 204.676 342.903 202.016C341.179 199.356 338.711 195.899 337.417 194.334C334.066 190.279 331.471 186.313 331.471 185.246C331.471 184.12 329.776 180.74 327.562 177.451C326.649 176.095 324.757 172.809 323.356 170.149C317.423 158.882 314.444 153.482 313.672 152.597C313.219 152.078 310.643 147.374 307.947 142.142C300.502 127.695 298.025 123.728 292.209 116.942C290.331 114.751 287.749 111.678 286.471 110.113C282.833 105.661 280.347 103 279.825 103C279.562 103 279.077 102.424 278.749 101.72C278.42 101.016 276.753 98.9031 275.044 97.0252C273.335 95.1473 270.35 91.1781 268.412 88.2048C266.473 85.2315 264.577 82.5427 264.198 82.2297C263.395 81.5651 259.399 75.549 255.629 69.3275C254.174 66.9261 251.518 63.2972 249.727 61.2634C246.103 57.1474 244.854 56.732 241.767 58.6162C240.743 59.241 239.496 59.752 238.996 59.752C237.083 59.752 220.926 70.7177 208.946 80.1475C199.476 87.6016 176.271 112.702 175.311 116.53C174.891 118.203 177.423 125.22 179.669 128.608C180.602 130.016 181.367 131.356 181.369 131.586C181.37 131.815 182.532 134.423 183.951 137.381C186.377 142.44 192.243 150.884 196.437 155.353C197.465 156.449 199.917 159.906 201.887 163.036C206.408 170.221 207.67 171.869 214.466 179.465C218.113 183.543 221.258 187.812 223.689 191.985C225.718 195.468 228.412 199.406 229.675 200.737C230.939 202.068 231.971 203.348 231.969 203.582C231.967 203.816 231.101 206.312 230.046 209.129C228.99 211.946 227.802 216.093 227.406 218.345L226.685 222.439L224.923 222.099C223.953 221.911 222.009 220.983 220.602 220.035C217.915 218.226 207.759 209.253 206.516 207.591C206.118 207.058 204.26 205.546 202.386 204.231C200.513 202.916 198.415 200.919 197.725 199.794C197.034 198.669 194.159 195.29 191.336 192.285C185.877 186.474 181.863 179.871 182.969 178.523C183.773 177.541 183.833 147.614 183.044 141.055C182.425 135.91 180.954 132.329 177.7 128.039C177.057 127.19 174.974 122.092 174.271 119.645C173.735 117.779 171.973 118.038 168.818 120.446C166.123 122.504 163.105 125.713 155.525 134.583C153.385 137.087 151.353 139.391 151.009 139.704C150.666 140.017 147.99 142.898 145.063 146.106C142.136 149.314 139.483 151.939 139.169 151.939C138.854 151.939 139.458 150.956 140.511 149.754C141.563 148.553 143.789 145.801 145.457 143.637C147.124 141.474 151.112 136.888 154.317 133.445C157.523 130.002 163.231 123.728 167 119.503C174.057 111.593 195.37 90.4236 203.38 83.3678C205.867 81.177 211.438 76.8237 215.759 73.6939C220.081 70.5641 226.201 65.6986 229.36 62.8818C232.519 60.065 236.816 56.7645 238.909 55.5478L242.714 53.3353L239.686 49.7622C236.303 45.772 235.522 43.2431 234.247 32.1528C233.154 22.6439 233.243 22.9563 231.434 22.2063C229.911 21.5752 229.555 21.6947 226.757 23.7797C225.092 25.0214 223.153 26.3336 222.45 26.6961C220.265 27.8223 220.889 25.9546 223.302 24.1428C225.16 22.748 228.199 20.0302 232.928 15.5335C233.813 14.6925 234.247 13.63 234.247 12.3081C234.247 11.2241 234.418 9.8902 234.628 9.3439C234.906 8.61836 234.808 8.47439 234.266 8.81013C233.67 9.17888 233.576 8.35375 233.791 4.63554C234.046 0.232183 234 0.00114632 232.874 8.21121e-06C231.759 -0.00169896 231.7 0.258929 231.874 4.41019ZM236.406 3.84227C236.035 10.552 237.177 10.688 242.386 4.55359C246.964 -0.836504 246.099 -1.71171 241.402 3.55775C239.604 5.57619 238.204 6.74503 238.166 6.26076C238.13 5.79129 238.045 4.63895 237.977 3.70001C237.736 0.368756 237.653 0.00114632 237.138 0.00114632C236.852 0.00114632 236.523 1.72937 236.406 3.84227ZM249.21 3.84227C247.595 5.95518 244.602 9.53625 242.56 11.8005C240.516 14.0654 238.547 16.4981 238.185 17.2066C237.185 19.1573 242.953 13.4218 246.902 8.53698C248.8 6.18963 251.259 3.30907 252.366 2.13511C254.078 0.319249 254.211 0.00114632 253.262 0.00114632C252.552 0.00114632 251.074 1.40216 249.21 3.84227ZM270.334 4.69586C270.947 12.1624 271.749 16.5755 272.996 19.3394C273.633 20.7535 275.002 24.7266 276.038 28.1694C280.004 41.3544 282.688 47.4337 286.719 52.3566C288.126 54.0768 290.858 58.5963 292.787 62.4004L296.297 69.3167L294.35 72.0743C291.086 76.6962 287.814 82.6019 286.342 86.5278C284.559 91.2805 282.465 95.6025 281.944 95.6025C281.469 95.6025 272.785 86.4146 270.919 83.9369C270.212 82.9979 268.601 80.3092 267.34 77.9618C266.079 75.6144 263.745 71.5172 262.153 68.8569C260.562 66.1966 258.364 62.2274 257.271 60.0365C255.614 56.7161 254.045 54.8752 247.851 48.9786C243.763 45.088 239.924 40.9322 239.318 39.744C238.418 37.9788 238.161 35.9495 237.912 28.6309C237.744 23.7063 237.508 19.5778 237.386 19.456C237.265 19.3342 236.873 19.4162 236.515 19.6376C236.046 19.9278 235.969 22.3667 236.24 28.3726C236.734 39.311 237.435 40.8702 245.302 48.5393C248.447 51.6054 251.721 54.5395 252.577 55.0601C253.572 55.6645 254.452 56.9631 255.012 58.6515C255.495 60.106 257.319 63.7018 259.066 66.6416C260.812 69.5813 263.13 73.8953 264.216 76.2285C267.327 82.908 273.041 90.4862 279.036 95.8802C282.588 99.0766 282.813 99.0669 292.949 95.2884C305.484 90.6159 312.045 87.6215 340.568 73.5579C355.362 66.2631 359.884 63.6734 359.892 62.4897C359.899 61.5952 359.711 61.5912 357.199 62.4323C355.714 62.9296 353.736 63.8697 352.805 64.5207C351.128 65.6935 342.084 70.4082 328.913 76.9762C325.16 78.8478 320.011 81.6299 317.471 83.1596C314.931 84.6892 311.477 86.4174 309.795 87.0012C308.114 87.5845 303.924 89.2706 300.485 90.7485C293.906 93.5744 284.319 96.9683 283.952 96.6012C283.426 96.0748 288.947 83.3263 291.684 78.7471C296.646 70.4451 299.832 66.8954 305.886 62.9239C318.226 54.8291 329.254 48.7516 336.388 46.1146C338.844 45.2069 342.132 43.8412 343.695 43.0792C346.538 41.6947 355.519 38.9092 358.188 38.5848C358.966 38.4898 359.68 38.009 359.774 37.5156C359.922 36.7377 359.469 36.6796 356.369 37.0757C350.632 37.8081 342.516 40.5014 335.966 43.8458C333.946 44.8775 333.595 44.9053 332.179 44.1457C328.533 42.1898 323.624 35.3839 321.788 29.7411C321.099 27.6248 319.815 24.7408 318.934 23.3324C316.303 19.1248 312.64 8.55292 311.868 2.93577C311.542 0.562805 311.256 0.00114632 310.374 0.00114632C309.416 0.00114632 309.326 0.294779 309.629 2.41963C310.57 9.0241 315.313 22.1107 318.136 25.8932C318.837 26.8321 320.239 29.6108 321.253 32.0674C323.303 37.0353 325.894 40.7973 329.386 43.8742L331.709 45.9211L327.04 48.277C317.389 53.1481 303.57 62.0527 299.22 66.204L296.819 68.4956L294.904 64.2658C293.852 61.94 292.52 58.7562 291.946 57.1913C291.371 55.6264 289.574 52.4254 287.951 50.0781C286.328 47.7307 284.589 45.0038 284.087 44.0188C282.469 40.8429 278.621 28.7026 277.49 23.2067C276.887 20.2698 275.865 16.5265 275.219 14.8882C274.299 12.55 274.047 10.6283 274.047 5.95518V0.00114632H271.997H269.948L270.334 4.69586ZM229.406 25.3241C228.775 25.9501 226.509 28.0545 224.369 30.0001L220.478 33.5379L219.69 37.9668C218.003 47.4541 218.033 46.9005 219.235 46.4219C221.087 45.6838 230.828 44.19 231.221 44.5833C231.923 45.286 230.859 45.6889 226.159 46.5015C223.571 46.9483 221.071 47.6539 220.602 48.0682C220.133 48.483 219.237 48.916 218.612 49.0304C217.683 49.2 217.41 49.8374 217.123 52.5091C216.663 56.7787 212.641 65.0863 208.656 69.995C206.114 73.1277 201.839 80.8509 201.839 82.3134C201.839 82.5569 203.054 81.577 204.54 80.1356C206.026 78.6942 210.567 75.137 214.632 72.2308C218.697 69.3241 224.506 64.8343 227.541 62.2536C230.575 59.6723 234.74 56.6194 236.795 55.4693L240.531 53.378L236.854 49.4766C232.439 44.7915 231.995 43.4622 231.933 34.7136C231.906 31.1143 231.585 27.2731 231.219 26.1777L230.552 24.186L229.406 25.3241ZM214.348 31.3806C212.628 32.2256 210.545 33.0798 209.718 33.2784C207.991 33.6927 204.4 36.8077 201.831 40.1196C197.542 45.6474 187.186 55.541 183.796 57.3495C181.894 58.3641 178.331 60.6454 175.879 62.4186C173.427 64.1912 169.886 66.6621 168.01 67.9089C166.134 69.1557 163.597 71.0694 162.371 72.1614C157.658 76.3639 139.757 83.4333 128.211 85.6526C122.049 86.8368 107.259 87.3461 103.194 86.5141C94.7485 84.7859 84.2932 80.1749 75.1149 74.1315C69.6345 70.5225 60.7639 65.3248 60.5137 65.5757C60.4204 65.6691 63.589 69.0874 67.5548 73.1721C71.521 77.2573 77.2305 83.1863 80.2433 86.3485C86.7983 93.229 89.3471 94.7461 93.4863 94.2311C104.22 92.8967 106.199 92.8341 112.859 93.6171C116.612 94.0581 121.06 94.6852 122.744 95.0107C124.429 95.3362 126.988 95.6116 128.43 95.6224C129.873 95.6333 133.1 96.035 135.602 96.5147C143.51 98.0313 155.383 98.5195 160.619 97.5424C173.458 95.1473 186.343 91.132 191.227 88.0051C195.226 85.4449 199.061 80.6728 201.815 74.832C202.995 72.3281 205.267 68.656 206.863 66.6717C211.012 61.5132 214.214 54.5804 214.921 49.2245C215.169 47.3466 215.921 43.2778 216.593 40.1822C217.265 37.0871 217.739 33.4946 217.645 32.1995L217.475 29.8441L214.348 31.3806ZM243.344 59.6183C240.371 60.5988 236.722 62.6269 232.257 65.7823C210.701 81.0136 208.257 83.085 188.422 102.941C178.617 112.756 175.111 117.271 176.239 118.631C176.547 119.003 177.46 121.063 178.267 123.207C179.074 125.352 180.448 128.021 181.321 129.138C182.194 130.255 184.31 133.601 186.022 136.575C187.734 139.548 191.503 144.925 194.399 148.525C197.294 152.124 200.316 156.221 201.115 157.63C203.936 162.603 209.385 170.306 213.971 175.803C216.524 178.862 220.531 184.374 222.876 188.051C228.166 196.345 230.203 199.109 231.792 200.152C232.973 200.926 233.064 200.86 233.667 198.788C234.719 195.175 235.401 183.674 234.627 182.599C231.494 178.247 225.184 170.053 223.725 168.442C222.733 167.346 221.193 165.17 220.304 163.605C219.414 162.04 216.879 158.808 214.669 156.423C208.949 150.247 203.492 143.702 202.248 141.522C201.661 140.494 199.987 138.897 198.529 137.974C197.07 137.05 194.664 135.217 193.181 133.899C190.672 131.668 186.225 129.746 183.576 129.746C183.026 129.746 182.417 129.49 182.224 129.177C181.768 128.439 181.969 128.45 187.3 129.471C191.406 130.257 195.583 132.347 195.586 133.616C195.587 133.835 196.763 134.757 198.199 135.666C200.971 137.418 200.919 137.431 202.515 134.583C202.866 133.957 204.009 132.394 205.054 131.11C206.1 129.827 208.614 125.345 210.641 121.152C216.429 109.175 221.199 100.363 225.319 94.0319C227.409 90.8213 229.853 86.7241 230.75 84.927C232.651 81.1195 235.117 73.2181 235.674 69.1488C236.037 66.5027 237.476 62.7936 237.955 63.2728C238.198 63.5169 235.753 75.6776 234.94 78.2628C233.829 81.7989 230.564 88.6834 227.106 94.7854C225.142 98.2475 222.454 103.241 221.131 105.882C219.808 108.522 217.977 111.781 217.062 113.124C216.147 114.467 214.203 118.053 212.741 121.093C209.745 127.326 208.221 129.912 205.127 134.014C203.947 135.579 202.98 137.343 202.979 137.934C202.978 138.525 204.447 140.783 206.246 142.951C208.044 145.119 210.41 148.135 211.505 149.653C212.599 151.171 214.953 154.049 216.735 156.048C218.517 158.046 220.82 161.115 221.852 162.865C222.885 164.616 224.795 167.547 226.099 169.379C229.04 173.514 235.603 180.514 235.089 178.969C234.881 178.343 234.45 175.27 234.132 172.141C233.814 169.011 232.814 162.798 231.91 158.334C230.22 149.984 229.626 139.193 230.573 134.014C231.507 128.899 234.143 119.079 235.055 117.314C235.591 116.276 237.132 112.522 238.477 108.972C242.929 97.23 246.181 92.5274 253.246 87.6221C255.461 86.0834 257.959 83.9585 258.795 82.8995L260.316 80.9744L257.491 76.7651C255.936 74.4502 253.776 70.9857 252.689 69.0663C250.61 65.3948 246.719 60.6318 245.134 59.818C244.619 59.5534 243.813 59.4635 243.344 59.6183ZM263.244 85.8313C263.244 86.5232 264.352 89.3247 265.706 92.0573C267.061 94.7894 268.628 98.5235 269.189 100.354C270.142 103.467 270.305 103.664 271.701 103.383C274.148 102.892 276.321 101.928 276.321 101.336C276.321 101.03 275.201 99.8431 273.831 98.6976C270.998 96.3275 268.202 92.813 265.266 87.9345C263.813 85.5189 263.244 84.927 263.244 85.8313ZM189.331 91.9924C184.29 94.5936 172.233 98.2902 164.314 99.6627C159.417 100.511 155.857 100.751 150.129 100.618L142.481 100.44L137.774 109.829C124.641 136.027 119.902 146.398 117.926 153.267C116.831 157.075 115.785 161.385 115.603 162.846L115.271 165.502L117.477 166.115C118.689 166.452 119.938 166.735 120.251 166.744C120.563 166.753 121.459 167.26 122.241 167.873C123.022 168.485 123.863 168.991 124.109 168.998C124.355 169.005 125.031 167.901 125.612 166.544C126.718 163.961 132.485 156.713 139.949 148.525C142.374 145.864 145.385 142.309 146.64 140.625C148.776 137.758 154.768 130.986 167.815 116.696C170.834 113.389 177.885 106.009 183.483 100.297C189.081 94.5856 193.518 89.9512 193.344 89.9985C193.169 90.0463 191.364 90.9437 189.331 91.9924ZM355.067 97.485C344.322 101.46 334.257 104.688 329.667 105.629C324.958 106.595 324.366 106.596 316.59 105.65C308.558 104.673 299.876 103.165 292.976 101.55C291.036 101.096 288.634 100.724 287.638 100.724C286.573 100.724 285.525 100.314 285.093 99.7282C284.571 99.0226 284.178 98.9087 283.743 99.3372C282.999 100.07 283.876 102.996 285.607 105.561C287.226 107.961 294.217 116.314 297.857 120.2C301.884 124.497 303.612 126.889 303.612 128.166C303.612 129.662 306.73 135.674 309.745 139.989C313.398 145.217 317.784 153.093 320.259 158.866C321.423 161.581 322.374 163.98 322.374 164.198C322.374 164.894 326.5 171.506 328.091 173.362C329.805 175.36 332.327 180.412 333.413 184.026C333.806 185.332 336.649 190.362 339.73 195.204C342.811 200.046 346.454 205.903 347.824 208.219C349.194 210.535 351.758 214.376 353.521 216.755C355.284 219.133 357.436 222.36 358.302 223.925L359.879 226.77L359.889 223.607C359.9 220.188 359.947 220.284 352.685 208.845C350.798 205.871 348.316 201.774 347.17 199.74C346.025 197.705 343.428 193.624 341.399 190.669C339.37 187.714 337.065 183.888 336.277 182.166C335.489 180.443 332.94 176.159 330.612 172.644C328.283 169.13 325.079 163.739 323.491 160.664C321.903 157.589 320.126 154.56 319.542 153.932C318.958 153.306 317.823 151.037 317.019 148.891C316.214 146.744 313.85 142.391 311.765 139.217C309.68 136.042 307.078 131.78 305.984 129.746C301.968 122.28 300.08 119.608 291.912 109.829C288.348 105.562 286.555 103.031 286.555 102.267C286.555 102.136 287.898 102.379 289.54 102.807C300.943 105.781 321.599 109.041 325.054 108.411C326.79 108.094 326.955 108.224 328.365 111.008C330.448 115.122 339.935 125.018 346.642 130.07C349.253 132.037 358.593 137.144 359.581 137.144C360.688 137.144 359.502 135.824 357.199 134.494C348.646 129.552 344.673 126.507 338.185 119.915C328.498 110.076 327.009 107.553 330.89 107.553C332.695 107.553 342.227 104.658 349.665 101.851C352.323 100.848 355.521 99.6536 356.772 99.1973C359.476 98.2117 360.072 97.7052 359.811 96.6166C359.653 95.9605 358.73 96.1295 355.067 97.485ZM170.012 121.542C167.184 124.089 162.802 128.653 160.153 131.809C154.637 138.383 149.343 144.032 143.069 150.038C135.851 156.948 134.812 158.289 130.759 165.9C127.902 171.266 120.998 181.477 116.637 186.787C114.872 188.936 112.334 192.026 110.997 193.652C109.66 195.279 108.23 197.749 107.819 199.14C107.051 201.742 105.752 202.94 105.752 201.046C105.752 200.46 106.236 199.03 106.828 197.868C107.42 196.707 107.681 195.756 107.409 195.756C106.784 195.756 104.392 200.243 104.282 201.62C104.236 202.185 103.397 203.432 102.417 204.391C101.437 205.35 100.635 206.595 100.635 207.157C100.635 207.72 100.443 208.266 100.209 208.371C99.4306 208.717 93.9235 218.184 92.721 221.243C92.0705 222.897 91.5384 224.88 91.5384 225.648C91.5384 227.488 89.2914 233.975 85.1381 244.126C83.2812 248.664 81.0365 254.554 80.1507 257.214C76.1724 269.157 69.8529 286.387 67.1568 292.642C66.5154 294.131 65.6171 297.46 65.1611 300.04C64.1877 305.543 61.4313 314.509 57.7647 324.099C56.3245 327.866 54.5319 333.628 53.7808 336.903C52.0916 344.273 46.6777 365.353 46.3298 365.917C46.1894 366.144 45.8044 368.859 45.4747 371.95C45.1443 375.041 44.3785 380.901 43.7724 384.973C42.3459 394.557 41.9234 432.29 43.197 436.328C43.6177 437.66 44.0692 438.642 44.2005 438.511C44.3324 438.38 44.5536 436.649 44.6923 434.666C44.8311 432.683 45.3217 429.114 45.7834 426.735C46.2451 424.356 46.7596 419.618 46.9273 416.207C47.2253 410.142 48.3544 402.62 49.5376 398.82C49.8634 397.774 50.3336 393.827 50.5821 390.05C51.05 382.944 51.7033 380.792 54.0258 378.707C54.7218 378.081 56.1392 375.832 57.1751 373.708C58.211 371.584 60.3488 368.204 61.9254 366.195C65.716 361.368 70.2071 353.234 74.8329 342.817C76.9081 338.145 79.8834 331.505 81.4447 328.062C89.1436 311.083 93.1434 301.597 93.8018 298.755C94.2004 297.034 95.1129 293.449 95.8299 290.789C98.7841 279.83 101.204 268.557 101.204 265.754C101.204 264.111 102.001 259.405 102.975 255.296C104.775 247.704 105.09 242.933 104.05 239.005C103.333 236.296 103.247 232.488 103.735 225.063C103.961 221.62 104.117 218.163 104.081 217.38C103.572 206.407 103.783 203.723 105.157 203.723C105.432 203.723 105.871 204.349 106.132 205.114L106.605 206.505L112.291 202.926C115.418 200.959 119.767 198.309 121.956 197.039C124.145 195.769 127.94 193.146 130.389 191.211C132.838 189.276 134.972 187.823 135.132 187.983C136.427 189.279 128.522 196.309 122.241 199.447C119.211 200.96 109.171 207.062 108.595 207.74C108.439 207.923 107.863 208.239 107.316 208.442C106.768 208.644 106.318 209.393 106.314 210.107C106.31 210.821 106.22 216.783 106.115 223.356C105.948 233.664 106.066 235.814 106.974 239.003C107.553 241.036 108.027 244.341 108.027 246.348V249.995L110.906 245.891C112.49 243.633 115.884 239.56 118.447 236.839C123.144 231.854 134.704 218.639 139.125 213.202C140.437 211.588 142.161 209.468 142.955 208.491C144.147 207.025 144.504 205.734 145 201.094C145.331 198.001 145.852 193.217 146.159 190.462C146.467 187.706 146.573 185.217 146.396 184.93C146.073 184.408 140.215 186.301 138.878 187.36C138.491 187.666 137.724 187.742 137.173 187.528C136.234 187.164 136.24 187.088 137.271 186.328C137.877 185.883 140.452 184.883 142.994 184.107C147.404 182.76 147.704 182.561 149.509 179.772C150.55 178.165 152.278 175.701 153.348 174.297C154.419 172.893 155.13 171.579 154.928 171.377C154.563 171.012 152.941 172.686 147.579 178.969C144.662 182.387 140.868 184.611 138.564 184.253C137.63 184.108 138.048 183.803 140.194 183.066C143.233 182.02 145.643 179.852 147.823 176.202L149.135 174.004L147.201 174.424C146.138 174.656 143.553 175.423 141.458 176.13C139.363 176.836 137.508 177.273 137.336 177.101C135.978 175.742 139.714 173.673 146.274 172.15C148.278 171.685 152.581 170.051 155.836 168.519C167.945 162.819 170.626 161.613 171.181 161.613C172.171 161.613 175.893 159.487 177.931 157.758L179.893 156.095V145.589C179.893 134.541 179.54 132.536 177.128 129.903C176.491 129.207 175.376 127.03 174.65 125.066C173.925 123.102 173.141 121.004 172.908 120.404C172.523 119.41 172.27 119.509 170.012 121.542ZM237.222 153.077C237.222 154.173 237.339 154.62 237.482 154.073C237.625 153.526 237.625 152.629 237.482 152.081C237.339 151.534 237.222 151.982 237.222 153.077ZM129.942 161.979C128.834 163.433 127.926 164.934 127.926 165.315C127.926 166.732 123.363 174.823 120.942 177.699C119.564 179.337 117.401 182.223 116.134 184.113C114.868 186.004 113.421 187.892 112.919 188.309C112.417 188.726 112.007 189.336 112.007 189.666C112.007 191.212 118.023 183.956 123.783 175.463C126.093 172.056 132.749 159.337 132.221 159.337C132.077 159.337 131.051 160.526 129.942 161.979ZM87.2742 167.895C85.0852 168.129 82.3987 168.616 81.3043 168.979C80.2098 169.341 76.3692 170.378 72.7696 171.284C69.17 172.19 64.3088 173.74 61.9669 174.727C59.625 175.714 54.255 177.741 50.0334 179.229C45.8118 180.718 39.2876 183.021 35.5351 184.346C21.5667 189.279 8.23391 193.48 6.54869 193.48C4.56782 193.48 1.63177 194.68 1.86659 195.394C2.19294 196.389 7.13658 196.513 8.64441 195.565C9.63484 194.942 12.1593 194.735 19.0991 194.708C27.9186 194.674 35.6516 193.794 47.4749 191.476C49.6638 191.048 54.653 190.28 58.5618 189.771C70.6636 188.195 101.24 188.574 108.879 190.396C109.737 190.6 110.316 190.139 111.237 188.517C111.908 187.334 114.915 183.089 117.918 179.082C120.921 175.076 123.378 171.458 123.378 171.043C123.378 170.56 121.239 169.753 117.425 168.796C112.019 167.441 110.544 167.311 101.363 167.387C95.8031 167.433 89.4631 167.662 87.2742 167.895ZM128.535 171.714C128.598 172.376 135.982 177.641 136.342 177.28C136.791 176.831 133.072 173.061 131.224 172.092C129.532 171.205 128.473 171.056 128.535 171.714ZM148.842 183.237C148.666 183.707 148.22 186.267 147.852 188.928C147.484 191.588 146.944 194.994 146.651 196.496C146.359 197.998 146.112 200.431 146.102 201.902C146.079 205.12 144.562 209.757 142.788 212.026C142.077 212.937 140.425 215.128 139.117 216.895C135.875 221.275 126.997 232.537 125.089 234.689C124.234 235.655 121.927 238.236 119.964 240.427C116.088 244.75 111.368 251.198 109.758 254.369C109.202 255.465 108.045 258.922 107.189 262.051C106.332 265.181 105.116 269.534 104.486 271.725C102.853 277.404 102.277 282.394 102.057 292.78C101.95 297.788 101.589 305.47 101.254 309.852C100.919 314.234 100.643 324.94 100.64 333.644C100.636 348.426 100.727 349.87 102.031 355.553C104.024 364.236 107.766 373.199 113.1 382.064C114.626 384.6 117.774 390.132 120.096 394.357C125.074 403.414 135.141 421.384 136.302 423.286C137.514 425.27 137.789 424.384 136.74 421.875C136.235 420.668 134.819 415.839 133.593 411.144C132.367 406.449 130.48 399.279 129.399 395.21C127.187 386.883 124.321 373.128 123.077 364.869C121.408 353.785 122.199 345.222 126.527 327.52C128.928 317.701 130.042 309.516 130.754 296.479C131.11 289.956 131.813 283.969 132.79 279.123C133.958 273.336 134.389 268.998 134.772 259.206C135.473 241.26 137.212 227.915 139.938 219.55C141.124 215.911 143.294 211.517 143.703 211.926C143.826 212.05 143.409 213.903 142.778 216.045C139.847 225.981 137.885 240.902 137.252 258.068C136.956 266.108 136.518 270.024 135.215 276.278C134.05 281.872 133.397 287.152 133.023 294.006C132.344 306.468 130.711 318.075 128.191 328.347C124.309 344.168 124.246 344.587 124.261 354.238C124.275 362.651 124.459 364.252 126.684 375.293C128.008 381.866 130.343 391.981 131.874 397.771C133.404 403.561 135.166 410.347 135.788 412.851C136.41 415.355 137.238 418.172 137.629 419.111C138.313 420.757 138.365 420.646 139.096 415.981C140.573 406.544 140.601 404.108 139.32 396.403C138.648 392.364 137.758 388.395 137.342 387.582C133.543 380.169 133.072 371.431 136.005 362.778C136.642 360.898 140.353 352.83 144.253 344.849C148.152 336.868 152.563 327.263 154.054 323.504C155.545 319.746 157.408 315.392 158.194 313.83C158.979 312.268 160.342 308.942 161.223 306.438C162.758 302.071 162.833 301.363 163.055 289.082C163.356 272.508 162.852 268.297 158.328 249.532C156.97 243.898 155.436 236.984 154.92 234.168C154.404 231.351 152.981 226.052 151.757 222.394C150.533 218.735 149.524 214.894 149.515 213.858C149.506 212.822 149.022 210.226 148.438 208.089C147.165 203.421 147.274 195.281 148.693 189.036C149.54 185.308 149.649 181.092 148.842 183.237ZM131.716 186.963C130.518 187.403 128.215 187.923 126.599 188.118C124.984 188.314 122.127 188.86 120.251 189.332C118.374 189.804 116.264 190.194 115.56 190.199C113.989 190.21 113.927 190.709 115.383 191.619C116.284 192.182 116.956 192.101 119.045 191.175C120.453 190.552 123.706 189.778 126.273 189.456C131.206 188.837 134.749 187.677 134.749 186.68C134.749 185.936 134.433 185.966 131.716 186.963ZM150.1 189.136C150.1 189.648 150.348 190.066 150.651 190.066C150.953 190.066 152.219 191.416 153.464 193.067L155.728 196.068L155.13 200.322C154.47 205.025 154.854 217.353 155.711 218.934C157.203 221.688 162.316 224.898 168.725 227.105C173.282 228.674 180.809 233.871 186.558 239.419C194.638 247.214 199.494 253.617 204.592 263.196C210.817 274.889 212.62 278.081 212.632 277.425C212.641 276.89 211.164 272.976 204.247 255.223C202.54 250.841 200.174 245.207 198.99 242.703C197.806 240.2 195.412 235.12 193.67 231.416C190.071 223.767 185.892 218.64 181.301 216.242C179.802 215.46 176.838 213.392 174.714 211.647C172.591 209.902 169.19 207.543 167.157 206.405C163.56 204.392 156.354 197.666 156.354 196.323C156.354 195.955 158.209 197.3 160.476 199.312C162.744 201.325 165.75 203.587 167.157 204.341C170.52 206.14 175.046 209.452 176.823 211.411C177.604 212.273 179.907 214.067 181.94 215.398C183.972 216.729 186.69 218.936 187.979 220.302C190.843 223.338 194.453 229.514 196.417 234.737C197.223 236.878 198.109 238.907 198.388 239.244C199.986 241.184 207.036 258.7 212.449 274.176C213.249 276.463 214.017 278.221 214.155 278.082C214.294 277.943 213.648 274.408 212.72 270.225C211.793 266.043 210.741 260.572 210.384 258.068C210.027 255.564 209.133 250.699 208.399 247.256C207.664 243.813 206.766 238.82 206.403 236.159C205.171 227.135 204.686 225.169 203.05 222.553C202.151 221.116 200.551 218.286 199.495 216.265C196.811 211.125 192.358 206.551 185.976 202.38C181.265 199.3 179.662 198.594 174.264 197.217C165.055 194.869 160.943 194.152 158.54 194.475C156.528 194.745 156.199 194.559 153.248 191.484C151.292 189.447 150.1 188.558 150.1 189.136ZM149.503 194.191C149.486 195.834 149.271 198.972 149.024 201.162C148.65 204.482 148.754 205.567 149.647 207.671C150.237 209.06 150.871 211.364 151.055 212.792C151.721 217.942 152.178 216.746 152.277 209.592C152.332 205.582 152.644 200.822 152.971 199.015C153.541 195.874 153.497 195.631 151.975 193.479C151.1 192.241 150.193 191.223 149.958 191.216C149.723 191.21 149.519 192.549 149.503 194.191ZM65.4715 192.373C64.1115 192.647 59.762 193.142 55.806 193.473C51.8494 193.804 47.2048 194.308 45.4849 194.594C31.3374 196.941 30.4698 197.012 20.2698 196.641C12.0853 196.344 10.1682 196.415 10.3609 197.01C10.4928 197.416 12.1172 198.09 13.9707 198.508C15.8242 198.926 19.0411 199.771 21.1192 200.386C23.1967 201.001 27.0345 201.733 29.6476 202.012C35.1126 202.596 40.535 204.566 43.8003 207.154C45.0471 208.142 47.4078 209.309 49.0452 209.747C52.5561 210.684 63.7545 211.679 76.4715 212.183L85.5685 212.544L88.8633 210.371C90.6753 209.176 93.799 206.971 95.8037 205.471C97.809 203.971 100.187 202.438 101.089 202.064C102.042 201.669 103.138 200.527 103.703 199.339C104.239 198.215 105.561 196.216 106.64 194.898L108.603 192.5L105.046 192.164C99.5653 191.648 68.2558 191.813 65.4715 192.373ZM336.421 202.059C335.888 203.291 335.451 204.454 335.451 204.642C335.451 205.284 331.861 212.54 330.416 214.82C329.622 216.072 328.296 218.376 327.469 219.941C322.379 229.574 319.811 232.86 305.03 248.658C299.308 254.772 293.672 260.927 292.505 262.336C289.702 265.717 283.456 275.281 282.403 277.804C281.944 278.903 280.707 280.336 279.655 280.988C278.603 281.641 275.287 284.688 272.287 287.762C263.806 296.449 257.928 305.03 255.013 312.982C249.365 328.386 239.972 343.389 227.222 357.368C223.006 361.991 219.442 367.426 216.484 373.743C214.394 378.209 211.323 386.959 211.847 386.959C211.968 386.959 213.887 383.31 216.112 378.85C219.118 372.825 221.208 369.498 224.242 365.904C226.488 363.244 230.182 358.566 232.452 355.509C234.723 352.453 239.061 347.459 242.094 344.413C247.745 338.736 249.614 336.45 257.083 326.07C261.338 320.158 264.498 314.464 267.506 307.291C272.264 295.947 276.591 288.215 281.517 282.253C282.681 280.844 284.966 277.003 286.595 273.717C290.056 266.735 293.959 261.707 300.725 255.513C303.407 253.058 306.881 249.451 308.445 247.497C310.008 245.544 312.998 242.096 315.088 239.837C317.179 237.576 319.827 234.261 320.972 232.468C322.118 230.676 323.884 228.276 324.898 227.136C325.911 225.996 327.707 223.147 328.888 220.805C330.07 218.464 331.864 215.253 332.876 213.67C333.888 212.087 335.045 209.777 335.447 208.537C335.849 207.298 336.654 205.604 337.236 204.774C338.315 203.233 338.657 200.6 337.843 200.097C337.595 199.943 336.955 200.826 336.421 202.059ZM246.187 230.968C246.187 231.252 246.867 231.654 247.698 231.863C248.53 232.072 251.352 234.402 253.971 237.04C258.271 241.374 260.999 243.148 261.928 242.219C262.113 242.033 261.531 241.602 260.634 241.261C259.736 240.92 258.861 240.465 258.687 240.249C258.514 240.034 256.59 238.141 254.412 236.042C250.792 232.553 246.187 229.713 246.187 230.968ZM302.331 256.574C297.753 261.231 296.814 262.643 299.49 260.85C302.431 258.877 306.078 257.214 307.462 257.214C308.857 257.214 315.845 261.23 325.786 267.745C332.653 272.245 334.717 273.307 335.171 272.573C335.365 272.259 335.059 271.833 334.492 271.627C333.925 271.421 331.542 269.822 329.197 268.075C323.52 263.844 319.675 261.465 317.257 260.689C315.128 260.006 310.717 256.228 309.047 253.658C308.487 252.797 307.738 252.093 307.383 252.093C307.027 252.093 304.754 254.109 302.331 256.574ZM284.849 257.016C281.119 257.37 276.609 258.485 274.331 259.618C270.772 261.388 264.007 266.757 262.147 269.289C259.424 272.995 248.845 284.717 239.92 293.918C231.962 302.123 226.124 308.744 219.349 317.25C215.127 322.551 206.147 337.451 207.174 337.451C207.279 337.451 208.275 336.078 209.389 334.398C212.047 330.392 219.872 322.199 226.853 316.115C229.926 313.435 234.703 308.645 237.466 305.468C251.471 289.373 252.223 288.664 258.694 285.477C262.844 283.434 265.356 281.781 266.938 280.056C276.257 269.894 276.871 269.354 282.197 266.637C286.539 264.421 287.916 263.377 289.998 260.723C291.388 258.949 292.61 257.307 292.714 257.072C292.898 256.659 288.919 256.631 284.849 257.016ZM283.996 281.32C282.258 284.269 278.46 289.9 277.994 290.22C277.766 290.376 276.129 293.284 274.358 296.682C272.587 300.08 270.913 303.281 270.639 303.795C270.365 304.309 268.114 308.828 265.636 313.835C259.151 326.946 255.639 331.758 242.795 345.134C239.188 348.889 234.958 353.836 233.394 356.125C231.831 358.415 228.738 362.384 226.522 364.945C224.305 367.507 221.277 371.78 219.792 374.44C217.102 379.258 214.171 385.835 214.547 386.21C214.655 386.318 215.726 384.803 216.926 382.842C225.336 369.099 234.722 360.723 251.238 352.219C256.945 349.28 260.313 346.06 265.046 339.016C271.856 328.877 278.298 311.871 281.695 295.057C282.201 292.553 283.263 288.789 284.055 286.693C284.846 284.597 285.413 282.096 285.314 281.136L285.133 279.391L283.996 281.32ZM34.1626 423.379C34.1796 423.848 34.4133 424.744 34.6822 425.37L35.1706 426.509L35.2019 425.37C35.2195 424.744 34.9853 423.848 34.6822 423.379C34.1921 422.62 34.1347 422.62 34.1626 423.379Z" fill="white"/>
</svg>
