<svg width="828" height="584" viewBox="0 0 828 584" fill="none" xmlns="http://www.w3.org/2000/svg">
<path fill-rule="evenodd" clip-rule="evenodd" d="M210.028 14.363C207.945 22.3239 205.197 30.0129 203.922 31.4481C202.646 32.8811 201.755 35.5365 201.938 37.3476C202.124 39.1592 199.72 50.1666 196.6 61.8089C192.195 78.2372 191.351 83.5615 192.828 85.585C193.875 87.0202 194.349 89.7115 193.881 91.565C193.412 93.4185 194.038 97.5295 195.272 100.7C197.117 105.439 197.006 106.956 194.645 109.22C192.288 111.485 192.172 113.011 193.998 117.771C197.708 127.443 197.277 131.957 192.471 133.787C190.153 134.668 188.056 136.182 187.811 137.153C187.566 138.125 190.119 144.202 193.485 150.659C196.85 157.118 199.265 163.741 198.852 165.377C198.439 167.012 198.8 169.075 199.658 169.959C200.516 170.845 200.352 173.177 199.293 175.145C197.089 179.242 200.544 185.793 208.549 192.696C212.211 195.853 213.264 198.147 212.481 201.279C211.603 204.803 212.588 206.278 218.095 209.686C222.956 212.693 224.545 214.727 223.93 217.159C223.368 219.382 224.93 221.883 228.592 224.63C233.9 228.61 233.961 228.847 230.292 231.293C225.126 234.734 226.464 236.977 241.031 249.277C251.833 258.397 252.967 259.966 252.235 264.805C251.567 269.216 252.674 271.315 258.383 276.461C263.984 281.508 265.196 283.748 264.577 287.908C263.961 292.04 265.275 294.515 271.095 300.198C280.29 309.179 285.755 317.697 284.785 321.536C283.971 324.758 289.869 333.516 293.464 334.425C294.686 334.733 295.397 337.149 295.046 339.789C294.469 344.111 295.372 345.079 304.031 349.423C309.325 352.078 313.909 354.678 314.221 355.2C314.533 355.721 313.191 357.21 311.242 358.509C300.151 365.898 293.595 383.597 298.334 393.358C301.177 399.216 301.137 399.549 296.715 406.263C291.69 413.893 289.131 426.902 291.307 433.753C292.034 436.041 295.239 439.479 298.431 441.391C302.27 443.691 304.229 446.22 304.225 448.867C304.217 454.971 308.689 463.673 312.307 464.587C314.085 465.037 315.989 467.357 316.537 469.746C318.103 476.566 322.828 481.702 329.017 483.31C333.388 484.445 336.263 483.725 341.426 480.203C346.584 476.687 348.728 476.148 350.642 477.891C352.012 479.14 357.597 481.566 363.049 483.282L372.966 486.401L373.789 501.997C374.244 510.573 374.421 520.643 374.186 524.373L373.757 531.154L364.38 522.932C359.222 518.41 346.965 508.94 337.143 501.889L319.282 489.068L309.604 470.265C304.281 459.924 297.925 449.837 295.479 447.851C293.031 445.865 287.826 439.121 283.909 432.866C279.993 426.61 272.16 415.663 266.502 408.539C258.299 398.21 255.257 395.54 251.473 395.35C248.863 395.219 246.203 394.295 245.56 393.296C244.916 392.299 237.863 385.177 229.888 377.471C219.906 367.83 214.05 363.382 211.106 363.21C208.715 363.069 202.134 359.425 196.195 354.956C190.349 350.555 181.86 345.536 177.329 343.802C169.897 340.959 169.01 340.981 168.238 344.034C167.458 347.119 166.697 347.119 159.606 344.032C147.093 338.583 134.023 335.596 133.406 338.044C133.002 339.65 128.638 338.954 115.796 335.236C96.2368 329.572 86.746 328.501 85.8959 331.865C85.5346 333.295 82.3765 333.933 77.7567 333.508C63.6362 332.211 56.58 332.805 55.9376 335.347C55.5909 336.719 54.7523 337.606 54.0766 337.317C47.8279 334.644 39.2732 334.35 35.3783 336.673C32.8724 338.168 26.3081 339.426 20.79 339.471C10.4852 339.551 1.63106 341.686 0.984739 344.243C0.78355 345.039 3.30273 347.21 6.58083 349.067C13.9086 353.216 19.3767 359.107 22.5791 366.297C23.9158 369.299 28.8769 375.953 33.6047 381.084C39.7316 387.734 41.3667 390.512 39.296 390.759C37.6993 390.95 36.1257 392.164 35.7989 393.457C34.8076 397.379 39.6569 402.936 51.3231 411.24C57.4644 415.611 61.4301 419.458 60.1979 419.846C56.512 421.012 58.7227 424.007 66.2643 428.072C70.1866 430.185 75.5603 434.753 78.2073 438.222C80.8544 441.692 89.0216 448.258 96.3573 452.814C104.315 457.757 110.044 462.5 110.56 464.573C111.034 466.485 113.812 469.566 116.732 471.423C120.188 473.62 121.704 475.797 121.074 477.664C120.475 479.448 122.362 482.471 126.08 485.673C131.191 490.078 135.307 491.62 154.716 496.411C175.701 501.589 177.324 502.239 176.582 505.174C175.239 510.487 180.186 511.975 195.627 510.904C210.296 509.886 210.402 509.905 212.302 513.973C214.204 518.039 214.297 518.058 227.965 516.945C235.528 516.33 246.202 514.602 251.687 513.106C264.806 509.529 315.676 501.787 319.582 502.774C322.94 503.623 369.297 540.86 368.901 542.392C368.62 543.475 341.947 545.93 330.348 545.939C324.073 545.944 321.473 545.074 316.105 541.173C302.591 531.351 273.948 524.973 272.855 531.541C272.544 533.411 270.626 534.431 267.608 534.328C245.12 533.568 232.848 534.363 221.615 537.305C203.094 542.158 197.152 544.604 197.467 547.248C197.619 548.511 195.095 550.323 191.859 551.275C183.128 553.843 171.818 559.979 171.182 562.493C170.876 563.704 171.726 565.47 173.069 566.418C175.119 567.863 174.44 568.963 168.841 573.268C158.322 581.355 151.984 588.175 150.852 592.625C150.278 594.885 145.996 603.104 141.336 610.891C133.334 624.268 133.002 625.213 135.311 628.001C137.462 630.598 137.291 631.778 133.869 637.863C131.732 641.664 128.416 648.466 126.499 652.98C124.582 657.493 121.378 663.399 119.38 666.105C114.227 673.083 116.129 674.329 125.433 670.069C132.657 666.76 156.802 663.365 162.625 664.836C163.878 665.153 165.842 666.987 166.991 668.913C168.648 671.691 171.166 672.714 179.193 673.874C185.223 674.744 189.836 676.219 190.614 677.524C191.507 679.02 196.304 679.273 205.711 678.325C213.294 677.557 224.318 676.539 230.207 676.061C238.544 675.384 242.947 673.731 250.097 668.597C255.148 664.97 260.233 662.244 261.398 662.539C264.145 663.233 274.85 655.825 285.339 645.97C289.905 641.681 295.932 637.38 298.729 636.415C302.212 635.212 304.697 632.605 306.615 628.143C308.157 624.56 311.104 620.701 313.167 619.567C317.979 616.919 319.606 613.605 327.721 589.889C336.367 564.622 341.154 558.733 355.069 556.249C371.281 553.355 372.07 553.734 371.118 563.96C370.663 568.843 366.717 589.42 362.345 609.687C354.894 644.239 354.582 646.738 357.331 649.761C359.687 652.35 360.882 652.695 363.389 651.508C365.985 650.281 367.203 646.6 370.603 629.707C372.852 618.529 375.268 609.53 375.974 609.71C376.679 609.89 376.827 611.768 376.306 613.887C374.458 621.385 375.346 626.238 378.558 626.212C380.944 626.192 382.169 629.651 383.981 641.521C385.714 652.872 387.196 657.214 389.69 658.239C391.542 658.999 393.783 662.428 394.67 665.858C397.847 678.149 405.725 689.928 411.795 691.462C413.564 691.91 417.473 695.491 420.483 699.423C424.994 705.314 426.585 706.367 429.542 705.417C432.525 704.46 434.752 706.066 442.707 714.91C449.829 722.828 453.388 725.559 456.594 725.564C460.091 725.57 463.145 728.739 472.776 742.35C479.305 751.579 484.81 760.502 485.01 762.179C485.75 768.37 491.577 761.843 495.705 750.199C498.73 741.668 500.556 738.743 503.281 738.065C506.219 737.335 507.389 735.121 509.722 725.89C511.917 717.207 513.373 714.285 516.043 713.206C518.866 712.066 520.075 709.331 522.532 698.511C524.192 691.2 525.457 683.663 525.344 681.762C525.188 679.148 525.995 678.525 528.67 679.201C531.63 679.949 532.471 679.026 533.869 673.492C537.567 658.861 536.769 648.858 530.613 632.683C527.297 623.97 523.654 615.567 522.52 614.012C521.349 612.408 521.223 609.948 522.229 608.325C524.936 603.957 522.861 598.794 515.042 590.446C510.78 585.896 508.085 581.335 508.321 579.066C508.604 576.326 505.415 572.413 496.794 564.912C484.979 554.637 484.709 554.503 466.067 549.862C445.094 544.642 436.152 545.126 422.263 552.233C417.253 554.796 414.581 555.3 414.1 553.776C413.65 552.35 410.223 551.024 404.87 550.205L396.359 548.903L405.796 538.854C420.072 523.65 429.507 516.142 435.232 515.434C438.074 515.083 450.577 515.47 463.017 516.295C485.251 517.769 492.512 517.243 496.981 513.833C498.22 512.888 504.75 511.32 511.493 510.347C518.236 509.374 525.168 507.846 526.898 506.951C528.626 506.057 535.74 505.418 542.705 505.53C559.515 505.804 579.018 501.511 583.923 496.456C590.651 489.524 603.725 484.299 612.402 485.072C625.154 486.211 639.539 482.935 644.025 477.871C646.66 474.895 650.743 473.092 656.344 472.434C666.983 471.181 671.95 467.94 672.296 462.023C672.508 458.432 674.278 456.562 680.67 453.176C685.128 450.816 689.042 447.828 689.368 446.538C689.694 445.249 700.817 438.183 714.089 430.836C732.154 420.833 739.903 415.435 744.921 409.352C748.608 404.882 751.471 399.959 751.286 398.411C751.099 396.836 753.87 393.321 757.587 390.424C767.238 382.899 767.789 382.115 766.423 377.862C765.363 374.561 766.142 373.277 771.77 369.043C781.422 361.783 793.814 349.675 794.543 346.793C794.891 345.416 794.321 342.68 793.278 340.714C791.553 337.466 791.897 336.768 797.026 333.077C800.129 330.843 803.185 326.981 803.814 324.492C804.461 321.929 808.774 316.83 813.762 312.729C826.342 302.387 829.134 299.091 826.598 297.57C825.476 296.897 823.27 295.537 821.694 294.544C820.12 293.554 813.026 292.499 805.93 292.203C789.175 291.499 788.703 291.344 790.971 287.226C793.086 283.386 795.616 283.917 766.375 282.068C753.501 281.253 731.619 283.528 715.028 287.408C709.338 288.738 708.729 288.582 706.479 285.204C704.219 281.812 703.346 281.593 693.48 281.942C687.661 282.147 677.873 283.441 671.725 284.815L660.549 287.313L661.635 283.017C663.05 277.415 661.591 277.236 650.871 281.698C636.077 287.855 630.848 289.172 628.311 287.382C625.389 285.324 602.745 291.791 593.147 297.425C587.393 300.801 585.943 300.98 583.652 298.591C580.12 294.912 571.667 296.783 558.19 304.225C552.781 307.211 543.869 310.801 538.388 312.202C528.489 314.734 518.239 321.333 501.494 335.96C495.545 341.155 492.809 342.639 492.922 340.609C493.013 338.967 492.539 337.486 491.866 337.316C490.233 336.903 474.235 348.555 473.739 350.518C473.524 351.368 471.495 353.047 469.23 354.25C466.963 355.453 463.486 358.994 461.502 362.12C459.518 365.246 456.529 368.358 454.86 369.036C453.033 369.779 450.538 374.028 448.587 379.718C446.804 384.916 445.02 389.085 444.621 388.984C444.219 388.882 441.829 386.972 439.305 384.738C435.923 381.742 433.623 380.874 430.55 381.433C426.91 382.096 426.166 381.336 424.678 375.422C422.601 367.16 417.578 360.341 412.658 359.097C410.154 358.464 408.791 356.393 408.354 352.557C407.871 348.313 406.637 346.671 403.296 345.827C397.935 344.472 398.1 343.606 405.665 333.316C411.976 324.734 412.671 323.294 418.879 305.942C421.538 298.508 422.294 294.374 421.2 293.245C420.238 292.253 420.851 286.527 422.703 279.2C424.522 272.002 425.202 265.78 424.329 264.316C423.435 262.818 424.037 257.727 425.817 251.729C428.498 242.685 428.449 241.271 425.32 237.867C422.677 234.991 422.091 231.897 422.887 225.045C423.677 218.249 422.987 214.537 420.103 210.057C417.921 206.666 415.788 198.999 415.153 192.265C414.207 182.252 413.376 180.181 409.755 178.805C406.066 177.401 404.925 174.285 401.508 156.274C398.221 138.949 396.899 135.209 393.782 134.421C391.467 133.836 388.168 129.86 385.198 124.074C382.341 118.508 378.873 114.27 376.693 113.677C374.373 113.047 371.929 109.781 370.087 104.85C368.069 99.4444 365.329 95.9783 361.232 93.649C357.965 91.7927 352.822 86.2129 349.791 81.2397C344.836 73.1048 343.819 72.2881 339.605 73.0551C335.867 73.7369 334.625 73.2794 333.436 70.7871C331.364 66.445 324.751 60.9682 321.909 61.2404C320.606 61.3635 316.325 58.0316 312.394 53.836C307.248 48.3425 303.886 46.1261 300.381 45.9201C297.706 45.7637 293.826 44.1725 291.76 42.3856C289.695 40.5986 284.436 37.721 280.075 35.9919C275.713 34.2606 269.193 29.9395 265.589 26.3897C260.421 21.3016 258.149 20.0894 254.861 20.6668C251.54 21.2489 249.786 20.2657 246.27 15.8533C242.286 10.8516 241.241 10.3677 235.624 10.9289C230.202 11.4705 228.593 10.8476 223.194 6.1192C219.784 3.13266 216.278 0.507412 215.403 0.286358C214.531 0.0657381 212.112 6.40049 210.028 14.363ZM215.921 12.7992C215.015 16.2558 210.462 33.5098 205.802 51.1404C199.979 73.1731 197.783 83.9567 198.776 85.6217C199.571 86.9549 199.744 90.01 199.159 92.4119C198.574 94.8121 199.113 99.0793 200.357 101.893C202.948 107.756 202.319 112.626 198.931 112.929C197.202 113.083 197.12 114.147 198.607 117.087C200.598 121.018 203.075 134.288 202.351 137.149C202.143 137.974 200.481 138.272 198.657 137.811C193.151 136.419 192.078 139.592 195.893 145.978C203.044 157.95 204.98 162.701 204.11 166.145C203.623 168.07 203.934 170.378 204.802 171.274C205.67 172.169 205.545 174.691 204.525 176.878C202.934 180.289 203.789 181.92 210.541 188.354C215.922 193.483 218.139 196.926 217.553 199.246C216.953 201.619 218.553 203.967 222.883 207.07C226.637 209.762 229.079 213.001 229.09 215.309C229.102 217.4 231.221 220.872 233.798 223.023C239.7 227.946 241.689 233.577 237.951 234.777C236.09 235.374 238.28 238.379 245.374 244.958C257.767 256.456 260.324 260.116 259.172 264.702C258.536 267.232 260.335 270.138 265.302 274.603C271.103 279.818 272.132 281.766 271.189 285.75C270.267 289.646 271.346 291.851 276.789 297.194C286.853 307.076 293.381 317.696 291.377 320.93C290.107 322.979 291.4 325.092 296.598 329.47C301.868 333.908 303.121 335.984 301.883 338.234C300.527 340.695 301.88 342.051 310.065 346.441C315.458 349.332 320.952 352.478 322.272 353.43C323.86 354.574 325.825 353.897 328.073 351.432C331.524 347.644 345.025 343.821 350.271 345.147C351.853 345.547 353.208 345.633 353.282 345.341C353.545 344.302 350.849 313.376 349.771 305.038C349.168 300.388 346.616 291.155 344.099 284.522C341.582 277.888 337.744 265.469 335.573 256.923C329.956 234.829 325.108 221.74 323.448 224.188C322.485 225.61 320.6 223.943 317.346 218.793C313.007 211.926 311.439 206.389 314.822 209.879C317.474 212.613 316.689 209.907 311.926 199.869C308.822 193.325 307.924 189.476 309.309 188.65C313.749 186.001 332.101 228.805 346.58 275.582C352.108 293.443 362.71 343.991 361.736 347.847C361.393 349.203 363.407 348.963 366.991 347.225C370.187 345.673 377.556 344.021 383.366 343.556C392.051 342.857 394.105 342.019 394.909 338.836C395.447 336.706 398.196 332.05 401.019 328.489C408.352 319.233 417.13 298.943 415.2 295.707C414.323 294.237 415.075 287.81 417.025 280.094C419.418 270.623 419.786 266.221 418.35 264.252C416.829 262.17 417.182 259.286 419.841 252.039C423.11 243.13 423.095 242.306 419.584 238.486C417.41 236.121 416.246 232.826 416.798 230.612C418.667 223.137 417.442 213.308 414.405 211.426C412.329 210.14 411.112 205.469 410.545 196.617C409.826 185.412 409.221 183.684 406.02 183.674C401.405 183.662 398.661 176.326 395.644 155.941C393.712 142.889 393.049 141.335 389.408 141.329C386.022 141.324 384.684 139.475 381.48 130.378C378.614 122.241 376.589 119.172 373.579 118.411C370.873 117.727 368.132 114.405 365.305 108.383C362.813 103.077 359.22 98.4818 356.555 97.1921C354.069 95.9895 349.839 91.4129 347.156 87.0201C343.465 80.9786 341.679 79.395 339.805 80.5132C335.709 82.9565 331.647 80.8431 328.675 74.7235C324.821 66.785 322.661 64.8871 319.305 66.4888C317.058 67.562 314.855 66.0529 309.099 59.4984C303.288 52.8831 301.153 51.431 298.853 52.5272C296.596 53.6052 294.353 52.664 288.799 48.3125C284.867 45.2323 278.554 41.5559 274.771 40.1436C270.987 38.733 265.52 34.9048 262.617 31.6397C258.309 26.7889 256.543 25.8463 252.98 26.4961C249.37 27.1522 247.782 26.2383 243.776 21.1986C239.578 15.9194 238.4 15.2818 234.897 16.4065C231.481 17.5041 229.832 16.8401 224.214 12.1107L217.571 6.5171L215.921 12.7992ZM221.147 16.7207C224.885 24.3371 256.159 75.6732 264.059 87.1602C268.222 93.2157 274.509 106.781 278.665 118.676C283.88 133.608 287.556 141.078 291.563 144.882C294.696 147.859 298.244 153.915 299.61 158.624C302.324 167.971 307.002 176.105 307.814 172.89C309.145 167.625 303.406 151.076 297.304 142.575C293.572 137.379 286.458 123.432 281.491 111.579C276.527 99.7272 269.89 86.4239 266.742 82.0154C263.594 77.6069 252.245 60.2449 241.52 43.4311C230.795 26.6194 221.31 12.6835 220.44 12.4638C219.573 12.2444 219.89 14.1602 221.147 16.7207ZM252.19 34.6329C252.317 35.4482 253.043 40.1278 253.803 45.0306C254.563 49.9334 255.824 54.1088 256.606 54.31C257.389 54.5116 257.92 54.0313 257.784 53.2429C257.651 52.455 257.013 47.7957 256.368 42.8893C255.724 37.983 254.467 33.7854 253.577 33.5604C252.687 33.3355 252.062 33.8189 252.19 34.6329ZM259.568 40.1942C258.721 43.5458 262.889 63.1748 264.536 63.591C266.868 64.1803 266.867 64.2184 264.631 52.0563C262.786 42.0161 260.476 36.6034 259.568 40.1942ZM267.283 57.3447C269.192 71.3632 271.43 76.3813 271.969 67.8558C272.448 60.2712 269.922 48.1268 267.557 46.6404C266.414 45.9208 266.305 50.164 267.283 57.3447ZM278.536 58.6275C278.459 58.9299 278.652 62.8624 278.962 67.3679C279.274 71.8721 279.541 79.1419 279.556 83.5201C279.574 88.6244 280.323 91.0417 281.643 90.2541C284.085 88.7976 282.836 59.1292 280.308 58.4902C279.409 58.2631 278.612 58.3251 278.536 58.6275ZM290.115 81.4144C289.338 91.0029 289.908 96.5501 291.489 94.7944C293.493 92.5675 294.333 74.7565 292.455 74.282C291.369 74.0074 290.499 76.6573 290.115 81.4144ZM305.039 86.0951C304.145 105.475 302.255 115.929 298.186 123.984C293.774 132.719 293.07 139.164 296.649 138.031C297.761 137.68 298.424 136.611 298.122 135.656C297.82 134.7 299.39 130.546 301.611 126.424C305.403 119.387 308.351 102.207 308.537 86.0703C308.605 80.1846 305.31 80.2061 305.039 86.0951ZM295.751 84.202C294.041 90.9467 294.589 96.6301 297.006 97.241C298.228 97.5497 299.372 98.8621 299.55 100.156C299.726 101.451 300.65 99.6867 301.6 96.2375C303.546 89.178 301.576 85.2289 298.931 90.8849C297.294 94.3841 297.25 94.3511 298.03 90.23C298.481 87.8453 298.396 84.5524 297.842 82.9129C297.044 80.5523 296.607 80.8217 295.751 84.202ZM331.667 92.8956C331.298 94.3545 345.752 109.561 348.063 110.145C350.742 110.822 346.576 104.462 340.282 98.2643C333.513 91.6012 332.201 90.7825 331.667 92.8956ZM212.13 73.4108C211.012 81.857 211.99 92.1364 213.683 89.7108C214.308 88.8129 214.434 83.1201 213.963 77.0599C213.16 66.734 213.045 66.5051 212.13 73.4108ZM218.241 74.2774C217.371 77.7212 219.321 93.9638 220.644 94.298C222.49 94.7647 222.625 90.9022 221.128 80.3356C220.416 75.2958 218.826 71.9626 218.241 74.2774ZM356.656 112.771C356.493 136.103 350.846 165.443 342.135 188.201C337.881 199.319 335.975 206.183 336.771 207.519C339.023 211.294 347.386 190.148 353.486 165.259C359.554 140.495 362.001 123.794 360.887 114.749C360.123 108.56 356.696 106.958 356.656 112.771ZM223.971 83.2459C223.958 91.0138 224.976 96.8159 226.655 98.5489C229.642 101.632 229.96 99.3133 227.934 89.2544C225.796 78.6365 223.982 75.8883 223.971 83.2459ZM338.338 109.644C338.107 110.558 339.7 112.553 341.879 114.079C346.751 117.49 347.226 117.621 347.715 115.687C347.929 114.84 346.002 112.759 343.431 111.064C340.481 109.119 338.603 108.595 338.338 109.644ZM204.262 76.9816C203.677 77.5826 203.426 79.7691 203.708 81.8395C204.154 85.1252 204.384 85.0109 205.527 80.9361C206.816 76.3313 206.341 74.8463 204.262 76.9816ZM231.315 91.9972C232.385 100.78 233.696 104.25 235.53 103.156C237.062 102.242 233.512 84.8286 231.7 84.3705C230.955 84.1822 230.782 87.6134 231.315 91.9972ZM237.708 95.4303C238.724 103.842 241.639 111.137 242.547 107.541C243.321 104.482 239.652 88.1978 238.101 87.8057C237.356 87.6175 237.18 91.0478 237.708 95.4303ZM338.434 116.456C337.988 118.219 345.717 127.726 348.083 128.324C351.23 129.119 350.76 125.731 347.054 120.927C343.392 116.176 339.071 113.935 338.434 116.456ZM243.648 96.0229C243.018 98.5662 247.336 110.131 249.078 110.571C250.061 110.82 249.887 107.51 248.692 103.219C246.704 96.0701 244.436 92.8361 243.648 96.0229ZM292.759 111.615C292.081 114.443 292.224 115.486 293.078 113.933C293.932 112.381 294.486 110.067 294.31 108.793C294.135 107.518 293.437 108.788 292.759 111.615ZM297.65 113.002C297.229 115.013 297.532 115.52 298.421 114.297C299.226 113.188 299.537 111.698 299.113 110.988C298.69 110.277 298.032 111.183 297.65 113.002ZM251.307 102.048C250.611 104.718 254.852 115.945 255.577 113.355C255.805 112.54 256.903 113.121 258.017 114.648C259.65 116.885 260.151 116.967 260.609 115.07C261.422 111.695 259.528 106.735 257.814 107.756C257.015 108.234 255.375 106.569 254.167 104.056C252.586 100.764 251.786 100.204 251.307 102.048ZM264.356 107.543C263.645 110.356 268.956 125.289 270.368 124.448C271.68 123.664 268.332 108.788 266.39 106.785C265.586 105.955 264.671 106.296 264.356 107.543ZM338.826 125.899C337.235 127.441 344.005 135.651 345.923 134.506C347.641 133.481 346.306 130.034 343.034 127.053C341.273 125.449 339.728 125.026 338.826 125.899ZM215.318 98.2697C218.425 102.55 243.167 118.911 244.937 117.856C246.096 117.165 239.174 111.814 227.473 104.353C222.963 101.478 219.015 98.3044 218.697 97.3028C218.38 96.2994 216.814 95.1749 215.218 94.8041C212.807 94.2457 212.826 94.8355 215.318 98.2697ZM271.545 115.341C270.966 117.352 274.632 129.752 275.9 130.072C276.383 130.194 277.019 129.333 277.311 128.157C277.949 125.59 272.243 112.909 271.545 115.341ZM340.509 140.078C343.348 143.622 345.416 143.696 344.316 140.215C343.951 139.056 342.345 137.804 340.749 137.433C338.2 136.839 338.171 137.161 340.509 140.078ZM251.838 121.116C251.296 123.261 262.11 131.895 268.851 134.699C278.843 138.854 280.319 135.747 270.794 130.606C267.057 128.589 262.418 125.751 260.49 124.298C256.888 121.585 252.159 119.846 251.838 121.116ZM336.486 156.069C338.163 163.233 342.826 167.031 342.524 160.984C342.245 155.392 340.467 151.843 337.584 151.114C335.559 150.602 335.39 151.375 336.486 156.069ZM373.169 172.524C374.367 177.336 378.001 182.105 379.7 181.093C381.245 180.172 376.062 169.926 373.757 169.343C372.947 169.138 372.683 170.571 373.169 172.524ZM336.129 168.719C335.918 169.554 336.874 172.454 338.252 175.162C339.632 177.871 340.618 178.824 340.445 177.28C340.271 175.737 339.996 173.009 339.83 171.219C339.522 167.858 336.81 166.026 336.129 168.719ZM244.9 148.798C243.876 152.412 249.212 161.739 252.103 161.394C253.657 161.209 255.775 162.219 256.813 163.641C260.582 168.804 260.589 164.873 256.822 158.854C253.696 153.862 252.805 153.244 252.198 155.648C251.606 157.988 250.803 157.371 248.441 152.767C246.787 149.544 245.194 147.759 244.9 148.798ZM374.107 183.844C373.87 184.783 375.005 186.762 376.63 188.243C378.53 189.974 379.738 190.326 380.016 189.226C380.254 188.287 379.118 186.308 377.493 184.827C375.593 183.096 374.385 182.743 374.107 183.844ZM766.787 286.901C758.75 286.667 742.422 288.172 730.503 290.243C707.319 294.276 704.041 294.216 701.9 289.729C700.125 286.01 690.416 286.297 670.851 290.651C657.214 293.685 653.605 293.215 654.783 288.555C655.177 286.993 651.617 287.36 644.054 289.658C637.827 291.55 630.713 293.007 628.242 292.895C620.06 292.523 607.002 296.327 595.503 302.433C585.121 307.944 583.861 308.191 580.716 305.326C576.324 301.324 572.073 302.274 557.246 310.567C551.239 313.927 544.517 316.572 542.31 316.446C536.608 316.119 529.479 318.876 525.971 322.763C524.319 324.594 519.046 328.783 514.254 332.069C509.461 335.356 502.529 341.579 498.85 345.896C491.695 354.289 487.905 355.13 487.192 348.48C486.779 344.615 486.318 344.757 479.87 350.718C476.087 354.217 472.397 357.186 471.674 357.318C470.95 357.448 468.066 361.217 465.264 365.694C462.461 370.168 458.855 374.427 457.251 375.156C455.646 375.885 452.893 380.248 451.131 384.855C448.245 392.395 448.269 394.071 451.37 401.692L454.816 410.156L460.729 402.945C468.346 393.659 468.675 397.141 461.191 407.835C455.1 416.536 453.923 420.72 459.776 412.864C461.675 410.312 463.894 408.394 464.707 408.6C466.442 409.038 456.759 422.973 449.787 430.073C446.32 433.602 444.89 436.586 444.766 440.551L444.591 446.095L452.341 437.213C456.603 432.329 460.171 429.307 460.269 430.501C460.369 431.693 456.925 436.729 452.616 441.69C448.307 446.653 444.667 451.32 444.526 452.062C444.384 452.806 447.247 450.076 450.887 445.998C454.526 441.92 457.586 439.558 457.682 440.751C457.779 441.943 454.465 446.83 450.314 451.611C446.165 456.391 440.967 463.324 438.762 467.014C433.856 475.232 430.411 475.257 434.205 467.048C436.188 462.76 436.292 461.388 434.591 461.926C433.007 462.425 431.938 465.504 431.23 471.608C429.903 483.019 431.32 489.063 433.434 481.014C435.01 475.008 453.767 449.452 456.157 450.056C458.052 450.535 457.94 450.789 452.869 457.553C448.852 462.911 448.762 463.268 451.789 461.823C456.08 459.776 455.765 460.618 448.949 469.438C434.258 488.446 431.954 495.241 445.88 478.484C450.227 473.254 453.774 470.296 454.175 471.568C454.596 472.901 458.621 470.469 464.232 465.489C473.276 457.461 492.317 445.069 509.225 436.208L517.414 431.916L512.759 436.483C510.2 438.993 501.232 445.601 492.828 451.166C484.425 456.73 474.577 463.926 470.946 467.154C461.149 475.866 440.493 498.942 437.743 504.25C435.545 508.496 435.693 508.871 439.551 508.787C441.865 508.737 452.117 509.578 462.333 510.655C484.423 512.987 487.217 512.917 487.95 510.016C488.257 508.802 493.354 507.24 499.277 506.549C505.2 505.856 513.306 504.077 517.294 502.595C521.279 501.115 530.972 499.977 538.832 500.07C555.921 500.27 578.608 496.472 579.416 493.276C579.734 492.017 585.381 488.279 591.966 484.969C601.587 480.131 605.98 479.055 614.34 479.488C629.394 480.269 637.735 478.253 638.924 473.547C639.692 470.508 642.022 469.35 649.834 468.133C663.068 466.071 667.009 463.894 667.018 458.644C667.023 455.527 668.581 453.583 673.032 451.146C676.337 449.337 679.382 446.501 679.8 444.846C680.219 443.189 685.891 439.346 692.408 436.306C698.925 433.264 704.398 430.215 704.571 429.528C704.745 428.841 711.216 425.319 718.953 421.702C734.611 414.379 744.516 404.599 744.528 396.447C744.535 392.62 746.174 390.795 753.753 386.177C761.559 381.422 762.736 380.073 761.446 377.369C760.175 374.704 760.906 373.394 765.884 369.438C769.161 366.832 772.07 363.8 772.349 362.698C772.627 361.596 775.767 358.449 779.325 355.707C787.752 349.211 790.634 344.525 787.543 342.347C784.084 339.909 786.119 334.545 792.149 330.202C795.054 328.11 797.939 324.381 798.56 321.917C799.215 319.326 803.781 314.081 809.384 309.483C821.391 299.634 820.685 297.371 805.634 297.462C799.595 297.499 791.885 296.828 788.497 295.972C783.476 294.703 782.497 293.783 783.2 290.998C783.675 289.119 783.466 287.523 782.733 287.452C782.001 287.382 774.827 287.133 766.787 286.901ZM262.198 161.052C262.223 164.037 271.27 173.235 273.104 172.14C274.716 171.178 269.443 164.768 267.13 164.88C266.118 164.927 264.59 163.491 263.733 161.687C262.509 159.11 262.182 158.975 262.198 161.052ZM370.673 190.24C370.151 192.303 377.197 201.446 378.642 200.583C379.968 199.791 374.503 189.523 372.484 189.013C371.709 188.817 370.893 189.369 370.673 190.24ZM756.414 292.714C744.147 294.524 739.372 296.278 743.718 297.376C746.702 298.13 771.545 293.971 771.876 292.661C772.285 291.043 767.632 291.058 756.414 292.714ZM399.077 200.328C398.458 203.168 401.94 209.897 403.537 208.945C404.366 208.451 403.784 205.932 402.243 203.349C400.704 200.767 399.277 199.407 399.077 200.328ZM774.306 307.553C747.248 311.975 722.849 318.485 692.635 329.344C653.161 343.532 645.422 346.77 647.03 348.431C647.894 349.321 665.389 344.047 685.912 336.71C723.882 323.137 754.505 314.91 784.229 310.299C793.333 308.887 800.951 307.054 801.161 306.225C801.84 303.538 797.6 303.748 774.306 307.553ZM742.658 300.405C734.736 302.087 728.015 304.41 727.723 305.566C727.43 306.723 725.064 308.478 722.462 309.467C719.247 310.69 718.272 311.821 719.42 313.006C720.485 314.105 718.978 315.055 715.315 315.59C710.142 316.347 706.711 319.031 710.067 319.696C713.225 320.322 733.04 313.117 733.096 311.321C733.132 310.225 735.807 308.707 739.042 307.951C742.279 307.194 746.736 305.496 748.949 304.176C751.162 302.856 755.435 301.15 758.443 300.383C762.905 299.248 763.283 298.839 760.488 298.169C758.603 297.716 750.58 298.721 742.658 300.405ZM393.333 212.456C393.42 217.425 396.295 224.109 398.596 224.69C401.153 225.337 400.678 222.634 396.924 215.181C393.608 208.593 393.262 208.331 393.333 212.456ZM236.615 181.48C236.199 183.311 246.521 197.16 248.714 197.714C252.421 198.651 251.165 194.861 245.488 187.97C239.646 180.878 237.164 179.064 236.615 181.48ZM298.792 197.695C298.034 198.428 299.761 203.526 302.628 209.023L307.842 219.019L302.65 211.346C299.794 207.126 296.861 202.388 296.13 200.815C295.398 199.243 293.772 198.034 292.514 198.127C290.925 198.245 291.009 200.144 292.791 204.354L295.353 210.41L291.187 204.02C286.734 197.188 284.312 199.087 287.93 206.573C289.445 209.71 289.022 209.434 286.376 205.559C281.862 198.955 278.835 200.127 282.65 207C284.659 210.621 287.438 212.605 292.536 214.055C304.428 217.44 309.573 219.446 311.449 221.428C312.436 222.472 313.426 222.595 313.651 221.703C314.336 218.994 300.267 196.265 298.792 197.695ZM225.852 180.79C225.412 182.531 235.994 194.5 238.543 195.144C242.441 196.129 240.699 192.128 234.625 186.148C227.641 179.272 226.424 178.529 225.852 180.79ZM250.854 189.73C250.272 192.033 258.251 203.759 260.845 204.415C261.479 204.575 261.844 203.439 261.66 201.89C261.375 199.508 261.875 199.672 264.888 202.951C266.85 205.084 269.033 206.486 269.739 206.065C270.446 205.642 272.224 206.393 273.694 207.732C278.08 211.728 279.379 207.976 275.188 203.417C272.635 200.64 270.976 199.833 270.223 201.008C269.453 202.213 268.019 201.601 265.7 199.078C263.834 197.047 261.483 195.644 260.477 195.962C259.47 196.28 257.034 194.449 255.065 191.894C252.31 188.32 251.336 187.82 250.854 189.73ZM393.139 226.946C393.133 229.443 392.926 233.333 392.681 235.59C392.434 237.847 392.939 240.837 393.802 242.234C395.019 244.207 395.443 243.981 395.7 241.224C395.883 239.271 396.83 236.911 397.803 235.98C398.821 235.008 398.207 231.758 396.362 228.346L393.149 222.405L393.139 226.946ZM680.322 305.745C674.639 308.676 670.282 311.586 670.638 312.212C670.994 312.838 675.96 310.985 681.674 308.095C687.387 305.206 691.745 302.295 691.358 301.628C690.968 300.961 686.002 302.813 680.322 305.745ZM725.971 312.073C722.211 313.789 722.257 313.837 726.768 312.938C732.627 311.769 733.795 311.225 731.625 310.676C730.708 310.444 728.164 311.074 725.971 312.073ZM220.327 192.55C224.603 200.611 233.762 206.79 256.367 216.865C297.191 235.057 319.36 242.263 320.508 237.717C320.68 237.037 310.491 232.865 297.863 228.445C258.637 214.712 237.123 204.768 228.164 196.23C218.853 187.356 217.147 186.556 220.327 192.55ZM746.047 326.414C735.895 330.009 736.236 329.818 737.178 331.397C737.914 332.628 757.764 326.926 758.157 325.371C758.645 323.439 753.099 323.918 746.047 326.414ZM755.576 329.715C750.795 331.561 747.155 333.528 747.487 334.084C748.238 335.342 757.418 333.07 764.274 329.93C772.629 326.104 765.39 325.925 755.576 329.715ZM761.158 333.268C758.039 334.73 755.326 336.569 755.128 337.353C754.93 338.137 756.045 338.17 757.605 337.425C759.168 336.68 761.503 336.818 762.797 337.73C764.091 338.642 765.866 338.696 766.74 337.849C767.613 337.003 769.097 336.503 770.037 336.741C770.976 336.978 771.076 337.821 770.257 338.614C767.843 340.954 771.162 340.851 776.668 338.417C779.482 337.172 780.872 335.906 779.758 335.603C778.645 335.3 777.064 335.7 776.246 336.493C775.428 337.285 773.94 337.727 772.942 337.475C771.796 337.186 772.15 336.268 773.899 334.991C777.579 332.304 775.663 331.987 769.041 334.187C763.933 335.882 763.815 335.852 766.747 333.607C771.082 330.288 767.921 330.096 761.158 333.268ZM674.705 314.657C671.648 316.018 669.284 318.274 669.451 319.668C669.617 321.062 668.36 322.578 666.657 323.037C664.955 323.494 663.635 324.857 663.725 326.067C663.82 327.352 666.576 326.528 670.368 324.08C675.584 320.715 676.127 319.947 673.15 320.151C670.507 320.33 671.199 319.57 675.569 317.487C683.156 313.873 682.356 311.25 674.705 314.657ZM403.406 245.292C401.14 246.643 398.92 257.486 400.809 257.963C401.749 258.201 403.295 255.32 404.244 251.562C406.009 244.58 405.904 243.801 403.406 245.292ZM388.445 244.992C388.64 246.622 388.621 248.662 388.403 249.524C388.185 250.387 389.16 251.384 390.569 251.74C393.599 252.506 393.932 251.714 392.687 246.703C391.571 242.218 387.939 240.751 388.445 244.992ZM625.667 314.547C614.204 324.543 592.551 357.31 596.712 358.362C597.631 358.594 602.848 351.529 608.307 342.664C617.71 327.39 621.499 322.588 631.124 313.744C637.651 307.746 632.614 308.487 625.667 314.547ZM384.689 250.254C383.769 253.756 387.89 262.873 389.63 261.186C390.403 260.436 389.759 257.097 388.197 253.761C386.417 249.955 385.111 248.649 384.689 250.254ZM411.763 260.731C411.695 263.213 411.409 266.209 411.124 267.385C410.841 268.564 411.377 269.721 412.317 269.958C414.941 270.622 415.806 264.683 413.736 260.214C411.948 256.358 411.88 256.376 411.763 260.731ZM702.489 340.689C691.25 344.884 686.751 348.943 696.484 346.107C704.563 343.75 716.468 337.881 714.237 337.352C713.294 337.128 708.008 338.629 702.489 340.689ZM644.216 324.907C639.822 329.124 640.094 330.35 644.859 327.821C649.122 325.558 650.845 322.974 648.49 322.378C647.776 322.198 645.852 323.336 644.216 324.907ZM713.961 344.357C704.387 347.039 700.005 349.337 701.071 351.121C701.623 352.047 726.149 344.15 726.453 342.947C726.881 341.256 723.776 341.606 713.961 344.357ZM724.746 345.829C721.366 347.176 716.422 349.137 713.757 350.19C711.092 351.243 709.251 352.674 709.665 353.371C710.601 354.938 730.852 347.114 731.393 344.977C731.9 342.968 731.932 342.965 724.746 345.829ZM768.509 353.924C767.724 354.39 766.881 355.568 766.636 356.54C766.365 357.609 767.187 357.709 768.721 356.794C770.115 355.963 770.957 354.786 770.595 354.178C770.232 353.57 769.293 353.455 768.509 353.924ZM726.658 350.458C720.805 352.562 716.331 354.817 716.72 355.466C717.108 356.117 719.626 355.89 722.316 354.96C725.701 353.792 727.255 353.925 727.366 355.395C727.466 356.739 729.912 356.54 734.03 354.851C740.24 352.304 741.988 349.629 738.784 347.58C737.969 347.057 732.513 348.354 726.658 350.458ZM743.954 351.801C741.281 353.039 739.522 354.77 740.044 355.647C740.565 356.526 742.724 356.325 744.843 355.201C746.962 354.075 749.396 353.359 750.255 353.608C751.112 353.856 750.05 354.807 747.893 355.717C745.736 356.63 744.358 358.022 744.829 358.812C745.3 359.602 747.62 359.221 749.986 357.966C754.086 355.789 754.194 355.814 752.309 358.487C750.417 361.173 750.557 361.214 755.619 359.466C758.526 358.463 761.077 356.961 761.287 356.129C761.808 354.069 759.426 353.634 756.659 355.285C755.048 356.246 753.796 355.663 752.384 353.296C749.878 349.095 749.819 349.085 743.954 351.801ZM597.904 319.562C593.902 322.034 591.021 324.717 591.503 325.524C592.483 327.168 602.031 322.351 605.677 318.373C609.541 314.157 605.698 314.745 597.904 319.562ZM377.406 261.59C379.291 267.911 382.739 275.205 383.991 275.521C386.928 276.264 386.354 271.135 382.881 265.585C379.085 259.52 376.15 257.377 377.406 261.59ZM731.223 351.92C728.414 354.093 728.459 354.168 731.705 352.729C733.674 351.855 735.361 350.849 735.45 350.495C735.805 349.089 734.175 349.639 731.223 351.92ZM408.396 275.599C408.39 278.987 407.898 279.908 406.736 278.707C404.629 276.533 403.855 279.646 403.614 291.247C403.509 296.295 404.156 300.609 405.053 300.836C406.599 301.226 407.19 297.125 407.207 285.874C407.214 281.999 407.647 281.293 409.096 282.788C410.518 284.257 410.959 283.664 410.913 280.337C410.88 277.924 411.084 274.986 411.369 273.808C411.652 272.631 411.101 271.468 410.144 271.227C409.114 270.966 408.399 272.752 408.396 275.599ZM393.066 271.725C392.112 273.334 390.029 277.592 388.433 281.187C386.838 284.782 383.958 289.534 382.032 291.746C376.001 298.68 377.146 300.513 383.535 294.153C390.183 287.533 397.52 273.501 395.846 270.61C395.269 269.614 394.018 270.115 393.066 271.725ZM639.245 334.126C635.753 336.553 633.514 342.219 635.817 342.801C636.544 342.985 637.808 342.487 638.626 341.694C639.445 340.901 639.166 340.013 638.008 339.72C636.844 339.426 638.182 337.727 640.992 335.931C643.792 334.14 645.3 332.476 644.341 332.234C643.385 331.992 641.09 332.845 639.245 334.126ZM371.415 266.6C370.503 269.928 376.453 284.437 379.013 285.129C380.618 285.562 380.941 284.808 380.23 282.295C378.323 275.572 372.027 264.363 371.415 266.6ZM558.706 324.285C552.914 328.27 549.678 331.935 551.536 332.405C551.808 332.474 555.795 329.801 560.398 326.466C570.227 319.346 568.715 317.397 558.706 324.285ZM590.352 329.948C587.897 331.577 585.589 334.06 585.222 335.467C584.856 336.873 583.624 339.424 582.485 341.136C580.885 343.537 581.697 343.41 586.046 340.571C591.931 336.73 594.308 332.97 590.098 334.158C588.754 334.538 590.033 333.275 592.942 331.349C595.852 329.426 597.465 327.656 596.525 327.419C595.585 327.181 592.808 328.319 590.352 329.948ZM364.044 279.022C365.798 283.162 366.419 285.725 365.424 284.715C362.714 281.962 362.724 284.417 365.463 293.85C368.409 303.998 370.282 305.044 371.936 297.464C373.3 291.219 367.059 273.059 363.218 272.088C361.646 271.691 361.923 274.009 364.044 279.022ZM283.821 260.655C283.3 262.744 293.078 280.892 293.66 278.92C294.329 276.663 287.307 260.173 285.482 259.712C284.744 259.525 283.996 259.948 283.821 260.655ZM399.831 291.189C398.278 295.627 397.834 315.368 399.278 315.733C401.34 316.254 402.612 303.394 401.296 295.343C400.783 292.214 400.124 290.345 399.831 291.189ZM554.615 335.842C551.185 338.568 547.743 342.454 546.964 344.478C546.186 346.501 544.67 349.367 543.599 350.845C539.834 356.036 544.646 354.183 550.373 348.235C553.556 344.929 555.185 342.532 553.99 342.91C550.637 343.969 551.901 341.771 557.266 337.21C564.351 331.189 561.997 329.975 554.615 335.842ZM324.005 274.218C323.229 277.288 331.418 291.896 333.814 291.718C335.168 291.617 333.727 287.656 330.276 281.993C327.074 276.739 324.252 273.239 324.005 274.218ZM658.379 360.615C661.268 363.026 668.765 366.658 675.039 368.685C688.07 372.897 715.811 377.867 716.264 376.071C716.431 375.412 705.221 372.035 691.353 368.571C677.486 365.106 663.211 360.911 659.633 359.251L653.126 356.232L658.379 360.615ZM294.09 270.34C293.852 271.279 295.123 274.339 296.914 277.14C298.706 279.941 300.332 281.593 300.529 280.814C300.726 280.035 302.077 281.184 303.53 283.366C307.188 288.856 309.288 286.939 305.878 281.223C304.357 278.672 302.542 276.927 301.845 277.343C301.147 277.759 299.213 275.969 297.549 273.366C295.884 270.762 294.327 269.4 294.09 270.34ZM316.883 280.824C316.496 282.358 316.871 284.326 317.717 285.198C320.189 287.749 320.886 286.201 319.173 281.961C317.847 278.678 317.473 278.492 316.883 280.824ZM309.846 279.905C309.303 282.054 313.108 287.548 314.547 286.69C315.114 286.352 314.39 284.29 312.935 282.109C311.482 279.926 310.091 278.935 309.846 279.905ZM612.66 363.913C597.205 371.332 558.295 395.801 549.057 403.914C541.811 410.276 540.421 415.481 547.396 410.126C549.481 408.527 559.029 401.784 568.613 395.145C585.963 383.124 586.066 383.085 592.829 385.619C596.564 387.021 609.785 391.998 622.207 396.681C646.061 405.672 656.839 407.661 677.141 406.826C691.727 406.225 689.371 403.64 673.585 402.921C665.926 402.572 653.512 400.727 645.998 398.819C626.655 393.908 592.893 382.539 592.325 380.745C592.064 379.915 599.752 375.24 609.411 370.351C619.07 365.465 627.181 360.906 627.434 360.22C628.5 357.356 623.962 358.49 612.66 363.913ZM362.403 295.027C361.536 298.214 368.098 317.863 369.366 315.88C369.975 314.929 369.844 311.689 369.078 308.678C367.052 300.733 363.068 292.584 362.403 295.027ZM391.892 310.231C391.17 315.546 390.136 321.671 389.595 323.843C389.024 326.139 389.473 327.519 390.668 327.142C393.176 326.349 396.389 305.856 394.498 302.711C393.631 301.273 392.775 303.745 391.892 310.231ZM285.234 281.736C293.1 288.307 298.147 290.802 317.544 297.711C330.189 302.215 341.005 305.641 341.583 305.327C342.162 305.012 341.419 303.287 339.933 301.494C338.033 299.2 332.227 296.969 320.35 293.967C306.873 290.561 301.118 288.191 291.825 282.215C276.426 272.313 273.724 272.117 285.234 281.736ZM537.674 349.574C529.885 360.697 509.514 421.763 512.548 424.894C513.459 425.833 516.635 417.611 521.241 402.377C525.235 389.178 531.441 371.366 535.035 362.792C541.796 346.669 542.628 342.499 537.674 349.574ZM546.948 354.65C540.13 359.566 539.183 361.098 535.953 372.426C534.008 379.244 531.142 388.383 529.586 392.738C528 397.171 527.47 400.836 528.379 401.066C529.274 401.292 528.314 403.032 526.246 404.932C523.99 407.004 522.041 411.055 521.373 415.059L520.259 421.731L526.017 415.4C529.184 411.917 531.511 408.236 531.191 407.219C530.87 406.202 532.37 403.379 534.525 400.945C540.158 394.585 540.393 391.302 534.854 396.341C527.75 402.806 530.092 398.247 538.497 389.247C547.072 380.069 548.163 377.911 541.944 382.433C536.857 386.13 536.86 384.334 541.95 379.052C546.655 374.167 547.266 371.556 542.93 374.863C541.019 376.32 543.104 373.528 547.564 368.658C554.53 361.053 555.018 360.137 551.026 362.161C546.628 364.39 546.485 364.363 548.395 361.653C549.929 359.476 549.766 358.991 547.715 359.64C546.232 360.108 547.418 358.451 550.353 355.956C558.153 349.327 555.656 348.369 546.948 354.65ZM716.044 398.517C710.875 401.667 706.913 404.693 707.24 405.242C708.045 406.593 710.437 405.502 719.239 399.768C729.976 392.773 727.233 391.7 716.044 398.517ZM722.877 400.244C717.708 403.394 713.921 406.713 714.464 407.621C715.007 408.529 717.806 407.617 720.683 405.596C723.56 403.575 726.453 402.056 727.114 402.224C727.776 402.391 726.774 403.57 724.892 404.842C722.127 406.712 721.793 407.648 723.148 409.706C724.46 411.699 726.848 411.023 734.098 406.606C739.198 403.498 743.032 400.389 742.62 399.696C742.206 399.004 737.778 400.935 732.778 403.986C724.261 409.186 724.136 409.207 730.806 404.329C738.599 398.627 739.242 395.393 731.856 399.04C727.961 400.965 727.713 400.943 730.322 398.901C736.765 393.862 731.917 394.736 722.877 400.244ZM709.852 396.648C705.425 399.035 702.25 401.739 702.797 402.657C703.345 403.575 707.324 402.22 711.639 399.644C721.855 393.552 720.333 391.001 709.852 396.648ZM386.749 311.796C385.864 312.33 383.872 317.787 382.32 323.927C380.348 331.732 380.176 334.684 381.751 333.744C382.997 333.001 384.973 327.591 386.18 321.615C387.378 315.68 387.635 311.263 386.749 311.796ZM673.321 389.03C665.385 392.458 662.383 394.987 665.417 395.69C667.664 396.211 683.331 387.908 682.567 386.603C682.165 385.914 678.005 387.006 673.321 389.03ZM693.794 392.935C692.245 394.065 689.838 394.3 688.443 393.455C687.048 392.612 683.607 392.93 680.795 394.166C674.876 396.769 677.112 398.162 683.38 395.777C685.692 394.899 687.948 394.787 688.392 395.532C689.376 397.182 698.747 395.045 699.25 393.057C699.827 390.774 696.845 390.708 693.794 392.935ZM377.961 319.523C377.369 321.822 375.679 326.467 374.206 329.842C372.55 333.642 372.203 336.151 373.3 336.428C375.901 337.086 382.19 320.626 380.451 317.712C379.418 315.98 378.748 316.467 377.961 319.523ZM292.153 306.767C291.696 308.574 306.184 329.099 311.039 333.523C314.867 337.011 317.873 335.552 314.138 332.019C312.626 330.588 307.562 324.054 302.886 317.498C294.118 305.21 292.863 303.955 292.153 306.767ZM494.647 361.525C490.64 365.924 491 367.069 495.62 364.617C500.118 362.229 501.579 359.762 498.899 359.084C497.993 358.856 496.08 359.953 494.647 361.525ZM308.997 317.45C310.685 324.111 323.346 341.977 327.041 342.911C329.721 343.588 329.17 339.658 326.305 337.669C324.68 336.54 321.07 332.178 318.284 327.976C315.497 323.773 312.046 318.812 310.615 316.951C308.196 313.804 308.081 313.839 308.997 317.45ZM317.753 320.53C317.252 322.51 330.492 340.148 332.944 340.768C336.06 341.555 334.335 337.946 327.127 328.591C319.609 318.831 318.437 317.824 317.753 320.53ZM329.81 323.159C329.371 324.895 337.4 338.259 339.145 338.7C341.88 339.392 340.616 335.995 335.556 329.059C332.6 325.006 330.014 322.351 329.81 323.159ZM496.419 366.523C492.481 368.872 491.055 371.641 493.468 372.251C495.793 372.839 500.409 368.92 500.23 366.509C500.121 365.055 498.874 365.059 496.419 366.523ZM337.952 326.897C337.401 329.078 342.426 336.794 343.847 335.947C344.424 335.604 343.433 333.034 341.644 330.238C339.855 327.443 338.195 325.938 337.952 326.897ZM391.74 347.778C375.619 347.35 364.4 351.624 362.61 358.877C361.73 362.444 361.985 362.967 363.791 361.286C365.619 359.585 365.883 360.028 365.068 363.426C364.253 366.824 364.517 367.267 366.345 365.566C367.611 364.387 368.477 364.197 368.269 365.144C368.06 366.09 368.909 365.896 370.157 364.712C372.491 362.496 373.129 362.443 380.277 363.862C382.587 364.321 385.878 363.862 387.587 362.844C389.295 361.823 391.05 361.585 391.485 362.313C391.919 363.042 392.534 362.613 392.851 361.361C393.167 360.109 393.775 359.668 394.2 360.38C394.626 361.095 396.864 360.641 399.171 359.372C402.028 357.803 403.295 355.835 403.139 353.215C402.91 349.411 399.947 347.997 391.74 347.778ZM380.696 351.928C380.34 353.337 381.201 354.782 382.611 355.138C384.02 355.494 385.464 354.632 385.821 353.223C386.177 351.814 385.315 350.369 383.906 350.013C382.496 349.657 381.052 350.518 380.696 351.928ZM493.531 380.358C490.4 382.644 490.31 390.154 493.418 389.924C495.749 389.749 499.591 379.251 497.515 378.726C496.801 378.546 495.009 379.279 493.531 380.358ZM464.639 379.753C459.327 384.964 458.224 386.97 460.376 387.514C461.941 387.909 470.912 377.108 470.121 375.781C469.83 375.293 467.362 377.081 464.639 379.753ZM405.496 363.103C401.503 365.485 401.78 367.621 406.052 367.367C409.348 367.169 409.62 367.625 407.88 370.431C406.579 372.531 406.581 373.918 407.886 374.248C410.623 374.939 414.598 383.034 413.903 386.496C413.543 388.285 413.843 388.582 414.749 387.341C417.035 384.213 419.357 385.919 418.333 389.973C417.638 392.723 418.018 393.352 419.754 392.317C423.326 390.186 422.088 378.193 418.226 377.53C416.288 377.196 415.55 375.737 416.113 373.356C417.886 365.867 411.385 359.59 405.496 363.103ZM634.663 425.688C630.482 428.392 622.902 432.553 617.818 434.936C608.003 439.534 606.577 443.579 615.906 440.359C623.388 437.778 643.799 425.495 644.372 423.23C645.195 419.974 642.408 420.68 634.663 425.688ZM645.188 433.154C629.742 440.111 626.617 442.251 630.47 443.224C634.656 444.282 663.24 428.796 661.304 426.517C661.092 426.269 653.84 429.256 645.188 433.154ZM656.909 434.451C650.024 438.122 645.291 441.389 646.389 441.712C648.907 442.454 671.037 430.556 670.11 428.959C669.732 428.311 663.792 430.781 656.909 434.451ZM666.802 436.634C659.667 439.977 654.607 443.213 655.558 443.822C657.497 445.062 679.726 435.625 681.537 432.794C683.639 429.512 679.949 430.473 666.802 436.634ZM345.617 351.695C342.635 354.267 341.762 354.335 340.942 352.065C340.123 349.797 338.864 349.91 334.252 352.661C326.642 357.2 327.993 359.937 336.847 357.92C340.79 357.023 345.28 357.071 346.826 358.029C348.371 358.986 349.843 358.949 350.096 357.946C350.35 356.944 351.71 356.415 353.119 356.771C356.736 357.685 357.051 354.612 353.658 351.519C349.857 348.056 349.837 348.056 345.617 351.695ZM676.985 438.731C671.909 441.423 668.147 444.285 668.627 445.089C669.107 445.894 674.028 443.852 679.562 440.551C691.775 433.266 689.854 431.908 676.985 438.731ZM560.904 412.17C556.199 416.493 557.049 419.958 561.842 415.988C564.849 413.498 567.115 409.038 565.574 408.649C565.212 408.557 563.111 410.142 560.904 412.17ZM382.533 369.828C377.353 370.547 371.19 372.279 368.839 373.675C364.821 376.06 364.717 376.363 367.121 378.671C368.528 380.023 369.421 382.158 369.102 383.417C368.444 386.024 373.762 387.45 376.311 385.35C377.355 384.489 377.801 384.774 377.484 386.101C377.201 387.28 377.739 388.437 378.678 388.674C379.618 388.912 380.678 387.953 381.034 386.544C381.39 385.134 382.45 384.176 383.39 384.413C384.329 384.651 384.867 385.81 384.584 386.987C384.212 388.537 384.646 388.583 386.158 387.152C387.305 386.064 388.965 385.918 389.846 386.828C390.759 387.771 391.738 387.337 392.122 385.818C392.492 384.354 393.708 383.591 394.822 384.122C396.173 384.767 397.425 382.812 398.577 378.256C400.106 372.205 399.826 371.256 396.127 369.971C393.83 369.172 387.712 369.109 382.533 369.828ZM460.468 393.025C455.462 399.917 454.477 402.379 456.52 402.896C457.28 403.088 460.103 399.712 462.792 395.394C468.625 386.029 466.857 384.228 460.468 393.025ZM577.688 421.545C575.823 422.905 575.528 423.914 576.653 425.074C578.325 426.799 583.988 424.849 584.625 422.329C585.222 419.968 580.57 419.441 577.688 421.545ZM587.564 422.688C585.409 423.974 584.76 428.037 586.634 428.511C587.539 428.739 589.493 427.597 590.974 425.973C593.056 423.687 593.136 422.884 591.328 422.427C590.042 422.102 588.348 422.219 587.564 422.688ZM336.758 362.034C332.035 364.851 327.946 388.089 332.424 386.675C333.707 386.27 333.806 387.259 332.682 389.297C331.059 392.247 331.41 392.554 336.251 392.4C340.292 392.273 341.703 392.898 341.944 394.927C342.121 396.412 343.122 397.355 344.169 397.024C345.216 396.694 345.941 395.327 345.78 393.985C345.615 392.597 347.154 391.535 349.36 391.517C353.136 391.486 353.175 391.385 350.953 387.198C348.501 382.58 350.788 381.958 353.7 386.451C355.542 389.29 355.591 388.872 354.427 380.254C354.085 377.717 354.563 377.351 356.465 378.691C357.831 379.655 359.142 379.681 359.377 378.751C359.613 377.82 358.371 376.269 356.619 375.305C354.866 374.34 353.229 371.653 352.981 369.335C352.637 366.136 350.943 364.558 345.959 362.791C342.189 361.456 338.269 361.133 336.758 362.034ZM379.902 372.749C379.029 373.593 378.635 374.822 379.027 375.478C380.076 377.238 385.45 376.263 385.967 374.216C386.553 371.898 381.934 370.78 379.902 372.749ZM490.185 400.5C489.948 401.439 490.907 402.499 492.316 402.856C493.725 403.212 495.073 402.735 495.31 401.795C495.548 400.855 494.589 399.795 493.18 399.439C491.77 399.083 490.423 399.56 490.185 400.5ZM428.053 387.466C427.647 389.074 428.577 389.909 430.646 389.79C433.72 389.615 433.702 389.687 430.261 391.314C428.275 392.253 426.195 394.819 425.639 397.017C424.854 400.127 425.2 400.674 427.197 399.483C431.257 397.061 432.069 398.105 430.745 404.049C430.067 407.096 430.489 410.769 431.684 412.21C434.292 415.359 433.429 420.064 430.186 420.375C426.562 420.722 428.828 423.209 435.334 426.023C439.007 427.613 442.44 428.021 444.374 427.1C448.445 425.157 450.39 417.103 448.765 408.905C447.265 401.329 444.509 397.408 444.864 403.358C445.035 406.192 444.374 407.096 442.483 406.618C438.685 405.658 437.426 399.186 440.66 397.25C442.668 396.047 442.478 394.745 439.796 391.341C435.678 386.117 428.955 383.898 428.053 387.466ZM314.949 362.118C308.561 366.217 304.619 372.402 302.415 381.786C301.376 386.206 301.157 388.961 301.928 387.905C304.222 384.767 306.526 386.487 305.609 390.653C304.796 394.353 304.865 394.391 307.111 391.487C309.343 388.602 309.473 388.682 309.667 393.042L309.873 397.637L312.098 393.656L314.324 389.675L314.937 394.23C315.308 396.984 316.199 398.156 317.19 397.197C318.09 396.323 318.168 394.929 317.363 394.096C316.557 393.265 316.251 391.291 316.683 389.71C317.406 387.057 317.585 387.112 318.981 390.398C319.814 392.357 320.986 394.085 321.587 394.237C323.277 394.664 324.524 388.055 323.042 386.526C322.32 385.78 323.059 381.482 324.685 376.975C329.664 363.18 324.817 355.785 314.949 362.118ZM528.185 420.225C524.663 422.902 522.15 425.711 522.6 426.466C523.594 428.131 533.998 420.676 534.844 417.693C535.703 414.663 535.306 414.815 528.185 420.225ZM491.012 411.613C490.774 412.553 491.349 413.516 492.288 413.753C493.228 413.99 494.191 413.416 494.428 412.476C494.666 411.537 494.091 410.574 493.152 410.336C492.212 410.099 491.249 410.673 491.012 411.613ZM337.679 378.313C337.123 380.515 337.681 381.944 339.059 381.842C340.333 381.748 341.634 380.644 341.95 379.392C342.267 378.14 341.647 376.551 340.57 375.863C339.406 375.118 338.236 376.111 337.679 378.313ZM402.162 393.734C398.089 396.163 396.557 400.463 399.5 401.207C401.094 401.609 400.979 402.066 398.982 403.257C395.89 405.101 393.982 411.401 396.784 410.516C397.871 410.172 398.542 410.751 398.277 411.802C398.011 412.852 398.823 413.386 400.081 412.99C401.647 412.494 401.769 413.35 400.471 415.709C399.428 417.603 399.337 418.912 400.267 418.618C401.197 418.325 401.779 420.962 401.561 424.479C401.341 427.997 401.674 430.569 402.298 430.196C402.923 429.823 404.041 431.018 404.782 432.852C405.698 435.124 407.265 436.022 409.7 435.672C412.042 435.337 412.607 434.699 411.34 433.822C409.121 432.288 409.836 427.445 412.195 428.041C413.056 428.259 413.883 429.491 414.03 430.777C414.179 432.065 415.203 428.572 416.307 423.018C417.796 415.532 417.564 410.533 415.412 403.709C412.265 393.725 407.805 390.367 402.162 393.734ZM310.149 372.858C306.51 376.85 306.418 377.681 309.527 378.467C312.834 379.303 315.982 375.015 314.223 372.066C313.304 370.526 312.051 370.769 310.149 372.858ZM401.435 396.089C400.66 396.84 400.641 398.087 401.392 398.862C402.143 399.637 403.391 399.656 404.166 398.905C404.941 398.154 404.96 396.907 404.209 396.132C403.458 395.357 402.21 395.338 401.435 396.089ZM421.949 404.537C421.352 407.107 423.403 411.266 424.658 410.031C425.35 409.35 425.094 407.53 424.09 405.987C423.086 404.443 422.123 403.791 421.949 404.537ZM359.09 392.351C359.428 395.19 362.755 395.466 364.464 392.797C365.086 391.824 364.064 390.762 362.193 390.436C360.123 390.075 358.908 390.826 359.09 392.351ZM370.267 397.613C358.789 402.725 350.629 419.329 356.821 424.971C358.462 426.467 360.676 427.415 361.741 427.079C362.844 426.731 363.096 428.754 362.328 431.795C361.54 434.91 361.801 436.863 362.957 436.497C364.043 436.154 364.593 437.267 364.177 438.97C363.588 441.384 363.88 441.634 365.495 440.101C367.175 438.512 367.802 438.843 368.778 441.839C369.822 445.036 370.014 444.821 370.18 440.276C370.357 435.457 370.57 435.281 372.693 438.185C374.882 441.183 374.929 441.008 373.544 435.084C371.96 428.302 373.313 427.161 376.035 432.987C377.569 436.272 377.737 436.156 377.904 431.691C378.054 427.694 378.548 427.112 380.577 428.541C382.818 430.122 382.918 429.665 381.579 423.938C380.411 418.945 380.557 417.908 382.261 419.109C383.852 420.231 384.873 419.073 386.093 414.763C387.316 410.442 387.077 408.971 385.186 409.197C381.298 409.661 381.015 406.098 384.859 405.065C387.715 404.296 387.344 403.506 382.375 399.783C375.286 394.467 376.747 394.727 370.267 397.613ZM593.193 458.54C586.717 461.419 581.227 464.539 580.991 465.473C580.442 467.643 582.98 466.901 596.106 461.059C606.009 456.648 609.409 454.136 606.267 453.549C605.551 453.416 599.669 455.662 593.193 458.54ZM621.109 459.939C618.447 460.951 616.754 460.841 616.665 459.647C616.586 458.585 612.006 459.472 606.486 461.616C600.966 463.761 595.605 465.599 594.574 465.704C593.542 465.808 593.099 466.627 593.592 467.524C594.084 468.419 596.708 468.386 599.421 467.449C602.137 466.511 605.3 466.408 606.452 467.221C608.765 468.851 625.248 462.943 625.931 460.24C626.491 458.023 626.196 458.005 621.109 459.939ZM629.565 463.839C625.667 465.669 624.321 467.005 625.927 467.445C627.329 467.831 631.26 466.838 634.663 465.24C638.56 463.41 639.906 462.075 638.3 461.634C636.898 461.249 632.967 462.242 629.565 463.839ZM173.769 350.913C172.786 354.803 172.206 354.975 167.385 352.804C164.469 351.491 158.283 348.929 153.639 347.111C146.03 344.132 145.018 344.132 143.379 347.107C141.769 350.034 140.956 350.059 136.258 347.325C133.341 345.628 122.301 342.053 111.725 339.38C96.504 335.533 92.3703 335.012 91.8984 336.879C91.2788 339.33 78.5761 340.089 70.8547 338.137C68.4887 337.539 64.677 338.261 62.3856 339.741C59.5472 341.573 55.121 341.979 48.5111 341.016C41.2579 339.959 38.4138 340.31 37.2606 342.407C36.1662 344.393 33.1811 344.929 27.0192 344.242C14.7514 342.877 11.7671 344.258 19.4581 347.74C30.4512 352.717 37.7142 357.115 37.3459 358.572C37.1495 359.35 33.8824 358.528 30.0836 356.746C26.2848 354.965 22.1427 353.211 20.877 352.847C18.0035 352.021 30.1664 370.383 39.2198 380.533C47.593 389.923 48.4171 392.35 43.8593 394.189C40.5624 395.521 40.6538 396.014 45.0257 400.462C47.635 403.117 53.9284 408.166 59.01 411.682C64.3432 415.374 68.258 419.379 68.2735 421.158C68.2866 422.875 71.1906 425.968 74.8316 428.144C78.4235 430.291 82.5827 434.005 84.0718 436.397C85.561 438.789 92.88 444.986 100.334 450.168C107.79 455.349 114.486 461.004 115.215 462.735C115.945 464.464 119.151 467.816 122.339 470.181C126.234 473.074 127.736 475.382 126.92 477.222C124.404 482.898 157.491 494.81 173.408 493.958C176.406 493.798 178.355 495.261 180.96 499.629L184.471 505.514L199.062 504.502C213.816 503.48 218.522 504.621 217.427 508.955C217.096 510.263 217.233 511.437 217.734 511.564C221.328 512.472 242.352 509.522 251.827 506.779C258.163 504.945 274.258 502.334 287.596 500.974C300.933 499.616 312.103 498.387 312.416 498.242C313.522 497.733 289.879 482.571 275.222 474.392C258.118 464.846 243.874 454.647 244.452 452.361C244.671 451.493 246.056 451.678 247.529 452.77C256.102 459.13 256.151 457.875 248.151 436.4C238.848 411.424 237.2 405.622 239.579 406.224C241.356 406.673 256.396 445.68 258.731 455.897C260.031 461.584 260.91 462.297 271.381 466.142C277.569 468.415 289.222 474.181 297.276 478.953L311.918 487.63L310.077 482.018C306.403 470.812 296.617 453.352 293.581 452.585C291.871 452.153 286.423 445.58 281.476 437.978C268.923 418.692 254.086 400.823 250.936 401.199C249.48 401.373 243.183 396.574 236.943 390.531C218.323 372.506 212.973 368.167 213.36 371.418C213.84 375.429 210.694 374.134 204.462 367.752C197.269 360.386 190.583 355.317 189.17 356.16C188.539 356.536 188.771 357.035 189.687 357.266C190.604 357.498 192.558 359.202 194.031 361.054C196.23 363.821 195.326 363.538 188.949 359.472C182.932 355.632 181.984 354.451 184.721 354.205C187.457 353.957 186.745 353.071 181.551 350.259C175.014 346.723 174.824 346.738 173.769 350.913ZM373.525 398.277C371.561 400.179 372.796 403.893 375.145 403.151C377.544 402.395 378.699 397.767 376.62 397.241C375.735 397.018 374.344 397.484 373.525 398.277ZM407.154 408.942C404.418 412.794 404.572 417.936 407.447 418.663C410.927 419.542 412.604 415.17 410.639 410.348C409.156 406.704 408.834 406.575 407.154 408.942ZM436.201 416.056C434.206 417.989 434.897 419.16 439.238 421.191C443.356 423.118 446.611 420.628 443.82 417.685C441.133 414.849 438.112 414.204 436.201 416.056ZM525.112 445.675C519.297 449.203 515.138 452.241 515.867 452.425C517.693 452.887 537.648 442.808 538.05 441.221C538.781 438.338 535.136 439.592 525.112 445.675ZM378.641 403.204C378.403 404.144 378.932 405.095 379.817 405.319C380.701 405.542 382.093 405.076 382.911 404.284C383.73 403.491 383.2 402.539 381.736 402.169C380.272 401.799 378.878 402.265 378.641 403.204ZM350.79 398.764C348.517 400.423 348.358 401.425 349.943 404.084C351.699 407.027 352.107 407.023 353.947 404.055C356.648 399.698 354.485 396.069 350.79 398.764ZM535.518 449.443C530.208 451.664 525.682 454.204 525.459 455.088C524.9 457.298 530.169 455.678 540.238 450.544C551.113 445 547.917 444.254 535.518 449.443ZM180.551 360.033C180.363 360.778 183.254 363.088 186.977 365.169C190.7 367.249 194.96 369.809 196.444 370.858C197.927 371.907 199.318 372.068 199.534 371.214C199.75 370.358 196.607 367.428 192.548 364.701C184.473 359.272 181.077 357.953 180.551 360.033ZM538.436 454.531C534.508 456.475 531.668 458.692 532.125 459.46C532.996 460.92 546.952 454.92 547.727 452.754C548.562 450.418 545.593 450.986 538.436 454.531ZM549.62 456.567C545.472 458.459 544.348 459.609 546.179 460.077C548.907 460.776 557.301 456.253 556.311 454.621C556.021 454.143 553.01 455.019 549.62 456.567ZM95.2645 342.213C93.8041 343.627 101.218 347.663 108.495 349.413C111.836 350.216 112.426 349.958 110.793 348.409C107.173 344.977 96.7181 340.805 95.2645 342.213ZM155.18 357.092C153.905 357.851 164.612 365.357 168.487 366.42C171.903 367.358 169.969 363.311 165.635 360.453C159.94 356.696 157.277 355.841 155.18 357.092ZM364.876 412.445C362.834 416.151 364.957 419.201 368.22 417.254C370.688 415.782 370.667 410.276 368.194 409.651C367.334 409.434 365.84 410.692 364.876 412.445ZM319.074 401.736C317.523 402.867 313.735 403.157 310.655 402.378C305.344 401.036 304.838 401.379 300.827 409.03C296.52 417.24 294.414 430.067 297.532 429.083C298.477 428.784 300.081 429.935 301.097 431.64C302.712 434.347 303.399 433.412 306.504 424.276C309.037 416.819 311.921 412.041 316.525 407.664C322.898 401.605 324.565 397.728 319.074 401.736ZM333.047 404.904C324.733 405.42 315.747 413.75 312.319 424.121C310.866 428.519 310.427 430.879 311.344 429.366C312.668 427.184 313.605 427.152 315.862 429.209C317.428 430.635 318.412 432.974 318.051 434.405C317.689 435.837 316.744 436.34 315.951 435.521C315.158 434.703 314.29 434.905 314.021 435.968C313.752 437.032 314.953 437.948 316.687 438.004C319.923 438.108 320.354 437.157 319.645 431.457C319.045 426.624 322.345 428.263 323.38 433.31L324.262 437.622L325.42 433.522C326.059 431.268 326.953 430.051 327.41 430.817C328.686 432.953 334.107 427.912 335.29 423.491C335.9 421.213 336.972 420.21 337.841 421.108C338.828 422.126 339.346 420.896 339.357 417.509C339.374 412.863 339.594 412.66 341.628 415.426C343.545 418.033 343.974 418.127 344.496 416.06C344.834 414.724 344.421 412.475 343.578 411.063C342.387 409.066 342.525 408.616 344.197 409.038C345.379 409.337 346.067 408.693 345.724 407.607C344.962 405.197 341.211 404.398 333.047 404.904ZM182.288 367.544C181.85 369.276 196.065 377.677 197.741 376.676C198.336 376.323 196.956 374.728 194.678 373.132C187.535 368.13 182.691 365.946 182.288 367.544ZM422.004 433.492C412.386 440.907 406.671 456.129 411.58 461.255C417.316 467.241 435.411 458.198 434.898 449.601C434.755 447.219 435.224 446.55 436.277 447.638C438.457 449.888 439.893 443.629 437.946 440.365C436.755 438.368 436.917 437.924 438.673 438.368C440.489 438.827 440.642 438.329 439.454 435.839C436.98 430.654 427.362 429.361 422.004 433.492ZM72.9152 350.471C79.6401 360.724 80.249 361.399 80.7982 359.226C81.4419 356.679 71.9813 342.057 69.243 341.365C67.5364 340.934 68.9377 344.406 72.9152 350.471ZM100.567 352.916C102.726 354.262 106.397 355.915 108.726 356.587C112.056 357.548 112.502 357.318 110.817 355.507C109.637 354.24 105.966 352.589 102.657 351.836C97.1456 350.583 96.9701 350.673 100.567 352.916ZM184.594 374.633C184.785 377.215 197.801 385.264 198.338 383.135C198.539 382.343 195.491 379.61 191.567 377.06C186.524 373.787 184.477 373.075 184.594 374.633ZM140.568 375.537C144.894 383.511 149.257 392.919 150.264 396.443L152.094 402.85L145.721 400.035C119.011 388.239 66.8744 366.348 58.0577 363.229C40.3791 356.976 47.7658 362.603 70.0832 372.391C81.2705 377.298 90.6642 381.715 90.9565 382.205C91.4416 383.018 85.808 383.312 72.4589 383.169C67.7462 383.119 64.0276 384.889 65.0918 386.676C65.3565 387.117 72.5802 387.169 81.1469 386.79C89.7137 386.41 98.2608 386.49 100.14 386.965C111.971 389.951 177.647 420.658 207.827 437.311C229.189 449.098 235.828 452.015 233.501 448.587C231.996 446.369 199.207 427.287 174.404 414.19L156.609 404.797L153.808 394.771C150.45 382.749 139.324 362.712 135.465 361.736C133.706 361.292 135.555 366.293 140.568 375.537ZM163.388 370.416C162.932 372.219 166.707 375.108 170.746 376.047C173.216 376.622 173.24 376.254 170.927 373.367C167.933 369.631 163.977 368.083 163.388 370.416ZM303.443 408.647C301.49 411.419 302.54 415.297 305.031 414.509C307.533 413.719 308.977 407.407 306.784 406.852C305.814 406.607 304.31 407.414 303.443 408.647ZM425.553 440.504C424.996 442.706 425.555 444.136 426.933 444.033C428.207 443.939 429.507 442.836 429.824 441.584C430.14 440.331 429.52 438.743 428.444 438.054C427.28 437.309 426.11 438.302 425.553 440.504ZM572.821 476.226C568.218 476.05 552.195 472.271 535.707 467.47C507.691 459.313 497.595 457.474 496.856 460.395C496.396 462.218 557.379 478.748 570.35 480.316C575.887 480.985 583.227 481.066 586.661 480.497L592.903 479.461L586.912 477.998C583.617 477.194 577.276 476.396 572.821 476.226ZM102.688 358.905C105.512 361.939 111.172 363.37 110.375 360.848C110.032 359.761 107.68 358.362 105.148 357.736C101.547 356.848 101.012 357.103 102.688 358.905ZM324.549 415.885C322.238 417.571 322.35 418.056 325.218 418.781C327.111 419.259 329.394 418.609 330.292 417.337C331.244 415.986 330.965 414.781 329.622 414.442C328.358 414.122 326.075 414.772 324.549 415.885ZM385.306 434.683C383.58 437.14 381.524 439.776 380.737 440.538C379.227 442.001 386.874 442.164 389.478 440.725C390.27 440.287 390.361 437.744 389.68 435.073L388.445 430.217L385.306 434.683ZM189.801 384.556C190.144 385.642 192.112 386.945 194.174 387.451C197.222 388.198 197.522 387.94 195.78 386.067C192.964 383.042 189.006 382.042 189.801 384.556ZM167.172 380.683C167.522 381.788 168.633 382.43 169.645 382.11C172.384 381.245 172.202 380.108 169.201 379.35C167.737 378.98 166.824 379.579 167.172 380.683ZM219.877 395.559C218.317 397.072 231.435 406.606 234.727 406.351C236.001 406.253 233.713 403.562 229.645 400.373C221.129 393.697 221.573 393.916 219.877 395.559ZM340.626 429.49C329.936 436.671 318.684 462.784 322.246 472.146C325.717 481.273 338.114 479.49 345.586 468.791C347.257 466.4 350.043 458.831 351.776 451.972C354.311 441.943 354.457 438.445 352.524 434.106C349.74 427.85 345.509 426.21 340.626 429.49ZM425.557 450.414C422.947 454.116 424.883 457.069 428.506 454.908C431.729 452.986 431.896 449.377 428.797 448.594C427.883 448.363 426.424 449.181 425.557 450.414ZM414.656 451.729C411.613 456.047 411.378 460.548 414.161 461.251C416.247 461.778 416.993 460.755 417.209 457.058C417.477 452.503 417.604 452.433 419.056 456.029C420.801 460.35 423.087 460.092 422.554 455.634C422.076 451.622 416.628 448.929 414.656 451.729ZM117.312 376.905C119.201 379.78 127.34 383.609 127.789 381.834C128.277 379.902 124.482 377.135 119.684 375.922C117.526 375.377 116.568 375.772 117.312 376.905ZM170.128 390.488C170.471 391.575 171.474 392.646 172.359 392.87C173.244 393.093 174.161 392.507 174.399 391.568C174.636 390.628 173.631 389.556 172.167 389.186C170.703 388.816 169.785 389.402 170.128 390.488ZM197.46 397.396C197.804 398.483 199.237 399.663 200.647 400.019C202.056 400.375 202.929 399.778 202.585 398.691C202.242 397.605 200.808 396.425 199.399 396.069C197.989 395.713 197.117 396.31 197.46 397.396ZM385.655 446.016C376.114 446.503 369.498 450.634 364.311 459.348C360.421 465.88 360.557 474.341 364.595 477.186C371.679 482.179 393.186 475.211 400.402 465.585C405.389 458.933 405.37 458.457 400.118 458.449C396.361 458.443 395.732 457.826 396.477 454.877C397.182 452.089 398.063 451.738 400.52 453.26C402.323 454.377 403.859 454.431 404.124 453.384C404.377 452.381 403.047 451.173 401.168 450.698C399.289 450.223 397.946 449.066 398.183 448.126C398.744 445.909 396.191 445.48 385.655 446.016ZM223.075 407.505C222.838 408.444 224.181 409.602 226.06 410.077C227.939 410.551 229.206 412.011 228.875 413.32C228.544 414.628 229.315 416.433 230.587 417.331C231.86 418.227 233.09 418.216 233.32 417.307C233.55 416.397 232.781 415.397 231.609 415.086C230.163 414.701 230.412 414.215 232.385 413.569C234.711 412.808 234.434 412.019 230.996 409.61C225.633 405.856 223.627 405.322 223.075 407.505ZM468.556 482.437C458.996 488.448 456.47 490.821 457.971 492.373C459.6 494.053 459.291 494.846 456.203 496.902C454.145 498.274 452.768 499.911 453.142 500.538C453.517 501.167 460.565 497.659 468.804 492.745C477.043 487.83 483.56 483.431 483.284 482.968C483.008 482.506 477.897 484.702 471.927 487.845C458.771 494.774 456.016 492.949 468.063 485.286C472.818 482.261 478.063 478.695 479.715 477.365C485.792 472.471 480.78 474.748 468.556 482.437ZM377.588 452.995C376.665 454.304 376.296 456.021 376.767 456.813C377.812 458.565 383.683 456.829 385.311 454.285C387.09 451.503 379.529 450.241 377.588 452.995ZM527.984 491.836C525.81 493.285 524.798 494.665 525.737 494.903C526.677 495.14 529.226 494.149 531.401 492.699C533.576 491.25 534.588 489.87 533.648 489.632C532.709 489.395 530.159 490.386 527.984 491.836ZM254.66 422.757C255.003 423.843 256.396 425.013 257.754 425.356C259.112 425.7 263.722 428.909 267.997 432.489C276.824 439.879 276.702 439.81 277.233 437.711C277.804 435.449 262.813 423 258.072 421.802C255.816 421.232 254.312 421.653 254.66 422.757ZM335.378 442.552C332.686 444.158 332.368 449.666 334.93 450.314C336.524 450.716 337.9 449.349 338.572 446.691C339.62 442.543 338.287 440.815 335.378 442.552ZM513.049 493.519C502.512 498.178 497.295 502.426 504.226 500.701C509.581 499.368 526.972 489.908 524.959 489.423C524.017 489.196 518.657 491.04 513.049 493.519ZM354.81 460.325C351.6 470.778 351.754 474.452 355.444 475.462C356.179 475.663 356.31 473.942 355.738 471.64C355.121 469.162 355.942 464.195 357.747 459.477C359.426 455.091 360.238 450.922 359.553 450.216C358.869 449.509 356.734 454.058 354.81 460.325ZM499.4 493.677C493.094 496.983 488.323 500.337 488.797 501.129C489.761 502.745 512.491 492.016 513.084 489.668C513.805 486.815 510.82 487.69 499.4 493.677ZM199.148 412.342C198.491 412.977 199.05 414.269 200.388 415.21C203.974 417.738 207.945 418.456 207.317 416.464C206.532 413.981 200.563 410.969 199.148 412.342ZM393.021 461.361C392.783 462.3 393.742 463.36 395.152 463.716C396.561 464.073 397.908 463.595 398.146 462.656C398.383 461.716 397.424 460.656 396.015 460.3C394.606 459.944 393.258 460.421 393.021 461.361ZM421.524 468.8C419.609 469.322 415.711 469.229 412.858 468.593C403.574 466.527 402.753 468.809 392.675 524.742L390.037 539.381L397.675 528.732C401.875 522.873 408.995 514.104 413.494 509.244C421.383 500.726 421.774 499.881 424.35 485.793C427.252 469.923 426.825 467.356 421.524 468.8ZM487.641 493.262C480.724 496.902 475.468 500.583 475.961 501.443C476.865 503.015 497.324 493.132 500.987 489.354C504.886 485.331 499.982 486.767 487.641 493.262ZM311.211 444.139C308.75 445.778 307.982 447.19 308.987 448.228C309.832 449.099 310.825 448.612 311.195 447.148C312.16 443.332 315.014 444.615 315.276 448.981C315.598 454.366 317.991 454.113 320.342 448.444C322.081 444.253 321.83 443.368 318.68 442.572C316.639 442.056 313.278 442.761 311.211 444.139ZM385.362 464.877C384.076 468.723 384.535 469.019 389.768 467.717C394.079 466.644 393.881 463.395 389.436 462.272C387.707 461.835 386.018 462.916 385.362 464.877ZM471.473 493.401C465.496 496.816 461.923 499.835 463.026 500.54C464.933 501.76 483.414 492.012 484.063 489.444C484.771 486.641 481.52 487.662 471.473 493.401ZM261.566 434.98C261.384 435.699 264.654 438.57 268.83 441.359C277.565 447.194 278.387 447.524 278.92 445.416C279.135 444.565 276.025 441.734 272.008 439.125C263.801 433.796 262.042 433.097 261.566 434.98ZM344.98 457.29C344.61 458.754 345.076 460.147 346.015 460.385C346.955 460.622 347.906 460.094 348.13 459.209C348.353 458.324 347.887 456.932 347.095 456.114C346.302 455.296 345.35 455.826 344.98 457.29ZM90.9507 393.791C91.4538 395.381 90.2073 395.351 86.7185 393.688C83.3449 392.079 81.6023 391.999 81.2397 393.434C80.9444 394.602 79.6789 394.813 78.394 393.907C77.1211 393.011 75.905 392.969 75.6909 393.816C75.4767 394.663 76.7288 396.181 78.4732 397.189C80.2176 398.197 83.1602 399.9 85.013 400.976C87.2541 402.276 88.1513 402.199 87.6905 400.744C87.2543 399.363 88.6109 398.964 91.3714 399.662C93.775 400.27 95.8984 400.152 96.0879 399.402C96.2779 398.65 99.2374 399.078 102.663 400.353C112.129 403.872 108.081 398.738 98.2626 394.774C92.4379 392.422 90.4344 392.152 90.9507 393.791ZM365.155 463.755C364.393 466.771 366.902 471.116 369.832 471.856C371.053 472.165 372.441 470.88 372.916 469.001C373.391 467.122 373.074 465.406 372.211 465.188C371.349 464.97 369.545 464.018 368.203 463.072C366.689 462.006 365.531 462.266 365.155 463.755ZM378.523 468.386C378.049 470.265 378.309 472.472 379.101 473.29C379.894 474.109 380.931 473.24 381.406 471.361C381.881 469.482 381.621 467.276 380.828 466.457C380.036 465.639 378.998 466.507 378.523 468.386ZM236.685 432.753C239.484 435.761 241.745 436.333 240.956 433.833C240.613 432.746 239.029 431.541 237.437 431.153C234.942 430.548 234.837 430.769 236.685 432.753ZM153.38 420.692C148.698 423.454 139.809 427.232 133.625 429.084C120.433 433.037 119.828 435.921 132.823 432.903C142.282 430.705 163.435 420.565 164.108 417.903C164.865 414.907 161.858 415.688 153.38 420.692ZM267.881 445.948C267.399 447.856 278.135 454.935 279.909 453.878C280.598 453.466 278.673 451.262 275.631 448.981C269.167 444.134 268.414 443.84 267.881 445.948ZM340.681 467.108C340.311 468.572 340.777 469.965 341.716 470.203C342.656 470.44 343.607 469.912 343.831 469.027C344.055 468.142 343.589 466.75 342.796 465.932C342.003 465.114 341.051 465.644 340.681 467.108ZM323.73 466.111C323.903 470.35 327.033 475.579 329.817 476.282C330.678 476.5 331.223 475.344 331.028 473.713C330.833 472.083 330.852 470.043 331.07 469.181C331.288 468.318 330.314 467.321 328.904 466.965C327.495 466.609 326.536 465.548 326.774 464.609C327.011 463.669 326.385 462.693 325.383 462.44C324.291 462.164 323.627 463.641 323.73 466.111ZM336.761 468.345C336.233 470.376 334.991 472.107 334.002 472.191C332.859 472.288 332.561 473.423 333.185 475.316C334.014 477.832 334.29 477.814 334.972 475.206C335.416 473.51 336.428 472.792 337.221 473.61C339.055 475.504 340.056 471.546 338.732 467.631C337.91 465.202 337.546 465.334 336.761 468.345ZM64.2906 400.747C63.4101 401.995 63.6203 403.673 64.7588 404.475C67.8455 406.651 74.6326 406.172 74.4674 403.792C74.2428 400.56 66.1324 398.134 64.2906 400.747ZM274.31 456.467C273.887 458.138 279.08 461.616 283.635 462.713C285.919 463.263 285.96 463.099 284.009 461.236C280.009 457.415 274.726 454.819 274.31 456.467ZM380.002 485.331C379.673 486.747 379.535 489.984 379.693 492.523C379.925 496.234 380.16 496.472 380.895 493.735C381.397 491.863 381.537 488.627 381.204 486.544C380.833 484.223 380.368 483.753 380.002 485.331ZM117.913 420.909C117.676 421.849 120.126 423.286 123.36 424.103C126.593 424.92 129.907 424.94 130.725 424.147C131.623 423.277 129.466 422.012 125.279 420.953C121.466 419.99 118.151 419.97 117.913 420.909ZM422.574 508.358C411.213 518.514 406.384 523.541 405.811 525.81C405.473 527.148 426.201 508.21 431.793 502.07C437.147 496.193 433.067 498.977 422.574 508.358ZM171.845 439.538C171.097 440.599 169.415 441.195 168.106 440.864C162.438 439.432 165.618 443.567 172.352 446.385C181.32 450.14 187.503 449.071 179.009 445.234L173.3 442.655L180.516 444.241C190.975 446.537 191.93 443.712 181.812 440.414C176.017 438.526 172.761 438.239 171.845 439.538ZM109.785 424.307C112.59 427.322 119.001 428.943 120.889 427.113C121.793 426.237 119.49 424.954 115.009 423.837C109.621 422.497 108.217 422.622 109.785 424.307ZM101.234 425.781C101.577 426.867 104.164 428.339 106.983 429.051C109.964 429.805 111.847 429.521 111.484 428.371C111.14 427.285 108.554 425.813 105.735 425.101C102.754 424.348 100.87 424.631 101.234 425.781ZM91.8292 427.039C92.1726 428.125 95.6888 429.773 99.6428 430.704C105.232 432.016 106.155 431.873 103.787 430.061C99.4807 426.764 91.0709 424.639 91.8292 427.039ZM379.558 500.817C379.137 502.828 379.439 503.336 380.328 502.112C381.134 501.003 381.445 499.513 381.021 498.803C380.597 498.092 379.939 498.998 379.558 500.817ZM157.171 445.349C156.629 447.496 161.09 450.001 168.841 451.9C173.595 453.063 175.241 452.954 173.773 451.569C170.639 448.611 157.583 443.719 157.171 445.349ZM234.17 471.47C227.258 473.11 213.016 476.072 202.519 478.051C190.688 480.281 184.515 482.212 186.274 483.133C191.324 485.776 248.021 474.192 249 470.32C249.583 468.014 248.313 468.111 234.17 471.47ZM146.533 448.063C144.656 449.88 149.277 452.475 158.164 454.594C163.897 455.959 165.294 455.874 163.089 454.292C157.936 450.592 147.843 446.795 146.533 448.063ZM276.439 483.997C276.052 485.526 297.199 495.79 298.786 494.845C299.217 494.586 298.3 493.217 296.746 491.801C292.736 488.149 276.925 482.072 276.439 483.997ZM139.289 451.385C139.063 452.28 141.158 454.101 143.946 455.431C151.011 458.8 152.932 459.16 151.451 456.837C149.575 453.899 139.766 449.499 139.289 451.385ZM267.213 488.668C262.337 490.73 262.712 491.309 271.365 495.084C275.696 496.973 278.486 497.471 278.756 496.401C278.994 495.458 278.321 494.08 277.258 493.34C276.196 492.601 278.685 493.265 282.791 494.817C287.778 496.702 289.833 496.927 288.98 495.496C286.654 491.586 271.529 486.842 267.213 488.668ZM134.48 459.627C134.823 460.713 137.026 462.088 139.375 462.681C141.787 463.291 143.374 462.901 143.022 461.786C142.678 460.699 140.476 459.325 138.127 458.731C135.715 458.122 134.128 458.511 134.48 459.627ZM127.854 460.678C128.667 462.383 130.974 464.167 132.98 464.642C136.557 465.489 136.576 465.442 133.947 462.16C130.223 457.515 125.835 456.448 127.854 460.678ZM256.182 493.237C252.029 494.215 251.885 494.47 254.558 496.069C258.71 498.552 271.079 498.69 267.445 496.212C262.068 492.547 260.675 492.18 256.182 493.237ZM345 515.335C346.348 517.359 358.241 527.064 358.435 526.298C358.68 525.326 347.503 515.283 345.658 514.816C344.995 514.649 344.698 514.883 345 515.335ZM248.484 497.527C248.828 498.613 249.877 499.696 250.817 499.934C251.756 500.171 252.244 499.477 251.901 498.39C251.558 497.304 250.508 496.221 249.569 495.983C248.629 495.746 248.141 496.44 248.484 497.527ZM163.919 479.082C164.176 481.222 163.616 481.633 161.998 480.494C160.743 479.61 159.071 479.511 158.284 480.275C155.805 482.676 160.884 484.714 166.221 483.458C170.109 482.544 170.979 481.659 169.851 479.767C167.601 475.996 163.494 475.523 163.919 479.082ZM446.664 551.13C434.598 551.719 419.311 557.317 421.185 560.461C423.04 563.568 434.127 567.661 438.526 566.861C442.999 566.048 443.1 565.857 440.693 562.797C438.356 559.826 438.499 559.733 442.609 561.564C445.308 562.766 446.807 562.773 446.431 561.58C446.035 560.327 448.119 560.631 452.181 562.415C458.487 565.183 458.517 565.174 454.96 561.447C451.422 557.736 451.471 557.721 458.329 560.465C465.804 563.456 473.136 568.631 472.646 570.57C472.481 571.224 467.497 571.06 461.571 570.204C455.644 569.35 446.462 569.43 441.167 570.385L431.539 572.121L442.424 587.168C448.411 595.442 454.953 605.803 456.961 610.189C459.817 616.426 461.95 618.624 466.754 620.28C470.133 621.443 472.97 623.429 473.058 624.692C473.173 626.343 471.806 626.315 468.197 624.594L463.176 622.2L469.536 639.555C477.209 660.494 483.648 696.901 479.494 695.851C476.764 695.161 474.798 689.37 472.462 675.122C471.228 667.606 467.201 652.683 463.513 641.959C458.011 625.966 456.52 623.16 455.213 626.352C452.309 633.455 449.589 633.038 451.425 625.773C452.75 620.529 452.236 616.646 449.306 609.808C442.301 593.445 418.053 566.824 410.217 566.888C404.655 566.935 397.722 572.203 393.245 579.784C389.368 586.354 389.275 587.575 391.384 604.521C392.605 614.326 393.84 623.839 394.134 625.662C394.466 627.736 393.922 628.789 392.68 628.475C390.307 627.875 387.052 610.229 387.622 601.057C388.251 590.944 385.707 590.914 383.298 601.007C381.516 608.475 381.125 621.242 382.833 616.223C384.347 611.771 387.371 622.062 388.321 634.901C389.084 645.211 390.175 649.612 391.916 649.403C393.456 649.22 395.398 652.624 396.982 658.286C400.392 670.481 408.971 685.284 413.298 686.441C415.21 686.952 419.188 690.381 422.136 694.063C426.416 699.405 428.248 700.57 431.213 699.833C434.206 699.088 436.742 700.817 444.27 708.739C450.666 715.468 454.774 718.5 457.291 718.351C461.384 718.106 464.896 722.034 478.102 741.614C482.673 748.392 487.106 754.114 487.954 754.328C488.799 754.542 490.896 751.186 492.611 746.873C498.006 733.306 499.84 730.008 501.203 731.415C501.967 732.203 504.01 726.916 506.026 718.94C509.118 706.706 509.857 705.244 512.387 706.356C514.978 707.494 515.589 706.047 518.82 691.134C521.721 677.752 523.004 674.363 525.65 673.102C531.806 670.163 533.58 650.775 528.473 642.243C526.936 639.678 523.872 632.25 521.662 625.736C517.808 614.379 517.522 614.029 514.655 617.175L511.667 620.456L505.974 612.404C498.696 602.106 500.542 600.676 508.343 610.567L514.256 618.063L509.959 610.285C505.443 602.114 505.975 600.76 511.383 606.645C514.462 609.995 514.655 609.942 515.706 605.466C516.59 601.704 515.196 599.005 508.635 591.764C504.006 586.656 500.783 581.485 501.201 579.833C501.687 577.909 498.123 573.661 490.702 567.32C480.367 558.489 478.341 557.45 465.365 554.314C457.61 552.439 449.194 551.007 446.664 551.13ZM367.191 534.798C368.37 536.065 370.104 537.295 371.043 537.533C371.983 537.77 371.787 536.928 370.608 535.661C369.428 534.395 367.695 533.164 366.755 532.927C365.816 532.689 366.012 533.531 367.191 534.798ZM432.078 562.101C432.421 563.188 434.389 564.49 436.451 564.997C439.499 565.743 439.799 565.485 438.057 563.612C435.241 560.587 431.283 559.587 432.078 562.101ZM348.776 550.135C346.126 551.032 346.08 551.215 348.357 551.79C349.767 552.146 352.261 551.985 353.901 551.43C356.55 550.533 356.596 550.35 354.319 549.775C352.91 549.419 350.415 549.581 348.776 550.135ZM391.489 562.293C387.773 564.153 386.487 567.041 380.757 586.388L374.248 608.369L379.988 595.28C388.073 576.845 393.494 567.338 396.828 565.747C398.406 564.994 399.869 563.702 400.077 562.879C400.71 560.374 395.966 560.052 391.489 562.293ZM279.978 536.431C279.478 540.141 278.377 540.368 265.603 539.381C257.995 538.794 246.646 538.712 240.385 539.195C225.409 540.357 204.443 546.306 204.798 549.293C204.956 550.616 199.003 553.87 190.988 556.843C180.453 560.751 177.438 562.58 179.035 564.091C182.281 567.161 181.269 568.668 168.704 579.49C162.007 585.258 156.614 591.37 155.967 593.924C155.352 596.36 152.435 601.832 149.484 606.085C139.747 620.12 139.537 620.65 143.697 620.615C148.278 620.579 148.062 621.477 140.027 635.933C131.961 650.444 126.732 662.749 129.384 660.979C130.471 660.254 135.365 656.595 140.259 652.848C152.091 643.791 186.033 622.657 195.789 618.271C212.895 610.581 203.431 618.356 172.576 637.335C154.691 648.338 138.97 658.532 137.641 659.991C135.436 662.41 136.369 662.564 148.279 661.759C163.635 660.719 174.879 662.921 173.904 666.778C173.13 669.84 172.539 669.648 184.111 670.069C191.439 670.334 193.597 670.943 194.223 672.926C194.848 674.903 197.56 675.196 206.831 674.289C213.327 673.652 221.405 672.288 224.783 671.255C228.161 670.221 232.458 669.764 234.334 670.238C237.896 671.138 245.623 667.208 255.22 659.614C258.333 657.152 261.914 655.4 263.182 655.72C264.449 656.04 269.869 652.709 275.227 648.314C280.585 643.92 288.683 637.565 293.222 634.188C298.886 629.977 302.478 625.658 304.666 620.433C306.818 615.291 308.859 612.81 310.95 612.791C313.492 612.77 315.308 609.216 321.096 592.923C324.974 582.01 330.191 569.953 332.693 566.129C337.872 558.213 337.812 557.423 332.025 557.426C323.027 557.427 301.319 566.791 273.055 582.864C238.61 602.45 225.267 608.988 224.017 606.891C223.523 606.065 238.782 596.514 257.926 585.672L292.734 565.958L283.802 562.792C270.625 558.121 272.085 554.938 285.437 559.233C296.196 562.691 296.362 562.677 308.935 557.24L321.596 551.762L314.101 546.284C309.97 543.264 300.753 538.925 293.563 536.611C280.757 532.492 280.509 532.489 279.978 536.431ZM377.248 569.144C375.832 574.783 375.621 576.964 376.777 573.99C377.932 571.016 379.091 566.402 379.351 563.736C379.608 561.07 378.662 563.504 377.248 569.144ZM283.772 543.071C278.118 544.681 273.299 546.756 273.065 547.684C272.557 549.691 272.696 549.673 285.764 546.023C291.402 544.449 296.158 542.585 296.338 541.88C296.873 539.778 294.578 539.994 283.772 543.071ZM291.73 546.171C283.223 548.096 281.282 551.038 287.709 552.266C292.778 553.235 305.123 550.272 305.712 547.946C306.305 545.597 298.589 544.617 291.73 546.171ZM302.201 552.156C298.007 553.684 294.862 555.414 295.214 556.002C295.848 557.068 313.653 552.479 313.985 551.165C314.476 549.223 308.987 549.686 302.201 552.156ZM414.353 579.885C412.105 582.572 411.66 582.644 412.169 580.241C412.519 578.582 411.635 576.926 410.201 576.564C407.866 575.974 407.734 576.496 408.928 581.603C409.66 584.738 409.289 591.147 408.102 595.845C405.418 606.465 404.726 622.432 406.926 622.988C407.854 623.223 408.734 620.868 408.948 617.593C409.533 608.561 413.186 593.635 416.903 585.073C420.493 576.808 419.174 574.125 414.353 579.885ZM465.154 593.024C464.91 593.987 478.297 610.131 479.618 610.464C482.57 611.21 480.699 607.194 475.009 600.563C469.263 593.866 465.641 591.097 465.154 593.024ZM478.82 596.478C478.484 597.809 492.227 613.651 494.138 614.134C497.987 615.107 496.461 611.853 489.544 604.34C483.121 597.365 479.303 594.566 478.82 596.478ZM402.931 584.268C403.036 586.544 403.61 589.292 404.206 590.375C406.116 593.843 408.228 590.777 407.33 585.841C406.234 579.823 402.669 578.547 402.931 584.268ZM452.328 593.435C452.083 594.404 468.499 609.472 470.293 609.925C474.196 610.912 471.505 606.833 464.117 600.564C456.308 593.94 452.745 591.785 452.328 593.435ZM493.114 604.639C492.636 606.53 502.529 617.034 503.975 616.173C504.996 615.563 496.288 603.773 494.479 603.316C493.946 603.181 493.332 603.777 493.114 604.639ZM315.349 568.146C311.096 571.568 307.946 574.917 308.348 575.589C309.488 577.5 311.8 576.264 319.989 569.361C329.938 560.973 325.658 559.851 315.349 568.146ZM236.089 548.147C229.865 550.149 224.579 552.562 224.341 553.507C223.801 555.641 224.272 555.563 238.085 551.238C248.351 548.024 252.193 545.716 248.737 544.843C248.002 544.657 242.311 546.145 236.089 548.147ZM324.828 568.163C319.121 572.002 312.709 577.786 312.28 579.482C311.588 582.222 314.919 581.412 317.676 578.168C319.249 576.316 322.823 572.723 325.616 570.18C331.516 564.812 331.162 563.904 324.828 568.163ZM394.49 585.315C393.257 590.177 396.113 607.579 397.757 605.223C398.349 604.373 398.1 598.585 397.203 592.361C396.078 584.553 395.236 582.368 394.49 585.315ZM398.552 583.292C397.841 586.105 400.177 601.291 401.368 601.592C403.768 602.199 403.969 599.111 402.072 590.793C400.596 584.324 399.099 581.131 398.552 583.292ZM252.407 552.9C245.811 554.94 242.367 557.398 243.483 559.268C244.054 560.223 254.145 556.834 261.587 553.188C265.551 551.246 258.472 551.024 252.407 552.9ZM434.272 600.367C433.825 602.48 441.404 615.776 442.637 615.041C444.077 614.182 438.071 599.964 436.052 599.454C435.225 599.245 434.423 599.655 434.272 600.367ZM253.622 559.752C249.029 563.103 252.102 564.923 257.21 561.876C260.985 559.626 261.369 558.94 259.174 558.385C257.671 558.005 255.172 558.621 253.622 559.752ZM259.92 561.687C256.719 563.598 256.747 564.024 260.291 567.169C264.54 570.944 269.225 570.065 270.437 565.272C271.012 562.995 270.597 562.919 267.26 564.69C262.577 567.176 259.709 566.775 263.319 564.138C267.076 561.396 264.059 559.22 259.92 561.687ZM316.62 581.308C310.314 588.91 312.123 590.134 318.652 582.681C321.588 579.328 323.349 576.422 322.565 576.224C321.779 576.025 319.106 578.314 316.62 581.308ZM271.378 568.739C271.14 569.679 271.715 570.642 272.654 570.879C273.594 571.117 274.557 570.542 274.794 569.603C275.032 568.663 274.457 567.7 273.518 567.463C272.578 567.225 271.615 567.8 271.378 568.739ZM292.318 586.299C290.444 593.571 286.014 606.803 282.474 615.701C275.878 632.278 275.487 637.972 281.559 629.013C286.396 621.875 300.254 574.22 297.682 573.57C296.387 573.242 294.576 577.539 292.318 586.299ZM433.781 609.33C433.242 611.52 439.024 622.98 440.292 622.234C441.69 621.41 437.248 608.921 435.37 608.399C434.668 608.206 433.954 608.623 433.781 609.33ZM214.8 559.603C214.111 560.27 221.554 563.798 231.34 567.442C241.125 571.085 252.086 575.319 255.698 576.849C260.383 578.835 261.907 578.975 261.015 577.341C259.626 574.796 232.214 562.494 222.355 559.991C218.888 559.111 215.488 558.937 214.8 559.603ZM478.592 626.145C478.408 626.871 482.362 629.832 487.378 632.726C492.395 635.621 498.185 639.03 500.246 640.304C503.086 642.059 503.947 641.997 503.801 640.044C503.474 635.635 479.53 622.433 478.592 626.145ZM432.751 620.797C432.035 623.155 434.191 631.697 435.592 632.051C436.379 632.25 437.198 631.729 437.409 630.894C437.87 629.07 433.269 619.094 432.751 620.797ZM475.974 636.501C475.777 637.283 478.065 641.171 481.06 645.141C487.57 653.771 489.241 651.48 483.147 642.279C478.791 635.704 476.618 633.954 475.974 636.501ZM428.765 627.668C427.33 628.525 431.821 647.418 433.57 647.882C435.778 648.465 435.68 645.522 433.184 636.214C430.628 626.694 430.575 626.59 428.765 627.668ZM487.192 642.453C486.825 643.905 494.066 653.977 495.848 654.491C496.72 654.744 495.809 652.086 493.821 648.584C490.479 642.7 487.764 640.189 487.192 642.453ZM514.375 649.95C513.938 651.682 518.545 655.357 520.037 654.465C520.576 654.145 520.716 652.934 520.349 651.776C519.544 649.226 514.916 647.811 514.375 649.95ZM313.737 600.534C312.879 601.046 311.879 602.643 311.514 604.085C311.029 606.007 311.486 606.326 313.234 605.285C314.542 604.503 315.544 602.906 315.456 601.734C315.369 600.561 314.595 600.022 313.737 600.534ZM504.173 656.103C506.068 659.277 508.37 661.425 509.288 660.874C511.118 659.777 505.705 651.588 502.639 650.813C501.59 650.548 502.28 652.929 504.173 656.103ZM423.759 634.565C423.093 637.199 428.173 658.816 429.87 660.566C432.564 663.346 432.262 658.721 428.913 645.872C425.644 633.335 424.632 631.113 423.759 634.565ZM189.843 583.275C183.492 587.199 180.301 591.354 183.321 591.765C185.827 592.105 199.184 581.69 197.918 580.384C197.219 579.662 193.586 580.963 189.843 583.275ZM264.966 605.722C260.275 609.774 257.14 613.542 258.001 614.094C258.906 614.671 257.957 616.576 255.758 618.597C253.661 620.523 252.273 622.643 252.67 623.309C253.067 623.976 258.136 620.616 263.934 615.846C274.862 606.849 277.303 601.75 267.361 608.686L261.699 612.637L267.363 607.707C275.715 600.44 276.794 599.186 275.063 598.749C274.2 598.531 269.658 601.668 264.966 605.722ZM418.212 639.017C418.543 645.014 422.482 661.83 424.538 666.016C427.932 672.934 429.583 668.461 426.494 660.712C424.776 656.402 422.915 649.016 422.359 644.298C421.346 635.693 417.78 631.151 418.212 639.017ZM198.589 588.197C196.601 589.523 194.745 591.508 194.467 592.608C193.519 596.357 197.281 595.462 201.236 590.994C205.627 586.036 204.16 584.486 198.589 588.197ZM205.666 592.219C200.548 594.673 200.164 597.401 205.017 596.821C208.053 596.459 214.153 590.588 211.967 590.132C211.221 589.978 208.387 590.917 205.666 592.219ZM217.931 595.875C214.653 597.511 212.419 599.604 212.967 600.524C213.514 601.443 216.531 600.665 219.669 598.792C227.088 594.368 225.68 592.006 217.931 595.875ZM227.974 596.8C226.216 598.082 225.839 599.03 226.973 599.317C229.037 599.838 232.263 597.206 231.378 595.721C231.056 595.183 229.525 595.669 227.974 596.8ZM454.007 655.489C451.557 659.701 446.494 685.579 447.717 687.631C449.258 690.212 450.664 685.722 453.507 669.15C455.884 655.288 456.002 652.059 454.007 655.489ZM238.026 611.39C236.179 616.026 231.516 624.351 227.665 629.887C219.715 641.323 219.812 641.124 221.847 641.639C224.973 642.429 240.737 617.434 243.353 607.545C245.296 600.185 241.361 603.027 238.026 611.39ZM411.085 649.074C410.237 652 415.648 675.891 418.608 682.28C422.959 691.676 423.782 685.992 419.82 673.894C417.676 667.342 414.974 658.591 413.816 654.45C412.659 650.306 411.431 647.887 411.085 649.074ZM482.79 667.06C481.985 670.248 492.935 692.118 495.009 691.463C496.212 691.082 496.388 689.567 495.474 687.46C494.107 684.312 494.195 684.331 496.684 687.713C498.16 689.717 501.024 692.358 503.05 693.582C506.28 695.536 506.617 695.369 505.793 692.22C504.043 685.533 497.532 674.041 496.851 676.439C496.33 678.268 495.563 677.903 493.539 674.866C489.977 669.518 489.521 672.485 492.886 679.128C494.375 682.066 492.821 680.125 489.433 674.813C486.045 669.5 483.055 666.011 482.79 667.06ZM465.098 665.204C464.332 668.184 468.728 678.943 469.536 676.069C469.799 675.136 469.07 671.68 467.915 668.389C466.549 664.495 465.566 663.383 465.098 665.204ZM507.518 677.085C507.333 677.816 507.984 680.639 508.967 683.357L510.751 688.303L507.238 683.009C502.481 675.842 502.098 679.133 506.446 689.815C509.882 698.255 510.101 698.446 512.444 695.037C514.307 692.324 514.2 689.692 511.985 683.784C509.085 676.039 508.14 674.623 507.518 677.085ZM257.562 623.404C249.671 629.446 248.762 633.58 256.467 628.383C259.132 626.585 258.486 627.492 254.973 630.484C251.572 633.38 249.086 636.686 249.449 637.836C249.812 638.983 248.38 641.075 246.265 642.483C244.151 643.892 242.734 645.565 243.115 646.203C243.495 646.841 247.403 644.819 251.799 641.712C260.323 635.686 261.59 632.457 253.929 636.278C250.555 637.962 250.98 637.345 255.502 633.988C258.931 631.443 261.546 628.148 261.362 626.605C261.178 625.074 262.191 622.971 263.613 621.933C265.035 620.896 265.898 619.544 265.532 618.93C265.165 618.316 261.58 620.328 257.562 623.404ZM212.626 610.351C209.803 613.086 212.522 614.623 216.25 612.4C219.586 610.411 219.648 610.187 217.039 609.528C215.485 609.135 213.497 609.505 212.626 610.351ZM159.611 605.587C156.021 608.718 153.003 612.75 152.906 614.544C152.776 616.899 154.63 615.798 159.561 610.59C168.215 601.452 168.249 598.054 159.611 605.587ZM165.3 609.635C159.441 613.561 157.041 616.173 158.867 616.634C160.658 617.087 171.016 608.837 170.258 607.564C169.964 607.073 167.733 608.005 165.3 609.635ZM464.455 682.08C464.012 683.834 468.955 696.778 470.197 697.114C472.099 697.627 472.05 696.612 469.805 688.962C468.043 682.957 465.168 679.259 464.455 682.08ZM178.505 612.618C178.254 613.612 178.937 614.146 180.023 613.803C181.11 613.46 182.084 612.841 182.189 612.426C182.294 612.01 181.61 611.478 180.671 611.24C179.731 611.003 178.757 611.624 178.505 612.618ZM168.704 611.851C167.885 612.643 167.527 614.276 167.907 615.479C168.585 617.626 172.226 615.518 173.057 612.496C173.567 610.634 170.439 610.17 168.704 611.851ZM461.449 686.783C460.82 689.274 466.859 704.151 467.863 702.581C469.148 700.574 465.004 686.795 462.949 686.239C462.247 686.05 461.572 686.294 461.449 686.783ZM202.4 634.906C199.679 640.716 196.544 647.08 195.433 649.047C194.276 651.098 194.176 652.819 195.199 653.078C197.57 653.677 205.251 638.2 206.42 630.47C207.227 625.14 206.703 625.716 202.4 634.906ZM457.046 689.821C456.299 692.777 462.991 709.985 464.68 709.45C465.665 709.139 464.994 704.477 463.189 699.09C460.133 689.971 457.871 686.558 457.046 689.821ZM451.911 696.182C450.762 700.082 456.236 713.599 459.275 714.367C461.269 714.871 461.076 713.268 458.523 708.096C456.636 704.275 454.546 699.454 453.88 697.381C452.951 694.498 452.49 694.216 451.911 696.182ZM185.062 636.213C176.87 642.824 175.445 644.45 177.405 644.946C179.889 645.573 191.188 636.214 190.999 633.682C190.912 632.51 188.24 633.648 185.062 636.213ZM244.45 653.712C238.205 657.517 235.9 659.729 237.703 660.185C240.539 660.902 253.781 652.748 254.518 649.832C255.155 647.309 254.624 647.514 244.45 653.712ZM181.729 646.742C177.565 650.051 175.697 652.794 175.851 655.372C176.143 660.269 177.497 660.413 182.689 656.095C187.596 652.016 187.137 649.332 181.945 651.74C179.849 652.713 180.627 651.547 183.86 648.871C191.327 642.69 189.332 640.698 181.729 646.742ZM209.834 654.05C206.765 656.013 205.622 657.529 206.958 657.867C208.721 658.312 208.549 658.885 206.11 660.675C203.495 662.595 203.441 662.894 205.745 662.729C208.24 662.549 216.271 655.619 217.298 652.756C218.189 650.275 214.823 650.858 209.834 654.05ZM483.286 724.524C483.438 725.813 483.976 731.263 484.48 736.639C485.417 746.63 487.341 749.728 488.863 743.703C489.945 739.422 486.62 723.095 484.56 722.575C483.706 722.359 483.133 723.237 483.286 724.524ZM180.13 660.163C176.509 662.575 176.413 662.869 179.042 663.533C180.628 663.934 182.678 663.191 183.602 661.881C186.24 658.137 184.478 657.265 180.13 660.163Z" fill="white" fill-opacity="0.18"/>
</svg>
