<svg width="762" height="934" viewBox="0 0 762 934" fill="none" xmlns="http://www.w3.org/2000/svg">
<path fill-rule="evenodd" clip-rule="evenodd" d="M270.908 9.31672C270.693 14.4415 270.018 19.1491 269.406 19.7779C267.142 22.1028 268.314 27.5907 271.959 31.7429C277.818 38.4161 302.104 54.2689 321.571 64.129C328.517 67.6465 339.716 69.6385 352.814 69.6853C363.869 69.725 369.398 70.29 390.312 73.519C399.64 74.958 421.559 82.1757 431.787 87.1743C441.394 91.8699 445.477 95.3045 453.41 105.367C461.499 115.625 473.063 126.361 479.636 129.715C498.904 139.544 525.13 146.665 542.063 146.665C562.542 146.665 590.719 139.25 603.409 130.52C620.625 118.678 630.961 115.152 641.994 117.359C647.952 118.551 644.979 120.5 638.553 119.616C631.531 118.65 629.68 119.521 614.441 130.965C602.108 140.225 593.117 144.456 572.956 150.482C561.313 153.962 558.174 154.411 545.39 154.424C536.062 154.434 527.428 153.684 520.955 152.3C510.67 150.102 486.149 141.477 477.181 136.901C469.651 133.059 456.49 122.146 451.602 115.692C445.426 107.535 432.21 96.1304 424.373 92.1969C417.44 88.7167 410.301 86.4254 397.174 83.468C393.014 82.5316 387.063 80.9988 383.951 80.0635C374.74 77.2938 362.412 75.7622 346.751 75.4401L332.042 75.1371L347.352 90.5163C364.453 107.695 366.264 109.004 411.232 136.72C418.111 140.959 426.226 146.511 429.265 149.059C432.305 151.606 438.579 155.151 443.207 156.938C447.836 158.723 453.516 160.942 455.83 161.868C458.144 162.793 467.611 165.465 476.868 167.803C490.861 171.337 497.245 172.257 514.735 173.258C526.306 173.921 538.087 174.167 540.916 173.806C552.933 172.271 577.639 161.905 598.886 149.481C637.872 126.686 658.419 116.62 662.909 118.117C663.624 118.355 661.718 120.009 658.675 121.792C655.633 123.576 652.828 126.024 652.445 127.235C651.217 131.102 579.471 201.285 574.26 203.716C566.211 207.473 561.752 207.97 552.874 206.102C542.314 203.881 518.93 203.878 505.419 206.096C499.634 207.046 490.843 208.105 485.884 208.45C473.017 209.347 465.495 210.531 464.722 211.782C464.354 212.378 467.566 218.933 471.862 226.349C480.361 241.025 498.427 276.791 506.758 295.439C514.439 312.628 517.066 320.259 519.693 332.999C520.988 339.281 522.311 345.299 522.632 346.373C523.148 348.097 526.063 348.311 547.528 348.202C573.541 348.07 584.939 349.321 600.088 353.975C605.047 355.498 611.809 357.124 615.115 357.589C618.421 358.055 625.183 360.199 630.142 362.355C641.766 367.409 652.641 371.409 669.813 376.949C677.417 379.403 692.564 384.925 703.474 389.222C732.693 400.729 745.27 405.129 748.948 405.129C752.716 405.129 761.177 410.436 761.177 412.801C761.177 413.903 753.557 417.081 747.954 418.314C734.923 421.182 721.656 424.714 716.096 426.796C709.345 429.324 698.137 432.171 690.726 433.241C683.986 434.214 672.707 439.46 666.357 444.575C658.65 450.785 642.747 454.424 623.53 454.375C610.414 454.341 604.315 453.835 588.067 451.428L582.657 450.627L586.865 454.401C589.179 456.478 600.539 465.719 612.11 474.937C623.681 484.155 636.047 494.232 639.59 497.332C652.654 508.756 671.07 536.304 682.957 562.203C692.308 582.579 693.05 587.02 693.067 622.719C693.075 641.631 692.531 656.182 691.645 660.706C689.94 669.418 691.756 720.474 694.121 730.312C696.43 739.919 695.713 844.502 693.189 866.155C692.11 875.412 690.795 885.149 690.267 887.794L689.305 892.603L689.177 886.64C689.106 883.362 689.907 873.64 690.959 865.037C693.515 844.122 692.743 750.897 689.844 730.312C687.936 716.768 684.938 668.986 685.898 667.432C686.192 666.957 686.763 660.624 687.167 653.359C687.569 646.095 688.485 634.74 689.199 628.128C692.225 600.15 689.805 585.704 678.221 562.595C662.955 532.142 640.583 502.045 625.935 492.254C616.446 485.912 596.755 470.775 586.472 461.92C581.298 457.462 574.265 451.911 570.844 449.583C567.424 447.255 561.5 442.987 557.68 440.098C553.861 437.209 550.486 435.095 550.181 435.4C549.876 435.706 551.007 437.81 552.695 440.078C559.085 448.661 566.553 464.073 568.99 473.706C570.372 479.174 575.268 492.894 579.867 504.196C584.466 515.496 590.569 531.235 593.427 539.169C596.286 547.103 601.988 562.521 606.098 573.43C615.946 599.568 624.715 626.105 626.953 636.544C629.368 647.811 636.283 670.804 642.135 687.034C646.641 699.526 653.191 721.743 657.044 737.597C657.999 741.524 660.453 750.959 662.498 758.562C664.543 766.166 667.069 779.69 668.111 788.616C669.153 797.542 670.553 808.632 671.22 813.26C673.5 829.061 674.876 910.12 673.056 921.454L672.09 927.465L674.361 923.854C675.61 921.867 678.879 915.916 681.626 910.63C684.372 905.343 686.624 901.626 686.632 902.37C686.647 904.107 674.1 929.141 671.704 932.152C669.936 934.374 669.822 934.357 667.456 931.551C664.391 927.916 664.143 926.841 662.486 910.034C661.737 902.43 660.679 892.422 660.134 887.794C659.589 883.166 659.109 875.859 659.069 871.556C659.028 867.255 657.371 855.987 655.388 846.518C653.404 837.049 651.781 825.895 651.781 821.732C651.781 812.634 649.267 804.932 644.702 800.042C642.848 798.056 639.276 792.643 636.765 788.015C634.254 783.387 629.402 776.084 625.983 771.786C618.225 762.034 608.052 744.771 599.628 727.065C574.046 673.297 558.167 636.539 555.589 625.123C551.713 607.95 551.434 615.47 554.386 657.581C555.012 666.507 555.543 687.095 555.567 703.332C555.602 727.845 555.2 735.085 553.196 746.008C548.172 773.405 543.754 782.798 501.488 855.937C494.419 868.169 486.601 881.964 484.114 886.592C478.302 897.412 475.792 900.069 470.839 900.647C465.669 901.251 464.494 898.884 464.389 887.657C464.346 883.079 463.485 875.016 462.475 869.739C461.466 864.463 460.638 857.71 460.638 854.735C460.638 844.395 465.335 820.469 469.729 808.419C473.849 797.121 474.067 795.806 473.502 785.611C473.172 779.66 471.922 771.816 470.723 768.18C469.525 764.543 461.344 747.232 452.546 729.711C443.746 712.189 434.971 693.796 433.047 688.837C431.122 683.878 427.015 674.141 423.921 667.198C411.387 639.08 410.988 637.339 410.397 608.293C409.727 575.333 411.5 554.961 416.834 534.36C421.54 516.192 430.42 484.788 433.918 473.952C435.251 469.82 436.1 466.439 435.803 466.439C435.506 466.439 433.534 468.061 431.421 470.044C427.59 473.639 414.55 481.001 409.056 482.671C400.71 485.208 387.156 495.302 372.834 509.646C353.966 528.542 346.458 538.498 335.612 559.005C330.891 567.929 326.334 576.044 325.485 577.037C324.635 578.029 320.83 584.384 317.028 591.162C313.227 597.939 309.428 603.484 308.586 603.484C303.358 603.484 303.391 593.063 308.699 567.537C310.295 559.869 312.438 547.915 313.463 540.972C314.488 534.03 316.091 525.645 317.027 522.339C317.962 519.033 320.052 506.984 321.673 495.563C324.387 476.431 324.976 474.164 329.172 466.711C331.676 462.264 335.18 455.649 336.96 452.013C340.942 443.871 348.695 434.511 356.652 428.235C363.851 422.558 379.718 414.746 384.049 414.746C385.755 414.746 388.602 414.194 390.376 413.52C396.656 411.132 423.214 406.421 427.383 406.955C431.165 407.439 431.887 407.053 434.19 403.327C435.607 401.034 438.14 398.077 439.82 396.757C442.225 394.863 442.919 393.166 443.095 388.741C443.293 383.766 442.575 382.015 436.801 373.391C433.217 368.035 430.17 362.843 430.03 361.851C429.884 360.817 426.633 358.958 422.414 357.492C418.365 356.087 413.002 353.864 410.497 352.552C390.062 341.862 382.35 338.277 381.776 339.207C381.408 339.802 381.276 346.628 381.481 354.376C381.932 371.313 379.517 383.335 373.741 392.891C367.527 403.173 345.913 425.664 318.784 450.08C301.884 465.288 290.25 473.652 285.992 473.652C284.412 473.652 282.852 473.92 282.524 474.248C282.197 474.576 282.646 479.309 283.524 484.767C285.337 496.046 285.744 510.167 284.496 518.487C283.83 522.928 283.162 524.142 281.38 524.142C280.134 524.142 279.113 523.503 279.113 522.721C279.113 521.938 275.192 517.457 270.397 512.76C265.603 508.063 258.794 500.758 255.265 496.524C251.734 492.291 246.557 487.171 243.759 485.147C236.755 480.079 223.638 465.454 216.282 454.511C212.915 449.5 207.146 441.666 203.463 437.101C199.779 432.535 194.853 426.044 192.513 422.675C178.065 401.855 174.025 395.648 171.004 389.626C165.679 379.007 157.105 352.472 155.899 342.878C155.553 340.122 154.476 334.444 153.506 330.261C151.035 319.605 150.006 290.383 151.592 275.897C153.836 255.409 154.382 253.604 161.719 242.463C165.502 236.719 168.88 232.018 169.225 232.018C169.874 232.018 169.187 233.502 162.722 246.058C160.089 251.172 158.898 255.174 158.898 258.903C158.898 261.882 158.301 265.843 157.573 267.704C156.843 269.565 155.78 282.719 155.209 296.935C154.198 322.101 154.246 323.05 157.027 332.999C158.597 338.619 160.829 347.275 161.987 352.234C167.908 377.598 181.073 402.024 206.372 434.581C212.023 441.855 219.207 451.58 222.334 456.194C227.668 464.061 238.83 475.956 253.948 489.888C257.54 493.197 264.464 500.393 269.332 505.879C274.202 511.364 278.41 515.628 278.684 515.354C280.163 513.876 274.734 492.054 268.308 473.652C264.268 462.081 259.357 447.389 257.395 441.002C252.964 426.579 244.773 404.651 242.506 401.145C241.572 399.7 239.645 395.542 238.224 391.905C236.802 388.268 231.396 376.367 226.209 365.458C214.711 341.271 210.698 331.122 205.803 313.842C202.367 301.713 195.04 283.372 188.722 271.088C185.298 264.431 183.228 258.443 179.994 245.843C178.466 239.892 176.331 232.906 175.248 230.316C173.391 225.874 173.184 225.738 171.596 227.909C170.67 229.175 169.591 229.889 169.198 229.495C168.379 228.676 173.012 222.401 174.435 222.401C175.934 222.401 182.725 238.039 186.58 250.369C188.531 256.608 193.157 268.15 196.859 276.018C205.345 294.046 207.311 299.198 211.943 315.568C216.733 332.502 223.028 348.294 232.662 367.552C243.886 389.991 254.571 416.282 261.251 437.903C264.483 448.363 269.332 463.255 272.026 470.996C274.72 478.738 277.812 488.318 278.898 492.285C282.929 507.016 281.46 486.867 276.574 460.428C275.156 452.75 269.909 435.944 267.568 431.576C263.962 424.852 260.772 412.358 260.2 402.724C259.867 397.104 259.001 391.77 258.277 390.871C256.648 388.849 255.923 346.25 257.39 338.796C258.178 334.798 258.476 337.619 258.684 351.032C258.832 360.619 259.079 369.004 259.233 369.665C259.387 370.326 259.629 372.49 259.772 374.474C260.019 377.908 260.083 377.95 261.132 375.338C261.737 373.831 262.549 368.15 262.936 362.715C263.322 357.282 264.66 347.696 265.907 341.414C270.075 320.439 270.673 315.652 270.855 301.743C271.124 281.357 267.128 264.691 254.335 232.843C243.365 205.529 237.902 197.519 223.862 188.155C219.538 185.271 214.135 180.977 211.857 178.613C209.578 176.249 207.231 174.315 206.642 174.315C206.052 174.315 205.934 176.468 206.379 179.099C207.052 183.089 206.591 184.938 203.597 190.219C199.979 196.605 193.76 214.627 193.76 218.726C193.76 220.055 194.906 221.225 196.627 221.658C201.745 222.942 215.782 235.126 225.016 246.298C229.975 252.296 234.17 256.803 234.34 256.313C234.681 255.321 227.75 231.661 223.963 220.894C222.625 217.09 220.96 210.869 220.264 207.069C219.567 203.27 216.429 195.022 213.291 188.741C206.202 174.553 206.39 175.007 208.062 176.041C210.685 177.663 219.005 195.901 221.933 206.445C223.542 212.245 227.245 224.024 230.16 232.619C233.074 241.215 236.174 251.764 237.048 256.061C238.136 261.407 240.174 266.154 243.499 271.088C251.609 283.122 258.857 303.514 258.515 313.337L258.355 317.972L257.502 312.563C256.647 307.152 251.492 293.22 246.158 281.908C242.82 274.827 237.202 266.86 225.505 252.618C210.674 234.561 200.012 225.777 189.645 223.077C185.781 222.071 180.892 220.228 178.781 218.982C174.884 216.682 172.037 217.333 170.813 220.801C170.542 221.574 163.37 230.064 154.876 239.668C146.383 249.27 138.269 259.301 136.844 261.959C135.419 264.616 132.36 268.917 130.046 271.519C126.2 275.841 121.631 285.828 121.631 289.911C121.631 290.829 119.705 294.505 117.35 298.079C105.07 316.726 91.9711 339.783 81.9319 360.427C77.3301 369.89 70.8541 381.232 67.5433 385.63C64.2326 390.028 61.5229 394.464 61.5229 395.489C61.5229 398.047 57.5847 405.17 52.4551 411.89C50.1013 414.973 48.4483 418.095 48.7813 418.826C49.1143 419.557 51.2746 424.801 53.5828 430.477C55.8897 436.154 60.5132 444.771 63.8576 449.625C67.202 454.48 69.9417 459.031 69.9453 459.74C69.9489 460.449 73.0588 465.747 76.8577 471.514C81.6061 478.725 90.3086 488.599 104.725 503.134L125.687 524.268L132.374 521.288C136.053 519.648 144.742 517.196 151.685 515.836C158.627 514.478 169.421 511.959 175.671 510.242C183.099 508.2 189.191 507.255 193.254 507.515L199.471 507.913L199.587 498.844C199.651 493.856 200.463 487.621 201.393 484.985C203.731 478.357 212.661 460.775 214.161 459.848C215.715 458.889 214.521 462.088 208.93 473.87C203.562 485.181 201.794 492.999 202.781 501.045L203.561 507.402L205.712 504.651C206.894 503.139 209.255 499.197 210.957 495.891C214.962 488.116 225.35 473.34 227.259 472.703C228.073 472.433 226.259 475.915 223.228 480.444C220.198 484.973 216.169 491.986 214.277 496.028C212.386 500.07 208.932 505.284 206.603 507.612C202.753 511.462 201.889 511.794 197.101 511.254C193.369 510.833 187.99 511.761 178.671 514.433C171.432 516.51 160.641 518.718 154.69 519.339C143.049 520.556 133.183 523.063 129.535 525.73C127.373 527.311 127.513 527.663 132.414 532.98L137.565 538.568L149.132 538.592C172.091 538.639 185.965 542.617 198.077 552.626C201.122 555.142 212.845 568.021 224.131 581.244C235.416 594.468 249.462 609.828 255.346 615.377C273.82 632.802 301.923 667.319 312.909 686.077C316.315 691.893 320.736 699.356 322.736 702.662C324.734 705.968 327.649 712.189 329.214 716.487L332.058 724.301L331.597 715.886C331.223 709.077 330.328 705.979 326.906 699.657C324.58 695.359 321.222 687.946 319.445 683.185C315.453 672.489 309.284 662.815 299.732 652.276C281.884 632.58 259.514 600.433 254.07 586.654C249.762 575.754 239.526 554.781 230.827 539.034C224.524 527.623 213.025 514.823 210.486 516.393C209.882 516.766 209.388 516.227 209.388 515.197C209.388 511.655 212.942 513.333 220.058 520.235C229.082 528.986 251.632 563.737 258.527 579.519C262.367 588.307 267.104 595.738 278.614 611.03C286.898 622.037 296.927 634.63 300.9 639.014C310.404 649.5 316.987 659.972 324.593 676.699C328.022 684.239 332.514 693.151 334.577 696.505C339.052 703.778 341.162 715.193 339.899 725.301C339.144 731.348 338.617 732.403 335.828 733.464C331.935 734.945 331.206 734.163 319.986 716.448C313.936 706.895 308.791 700.828 297.183 689.562C267.719 660.964 244.43 637.229 229.276 620.357C227.226 618.072 220.486 613.841 213.337 610.347C200.564 604.106 198.494 602.342 183.372 584.805C179.973 580.863 174.292 575.906 170.75 573.79C160.337 567.569 159.904 567.595 163.299 574.25C165.162 577.904 166.028 581.208 165.64 583.2C164.883 587.104 166.256 588.816 174.042 593.67C181.73 598.462 202.787 620.054 212.925 633.538C217.15 639.158 222.983 648.896 225.886 655.177C242.569 691.268 262.004 722.052 283.948 747.142C294.542 759.255 302.269 770.717 308.741 783.919C313.915 794.473 327.199 835.159 327.199 840.451C327.199 844.584 323.951 848.724 320.709 848.724C318.434 848.724 317.413 847.328 314.768 840.609C310.168 828.928 299.419 809.888 291.423 799.266C274.148 776.313 262.416 767.003 231.181 751.458C215.451 743.629 209.94 739.828 202.775 731.864C190.615 718.347 182.521 704.565 173.364 681.788C164.197 658.985 160.579 645.806 157.723 624.797C156.444 615.389 154.774 605.92 154.013 603.755C152.396 599.152 153.386 592.338 156.058 589.666C157.754 587.968 157.663 587.426 155.084 583.917C153.518 581.785 151.514 578.618 150.63 576.876C149.745 575.134 146.73 570.806 143.928 567.259C139.515 561.671 136.826 559.802 123.845 553.294C115.601 549.161 108.233 545.781 107.472 545.781C106.71 545.781 104.309 547.34 102.138 549.247C99.9655 551.152 92.779 556.085 86.1672 560.206C79.5553 564.328 72.2522 569.187 69.938 571.006C67.6239 572.825 63.2961 575.533 60.3208 577.025C57.3455 578.517 54.7524 579.874 54.5588 580.041C54.2355 580.32 56.9007 587.009 59.1487 591.56C59.6645 592.605 59.6224 597.474 59.055 602.38C58.4863 607.284 57.9982 615.213 57.9694 619.997C57.9406 624.781 57.3912 631.002 56.7492 633.822C51.0811 658.705 50.0881 661.635 44.3646 670.354C41.1717 675.218 37.7142 682.042 36.6828 685.519C35.6501 688.997 33.2675 694.89 31.3873 698.614C27.4972 706.324 21.1065 729.464 20.146 739.328C19.7913 742.964 19.1782 754.093 18.7851 764.059C18.0145 783.555 18.8332 789.132 24.8644 805.446C29.494 817.97 35.9411 847.179 36.7237 859.174C37.3151 868.252 37.1096 870.561 35.5732 872.097C33.0054 874.665 32.0919 874.479 28.5599 870.663C21.0549 862.555 -0.194458 831.313 0.459534 829.35C0.768494 828.423 16.168 848.578 27.8915 865.254C31.5977 870.524 33.8734 871.757 33.8734 868.495C33.8734 865.731 26.6581 844.692 18.3524 823.236C14.3336 812.854 9.37231 798.007 7.32861 790.244C5.28497 782.479 2.80493 774.109 1.81799 771.641C0.830994 769.173 0.20105 765.94 0.41864 764.456C0.649475 762.882 2.96356 768.473 5.9798 777.893C18.7311 817.716 33.6883 859.875 33.7941 856.296C33.8373 854.841 33.062 850.534 32.0702 846.725C31.0784 842.916 30.5242 838.968 30.8403 837.951C31.1553 836.933 30.8945 835.29 30.2573 834.298C29.2956 832.798 29.078 832.899 28.9638 834.899C28.7342 838.891 26.9213 832.087 26.7806 826.705C26.7145 824.183 26.0497 820.976 25.302 819.58C24.5555 818.184 23.5084 814.027 22.9771 810.343C22.4457 806.658 20.6028 798.774 18.8826 792.824C15.8315 782.27 15.7654 781.296 16.1849 753.153C16.5816 726.567 16.8268 723.782 19.3165 717.689C20.8024 714.052 22.7282 709.162 23.595 706.823C24.463 704.482 27.0776 698.785 29.4062 694.162C31.7347 689.538 34.2473 683.498 34.9902 680.74C35.7332 677.981 37.6241 674.199 39.1918 672.335C43.6614 667.023 47.287 659.264 49.0747 651.181C54.191 628.065 55.5422 614.169 54.4146 596.271C53.4301 580.643 52.4767 576.869 47.7402 569.824C46.1834 567.51 43.1552 561.344 41.0093 556.122C34.3699 539.965 18.3704 518.962 9.01764 514.125L5.37628 512.242L3.39636 523.302C2.30725 529.383 1.23126 536.254 1.00647 538.568C0.781616 540.882 0.519592 533.849 0.423401 522.94C0.32843 512.03 0.647034 503.661 1.13275 504.341C3.02008 506.985 14.6401 514.441 14.6581 513.02C14.6798 511.267 24.077 521.329 29.072 528.453C32.5065 533.352 45.2157 557.964 48.7296 566.518C49.7478 568.998 51.2205 571.026 52.0031 571.026C52.7857 571.026 58.7352 567.236 65.2244 562.601C71.7148 557.968 81.5064 551.941 86.9846 549.207C99.457 542.983 102.773 540.535 106.639 534.692L109.72 530.037L98.458 517.172C80.4761 496.63 57.0557 460.167 50.0375 441.793C48.9088 438.837 47.245 435.804 46.3397 435.053C45.4333 434.301 44.6928 432.941 44.6928 432.031C44.6928 431.119 44.2877 430.404 43.7912 430.44C42.3679 430.543 28.4229 453.239 26.146 459.156C24.0542 464.591 20.5379 470.295 17.1298 473.783C16.0911 474.846 11.9942 480.207 8.02704 485.695L0.814148 495.671L0.437866 490.526C0.108459 486.031 0.94397 483.953 7.04974 474.071C10.893 467.85 16.4722 458.581 19.4476 453.472C22.4229 448.364 25.9079 442.565 27.1906 440.585C28.4745 438.605 32.5065 432.388 36.1503 426.767C39.7952 421.147 45.0138 413.844 47.7487 410.538C54.8342 401.972 60.3208 393.594 60.3208 391.34C60.3208 388.962 63.9056 381.82 68.5856 374.873C70.5163 372.008 74.5182 365.067 77.4792 359.447C90.0237 335.644 96.323 324.237 97.9555 322.368C98.9124 321.272 104.359 311.334 110.06 300.282C125.801 269.761 131.039 261.381 143.336 247.045C147.306 242.417 152.767 235.925 155.469 232.619C163.162 223.214 168.417 217.592 169.521 217.592C170.078 217.592 171.102 216.376 171.795 214.888C172.49 213.401 176.015 208.937 179.63 204.97C183.244 201.003 189.554 192.618 193.653 186.336C197.752 180.055 201.762 174.375 202.561 173.714C204.26 172.31 212.708 159.601 220.68 146.457C223.756 141.384 229.371 133.718 233.158 129.422C240.821 120.726 243.462 119.849 249.99 123.829C252.155 125.149 254.791 126.229 255.849 126.229C259.894 126.229 294.055 149.394 319.385 169.315C339.408 185.062 388.473 238.088 390.504 246.175C391.391 249.709 386.038 264.532 381.289 271.689C379.315 274.665 377.698 277.496 377.695 277.98C377.692 278.465 375.235 283.974 372.236 290.224C367.106 300.91 354.702 318.749 345.835 328.191C343.662 330.505 338.477 337.808 334.311 344.42C324.752 359.598 322.083 363.08 307.715 379.129C300.003 387.742 293.353 396.76 288.213 405.576C283.924 412.934 278.228 421.253 275.556 424.065C272.885 426.877 270.702 429.582 270.706 430.076C270.711 430.57 272.541 435.844 274.773 441.794C277.004 447.745 279.517 456.506 280.355 461.263L281.879 469.913L285.605 469.193C287.654 468.797 291.766 466.835 294.741 464.834C300.422 461.012 321.897 442.056 324.523 438.545C325.365 437.42 329.295 434.226 333.256 431.447C337.216 428.668 341.652 424.451 343.112 422.073C344.573 419.696 350.651 412.558 356.62 406.211C368.161 393.935 376.65 379.986 374.312 377.137C372.611 375.064 372.484 311.841 374.153 297.985C375.462 287.117 378.571 279.55 385.451 270.487C386.812 268.695 391.216 257.924 392.702 252.756C393.836 248.814 397.561 249.361 404.231 254.448C409.93 258.794 416.311 265.574 432.339 284.312C436.863 289.602 441.159 294.47 441.886 295.132C442.612 295.793 448.271 301.878 454.459 308.656C460.648 315.432 466.256 320.978 466.921 320.978C467.587 320.978 466.31 318.902 464.084 316.363C461.859 313.825 457.152 308.01 453.626 303.44C450.1 298.87 441.67 289.181 434.892 281.908C428.113 274.635 416.046 261.381 408.075 252.455C393.154 235.745 348.091 191.024 331.156 176.118C325.896 171.49 314.117 162.293 304.98 155.682C295.842 149.07 282.902 138.791 276.223 132.841C269.544 126.89 260.458 119.917 256.033 117.347L247.988 112.673L254.391 105.125C261.542 96.6954 263.194 91.353 265.889 67.9242C268.2 47.8362 268.012 48.4962 271.838 46.9117C275.058 45.5785 275.811 45.831 281.727 50.2357C285.248 52.8588 289.346 55.6309 290.834 56.3967C295.453 58.7758 294.134 54.8303 289.031 51.0027C285.103 48.0562 278.677 42.3147 268.68 32.8152C266.808 31.0385 265.889 28.794 265.889 26.0014C265.889 23.7113 265.527 20.8935 265.084 19.7394C264.496 18.2067 264.703 17.9025 265.85 18.6118C267.11 19.3908 267.308 17.6477 266.853 9.79277C266.315 0.490496 266.412 0.00242166 268.793 1.73465e-05C271.151 -0.00358912 271.276 0.546998 270.908 9.31672ZM261.325 8.11697C262.11 22.2916 259.695 22.5789 248.68 9.61966C239.002 -1.76715 240.83 -3.61607 250.761 7.51589C254.564 11.7799 257.524 14.2492 257.603 13.2261C257.68 12.2343 257.86 9.79999 258.003 7.81643C258.513 0.779014 258.688 0.00242166 259.776 0.00242166C260.381 0.00242166 261.078 3.65337 261.325 8.11697ZM234.252 8.11697C237.666 12.5806 243.995 20.1457 248.314 24.9291C252.634 29.7137 256.797 34.8529 257.564 36.3496C259.678 40.4706 247.483 28.354 239.132 18.0347C235.119 13.0759 229.921 6.99055 227.58 4.5105C223.959 0.674426 223.678 0.00242166 225.686 0.00242166C227.186 0.00242166 230.31 2.96213 234.252 8.11697ZM189.589 9.9202C188.293 25.6937 186.596 35.0164 183.96 40.8553C182.612 43.8426 179.719 52.2361 177.529 59.5091C169.142 87.363 163.467 100.206 154.945 110.605C151.968 114.24 146.193 123.787 142.113 131.824L134.693 146.435L138.81 152.26C145.71 162.024 152.628 174.5 155.742 182.794C159.511 192.834 163.938 201.964 165.039 201.964C166.046 201.964 184.406 182.554 188.352 177.32C189.847 175.337 193.252 169.657 195.918 164.698C198.584 159.739 203.519 151.083 206.885 145.463C210.25 139.843 214.896 131.458 217.208 126.83C220.712 119.815 224.029 115.926 237.127 103.47C245.769 95.2504 253.887 86.471 255.167 83.9609C257.07 80.2318 257.614 75.945 258.14 60.484C258.495 50.0806 258.995 41.359 259.252 41.1017C259.508 40.8444 260.338 41.0175 261.095 41.4852C262.087 42.0983 262.249 47.2507 261.676 59.9383C260.631 83.0461 259.15 86.34 242.516 102.541C235.867 109.019 228.943 115.217 227.133 116.317C225.03 117.594 223.17 120.337 221.984 123.904C220.964 126.976 217.107 134.573 213.414 140.783C209.721 146.994 204.821 156.107 202.524 161.036C195.947 175.147 183.864 191.156 171.188 202.551C163.679 209.304 163.204 209.283 141.772 201.301C115.268 191.43 101.395 185.104 41.0863 155.394C9.80627 139.984 0.245544 134.513 0.227539 132.012C0.214294 130.122 0.610962 130.114 5.92328 131.891C9.06335 132.942 13.2444 134.928 15.2136 136.303C18.7587 138.78 37.8814 148.74 65.7305 162.616C73.6647 166.569 84.5515 172.447 89.9227 175.678C95.2939 178.91 102.597 182.56 106.152 183.794C109.707 185.026 118.565 188.588 125.838 191.71C139.748 197.68 160.019 204.85 160.795 204.074C161.907 202.962 150.234 176.03 144.446 166.357C133.955 148.818 127.218 141.319 114.418 132.93C88.3262 115.829 65.0092 102.99 49.9246 97.4191C44.7325 95.5016 37.7804 92.6164 34.4745 91.0068C28.4637 88.0819 9.47565 82.1974 3.83154 81.5121C2.18579 81.3114 0.675842 80.2956 0.477478 79.2533C0.164917 77.61 1.12189 77.4873 7.67847 78.324C19.807 79.8712 36.9689 85.561 50.8166 92.6261C55.0878 94.8056 55.8307 94.8645 58.8242 93.2596C66.5323 89.1278 76.913 74.75 80.7947 62.8295C82.2517 58.3586 84.9662 52.2661 86.8296 49.2908C92.3931 40.402 100.137 18.0684 101.769 6.20194C102.459 1.18895 103.063 0.00242166 104.928 0.00242166C106.954 0.00242166 107.145 0.622734 106.504 5.11158C104.513 19.0638 94.4849 46.7098 88.5174 54.7005C87.0352 56.684 84.0694 62.5542 81.9259 67.7439C77.5922 78.2387 72.1128 86.1861 64.7303 92.6862L59.8183 97.0103L69.6893 101.987C90.0958 112.278 119.314 131.089 128.512 139.859L133.589 144.7L137.637 135.764C139.863 130.851 142.678 124.125 143.892 120.819C145.108 117.513 148.908 110.751 152.339 105.792C155.771 100.833 159.447 95.0724 160.508 92.9915C163.931 86.2823 172.067 60.6355 174.457 49.0251C175.732 42.8208 177.894 34.913 179.258 31.452C181.205 26.5123 181.738 22.4527 181.738 12.5806V0.00242166H186.071H190.404L189.589 9.9202ZM276.126 53.4983C277.459 54.8207 282.251 59.2663 286.776 63.3764L295.002 70.8502L296.668 80.2066C300.236 100.249 300.172 99.0792 297.631 98.0682C293.714 96.509 273.119 93.3534 272.287 94.1841C270.804 95.6687 273.054 96.5198 282.991 98.2365C288.462 99.1802 293.749 100.671 294.741 101.546C295.733 102.422 297.626 103.337 298.949 103.579C300.913 103.937 301.489 105.284 302.097 110.928C303.068 119.947 311.574 137.498 319.998 147.867C325.374 154.485 334.412 170.801 334.412 173.891C334.412 174.405 331.843 172.335 328.702 169.29C325.561 166.245 315.959 158.73 307.364 152.591C298.768 146.45 286.486 136.965 280.07 131.513C273.653 126.06 264.848 119.611 260.503 117.181L252.603 112.763L260.377 104.521C269.713 94.6241 270.651 91.8158 270.783 73.3339C270.839 65.7303 271.518 57.6157 272.293 55.3016L273.703 51.094L276.126 53.4983ZM307.965 66.2929C311.601 68.0781 316.006 69.8825 317.754 70.302C321.405 71.1772 328.998 77.7578 334.43 84.7544C343.499 96.4321 365.395 117.333 372.563 121.153C376.585 123.297 384.118 128.116 389.301 131.862C394.486 135.607 401.973 140.826 405.94 143.46C409.908 146.094 415.272 150.137 417.862 152.444C427.829 161.322 465.677 176.256 490.091 180.945C503.12 183.446 534.391 184.522 542.986 182.765C560.843 179.114 582.949 169.373 602.356 156.606C613.943 148.982 632.699 138.001 633.228 138.532C633.425 138.729 626.726 145.95 618.341 154.579C609.955 163.209 597.883 175.735 591.512 182.415C577.653 196.95 572.263 200.155 563.512 199.067C540.817 196.248 536.632 196.116 522.549 197.77C514.615 198.702 505.21 200.027 501.649 200.714C498.087 201.402 492.677 201.984 489.627 202.007C486.576 202.029 479.753 202.878 474.463 203.892C457.742 207.095 432.639 208.127 421.568 206.063C394.421 201.003 367.178 192.52 356.852 185.915C348.396 180.506 340.286 170.425 334.464 158.086C331.968 152.796 327.164 145.039 323.79 140.847C315.017 129.949 308.247 115.304 306.752 103.989C306.229 100.022 304.637 91.4263 303.216 84.8866C301.797 78.3481 300.795 70.7589 300.993 68.0228L301.353 63.047L307.965 66.2929ZM246.655 125.946C252.942 128.018 260.656 132.302 270.097 138.968C315.675 171.145 320.842 175.521 362.782 217.467C383.513 238.202 390.926 247.74 388.542 250.613C387.889 251.4 385.959 255.75 384.254 260.281C382.548 264.812 379.642 270.45 377.796 272.81C375.949 275.169 371.476 282.238 367.856 288.52C364.236 294.801 356.266 306.161 350.145 313.765C344.023 321.369 337.633 330.024 335.944 332.999C329.979 343.506 318.457 359.779 308.761 371.391C303.364 377.854 294.891 389.498 289.932 397.267C278.748 414.788 274.441 420.627 271.08 422.829C268.585 424.464 268.392 424.325 267.117 419.948C264.893 412.316 263.45 388.02 265.086 385.749C271.711 376.553 285.053 359.244 288.138 355.84C290.235 353.526 293.491 348.928 295.371 345.622C297.252 342.316 302.613 335.489 307.284 330.45C319.38 317.404 330.918 303.577 333.548 298.972C334.79 296.8 338.329 293.427 341.412 291.476C344.496 289.525 349.583 285.651 352.719 282.867C358.024 278.155 367.426 274.094 373.028 274.094C374.191 274.094 375.478 273.553 375.887 272.892C376.851 271.332 376.426 271.356 365.154 273.513C356.472 275.175 347.641 279.589 347.633 282.27C347.632 282.731 345.146 284.68 342.108 286.6C336.249 290.301 336.358 290.329 332.983 284.312C332.241 282.99 329.825 279.689 327.614 276.977C325.403 274.264 320.089 264.798 315.803 255.939C303.565 230.637 293.479 212.021 284.767 198.647C280.348 191.864 275.18 183.208 273.284 179.412C269.264 171.368 264.05 154.677 262.872 146.08C262.106 140.49 259.062 132.654 258.05 133.666C257.536 134.182 262.705 159.872 264.424 165.334C266.774 172.804 273.677 187.347 280.99 200.238C285.141 207.552 290.824 218.101 293.623 223.68C296.42 229.258 300.291 236.143 302.226 238.979C304.16 241.816 308.271 249.392 311.362 255.815C317.697 268.982 320.919 274.445 327.46 283.11C329.956 286.416 331.999 290.143 332.003 291.392C332.005 292.639 328.898 297.41 325.095 301.99C321.293 306.57 316.29 312.941 313.976 316.149C311.661 319.356 306.684 325.434 302.917 329.657C299.148 333.879 294.279 340.361 292.098 344.059C289.914 347.758 285.874 353.951 283.119 357.82C276.899 366.555 263.023 381.343 264.11 378.08C264.55 376.758 265.46 370.266 266.133 363.654C266.805 357.042 268.919 343.917 270.83 334.486C274.404 316.848 275.66 294.051 273.659 283.11C271.684 272.305 266.111 251.561 264.181 247.83C263.047 245.638 259.791 237.707 256.945 230.208C247.534 205.403 240.656 195.468 225.718 185.105C221.035 181.855 215.755 177.366 213.986 175.129L210.769 171.062L216.744 162.17C220.031 157.279 224.599 149.96 226.897 145.906C231.293 138.149 239.52 128.087 242.87 126.368C243.96 125.809 245.663 125.619 246.655 125.946ZM204.579 181.322C204.579 182.784 202.236 188.702 199.373 194.475C196.509 200.247 193.196 208.135 192.01 212.002C189.994 218.578 189.649 218.994 186.697 218.402C181.524 217.363 176.93 215.328 176.93 214.076C176.93 213.431 179.298 210.923 182.194 208.503C188.183 203.496 194.097 196.072 200.303 185.765C203.376 180.662 204.579 179.412 204.579 181.322ZM360.86 194.338C371.518 199.833 397.011 207.642 413.754 210.542C424.11 212.334 431.637 212.842 443.748 212.559L459.917 212.183L469.87 232.018C497.64 287.363 507.66 309.272 511.837 323.784C514.152 331.827 516.363 340.934 516.749 344.02L517.451 349.63L512.787 350.926C510.223 351.638 507.583 352.235 506.921 352.254C506.26 352.272 504.367 353.345 502.714 354.638C501.061 355.932 499.284 357.002 498.764 357.016C498.244 357.03 496.815 354.698 495.586 351.832C493.248 346.376 481.053 331.063 465.273 313.765C460.144 308.145 453.779 300.635 451.125 297.077C446.608 291.02 433.939 276.714 406.353 246.526C399.968 239.539 385.06 223.948 373.224 211.882C361.389 199.816 352.006 190.026 352.375 190.126C352.744 190.227 356.562 192.122 360.86 194.338ZM10.4314 205.941C33.1497 214.339 54.4315 221.158 64.1365 223.146C74.0927 225.187 75.343 225.189 91.786 223.191C108.768 221.127 127.126 217.941 141.714 214.529C145.817 213.569 150.896 212.784 153.001 212.784C155.254 212.784 157.469 211.918 158.383 210.68C159.485 209.189 160.316 208.949 161.237 209.854C162.809 211.401 160.956 217.583 157.296 223.002C153.873 228.072 139.091 245.719 131.395 253.928C122.88 263.006 119.226 268.059 119.226 270.755C119.226 273.917 112.633 286.618 106.259 295.733C98.5338 306.778 89.2603 323.415 84.0273 335.612C81.5677 341.347 79.5553 346.415 79.5553 346.876C79.5553 348.345 70.8325 362.314 67.4677 366.234C63.8431 370.455 58.5115 381.129 56.2142 388.763C55.3848 391.521 49.374 402.147 42.8595 412.376C36.3438 422.606 28.6416 434.978 25.7444 439.872C22.8472 444.765 17.4267 452.879 13.7 457.905C9.97217 462.928 5.422 469.745 3.58997 473.05L0.256348 479.061L0.23468 472.378C0.211853 465.157 0.113281 465.359 15.466 441.193C19.4572 434.912 24.7046 426.257 27.1269 421.959C29.5493 417.661 35.0407 409.038 39.33 402.797C43.6205 396.555 48.4928 388.472 50.159 384.833C51.8252 381.194 57.2157 372.143 62.1385 364.718C67.0613 357.295 73.8367 345.906 77.1943 339.409C80.5519 332.913 84.3098 326.514 85.5433 325.189C86.7779 323.865 89.1785 319.071 90.8784 314.538C92.5795 310.003 97.578 300.807 101.987 294.101C106.396 287.394 111.897 278.391 114.211 274.094C122.702 258.323 126.694 252.677 143.964 232.018C151.501 223.003 155.291 217.657 155.291 216.044C155.291 215.768 152.452 216.281 148.98 217.185C124.869 223.467 81.1951 230.353 73.8884 229.023C70.2182 228.354 69.8695 228.627 66.8894 234.509C62.4847 243.201 42.4243 264.105 28.2449 274.778C22.7234 278.934 2.97443 289.722 0.886292 289.722C-1.45435 289.722 1.05334 286.934 5.92328 284.123C24.0061 273.685 32.4068 267.251 46.1258 253.327C66.6081 232.54 69.7565 227.21 61.5507 227.21C57.7326 227.21 37.5784 221.094 21.8519 215.164C16.2318 213.045 9.46967 210.523 6.82489 209.559C1.10748 207.476 -0.152405 206.406 0.400574 204.107C0.733582 202.721 2.68591 203.078 10.4314 205.941ZM401.708 256.764C407.687 262.144 416.952 271.784 422.552 278.453C434.215 292.34 445.408 304.274 458.674 316.963C473.936 331.56 476.134 334.391 484.703 350.471C490.744 361.807 505.342 383.378 514.562 394.595C518.294 399.136 523.66 405.662 526.488 409.098C529.314 412.535 532.337 417.753 533.207 420.692C534.831 426.189 537.576 428.719 537.576 424.718C537.576 423.48 536.553 420.46 535.302 418.005C534.05 415.551 533.499 413.544 534.075 413.544C535.394 413.544 540.453 423.023 540.686 425.932C540.783 427.125 542.556 429.758 544.628 431.784C546.701 433.811 548.396 436.44 548.396 437.629C548.396 438.818 548.802 439.971 549.297 440.192C550.943 440.923 562.587 460.923 565.13 467.385C566.505 470.881 567.63 475.068 567.63 476.691C567.63 480.578 572.381 494.283 581.163 515.727C585.089 525.314 589.835 537.756 591.708 543.377C600.12 568.605 613.482 605.005 619.182 618.219C620.538 621.364 622.438 628.397 623.402 633.847C625.46 645.472 631.288 664.414 639.041 684.673C642.086 692.631 645.876 704.803 647.464 711.722C651.036 727.292 662.483 771.824 663.218 773.015C663.515 773.495 664.329 779.231 665.026 785.761C665.725 792.29 667.344 804.67 668.626 813.271C671.642 833.518 672.535 913.232 669.842 921.762C668.953 924.576 667.998 926.651 667.721 926.374C667.442 926.096 666.974 922.44 666.681 918.252C666.387 914.062 665.35 906.522 664.374 901.496C663.398 896.47 662.31 886.462 661.955 879.256C661.325 866.443 658.938 850.551 656.436 842.524C655.747 840.315 654.753 831.977 654.228 823.998C653.238 808.985 651.857 804.44 646.946 800.034C645.475 798.713 642.478 793.961 640.287 789.474C638.097 784.987 633.577 777.846 630.243 773.604C622.229 763.405 612.733 746.222 602.952 724.217C598.564 714.346 592.273 700.318 588.972 693.045C572.694 657.177 564.237 637.137 562.844 631.134C562.002 627.497 560.072 619.924 558.556 614.304C552.31 591.154 547.194 567.339 547.194 561.416C547.194 557.947 545.508 548.005 543.449 539.324C539.643 523.286 538.977 513.206 541.176 504.908C542.693 499.185 542.874 491.141 541.842 475.455C541.363 468.182 541.035 460.879 541.111 459.226C542.187 436.045 541.739 430.374 538.836 430.374C538.253 430.374 537.326 431.696 536.775 433.312L535.773 436.25L523.752 428.691C517.14 424.534 507.943 418.937 503.315 416.253C498.687 413.57 490.663 408.03 485.485 403.942C480.307 399.854 475.794 396.785 475.457 397.122C472.718 399.861 489.432 414.712 502.714 421.34C509.12 424.537 530.349 437.427 531.566 438.859C531.896 439.247 533.113 439.914 534.27 440.342C535.428 440.769 536.38 442.352 536.389 443.861C536.397 445.368 536.587 457.963 536.811 471.848C537.163 493.625 536.913 498.167 534.993 504.904C533.769 509.199 532.768 516.181 532.768 520.42V528.126L526.679 519.455C523.33 514.686 516.155 506.081 510.735 500.332C500.804 489.801 476.361 461.885 467.015 450.398C464.24 446.989 460.595 442.51 458.916 440.447C456.396 437.349 455.641 434.622 454.592 424.819C453.892 418.286 452.79 408.18 452.14 402.359C451.491 396.537 451.266 391.279 451.64 390.673C452.323 389.569 464.709 393.57 467.535 395.806C468.354 396.453 469.977 396.613 471.142 396.161C473.126 395.391 473.113 395.231 470.934 393.626C469.653 392.685 464.209 390.573 458.833 388.933C449.51 386.089 448.874 385.667 445.057 379.776C442.857 376.38 439.204 371.175 436.94 368.209C434.677 365.244 433.174 362.468 433.601 362.041C434.373 361.269 437.801 364.807 449.139 378.08C455.307 385.3 463.329 389.998 468.2 389.243C470.175 388.937 469.29 388.293 464.755 386.735C458.328 384.526 453.232 379.946 448.624 372.234L445.85 367.591L449.938 368.479C452.186 368.968 457.651 370.588 462.081 372.081C466.511 373.573 470.432 374.498 470.797 374.134C473.667 371.263 465.768 366.892 451.898 363.675C447.661 362.693 438.563 359.24 431.68 356.003C406.077 343.963 400.409 341.414 399.235 341.414C397.143 341.414 389.273 336.923 384.963 333.271L380.815 329.757V307.563C380.815 284.224 381.562 279.988 386.66 274.426C388.008 272.955 390.365 268.357 391.9 264.207C393.434 260.057 395.092 255.626 395.584 254.359C396.398 252.258 396.933 252.467 401.708 256.764ZM259.6 323.382C259.6 325.696 259.352 326.642 259.05 325.486C258.747 324.329 258.747 322.435 259.05 321.278C259.352 320.122 259.6 321.068 259.6 323.382ZM486.43 342.189C488.774 345.259 490.692 348.43 490.692 349.236C490.692 352.228 500.341 369.32 505.46 375.397C508.374 378.857 512.948 384.954 515.625 388.948C518.303 392.941 521.362 396.93 522.423 397.811C523.485 398.691 524.353 399.981 524.353 400.677C524.353 403.943 511.631 388.615 499.454 370.674C494.568 363.475 480.494 336.606 481.611 336.606C481.917 336.606 484.085 339.118 486.43 342.189ZM576.646 354.686C581.275 355.18 586.955 356.209 589.269 356.975C591.583 357.74 599.704 359.931 607.315 361.845C614.925 363.759 625.204 367.032 630.156 369.118C635.107 371.204 646.462 375.485 655.388 378.63C664.314 381.776 678.108 386.64 686.043 389.439C715.577 399.86 743.768 408.735 747.331 408.735C751.519 408.735 757.727 411.271 757.231 412.779C756.541 414.881 746.088 415.143 742.9 413.139C740.806 411.823 735.468 411.387 720.794 411.329C702.147 411.257 685.796 409.398 660.797 404.502C656.169 403.597 645.62 401.975 637.355 400.9C611.767 397.57 547.118 398.371 530.965 402.219C529.15 402.651 527.927 401.677 525.979 398.25C524.561 395.752 518.204 386.784 511.854 378.319C505.504 369.855 500.31 362.213 500.31 361.337C500.31 360.316 504.832 358.61 512.896 356.589C524.326 353.726 527.445 353.452 546.857 353.613C558.613 353.709 572.018 354.192 576.646 354.686ZM489.405 362.753C489.271 364.152 473.66 375.274 472.899 374.512C471.95 373.563 479.812 365.599 483.72 363.552C487.296 361.678 489.537 361.363 489.405 362.753ZM446.469 387.096C446.841 388.088 447.784 393.498 448.563 399.118C449.341 404.738 450.483 411.933 451.101 415.105C451.718 418.279 452.241 423.418 452.263 426.526C452.31 433.324 455.518 443.12 459.268 447.915C460.772 449.838 464.265 454.466 467.03 458.199C473.886 467.453 492.658 491.244 496.691 495.792C498.499 497.83 503.376 503.285 507.529 507.913C515.724 517.046 525.703 530.667 529.107 537.366C530.283 539.68 532.728 546.983 534.54 553.595C536.351 560.207 538.923 569.403 540.255 574.031C543.707 586.029 544.924 596.57 545.39 618.511C545.616 629.09 546.38 645.319 547.088 654.576C547.796 663.832 548.379 686.45 548.385 704.838C548.395 736.065 548.201 739.116 545.445 751.121C541.231 769.463 533.318 788.399 522.04 807.127C518.814 812.484 512.158 824.17 507.248 833.096C496.724 852.229 475.438 890.192 472.983 894.21C470.42 898.402 469.839 896.529 472.057 891.23C473.124 888.679 476.119 878.477 478.71 868.56C481.302 858.642 485.292 843.495 487.578 834.899C492.255 817.307 498.315 788.248 500.946 770.801C504.475 747.387 502.803 729.296 493.651 691.899C488.575 671.157 486.218 653.865 484.713 626.325C483.96 612.544 482.474 599.897 480.408 589.659C477.94 577.435 477.027 568.271 476.218 547.584C474.735 509.673 471.059 481.48 465.296 463.809C462.788 456.12 458.199 446.839 457.334 447.703C457.074 447.964 457.955 451.879 459.291 456.405C465.488 477.395 469.637 508.916 470.973 545.18C471.6 562.164 472.527 570.438 475.281 583.649C477.745 595.466 479.125 606.622 479.915 621.101C481.352 647.428 484.805 671.948 490.133 693.647C498.34 727.069 498.474 727.954 498.441 748.344C498.413 766.117 498.023 769.497 493.319 792.824C490.519 806.709 485.582 828.077 482.346 840.309C479.11 852.541 475.385 866.876 474.07 872.166C472.754 877.455 471.003 883.406 470.178 885.39C468.731 888.867 468.621 888.633 467.076 878.778C463.952 858.842 463.893 853.695 466.602 837.418C468.022 828.886 469.905 820.501 470.785 818.784C478.816 803.123 479.812 784.665 473.611 766.383C472.264 762.413 464.417 745.369 456.171 728.508C447.927 711.648 438.602 691.357 435.448 683.417C432.296 675.477 428.357 666.28 426.696 662.98C425.035 659.68 422.153 652.652 420.291 647.363C417.045 638.138 416.886 636.642 416.416 610.697C415.781 575.686 416.846 566.789 426.412 527.147C429.283 515.246 432.526 500.64 433.616 494.689C434.708 488.739 437.718 477.545 440.305 469.817C442.893 462.087 445.026 453.972 445.045 451.784C445.065 449.595 446.089 444.112 447.322 439.597C450.014 429.736 449.784 412.54 446.784 399.348C444.992 391.471 444.763 382.565 446.469 387.096ZM482.679 394.967C485.213 395.897 490.082 396.995 493.498 397.408C496.914 397.821 502.954 398.975 506.921 399.971C510.889 400.969 515.351 401.793 516.839 401.804C520.161 401.828 520.292 402.882 517.213 404.804C515.309 405.993 513.888 405.821 509.47 403.866C506.493 402.55 499.616 400.915 494.187 400.235C483.757 398.927 476.266 396.476 476.266 394.371C476.266 392.798 476.935 392.861 482.679 394.967ZM443.808 399.558C443.808 400.639 443.285 401.522 442.645 401.522C442.005 401.522 439.328 404.375 436.695 407.862L431.908 414.203L433.173 423.19C434.57 433.124 433.757 459.167 431.945 462.508C428.791 468.325 417.979 475.107 404.429 479.769C394.794 483.084 378.879 494.063 366.723 505.783C349.639 522.251 339.371 535.776 328.591 556.012C315.43 580.715 311.618 587.457 311.593 586.072C311.572 584.942 314.697 576.674 329.322 539.169C332.931 529.912 337.933 518.011 340.436 512.722C342.94 507.432 348.003 496.702 351.686 488.877C359.294 472.717 368.131 461.886 377.839 456.821C381.007 455.168 387.273 450.8 391.765 447.114C396.255 443.427 403.446 438.444 407.744 436.04C415.348 431.786 430.585 417.578 430.585 414.741C430.585 413.963 426.663 416.805 421.869 421.056C417.075 425.307 410.719 430.087 407.744 431.678C400.633 435.481 391.063 442.476 387.307 446.615C385.654 448.436 380.785 452.227 376.488 455.037C372.19 457.849 366.444 462.511 363.718 465.398C357.663 471.811 350.029 484.859 345.876 495.891C344.174 500.415 342.298 504.701 341.71 505.414C338.331 509.511 323.423 546.514 311.979 579.209C310.287 584.041 308.663 587.754 308.371 587.461C308.078 587.167 309.443 579.698 311.405 570.863C313.366 562.027 315.59 550.469 316.345 545.18C317.1 539.89 318.99 529.612 320.543 522.339C322.096 515.066 323.995 504.517 324.762 498.897C327.368 479.833 328.393 475.678 331.853 470.153C333.753 467.118 337.135 461.139 339.369 456.868C345.044 446.01 354.459 436.347 367.952 427.536C377.913 421.031 381.303 419.538 392.717 416.63C412.188 411.67 420.882 410.155 425.964 410.837C430.217 411.406 430.914 411.013 437.153 404.519C441.289 400.216 443.808 398.337 443.808 399.558ZM445.072 410.238C445.107 413.708 445.561 420.336 446.084 424.964C446.875 431.976 446.655 434.269 444.766 438.713C443.519 441.648 442.179 446.517 441.789 449.533C440.381 460.412 439.416 457.885 439.206 442.772C439.09 434.3 438.429 424.245 437.737 420.428C436.534 413.793 436.627 413.279 439.844 408.733C441.694 406.118 443.612 403.966 444.109 403.952C444.605 403.939 445.038 406.767 445.072 410.238ZM622.745 406.397C625.621 406.975 634.818 408.02 643.182 408.72C651.548 409.419 661.368 410.484 665.005 411.088C694.918 416.047 696.753 416.196 718.319 415.412C735.624 414.784 739.678 414.935 739.27 416.192C738.991 417.049 735.557 418.474 731.638 419.356C727.719 420.24 720.917 422.025 716.523 423.324C712.131 424.624 704.016 426.17 698.491 426.759C686.936 427.992 675.471 432.154 668.567 437.622C665.93 439.71 660.939 442.174 657.477 443.099C650.054 445.08 626.376 447.181 599.487 448.246L580.253 449.007L573.286 444.418C569.455 441.893 562.851 437.235 558.612 434.066C554.372 430.897 549.343 427.658 547.436 426.868C545.422 426.034 543.105 423.621 541.909 421.113C540.777 418.737 537.982 414.515 535.7 411.73L531.55 406.665L539.071 405.956C550.658 404.865 616.859 405.214 622.745 406.397ZM49.8549 426.858C50.9825 429.462 51.9057 431.918 51.9057 432.314C51.9057 433.671 59.4962 449 62.5521 453.816C64.2302 456.461 67.0336 461.329 68.7828 464.635C79.5445 484.984 84.9746 491.927 116.228 525.3C128.326 538.217 140.242 551.221 142.711 554.196C148.637 561.339 161.843 581.543 164.07 586.873C165.041 589.195 167.655 592.223 169.879 593.6C172.104 594.978 179.115 601.417 185.459 607.909C203.392 626.26 215.818 644.389 221.983 661.188C233.924 693.73 253.785 725.424 280.743 754.956C289.657 764.721 297.193 776.204 303.447 789.548C307.867 798.982 314.36 817.468 313.252 817.468C312.997 817.468 308.94 809.758 304.233 800.337C297.877 787.61 293.458 780.58 287.045 772.988C282.296 767.368 274.485 757.486 269.685 751.028C264.884 744.572 255.711 734.023 249.298 727.586C237.349 715.595 233.399 710.766 217.606 688.836C208.61 676.347 201.929 664.318 195.568 649.166C185.508 625.2 176.359 608.866 165.942 596.271C163.481 593.296 158.65 585.181 155.206 578.239C147.888 563.49 139.637 552.868 125.33 539.783C119.659 534.596 112.314 526.976 109.008 522.849C105.702 518.722 99.3812 511.439 94.9609 506.665C90.5406 501.89 84.9421 494.886 82.5198 491.1C80.0975 487.313 76.3624 482.243 74.2189 479.834C72.0767 477.426 68.2803 471.407 65.7822 466.46C63.2842 461.515 59.4902 454.731 57.3515 451.386C55.2117 448.042 52.7653 443.164 51.9153 440.544C51.0654 437.926 49.3632 434.348 48.1322 432.593C45.8505 429.338 45.128 423.777 46.8495 422.713C47.3736 422.389 48.726 424.254 49.8549 426.858ZM240.644 487.931C240.644 488.529 239.206 489.379 237.449 489.821C235.691 490.262 229.724 495.183 224.187 500.758C215.095 509.912 209.327 513.662 207.362 511.697C206.971 511.305 208.202 510.395 210.099 509.674C211.996 508.954 213.847 507.992 214.214 507.537C214.58 507.082 218.648 503.083 223.254 498.648C230.907 491.279 240.644 485.279 240.644 487.931ZM121.934 542.023C131.615 551.861 133.599 554.845 127.942 551.056C121.722 546.889 114.011 543.377 111.085 543.377C108.135 543.377 93.3608 551.86 72.3423 565.622C57.8215 575.129 53.4577 577.372 52.4984 575.822C52.0884 575.158 52.734 574.26 53.9338 573.825C55.1323 573.39 60.1705 570.011 65.1295 566.32C77.1318 557.382 85.2631 552.357 90.3747 550.717C94.8768 549.273 104.203 541.293 107.735 535.863C108.918 534.045 110.501 532.557 111.253 532.557C112.005 532.557 116.811 536.816 121.934 542.023ZM158.898 542.957C166.785 543.705 176.32 546.061 181.137 548.454C188.663 552.194 202.966 563.537 206.9 568.885C212.657 576.714 235.024 601.478 253.895 620.916C270.722 638.247 283.065 652.234 297.389 670.204C306.317 681.402 325.305 712.88 323.132 712.88C322.911 712.88 320.804 709.978 318.449 706.431C312.83 697.968 296.283 680.659 281.523 667.806C275.026 662.146 264.926 652.025 259.083 645.315C229.472 611.313 227.882 609.816 214.199 603.083C205.426 598.766 200.113 595.275 196.768 591.63C177.066 570.163 175.766 569.022 164.504 563.282C155.325 558.602 152.413 556.396 148.012 550.788C145.073 547.042 142.488 543.573 142.268 543.076C141.88 542.203 150.292 542.143 158.898 542.957ZM160.701 594.3C164.377 600.531 172.407 612.426 173.393 613.102C173.875 613.432 177.335 619.575 181.08 626.753C184.824 633.931 188.364 640.693 188.943 641.78C189.524 642.867 194.283 652.412 199.521 662.991C213.234 690.689 220.659 700.854 247.816 729.109C255.443 737.044 264.387 747.493 267.693 752.329C270.999 757.167 277.538 765.552 282.224 770.963C286.91 776.375 293.314 785.4 296.454 791.021C302.14 801.198 308.337 815.092 307.544 815.885C307.314 816.114 305.051 812.913 302.513 808.77C284.731 779.738 264.886 762.043 229.965 744.078C217.897 737.87 210.777 731.067 200.77 716.185C186.369 694.768 172.75 658.841 165.566 623.32C164.496 618.03 162.252 610.079 160.577 605.652C158.904 601.223 157.705 595.941 157.915 593.913L158.296 590.226L160.701 594.3ZM688.945 894.406C688.908 895.398 688.414 897.291 687.846 898.613L686.813 901.018L686.747 898.613C686.71 897.291 687.205 895.398 687.846 894.406C688.882 892.803 689.003 892.803 688.945 894.406Z" fill="white"/>
</svg>
