<svg xmlns="http://www.w3.org/2000/svg">
  <symbol id="social-vk" width="100%" height="100%" viewBox="0 0 30 30" fill="none">
    <path
      d="M15 0C23.2843 0 30 6.71573 30 15C30 23.2843 23.2843 30 15 30C6.71573 30 0 23.2843 0 15C0 6.71573 6.71573 0 15 0ZM14.6934 11.002C13.8351 10.9935 13.1089 11.0048 12.6973 11.2021C12.4236 11.3334 12.2123 11.6272 12.3408 11.6445C12.4996 11.6653 12.8598 11.7393 13.0508 11.9941C13.294 12.3192 13.2892 13.043 13.2891 13.0625C13.2891 13.0625 13.4304 15.0992 12.958 15.3525C12.634 15.5261 12.1889 15.1718 11.2334 13.5518C10.7471 12.7267 10.3789 11.8154 10.375 11.8057C10.375 11.8057 10.3042 11.6342 10.1768 11.542C10.0259 11.433 9.81664 11.397 9.80762 11.3955L7.52148 11.4102C7.52148 11.4102 7.17777 11.4197 7.05176 11.5664C6.94168 11.6941 7.03973 11.9573 7.04297 11.9658C7.04297 11.9658 8.83256 16.0767 10.8594 18.1484C12.7141 20.0434 14.8194 19.9234 14.8281 19.9229H15.7842C15.7842 19.9229 16.0727 19.891 16.2207 19.7354C16.3561 19.5925 16.3516 19.3223 16.3516 19.3223C16.3513 19.2979 16.34 18.062 16.9297 17.8779C17.5165 17.6957 18.2697 19.0953 19.0693 19.6338C19.6735 20.0409 20.1328 19.9521 20.1328 19.9521L22.2695 19.9229C22.2734 19.9226 23.3863 19.8533 22.8574 18.9922C22.8136 18.9215 22.548 18.3536 21.2686 17.1875C19.9283 15.9671 20.1081 16.1643 21.7217 14.0527C22.7044 12.767 23.0974 11.9822 22.9746 11.6465C22.858 11.3254 22.1348 11.4102 22.1348 11.4102L19.7295 11.4248C19.7295 11.4248 19.5512 11.4012 19.4189 11.4785C19.2918 11.5534 19.2086 11.727 19.2061 11.7324C19.2061 11.7324 18.8252 12.7268 18.3174 13.5732C17.2461 15.3584 16.8179 15.4534 16.6426 15.3428C16.2351 15.0838 16.3369 14.3037 16.3369 13.75C16.337 12.0196 16.6044 11.298 15.8164 11.1113C15.5551 11.0491 15.3623 11.0089 14.6934 11.002Z"
      fill="currentColor" />
  </symbol>

  <symbol id="social-tg" width="100%" height="100%" viewBox="0 0 30 30" fill="none">
    <path
      d="M15 0C23.2843 0 30 6.71573 30 15C30 23.2843 23.2843 30 15 30C6.71573 30 0 23.2843 0 15C0 6.71573 6.71573 0 15 0ZM21.7383 9C21.1659 9.01272 20.2753 9.31806 16.04 11.0859C14.5518 11.7092 11.5876 12.9943 7.13574 14.9277C6.42381 15.2202 6.04232 15.4996 6.00391 15.7793C5.94031 16.3135 6.7033 16.4789 7.65723 16.7842C8.44585 17.0386 9.48919 17.331 10.0361 17.3438C10.5321 17.3564 11.079 17.1531 11.6895 16.7334C15.8487 13.9224 17.9861 12.4981 18.126 12.4727C18.2277 12.4473 18.3544 12.4219 18.4434 12.498C18.5322 12.5742 18.5322 12.7261 18.5195 12.7646C18.4432 13.0826 14.5403 16.6425 14.3096 16.873C13.4447 17.7633 12.4655 18.3108 13.9785 19.3027C15.2886 20.1677 16.0394 20.7151 17.3877 21.5928C18.2399 22.1524 18.9143 22.8136 19.8047 22.7373C20.2117 22.6991 20.6314 22.3175 20.8477 21.1729C21.3564 18.4763 22.3482 12.6121 22.5771 10.1953C22.6025 9.99183 22.5772 9.72479 22.5518 9.59766C22.5263 9.47049 22.4885 9.30486 22.3359 9.17773C22.1453 9.02528 21.8656 9.00004 21.7383 9Z"
      fill="currentColor" />
  </symbol>
</svg>