<svg xmlns="http://www.w3.org/2000/svg">
  <symbol id="social-vk" width="100%" height="100%" viewBox="0 0 30 30" fill="none">
    <path
      d="M15 0C23.2843 0 30 6.71573 30 15C30 23.2843 23.2843 30 15 30C6.71573 30 0 23.2843 0 15C0 6.71573 6.71573 0 15 0ZM14.6934 11.002C13.8351 10.9935 13.1089 11.0048 12.6973 11.2021C12.4236 11.3334 12.2123 11.6272 12.3408 11.6445C12.4996 11.6653 12.8598 11.7393 13.0508 11.9941C13.294 12.3192 13.2892 13.043 13.2891 13.0625C13.2891 13.0625 13.4304 15.0992 12.958 15.3525C12.634 15.5261 12.1889 15.1718 11.2334 13.5518C10.7471 12.7267 10.3789 11.8154 10.375 11.8057C10.375 11.8057 10.3042 11.6342 10.1768 11.542C10.0259 11.433 9.81664 11.397 9.80762 11.3955L7.52148 11.4102C7.52148 11.4102 7.17777 11.4197 7.05176 11.5664C6.94168 11.6941 7.03973 11.9573 7.04297 11.9658C7.04297 11.9658 8.83256 16.0767 10.8594 18.1484C12.7141 20.0434 14.8194 19.9234 14.8281 19.9229H15.7842C15.7842 19.9229 16.0727 19.891 16.2207 19.7354C16.3561 19.5925 16.3516 19.3223 16.3516 19.3223C16.3513 19.2979 16.34 18.062 16.9297 17.8779C17.5165 17.6957 18.2697 19.0953 19.0693 19.6338C19.6735 20.0409 20.1328 19.9521 20.1328 19.9521L22.2695 19.9229C22.2734 19.9226 23.3863 19.8533 22.8574 18.9922C22.8136 18.9215 22.548 18.3536 21.2686 17.1875C19.9283 15.9671 20.1081 16.1643 21.7217 14.0527C22.7044 12.767 23.0974 11.9822 22.9746 11.6465C22.858 11.3254 22.1348 11.4102 22.1348 11.4102L19.7295 11.4248C19.7295 11.4248 19.5512 11.4012 19.4189 11.4785C19.2918 11.5534 19.2086 11.727 19.2061 11.7324C19.2061 11.7324 18.8252 12.7268 18.3174 13.5732C17.2461 15.3584 16.8179 15.4534 16.6426 15.3428C16.2351 15.0838 16.3369 14.3037 16.3369 13.75C16.337 12.0196 16.6044 11.298 15.8164 11.1113C15.5551 11.0491 15.3623 11.0089 14.6934 11.002Z"
      fill="currentColor" />
  </symbol>

  <symbol id="social-tg" width="100%" height="100%" viewBox="0 0 30 30" fill="none">
    <path
      d="M15 0C23.2843 0 30 6.71573 30 15C30 23.2843 23.2843 30 15 30C6.71573 30 0 23.2843 0 15C0 6.71573 6.71573 0 15 0ZM21.7383 9C21.1659 9.01272 20.2753 9.31806 16.04 11.0859C14.5518 11.7092 11.5876 12.9943 7.13574 14.9277C6.42381 15.2202 6.04232 15.4996 6.00391 15.7793C5.94031 16.3135 6.7033 16.4789 7.65723 16.7842C8.44585 17.0386 9.48919 17.331 10.0361 17.3438C10.5321 17.3564 11.079 17.1531 11.6895 16.7334C15.8487 13.9224 17.9861 12.4981 18.126 12.4727C18.2277 12.4473 18.3544 12.4219 18.4434 12.498C18.5322 12.5742 18.5322 12.7261 18.5195 12.7646C18.4432 13.0826 14.5403 16.6425 14.3096 16.873C13.4447 17.7633 12.4655 18.3108 13.9785 19.3027C15.2886 20.1677 16.0394 20.7151 17.3877 21.5928C18.2399 22.1524 18.9143 22.8136 19.8047 22.7373C20.2117 22.6991 20.6314 22.3175 20.8477 21.1729C21.3564 18.4763 22.3482 12.6121 22.5771 10.1953C22.6025 9.99183 22.5772 9.72479 22.5518 9.59766C22.5263 9.47049 22.4885 9.30486 22.3359 9.17773C22.1453 9.02528 21.8656 9.00004 21.7383 9Z"
      fill="currentColor" />
  </symbol>

  <symbol id="icon-checkmark" width="100%" height="100%" viewBox="0 0 24 24" fill="none">
    <path d="M12 22C17.5 22 22 17.5 22 12C22 6.5 17.5 2 12 2C6.5 2 2 6.5 2 12C2 17.5 6.5 22 12 22Z"
      stroke="currentColor" stroke-width="1.5" stroke-linecap="round" stroke-linejoin="round" />
    <path d="M7.75 11.9999L10.58 14.8299L16.25 9.16992" stroke="currentColor" stroke-width="1.5"
      stroke-linecap="round" stroke-linejoin="round" />
  </symbol>

  <symbol id="logo" width="100%" height="100%" viewBox="0 0 70 70" fill="none">
    <path d="M70.0444 70.0445H0V0H70.0444V70.0445ZM1.4842 68.5603H68.5602V1.4842H1.4842V68.5603Z"
      fill="currentColor" />
    <path
      d="M32.2812 5.54102L22.0946 32.9097H20.1751L9.78564 5.54102H11.631L19.8188 27.4528C20.0217 27.9475 20.2789 28.6995 20.5857 29.6593C20.8924 30.6191 21.0804 31.2177 21.1645 31.4502C21.2932 30.9126 21.7285 29.6049 22.4706 27.527L30.5793 5.54102H32.2812Z"
      fill="currentColor" />
    <path d="M49.196 5.54102V32.9097H47.5684V5.54102H49.196Z" fill="currentColor" />
    <path d="M31.4554 37.1343V38.5937H21.7685V64.5029H20.1161V38.5937H10.3896V37.1343H31.4554Z"
      fill="currentColor" />
    <path
      d="M49.3696 37.1343L60.2538 64.5029H58.4035L54.9898 55.662H41.7952L38.2975 64.5029H36.4917L47.5985 37.1343H49.3696ZM54.4407 54.2768L49.4438 41.5918C49.3152 41.2851 49.1421 40.7953 48.9491 40.1076C48.7562 39.42 48.5682 38.9648 48.4544 38.6828C48.3802 38.8906 48.2713 39.1775 48.1279 39.5486L47.7469 40.5677C47.6282 40.8744 47.5193 41.1713 47.4204 41.4533L42.3048 54.2521L54.4407 54.2768Z"
      fill="currentColor" />
  </symbol>

  <symbol id="icon-cart" width="100%" height="100%" viewBox="0 0 26 26" fill="none">
    <path
      d="M9.10003 7.04199H16.9C20.5834 7.04199 20.9517 8.76449 21.2009 10.8662L22.1759 18.9912C22.49 21.6562 21.6667 23.8337 17.875 23.8337H8.13586C4.33336 23.8337 3.51003 21.6562 3.83503 18.9912L4.81004 10.8662C5.04837 8.76449 5.41669 7.04199 9.10003 7.04199Z"
      stroke="currentColor" stroke-width="2" stroke-linecap="round" stroke-linejoin="round" />
    <path
      d="M8.66699 8.66699V4.87533C8.66699 3.25033 9.75033 2.16699 11.3753 2.16699H14.6253C16.2503 2.16699 17.3337 3.25033 17.3337 4.87533V8.66699"
      stroke="currentColor" stroke-width="2" stroke-linecap="round" stroke-linejoin="round" />
  </symbol>

  <symbol id="icon-account" width="100%" height="100%" viewBox="0 0 24 24" fill="none">
    <path
      d="M5.3163 19.4384C5.92462 18.0052 7.34492 17 9 17H15C16.6551 17 18.0754 18.0052 18.6837 19.4384M16 9.5C16 11.7091 14.2091 13.5 12 13.5C9.79086 13.5 8 11.7091 8 9.5C8 7.29086 9.79086 5.5 12 5.5C14.2091 5.5 16 7.29086 16 9.5ZM22 12C22 17.5228 17.5228 22 12 22C6.47715 22 2 17.5228 2 12C2 6.47715 6.47715 2 12 2C17.5228 2 22 6.47715 22 12Z"
      stroke="currentColor" stroke-width="2" stroke-linecap="round" stroke-linejoin="round" />
  </symbol>

  <symbol id="icon-search" width="100%" height="100%" viewBox="0 0 24 24" fill="none">
    <path
      d="M21 21L16.65 16.65M11 6C13.7614 6 16 8.23858 16 11M19 11C19 15.4183 15.4183 19 11 19C6.58172 19 3 15.4183 3 11C3 6.58172 6.58172 3 11 3C15.4183 3 19 6.58172 19 11Z"
      stroke="currentColor" stroke-width="2" stroke-linecap="round" stroke-linejoin="round" />
  </symbol>

  <symbol id="icon-phone" width="100%" height="100%" viewBox="0 0 24 24" fill="none">
    <path
      d="M22.0004 16.9201V19.9201C22.0016 20.1986 21.9445 20.4743 21.8329 20.7294C21.7214 20.9846 21.5577 21.2137 21.3525 21.402C21.1473 21.5902 20.905 21.7336 20.6412 21.8228C20.3773 21.912 20.0978 21.9452 19.8204 21.9201C16.7433 21.5857 13.7874 20.5342 11.1904 18.8501C8.77425 17.3148 6.72576 15.2663 5.19042 12.8501C3.5004 10.2413 2.44866 7.27109 2.12042 4.1801C2.09543 3.90356 2.1283 3.62486 2.21692 3.36172C2.30555 3.09859 2.44799 2.85679 2.63519 2.65172C2.82238 2.44665 3.05023 2.28281 3.30421 2.17062C3.5582 2.05843 3.83276 2.00036 4.11042 2.0001H7.11042C7.59573 1.99532 8.06621 2.16718 8.43418 2.48363C8.80215 2.80008 9.0425 3.23954 9.11042 3.7201C9.23704 4.68016 9.47187 5.62282 9.81042 6.5301C9.94497 6.88802 9.97408 7.27701 9.89433 7.65098C9.81457 8.02494 9.62928 8.36821 9.36042 8.6401L8.09042 9.9101C9.51398 12.4136 11.5869 14.4865 14.0904 15.9101L15.3604 14.6401C15.6323 14.3712 15.9756 14.1859 16.3495 14.1062C16.7235 14.0264 17.1125 14.0556 17.4704 14.1901C18.3777 14.5286 19.3204 14.7635 20.2804 14.8901C20.7662 14.9586 21.2098 15.2033 21.527 15.5776C21.8441 15.9519 22.0126 16.4297 22.0004 16.9201Z"
      stroke="currentColor" stroke-width="2" stroke-linecap="round" stroke-linejoin="round" />
  </symbol>

  <symbol id="icon-burger" width="100%" height="100%" viewBox="0 0 48 48" fill="none">
    <path d="M3 21H45M3 28H45" stroke="currentColor" stroke-linecap="round" stroke-linejoin="round" />
  </symbol>

  <symbol id="icon-close" width="100%" height="100%"
    viewBox="0 0 48 48" fill="none">
    <path d="M37.8115 11L11.0004 37.8111" stroke="currentColor" stroke-linecap="round"
      stroke-linejoin="round" />
    <path d="M11.001 11L37.8121 37.8111" stroke="currentColor" stroke-linecap="round"
      stroke-linejoin="round" />
  </symbol>

  <symbol id="icon-arrow" width="100%" height="100%" viewBox="0 0 24 25" fill="none">
    <path d="M18 10L12 16L6 10" stroke="currentColor" stroke-width="2" stroke-linecap="round"
      stroke-linejoin="round" />
  </symbol>

  <symbol id="icon-email" width="100%" height="100%" viewBox="0 0 24 24" fill="none">
    <path
      d="M4 4H20C21.1 4 22 4.9 22 6V18C22 19.1 21.1 20 20 20H4C2.9 20 2 19.1 2 18V6C2 4.9 2.9 4 4 4Z"
      stroke="currentColor" stroke-width="2" stroke-linecap="round" stroke-linejoin="round" />
    <path d="M22 6L12 13L2 6" stroke="currentColor" stroke-width="2" stroke-linecap="round"
      stroke-linejoin="round" />
  </symbol>

  <symbol id="icon-clock" width="100%" height="100%" viewBox="0 0 24 24" fill="none">
    <path
      d="M12 22C17.5228 22 22 17.5228 22 12C22 6.47715 17.5228 2 12 2C6.47715 2 2 6.47715 2 12C2 17.5228 6.47715 22 12 22Z"
      stroke="currentColor" stroke-width="2" stroke-linecap="round" stroke-linejoin="round" />
    <path d="M12 6V12L16 14" stroke="currentColor" stroke-width="2" stroke-linecap="round"
      stroke-linejoin="round" />
  </symbol>

  <symbol id="icon-geo" width="100%" height="100%" viewBox="0 0 24 24" fill="none">
    <path
      d="M21 10C21 17 12 23 12 23C12 23 3 17 3 10C3 7.61305 3.94821 5.32387 5.63604 3.63604C7.32387 1.94821 9.61305 1 12 1C14.3869 1 16.6761 1.94821 18.364 3.63604C20.0518 5.32387 21 7.61305 21 10Z"
      stroke="currentColor" stroke-width="2" stroke-linecap="round" stroke-linejoin="round" />
    <path
      d="M12 13C13.6569 13 15 11.6569 15 10C15 8.34315 13.6569 7 12 7C10.3431 7 9 8.34315 9 10C9 11.6569 10.3431 13 12 13Z"
      stroke="currentColor" stroke-width="2" stroke-linecap="round" stroke-linejoin="round" />
  </symbol>

  <symbol id="icon-cross" width="100%" height="100%" viewBox="0 0 45 45" fill="none">
    <path d="M22.5 9.375V35.625" stroke="currentColor" stroke-width="2" stroke-linecap="round"
      stroke-linejoin="round" />
    <path d="M9.375 22.5H35.625" stroke="currentColor" stroke-width="2" stroke-linecap="round"
      stroke-linejoin="round" />
  </symbol>

  <symbol id="icon-guard" width="100%" height="100%" viewBox="0 0 20 20" fill="none">
    <path
      d="M10.0026 18.3332C10.0026 18.3332 16.6693 14.9998 16.6693 9.99984V4.1665L10.0026 1.6665L3.33594 4.1665V9.99984C3.33594 14.9998 10.0026 18.3332 10.0026 18.3332Z"
      stroke="currentColor" stroke-width="1.5" stroke-linecap="round" stroke-linejoin="round" />
  </symbol>

  <symbol id="icon-exit" width="100%" height="100%" viewBox="0 0 20 20" fill="none">
    <path
      d="M7.5 17.5H4.16667C3.72464 17.5 3.30072 17.3244 2.98816 17.0118C2.67559 16.6993 2.5 16.2754 2.5 15.8333V4.16667C2.5 3.72464 2.67559 3.30072 2.98816 2.98816C3.30072 2.67559 3.72464 2.5 4.16667 2.5H7.5"
      stroke="currentColor" stroke-width="1.5" stroke-linecap="round" stroke-linejoin="round" />
    <path d="M13.3359 14.1668L17.5026 10.0002L13.3359 5.8335" stroke="currentColor"
      stroke-width="1.5"
      stroke-linecap="round" stroke-linejoin="round" />
    <path d="M17.5 10H7.5" stroke="currentColor" stroke-width="1.5" stroke-linecap="round"
      stroke-linejoin="round" />
  </symbol>

  <symbol id="icon-exit-alt" width="100%" height="100%" viewBox="0 0 55 54" fill="none">
    <path
      d="M20.6658 47.9856H11.5553C10.3471 47.9856 9.18848 47.5056 8.3342 46.6514C7.47993 45.7971 7 44.6384 7 43.4303V11.5435C7 10.3354 7.47993 9.17676 8.3342 8.32248C9.18848 7.46821 10.3471 6.98828 11.5553 6.98828H20.6658"
      stroke="#D44C4F" stroke-width="1.51871" stroke-linecap="round" stroke-linejoin="round" />
    <path d="M36.6094 38.8749L47.9975 27.4868L36.6094 16.0986" stroke="#D44C4F"
      stroke-width="1.51871" stroke-linecap="round" stroke-linejoin="round" />
    <path d="M47.9956 27.4868H20.6641" stroke="#D44C4F" stroke-width="1.51871"
      stroke-linecap="round" stroke-linejoin="round" />
  </symbol>

  <symbol id="icon-arrow-right" width="100%" height="100%" viewBox="0 0 56 54" fill="none">
    <path d="M35.375 45L53.7083 27M53.7083 27L35.375 9M53.7083 27L1 27" stroke="currentColor"
      stroke-width="2" stroke-linecap="round" />
  </symbol>

  <symbol id="icon-password-hidden" width="100%" height="100%" viewBox="0 0 24 24" fill="none">
    <path
      d="M17.94 17.94C16.2306 19.243 14.1491 19.9649 12 20C5 20 1 12 1 12C2.24389 9.68192 3.96914 7.65663 6.06 6.06003M9.9 4.24002C10.5883 4.0789 11.2931 3.99836 12 4.00003C19 4.00003 23 12 23 12C22.393 13.1356 21.6691 14.2048 20.84 15.19M14.12 14.12C13.8454 14.4148 13.5141 14.6512 13.1462 14.8151C12.7782 14.9791 12.3809 15.0673 11.9781 15.0744C11.5753 15.0815 11.1752 15.0074 10.8016 14.8565C10.4281 14.7056 10.0887 14.4811 9.80385 14.1962C9.51897 13.9113 9.29439 13.572 9.14351 13.1984C8.99262 12.8249 8.91853 12.4247 8.92563 12.0219C8.93274 11.6191 9.02091 11.2219 9.18488 10.8539C9.34884 10.4859 9.58525 10.1547 9.88 9.88003"
      fill="currentColor" />
    <path d="M1 1L23 23" stroke="currentColor" stroke-width="2" stroke-linecap="round"
      stroke-linejoin="round" />
  </symbol>

  <symbol id="icon-password-show" width="100%" height="100%" viewBox="0 0 24 24" fill="none">
    <path d="M1 12C1 12 5 4 12 4C19 4 23 12 23 12C23 12 19 20 12 20C5 20 1 12 1 12Z"
      fill="currentColor" />
    <path
      d="M12 15C13.6569 15 15 13.6569 15 12C15 10.3431 13.6569 9 12 9C10.3431 9 9 10.3431 9 12C9 13.6569 10.3431 15 12 15Z"
      fill="white" />
  </symbol>

  <symbol id="icon-repeat" width="100%" height="100%" viewBox="0 0 24 24" fill="none">
    <path
      d="M15.3333 5L18 7.54545M18 7.54545L15.3333 10.0909M18 7.54545H8.66667C7.95942 7.54545 7.28115 7.81364 6.78105 8.291C6.28095 8.76837 6 9.41581 6 10.0909V11.3636M8.66667 19L6 16.4545M6 16.4545L8.66667 13.9091M6 16.4545H15.3333C16.0406 16.4545 16.7189 16.1864 17.219 15.709C17.719 15.2316 18 14.5842 18 13.9091V12.6364"
      stroke="currentColor" stroke-width="1.5" stroke-linecap="round" stroke-linejoin="round" />
  </symbol>

  <symbol id="icon-status-accept" width="100%" height="100%" viewBox="0 0 17 17" fill="none">
    <path
      d="M4.5026 10.5002L5.83594 11.8335L8.83594 8.8335M5.83594 5.8335V3.96683C5.83594 3.22009 5.83594 2.84672 5.98126 2.56151C6.10909 2.31063 6.31307 2.10665 6.56395 1.97882C6.84917 1.8335 7.22253 1.8335 7.96927 1.8335H13.0359C13.7827 1.8335 14.156 1.8335 14.4413 1.97882C14.6921 2.10665 14.8961 2.31063 15.0239 2.56151C15.1693 2.84672 15.1693 3.22009 15.1693 3.96683V9.0335C15.1693 9.78023 15.1693 10.1536 15.0239 10.4388C14.8961 10.6897 14.6921 10.8937 14.4413 11.0215C14.156 11.1668 13.7827 11.1668 13.0359 11.1668H11.1693M3.96927 15.1668H9.03594C9.78267 15.1668 10.156 15.1668 10.4413 15.0215C10.6921 14.8937 10.8961 14.6897 11.0239 14.4388C11.1693 14.1536 11.1693 13.7802 11.1693 13.0335V7.96683C11.1693 7.22009 11.1693 6.84672 11.0239 6.56151C10.8961 6.31063 10.6921 6.10665 10.4413 5.97882C10.156 5.8335 9.78267 5.8335 9.03594 5.8335H3.96927C3.22253 5.8335 2.84917 5.8335 2.56395 5.97882C2.31307 6.10665 2.10909 6.31063 1.98126 6.56151C1.83594 6.84672 1.83594 7.22009 1.83594 7.96683V13.0335C1.83594 13.7802 1.83594 14.1536 1.98126 14.4388C2.10909 14.6897 2.31307 14.8937 2.56395 15.0215C2.84917 15.1668 3.22253 15.1668 3.96927 15.1668Z"
      stroke="currentColor" stroke-opacity="1" stroke-width="2" stroke-linecap="round"
      stroke-linejoin="round" />
  </symbol>

  <symbol id="icon-status-packing" width="100%" height="100%" viewBox="0 0 16 17" fill="none">
    <path
      d="M13.6666 5.25602L7.99998 8.40417M7.99998 8.40417L2.33331 5.25602M7.99998 8.40417L8 14.7375M14 11.1099V5.69849C14 5.47006 14 5.35584 13.9663 5.25398C13.9366 5.16386 13.8879 5.08114 13.8236 5.01135C13.7509 4.93246 13.651 4.87699 13.4514 4.76605L8.51802 2.02531C8.32895 1.92027 8.23442 1.86775 8.1343 1.84716C8.0457 1.82894 7.95431 1.82894 7.8657 1.84716C7.76559 1.86775 7.67105 1.92027 7.48198 2.02531L2.54865 4.76605C2.34896 4.87699 2.24912 4.93246 2.17642 5.01135C2.11211 5.08114 2.06343 5.16386 2.03366 5.25398C2 5.35585 2 5.47006 2 5.69849V11.1099C2 11.3383 2 11.4525 2.03366 11.5544C2.06343 11.6445 2.11211 11.7272 2.17642 11.797C2.24912 11.8759 2.34897 11.9314 2.54865 12.0423L7.48198 14.7831C7.67105 14.8881 7.76559 14.9406 7.8657 14.9612C7.95431 14.9794 8.0457 14.9794 8.1343 14.9612C8.23442 14.9406 8.32895 14.8881 8.51802 14.7831L13.4514 12.0423C13.651 11.9314 13.7509 11.8759 13.8236 11.797C13.8879 11.7272 13.9366 11.6445 13.9663 11.5544C14 11.4525 14 11.3383 14 11.1099Z"
      stroke="currentColor" stroke-opacity="1" stroke-width="2" stroke-linecap="round"
      stroke-linejoin="round" />
  </symbol>

  <symbol id="icon-status-delivery" width="100%" height="100%" viewBox="0 0 16 17" fill="none">
    <path
      d="M9.33594 5.1665H10.8941C11.0572 5.1665 11.1387 5.1665 11.2154 5.18492C11.2834 5.20126 11.3485 5.22819 11.4081 5.26474C11.4754 5.30597 11.5331 5.36362 11.6484 5.47892L14.3569 8.18742C14.4722 8.30272 14.5298 8.36037 14.571 8.42765C14.6076 8.4873 14.6345 8.55233 14.6509 8.62035C14.6693 8.69707 14.6693 8.7786 14.6693 8.94167V10.8332C14.6693 11.1438 14.6693 11.2991 14.6185 11.4216C14.5509 11.585 14.4211 11.7148 14.2577 11.7824C14.1352 11.8332 13.9799 11.8332 13.6693 11.8332M10.3359 11.8332H9.33594M9.33594 11.8332V5.29984C9.33594 4.5531 9.33594 4.17973 9.19061 3.89452C9.06278 3.64363 8.85881 3.43966 8.60793 3.31183C8.32271 3.1665 7.94934 3.1665 7.2026 3.1665H3.46927C2.72253 3.1665 2.34917 3.1665 2.06395 3.31183C1.81307 3.43966 1.60909 3.64363 1.48126 3.89452C1.33594 4.17973 1.33594 4.5531 1.33594 5.29984V10.4998C1.33594 11.2362 1.93289 11.8332 2.66927 11.8332M9.33594 11.8332H6.66927M6.66927 11.8332C6.66927 12.9377 5.77384 13.8332 4.66927 13.8332C3.5647 13.8332 2.66927 12.9377 2.66927 11.8332M6.66927 11.8332C6.66927 10.7286 5.77384 9.83317 4.66927 9.83317C3.5647 9.83317 2.66927 10.7286 2.66927 11.8332M13.6693 12.1665C13.6693 13.087 12.9231 13.8332 12.0026 13.8332C11.0821 13.8332 10.3359 13.087 10.3359 12.1665C10.3359 11.246 11.0821 10.4998 12.0026 10.4998C12.9231 10.4998 13.6693 11.246 13.6693 12.1665Z"
      stroke="currentColor" stroke-opacity="1" stroke-width="2" stroke-linecap="round"
      stroke-linejoin="round" />
  </symbol>

  <symbol id="icon-status-done" width="100%" height="100%" viewBox="0 0 16 17" fill="none">
    <path d="M13.3385 4.5L6.00521 11.8333L2.67188 8.5" stroke="currentColor" stroke-opacity="1"
      stroke-width="2" stroke-linecap="round" stroke-linejoin="round" />
  </symbol>
</svg>