<svg width="239" height="172" viewBox="0 0 239 172" fill="none" xmlns="http://www.w3.org/2000/svg">
<g clip-path="url(#clip0_1_2755)">
<path fill-rule="evenodd" clip-rule="evenodd" d="M236.655 124.666C235.365 124.72 234.181 124.891 234.022 125.045C233.437 125.616 232.056 125.32 231.011 124.401C229.332 122.923 225.342 116.797 222.86 111.887C221.975 110.135 221.474 107.31 221.462 104.006C221.452 101.217 221.31 99.8226 220.497 94.5473C220.135 92.1945 218.318 86.6657 217.06 84.0858C215.879 81.6623 215.014 80.6325 212.482 78.6315C209.9 76.5911 207.198 73.6743 206.354 72.0162C203.88 67.156 202.088 60.5407 202.088 56.2696C202.088 51.104 203.954 43.9966 206.151 40.7957C209.132 36.4531 210.019 33.8459 209.464 31.0628C209.164 29.56 208.673 30.3099 208.896 31.9309C209.139 33.7021 208.92 34.1691 206.039 38.0129C203.709 41.1238 202.644 43.3916 201.127 48.4771C200.252 51.414 200.139 52.2057 200.135 55.4303C200.133 57.7834 200.322 59.9612 200.67 61.5938C201.223 64.1882 203.394 70.3733 204.545 72.6354C205.512 74.5348 208.259 77.8546 209.883 79.0876C211.936 80.6453 214.806 83.979 215.796 85.9558C216.672 87.7045 217.249 89.5054 217.993 92.8164C218.229 93.8659 218.615 95.3669 218.85 96.152C219.547 98.4754 219.933 101.585 220.014 105.535L220.09 109.246L216.219 105.384C211.896 101.07 211.566 100.613 204.591 89.2704C203.524 87.5353 202.127 85.4885 201.486 84.7219C200.845 83.9551 199.952 82.3725 199.503 81.205C199.053 80.0376 198.495 78.6048 198.262 78.0211C198.029 77.4374 197.357 75.0494 196.768 72.7145C195.879 69.1849 195.647 67.5744 195.395 63.1627C195.229 60.2441 195.167 57.2724 195.257 56.5589C195.644 53.5278 198.253 47.2957 201.379 41.9364C207.116 32.1026 209.65 26.9197 209.273 25.7871C209.213 25.607 208.797 26.0877 208.348 26.8551C207.899 27.6226 207.283 28.3301 206.978 28.4268C206.005 28.7364 188.342 46.8336 187.73 48.1481C186.784 50.1786 186.659 51.3033 187.129 53.5426C187.688 56.2062 187.689 62.1047 187.131 65.5128C186.892 66.9719 186.625 69.1895 186.538 70.4403C186.313 73.6858 186.015 75.5831 185.7 75.7781C185.55 75.8709 183.9 75.0606 182.034 73.9772C178.34 71.8333 169.339 67.2764 164.645 65.175C160.319 63.2376 158.399 62.5747 155.192 61.9122C153.612 61.5856 152.097 61.2517 151.827 61.1708C151.393 61.0407 151.339 60.3053 151.366 54.8911C151.4 48.3295 151.085 45.4545 149.913 41.6332C149.53 40.3823 149.121 38.6767 149.004 37.8428C148.887 37.0089 148.347 35.3032 147.804 34.0524C146.532 31.1204 145.526 28.3774 144.131 24.0457C143.514 22.1277 142.124 18.307 141.043 15.5552C138.147 8.18479 137.039 5.01237 137.039 4.08478C137.039 3.13415 135.703 0.999995 135.108 0.999995C134.831 0.999995 134.031 2.92219 133.721 4.33556C132.999 7.62229 132.11 10.9688 131.586 12.3712C130.95 14.0742 130.233 16.9012 129.964 18.7706C129.719 20.4709 128.399 23.3158 127.112 24.9175C125.549 26.8615 124.633 30.873 124.645 35.7201C124.654 39.0287 124.781 40.567 125.387 44.6655L125.589 46.0301L124.639 44.9687C124.116 44.385 121.79 41.5195 119.47 38.6008C117.15 35.6822 114.614 32.5629 113.834 31.6693C110.959 28.374 104.026 23.7288 97.5075 20.7304C92.3795 18.3716 91.2619 18.1845 82.2773 18.1802C77.5175 18.1781 73.8555 18.3155 72.7169 18.539C70.5244 18.969 57.6747 18.5108 55.1989 17.9143C52.7809 17.3318 26.46 17.5128 21.0105 18.1493C18.6808 18.4216 16.2301 18.7534 15.5645 18.8865L14.3543 19.1291L15.855 19.1615C16.68 19.1794 19.1268 18.9771 21.2918 18.7118C26.5556 18.0671 50.018 18.2618 55.1989 18.9932C58.6074 19.4744 70.633 20.2307 71.0242 19.9884C71.1437 19.9144 72.7375 19.7704 74.5658 19.6685C76.3942 19.5669 79.2518 19.3359 80.9158 19.1557C87.9574 18.3925 91.5929 19.0029 97.4088 21.9249C105.073 25.7756 112.648 31.4188 115.112 35.1137C116.708 37.5071 120.518 42.474 122.746 45.0679C123.868 46.373 125.265 48.1469 125.851 49.0099C126.437 49.8726 127.511 51.3666 128.238 52.3303C128.965 53.2937 129.498 54.1449 129.421 54.2219C129.344 54.2989 128.814 54.0136 128.243 53.5878C126.083 51.9758 122.205 50.0922 119.78 49.4775C118.404 49.1288 114.951 47.894 112.107 46.7339C109.263 45.5737 105.302 44.0345 103.305 43.3134C101.308 42.5923 97.4276 41.1541 94.6819 40.1173C88.1038 37.6332 81.425 35.4215 78.7979 34.8568C75.9621 34.2476 70.1755 32.5034 66.0907 31.0273C62.9469 29.8908 57.3555 28.2385 53.3654 27.2666C52.377 27.0258 50.0025 26.4066 48.0889 25.8908C46.1752 25.375 42.7715 24.738 40.5251 24.4751C38.2786 24.2122 35.4876 23.8592 34.3228 23.6909C30.346 23.1157 9.94551 22.7688 7.09305 23.2279L5.58028 23.4714L6.48915 22.8985C6.98927 22.5835 8.48691 21.759 9.81723 21.0661C11.1479 20.3735 12.0833 19.8053 11.8961 19.8035C11.4589 19.7995 5.15852 22.9643 4.40063 23.5687C3.84152 24.0147 3.84575 24.0436 4.55191 24.6403C5.46683 25.4136 5.7373 25.476 9.96728 25.8939C11.8809 26.0828 14.3997 26.3496 15.5645 26.4873C16.7293 26.6247 18.5683 26.7457 19.6511 26.756C20.7336 26.7663 23.5694 27.1841 25.9527 27.6845C28.3358 28.1848 31.1429 28.5942 32.1907 28.5942C34.4804 28.5942 36.4188 29.2282 37.6496 30.3799C38.1494 30.8475 39.5115 31.7484 40.6763 32.3818C41.8412 33.0153 43.6792 34.2392 44.7608 35.1015C47.2151 37.0583 51.5598 39.6246 56.0161 41.7493C69.548 48.2021 78.7991 52.2075 81.6722 52.8576C85.9941 53.8356 84.1017 53.9059 73.5033 53.1612C71.2568 53.0032 66.0753 52.8695 61.989 52.8634C55.8197 52.8546 53.9974 52.9559 51.2484 53.4614C44.3533 54.7286 41.9894 55.843 23.5821 66.5043C20.5037 68.2873 17.0319 70.2592 15.8671 70.8866C13.1438 72.3528 12.4751 72.9859 12.3296 74.2352C12.1777 75.5391 12.7735 75.8357 15.599 75.8621C16.7511 75.873 18.7803 76.0901 20.1085 76.3448C21.4364 76.5995 23.1359 76.8082 23.8847 76.8082C26.487 76.8082 32.5086 75.6234 35.5411 74.5151C38.3845 73.4759 38.7155 73.421 41.2814 73.5636C42.7791 73.6467 44.7532 73.962 45.6685 74.2643C46.5837 74.5667 50.9404 76.6302 55.3501 78.8495C59.7598 81.0692 64.3889 83.2825 65.6369 83.768C66.8849 84.2534 69.3356 85.2893 71.0829 86.0698C78.1596 89.2313 78.5977 89.332 85.9079 89.4812C94.203 89.6501 99.3303 89.2028 104.515 87.8574C109.087 86.6705 116.991 84.4305 119.718 83.5481C120.758 83.2118 121.609 82.9978 121.609 83.0726C121.609 83.1476 121.201 83.6452 120.702 84.1779C119.797 85.1443 117.944 88.4335 117.524 89.8193C116.885 91.9246 114.345 95.3436 110.735 98.956C105.979 103.715 103.473 105.609 98.3126 108.345C96.0664 109.536 94.0242 110.685 93.7743 110.899C93.5247 111.114 91.9251 112.074 90.2193 113.033C88.5138 113.991 87.1181 114.95 87.1181 115.162C87.1181 116.481 89.7409 116.473 96.165 115.133C98.095 114.731 101.104 114.19 102.851 113.932C104.598 113.673 106.708 113.269 107.54 113.033C108.372 112.797 111.405 112.27 114.279 111.861C119.094 111.176 119.665 111.028 121.54 109.969C122.66 109.338 124.324 108.454 125.24 108.005C127.289 107 129.645 105.045 131.224 103.038C132.653 101.222 134.619 97.2197 134.619 96.1271C134.619 95.6968 134.758 94.9788 134.927 94.5312C135.528 92.9471 136.714 86.2481 136.58 85.1965C136.458 84.2425 136.555 84.0606 137.493 83.4796C138.07 83.1221 138.814 82.4832 139.146 82.0596C139.623 81.4528 140.05 81.2778 141.164 81.2332C142.416 81.1835 142.856 81.3646 145.027 82.821C146.375 83.7249 147.682 84.4936 147.931 84.5288C148.191 84.5658 148.659 85.3857 149.028 86.4501C149.382 87.4713 149.941 88.8241 150.271 89.456C152.962 94.6104 153.864 96.5556 153.63 96.7005C153.48 96.7933 151.762 96.8267 149.812 96.7748C145.55 96.6611 142.524 97.2703 140.119 98.7273C137.532 100.295 131.871 105.747 125.726 112.59C121.899 116.852 119.794 119.787 119.794 120.861C119.794 121.26 119.726 121.653 119.644 121.736C119.561 121.819 118.37 121.705 116.996 121.484C114.158 121.026 110.604 120.924 108.51 121.238C107.392 121.406 107.087 121.575 107.087 122.024C107.087 122.339 107.248 122.596 107.444 122.596C107.641 122.596 108.769 123.585 109.951 124.795C111.133 126.004 112.972 127.722 114.037 128.612C115.103 129.502 116.391 130.808 116.901 131.514C118.176 133.281 121.857 136.589 124.611 138.445C125.872 139.294 127.844 140.749 128.993 141.678C130.142 142.608 131.775 143.85 132.623 144.44C137.863 148.085 139.425 149.104 140.941 149.866C143.613 151.209 150.292 153.372 152.706 153.676C153.4 153.763 154.829 154.035 155.882 154.28C158.563 154.903 165.918 155.162 169.564 154.762C174.72 154.196 175.174 154.059 177.978 152.208C179.424 151.254 180.607 150.402 180.607 150.315C180.607 150.151 180.233 150.324 177.073 151.955C175.786 152.619 174.779 152.92 173.841 152.92C173.091 152.92 172.094 153.07 171.626 153.254C171.157 153.438 167.847 153.706 164.269 153.85C157.935 154.105 157.696 154.093 155.192 153.391C153.778 152.995 151.6 152.432 150.352 152.14C143.968 150.647 137.821 147.326 129.627 140.945C127.796 139.519 125.349 137.707 124.187 136.918C122.208 135.573 119.214 132.757 115.707 128.944C114.875 128.038 113.063 126.291 111.683 125.063C110.302 123.835 109.229 122.774 109.298 122.705C109.67 122.332 115.162 123.701 119.794 125.322C122.706 126.341 126.403 127.58 128.011 128.075C131.641 129.192 137.159 131.258 138.042 131.83C138.406 132.066 139.452 132.552 140.367 132.91C141.283 133.269 144.278 134.633 147.023 135.941C153.111 138.841 155.665 139.853 160.014 141.088C163.066 141.955 167.682 143.803 170.774 145.397C172.449 146.26 173.956 146.782 177.127 147.598C178.625 147.984 180.384 148.522 181.035 148.795C182.153 149.264 182.187 149.316 181.641 149.717C181.322 149.95 181.143 150.222 181.242 150.321C181.448 150.528 183.027 149.359 183.027 149C183.027 148.622 179.092 146.909 175.988 145.937C174.418 145.445 171.513 144.278 169.533 143.344C164.996 141.204 163.699 140.708 159.579 139.539C155.318 138.331 151.343 136.743 146.496 134.313C140.849 131.482 134.232 128.787 128.791 127.102C126.158 126.287 122.41 125.063 120.462 124.384C118.514 123.704 116.103 122.924 115.104 122.651C111.397 121.634 116.468 122.004 123.122 123.237C125.054 123.595 129.284 124.918 130.383 125.509C132.075 126.418 135.22 127.223 137.644 127.367C139.059 127.451 140.401 127.669 140.628 127.852C141.136 128.263 151.858 128.446 153.733 128.076C154.74 127.877 154.03 127.802 150.654 127.749C148.241 127.712 146.131 127.65 145.965 127.611C145.798 127.572 145.254 127.511 144.754 127.475C143.89 127.413 143.879 127.396 144.537 127.132C144.916 126.979 146.346 126.775 147.714 126.677C149.081 126.58 151.494 126.242 153.075 125.927C158.353 124.876 159.558 124.725 163.059 124.679C168.189 124.612 172.384 125.62 180.399 128.846C187.274 131.614 189.289 132.991 191.646 136.533C192.372 137.624 193.453 138.986 194.048 139.561C194.642 140.136 195.129 140.728 195.129 140.876C195.129 141.025 194.587 141.055 193.925 140.943C192.921 140.773 192.456 140.889 191.127 141.644C189.519 142.557 184.984 144.126 183.952 144.126C183.618 144.126 183.323 143.837 183.214 143.403C182.891 142.112 179.825 138.571 177.013 136.242C175.503 134.991 174.369 133.933 174.493 133.89C174.742 133.804 180.697 135.552 183.407 136.507C184.364 136.845 185.93 137.265 186.886 137.44C187.842 137.616 189.918 138.408 191.499 139.199C195.069 140.987 194.955 140.94 194.695 140.518C194.287 139.857 189.697 137.758 187.043 137.02C185.583 136.614 182.619 135.68 180.456 134.944C178.292 134.209 175.637 133.427 174.556 133.207C173.21 132.932 172.016 132.418 170.774 131.58C167.745 129.534 162.613 127.706 160.141 127.792L158.974 127.832L160.336 128.048C161.698 128.263 165.204 129.563 168.051 130.909C169.833 131.751 171.838 133.168 175.422 136.118C179.967 139.859 182.178 142.549 182.857 145.164C183.11 146.138 183.574 147.372 183.888 147.904C184.466 148.887 184.303 149.605 183.43 149.914C183.235 149.982 181.099 151.792 178.682 153.934C176.265 156.076 173.74 158.123 173.071 158.482C172.403 158.842 171.32 159.613 170.666 160.197C169.578 161.167 167.064 162.32 166.037 162.32C165.806 162.32 164.88 162.806 163.981 163.4C159.288 166.497 153.485 169.801 148.29 172.333C145.908 173.494 143.053 175.128 141.947 175.963C140.84 176.798 139.723 177.481 139.465 177.481C138.822 177.481 137.029 178.475 135.338 179.769C134.562 180.362 133.776 180.779 133.592 180.695C133.408 180.611 132.088 180.066 130.66 179.484C129.231 178.902 127.062 177.736 125.841 176.893C124.619 176.049 123.473 175.358 123.295 175.357C123.116 175.356 121.783 174.572 120.332 173.613C118.517 172.416 116.032 170.221 112.374 166.584L107.055 161.297L107.805 159.61C108.218 158.682 108.835 156.49 109.177 154.739C109.519 152.988 110.153 150.265 110.585 148.689C111.099 146.815 111.337 145.278 111.271 144.253L111.171 142.685L113.453 142.656C114.709 142.64 116.278 142.435 116.941 142.201C118.61 141.611 123.034 139.358 123.268 138.98C123.509 138.588 122.704 138.889 119.739 140.299C116.892 141.653 114.925 142.099 112.9 141.85L111.3 141.654L111.992 141.111C112.372 140.813 113.365 140.217 114.197 139.788C116.153 138.778 119.872 136.157 120.032 135.676C120.101 135.471 119.224 135.928 118.084 136.693C116.944 137.457 115.18 138.473 114.162 138.951C113.145 139.428 111.833 140.299 111.247 140.886C110.278 141.857 110.194 142.075 110.33 143.283C110.436 144.224 110.203 145.581 109.53 147.932C109.007 149.758 108.452 152.48 108.295 153.981C107.989 156.917 107.358 159.406 106.687 160.326C106.289 160.871 106.2 160.836 104.862 159.6L103.456 158.3L103.45 155.383C103.438 149.592 102.437 146.092 99.9179 143.037C99.2847 142.269 96.0434 139.312 92.7153 136.465C89.3873 133.619 85.5216 130.076 84.125 128.591C79.7395 123.931 71.0526 116.843 66.3316 114.072C64.8678 113.212 62.9896 112.097 62.1576 111.593C61.3255 111.089 59.7598 110.354 58.6782 109.959L56.7116 109.241L58.8295 109.358C60.5431 109.452 61.3228 109.678 62.9139 110.541C63.9956 111.128 65.8611 111.975 67.0595 112.423C69.7513 113.43 72.186 114.986 74.8384 117.395C79.7955 121.897 87.886 127.54 91.3539 128.913C94.0971 130 99.3754 132.582 103.339 134.776C106.21 136.366 109.432 139.267 109.037 139.907C108.943 140.059 109.079 140.184 109.338 140.184C110.229 140.184 109.807 139.287 108.07 137.492C105.868 135.216 97.1214 129.528 93.1495 127.789C90.9378 126.82 89.0678 125.626 85.219 122.722C82.4488 120.633 79.2796 118.103 78.1762 117.101C75.537 114.703 72.9015 113.043 68.6918 111.124C66.7942 110.26 64.5514 109.126 63.7072 108.606C61.8768 107.477 59.0038 106.945 56.4599 107.264C54.9381 107.454 54.6724 107.587 54.4056 108.29C54.0328 109.273 54.2295 109.456 58.6879 112.286C61.0923 113.813 62.6192 115.11 65.4545 118.038C72.6519 125.47 78.6255 131.345 82.8718 135.167C83.4467 135.684 84.5116 137.384 85.3908 139.188C86.9617 142.41 87.4055 142.932 91.8192 146.746C92.8112 147.604 94.059 149.036 94.5915 149.93C96.1572 152.557 96.1505 152.666 94.4756 151.809C93.5561 151.339 92.7244 151.121 92.2231 151.219C91.2407 151.41 90.8099 151.063 89.5882 149.099C88.3822 147.16 82.948 141.849 79.5543 139.292C78.1399 138.226 75.6892 136.755 74.1084 136.022C65.0252 131.814 57.2777 126.912 50.9631 121.377C47.9146 118.705 45.0298 116.755 41.7071 115.123C39.051 113.818 28.8115 110.467 27.4796 110.467C26.4394 110.467 25.3975 111.286 25.3975 112.104C25.3975 112.678 25.7487 112.936 27.4397 113.603C30.3796 114.763 35.1714 117.474 37.8448 119.491C43.6214 123.849 45.9647 126.808 49.8769 134.687C51.8472 138.655 52.8038 140.045 54.8083 141.852C58.2102 144.919 61.6786 146.961 67.4111 149.27C73.1499 151.583 76.4668 152.495 81.7542 153.216C84.1219 153.538 86.5052 153.96 87.05 154.152C88.2085 154.559 89.9234 154.31 90.596 153.636C91.0232 153.208 91.1596 153.231 92.0428 153.881C92.5792 154.277 93.3764 154.782 93.8148 155.005C94.2532 155.228 95.3424 155.989 96.2352 156.695C97.6415 157.809 98.112 158.487 99.7497 161.761C100.79 163.841 101.641 165.699 101.641 165.891C101.641 166.084 101.248 166.689 100.768 167.237C100.289 167.785 99.0475 169.597 98.0103 171.265C96.9729 172.933 95.7499 174.775 95.2922 175.359C94.8344 175.943 94.1528 177.034 93.7773 177.785C93.4018 178.535 93.0602 179.189 93.0182 179.238C92.948 179.32 91.2646 178.647 90.1191 178.08C89.8562 177.95 88.6309 177.961 87.3962 178.104C86.1618 178.247 84.1664 178.371 82.9623 178.378C81.7584 178.385 80.1927 178.524 79.4829 178.686C73.2204 180.115 72.4831 180.366 70.2886 181.809C69.0645 182.615 67.3472 183.487 66.472 183.747C65.5967 184.008 64.1136 184.609 63.1762 185.083C61.236 186.064 55.4121 187.676 52.9297 187.918C52.0145 188.008 49.2138 188.162 46.7056 188.262C41.7988 188.456 40.3953 188.25 36.2893 186.728C33.1373 185.56 25.7862 183.934 22.7674 183.737C20.4828 183.588 19.9016 183.639 19.5149 184.027C18.8687 184.675 18.9156 184.905 19.8759 185.796C21.9166 187.689 29.7793 193.049 30.2734 192.884C30.5067 192.806 25.4341 188.922 21.2374 185.965C19.911 185.03 19.6005 184.456 20.4217 184.456C21.1172 184.456 26.4122 186.276 31.8122 188.371C34.425 189.385 38.1615 190.636 40.1154 191.151C42.0696 191.667 44.1763 192.293 44.7974 192.541C45.4185 192.79 46.2321 192.949 46.6055 192.894C47.0018 192.836 45.5946 192.252 43.2238 191.492C33.2015 188.275 22.591 184.502 23.4917 184.476C23.8581 184.465 24.9418 184.66 25.9006 184.911C26.8591 185.161 27.8527 185.301 28.1086 185.221C28.3649 185.141 28.7785 185.207 29.0281 185.368C29.4057 185.61 29.3802 185.665 28.8768 185.694C27.872 185.752 29.5845 186.209 30.939 186.245C31.5738 186.262 32.381 186.429 32.7322 186.618C33.0835 186.806 34.1297 187.07 35.057 187.204C35.9844 187.338 37.9685 187.803 39.4661 188.237C42.1222 189.007 42.3673 189.023 49.4504 188.918C56.1413 188.817 56.8423 188.756 58.3756 188.128C59.2909 187.753 60.5217 187.267 61.1104 187.048C61.6995 186.829 63.1333 186.17 64.2969 185.583C65.4605 184.995 66.9806 184.361 67.6749 184.174C68.3693 183.987 69.3211 183.51 69.79 183.114C71.127 181.987 73.0797 181.072 75.1141 180.621C80.9318 179.331 84.429 178.99 88.9334 179.274C92.8666 179.523 93.8166 179.763 95.5896 180.958C96.172 181.351 97.7238 182.115 99.0381 182.656C103.104 184.331 108.39 188.366 109.608 190.725L110.082 191.644L107.298 192.143C105.767 192.418 104.038 192.689 103.456 192.746C102.874 192.803 104.643 192.869 107.389 192.893C110.135 192.917 112.241 192.837 112.07 192.714C111.405 192.238 109.528 189.307 109.886 189.303C110.327 189.297 107.795 186.927 106.002 185.667C104.769 184.801 98.5746 181.595 96.4216 180.708C95.7974 180.452 95.287 180.08 95.287 179.883C95.287 179.685 96.241 178.185 97.4073 176.548C98.5734 174.911 100.09 172.441 100.778 171.059C102.345 167.913 102.961 167.077 104.431 166.101L105.603 165.324L108.841 168.165C114.011 172.701 123.187 178.608 127.812 180.379C128.556 180.663 129.319 181.083 129.508 181.311C129.697 181.54 130.04 181.727 130.269 181.727C130.498 181.727 130.678 181.829 130.669 181.954C130.643 182.313 124.931 185.831 123.442 186.405C122.074 186.933 120.638 187.82 119.761 188.679C119.493 188.941 118.144 189.975 116.763 190.975L114.252 192.795L115.547 192.89C116.678 192.973 117.201 192.762 119.688 191.222C121.254 190.252 123.587 188.845 124.872 188.095C126.158 187.344 127.617 186.465 128.116 186.141C128.614 185.818 130.179 184.801 131.593 183.881C133.008 182.962 134.846 181.646 135.678 180.956C137.834 179.169 139.942 177.785 140.51 177.785C141.108 177.785 142.905 176.88 144.654 175.7C145.375 175.213 147.122 174.203 148.536 173.457C154.527 170.292 157.398 168.703 157.868 168.292C158.144 168.05 160.645 166.676 163.427 165.238C171.108 161.268 173.217 159.947 176.825 156.845C177.99 155.843 179.623 154.466 180.456 153.784C182.823 151.844 184.237 150.518 184.237 150.24C184.237 150.1 184.544 149.841 184.918 149.666C185.292 149.491 186.416 148.602 187.414 147.69C188.413 146.779 190.523 145.187 192.104 144.153C193.685 143.119 195.114 142.108 195.281 141.906C195.634 141.477 198.833 139.346 202.14 137.336C203.417 136.56 205.346 135.143 206.428 134.188C208.616 132.255 208.837 131.589 207.835 129.942C207.503 129.396 207.231 128.731 207.231 128.464C207.231 127.444 201.401 118.827 196.388 112.438C192.424 107.387 179.079 95.0112 177.044 94.4991C176.154 94.2753 172.424 95.6256 170.623 96.8234C169.874 97.3213 169.161 97.7291 169.039 97.73C168.917 97.7306 167.531 98.3504 165.958 99.107C163.268 100.401 158.779 103.53 156.403 105.766C155.82 106.315 153.982 107.622 152.318 108.673C148.498 111.084 147.622 111.758 143.583 115.382C141.415 117.327 139.145 119.005 136.927 120.301C135.075 121.383 132.981 122.819 132.273 123.494C131.566 124.167 130.885 124.718 130.761 124.717C130.636 124.716 129.309 124.254 127.811 123.691C126.314 123.128 124.109 122.494 122.912 122.283L120.735 121.899L120.916 120.959C121.015 120.442 121.509 119.405 122.013 118.654C122.975 117.221 127.745 111.805 128.629 111.142C128.912 110.93 129.716 109.938 130.415 108.939C131.115 107.94 132.176 106.822 132.775 106.453C133.373 106.085 135.169 104.552 136.767 103.046C139.856 100.135 143.367 97.9935 144.084 98.5833C144.606 99.0124 160.517 99.0442 164.005 98.6233C166.74 98.2931 168.644 97.509 170.925 95.7736C171.376 95.4303 174.087 94.3192 175.388 93.9445C176.38 93.6585 176.242 92.7188 174.962 91.0365C173.868 89.5988 172.162 87.9893 167.446 83.9466C166.115 82.8052 164.889 81.7218 164.723 81.5383C164.556 81.3551 163.025 79.9278 161.319 78.3668C159.614 76.8058 158.218 75.3912 158.218 75.2235C158.218 75.0555 158.74 75.3775 159.379 75.9391C160.018 76.5004 161.482 77.6876 162.632 78.5769C163.782 79.4663 166.22 81.5929 168.051 83.3025C169.881 85.0124 173.217 88.0563 175.463 90.0667C179.669 93.8304 190.924 105.197 194.675 109.469C195.84 110.796 198.155 113.767 199.819 116.072C201.483 118.377 204.07 121.641 205.567 123.325C207.065 125.01 208.82 127.302 209.467 128.418L210.643 130.447L212.543 128.832C214.664 127.028 216.009 126.612 221.905 125.932C226.961 125.349 226.795 125.396 227.193 124.431C227.529 123.619 227.465 123.429 226.357 121.937C225.697 121.049 224.999 120.015 224.806 119.64C224.208 118.475 225.201 118.807 226.164 120.095C226.905 121.085 228.35 122.706 230.741 125.228C231.188 125.7 231.753 125.932 232.456 125.932C233.032 125.932 233.742 126.023 234.032 126.135C234.418 126.283 234.494 126.231 234.316 125.942C234.12 125.624 234.559 125.574 236.535 125.689C238.877 125.825 238.999 125.8 239 125.2C239.001 124.605 238.862 124.573 236.655 124.666ZM236.957 127.083C233.39 126.885 233.317 127.494 236.579 130.273C239.445 132.714 239.91 132.253 237.108 129.748C236.035 128.789 235.414 128.042 235.671 128.022C235.921 128.003 236.534 127.957 237.033 127.921C238.804 127.793 238.999 127.748 238.999 127.474C238.999 127.321 238.081 127.145 236.957 127.083ZM236.957 133.912C235.834 133.051 233.93 131.455 232.726 130.365C231.522 129.275 230.228 128.225 229.852 128.032C228.815 127.499 231.864 130.575 234.461 132.681C235.709 133.693 237.241 135.005 237.865 135.595C238.83 136.508 238.999 136.579 238.999 136.073C238.999 135.694 238.255 134.906 236.957 133.912ZM236.503 145.178C232.534 145.505 230.187 145.933 228.718 146.598C227.966 146.938 225.853 147.668 224.023 148.22C217.013 150.335 213.781 151.767 211.163 153.917C210.249 154.667 207.846 156.124 205.823 157.153L202.146 159.025L200.68 157.987C198.223 156.246 195.083 154.501 192.995 153.716C190.468 152.765 188.171 151.648 188.171 151.37C188.171 151.117 193.056 146.485 194.373 145.49C194.872 145.113 196.302 144.254 197.55 143.582C198.798 142.909 200.976 141.664 202.391 140.815C203.805 139.966 205.915 138.794 207.08 138.211C208.846 137.327 209.824 136.491 212.959 133.187C215.028 131.007 217.237 128.959 217.869 128.636C218.808 128.156 219.887 128.019 223.778 127.887C226.396 127.797 228.591 127.671 228.656 127.606C228.72 127.541 228.677 127.332 228.559 127.141C228.405 126.891 227.108 126.85 223.915 126.995C218.099 127.258 217.27 127.632 213.193 131.828C211.563 133.505 210.003 135.251 209.726 135.708C209.405 136.238 208.714 136.708 207.817 137.007C207.043 137.264 205.131 138.237 203.568 139.168C202.005 140.1 199.712 141.336 198.471 141.915C194.92 143.574 190.891 146.622 188.023 149.819C186.324 151.714 186.329 151.833 188.338 157.239C190.822 163.925 192.414 167.424 199.891 182.636C203.77 190.527 205.147 192.938 205.776 192.943C206.251 192.946 206.254 192.846 205.806 191.506C205.542 190.714 205.042 189.659 204.696 189.163C204.072 188.268 201.566 183.445 198.074 176.42C197.079 174.419 195.599 171.673 194.786 170.318C193.973 168.963 193.054 167.121 192.744 166.224C192.434 165.328 191.537 163.093 190.751 161.258C189.249 157.75 187.444 152.637 187.64 152.441C187.919 152.161 194.698 155.105 197.132 156.565C201.546 159.211 203.433 160.91 205.545 164.139C209.849 170.721 213.08 176.602 214.482 180.407C214.965 181.717 215.691 183.47 216.096 184.304C216.832 185.82 218.313 190.61 218.485 192.034C218.536 192.449 218.792 192.83 219.054 192.88C219.468 192.958 219.498 192.717 219.288 191.063C218.898 188.004 217.466 183.675 215.688 180.182C215.14 179.105 215.125 178.917 215.529 178.162C216.569 176.218 220.187 173.599 223.187 172.62C224.313 172.253 225.846 171.568 226.595 171.098C228.832 169.695 234.453 167.741 237.439 167.33C238.701 167.156 238.999 167.003 238.999 166.533C238.999 166.022 238.843 165.974 237.714 166.135C234.202 166.638 227.244 169.167 225.233 170.672C224.734 171.046 223.257 171.794 221.951 172.335C219.309 173.428 217.309 174.81 215.673 176.672L214.585 177.911L213.332 175.422C210.743 170.274 206.008 162.904 203.801 160.584L202.583 159.304L204.832 158.282C206.068 157.721 207.761 157.011 208.593 156.705C209.425 156.398 211.127 155.439 212.375 154.574C213.623 153.708 215.073 152.781 215.596 152.513C217.285 151.65 223.74 149.598 226.662 148.995C228.223 148.673 230.213 148.128 231.084 147.784C232.328 147.293 233.349 147.158 235.834 147.158L238.999 147.158L238.999 146.065L238.999 144.972L236.503 145.178ZM225.536 123.35C225.203 123.014 224.084 121.805 223.05 120.664L221.169 118.588L218.814 118.168C213.77 117.268 214.064 117.284 214.319 117.925C214.711 118.913 215.505 124.108 215.296 124.318C214.923 124.692 214.708 124.125 214.276 121.618C214.039 120.238 213.664 118.904 213.443 118.654C213.223 118.404 212.993 117.927 212.932 117.593C212.842 117.097 212.503 116.952 211.082 116.799C208.812 116.554 204.395 114.408 201.785 112.283C200.12 110.927 196.014 108.648 195.236 108.648C195.107 108.648 195.628 109.296 196.394 110.088C197.16 110.88 199.052 113.302 200.597 115.47C202.142 117.638 204.529 120.737 205.901 122.355C207.274 123.974 208.897 126.194 209.508 127.291L210.62 129.283L212.695 127.322C215.185 124.967 215.892 124.731 220.544 124.697C222.457 124.683 224.5 124.512 225.082 124.317L226.141 123.961L225.536 123.35ZM222.316 115.319C221.866 114.401 221.412 113.29 221.307 112.85C221.086 111.929 219.43 110.013 217.669 108.643C214.73 106.355 209.47 100.832 208.509 99.0245C207.969 98.0099 206.756 96.1098 205.814 94.8023C204.871 93.4945 203.558 91.6059 202.895 90.6053C202.232 89.6046 201.214 88.2516 200.634 87.5981C198.399 85.084 194.641 75.5373 193.461 69.379C192.831 66.0925 192.56 58.2048 193.003 56.0367C193.922 51.5325 196.373 45.9564 199.586 41.0613C201.505 38.1384 204.268 33.4074 204.135 33.274C204.085 33.2242 202.268 34.9141 200.096 37.0292C197.924 39.1445 194.772 42.1896 193.091 43.7964C189.433 47.2924 188.626 48.6518 188.9 50.8593C189.609 56.5838 189.643 57.6396 189.226 61.1917C188.992 63.193 188.658 65.5655 188.485 66.4637C188.312 67.3622 188.166 68.7267 188.16 69.496C188.154 70.2656 187.941 71.9868 187.686 73.321C186.879 77.5387 186.62 83.8708 187.139 86.6632C188.413 93.5108 190.547 100.383 192.21 102.987C193.571 105.12 196.108 107.166 199.214 108.635C200.545 109.264 202.497 110.476 203.552 111.327C206.295 113.54 209.981 115.247 212.829 115.625C213.827 115.757 215.99 116.158 217.636 116.517C219.282 116.875 221.192 117.127 221.88 117.077L223.133 116.987L222.316 115.319ZM207.302 130.784C206.781 129.198 205.703 127.252 204.025 124.871C195.927 113.374 194.826 112.071 184.269 101.492C179.05 96.2624 176.65 94.3926 175.927 94.9939C175.729 95.1586 174.634 95.6453 173.494 96.0756C172.353 96.5059 170.934 97.2388 170.341 97.7045C169.747 98.1703 167.968 99.2986 166.387 100.212C164.806 101.125 161.947 103.135 160.033 104.679C158.12 106.223 155.941 107.835 155.192 108.261C152.548 109.766 148.453 112.672 145.53 115.118C143.904 116.479 140.973 118.616 139.018 119.867C134.608 122.688 133.139 123.775 132.584 124.623C132.173 125.252 132.208 125.301 133.31 125.622C135.23 126.183 141.345 126.547 141.917 126.134C144.231 124.463 148.587 121.098 149.444 120.32C150.026 119.791 151.184 118.97 152.016 118.495C152.848 118.021 154.566 116.669 155.834 115.49C159.117 112.439 162.597 109.529 163.756 108.866C164.303 108.552 165.152 107.66 165.643 106.882C166.134 106.104 167.109 104.821 167.809 104.03C168.995 102.692 170.017 100.32 170.017 98.9072C170.017 98.6136 170.154 98.2892 170.32 98.1861C170.712 97.9429 170.706 98.0499 170.164 100.893C169.745 103.083 168.634 105.311 167.96 105.313C167.844 105.313 167.353 105.94 166.87 106.706C165.938 108.184 165.931 108.157 167.446 109.008C167.779 109.195 168.609 109.805 169.292 110.362C169.974 110.92 172.357 112.261 174.587 113.342C180.954 116.429 185.64 118.973 189.006 121.17C190.713 122.285 192.891 123.588 193.846 124.067C195.871 125.081 200.072 126.396 202.235 126.693C203.642 126.886 205.614 127.654 205.36 127.909C205.23 128.039 198.764 126.735 197.39 126.302C195.51 125.709 191.849 123.968 188.605 122.123C186.764 121.076 184.109 119.642 182.705 118.936C181.301 118.231 179.569 117.254 178.855 116.766C178.141 116.278 176.234 115.241 174.618 114.462C171.304 112.864 169.929 112.051 167.748 110.401C166.916 109.772 165.978 109.256 165.664 109.255C165.35 109.255 164.149 110.039 162.997 110.998C161.844 111.957 160.24 113.219 159.433 113.803C158.626 114.386 157.096 115.642 156.033 116.592C154.971 117.543 153.34 118.771 152.409 119.321C151.478 119.872 149.92 120.891 148.946 121.586C146.747 123.155 143.026 126.655 143.847 126.381C144.179 126.27 145.813 126.04 147.477 125.87C149.141 125.701 152.445 125.168 154.818 124.686C159.257 123.784 164.995 123.467 167.748 123.972C170.468 124.47 175.688 125.876 176.627 126.363C177.179 126.649 179.175 127.47 181.062 128.188C187.305 130.562 189.806 132.297 192.414 136.065C193.232 137.246 194.361 138.578 194.924 139.024L195.948 139.835L198.186 138.328C199.417 137.499 201.259 136.347 202.279 135.767C204.231 134.659 206.764 132.583 207.196 131.738C207.337 131.463 207.385 131.034 207.302 130.784ZM193.366 141.397C192.998 141.397 191.508 141.988 190.055 142.71C188.603 143.432 186.618 144.268 185.644 144.567C183.989 145.076 183.885 145.163 184.034 145.907C184.295 147.212 184.807 148.371 185.122 148.371C185.285 148.371 185.916 147.774 186.525 147.043C187.785 145.533 189.654 144.041 192.247 142.475C193.532 141.7 193.846 141.397 193.366 141.397ZM190.09 101.976C188.707 99.288 186.742 92.8577 186.012 88.6342C185.561 86.0222 185.433 84.1237 185.504 81.0686L185.599 76.9901L180.607 74.4796C166.678 67.475 161.164 64.9475 157.512 63.8938C155.487 63.3098 153.196 62.7521 152.419 62.6548L151.007 62.4777L150.681 63.6542C150.502 64.301 150.351 64.9669 150.346 65.1337C150.342 65.3005 150.072 65.7781 149.746 66.195C149.421 66.612 149.152 67.0601 149.148 67.1914C149.144 67.3224 149.731 67.683 150.453 67.9929C151.826 68.5827 155.68 71.6587 160.033 75.6392C161.448 76.9328 163.338 78.5384 164.233 79.208C165.758 80.3472 169.358 83.543 176.956 90.5013C178.714 92.1117 182.638 95.8721 185.675 98.8577C188.711 101.843 191.175 104.21 191.15 104.117C191.125 104.024 190.648 103.061 190.09 101.976ZM187.17 190.369C185.056 184.638 183.34 179.27 182.84 176.822C182.326 174.311 182.326 173.995 182.828 169.848C183.348 165.564 184.15 160.934 185.008 157.254C185.25 156.219 185.448 154.938 185.448 154.407C185.448 153.839 185.665 153.28 185.977 153.049C186.352 152.771 186.413 152.562 186.185 152.329C185.796 151.933 184.24 152.4 182.876 153.323C181.6 154.187 177.159 157.916 175.093 159.857C172.808 162.005 171.536 162.926 170.858 162.926C170.062 162.926 166.865 164.589 164.572 166.197C161.792 168.146 157.605 170.485 154.535 171.805C153.091 172.425 151.816 172.933 151.7 172.933C151.33 172.933 147.815 175.133 146.828 175.982C145.766 176.896 143.079 178.241 141.158 178.821C140.464 179.03 137.79 180.546 135.215 182.189C132.641 183.833 129.527 185.775 128.295 186.506C127.064 187.237 125.022 188.604 123.757 189.544C122.493 190.485 120.777 191.632 119.945 192.095L118.432 192.935L120.114 192.941C121.932 192.947 121.881 192.971 127.963 189.099C129.544 188.092 131.722 186.769 132.804 186.158C133.885 185.547 136.055 184.161 137.626 183.079C139.197 181.997 141.231 180.768 142.147 180.348C143.063 179.928 145.341 178.568 147.21 177.326C149.078 176.084 151.944 174.375 153.579 173.528C155.214 172.682 156.825 171.734 157.158 171.423C157.491 171.111 158.698 170.506 159.839 170.077C160.98 169.648 163.294 168.387 164.982 167.275C166.67 166.163 168.936 164.775 170.017 164.191C173.987 162.05 175.407 161.043 180.607 156.686C182.876 154.785 184.221 153.829 184.627 153.829C184.697 153.829 184.568 154.546 184.34 155.421C182.759 161.503 181.026 172.519 181.361 174.362C181.529 175.288 181.46 175.376 179.98 176.128C177.792 177.239 172.531 182.299 169.845 185.876C168.799 187.268 166.084 192.25 166.084 192.776C166.084 193.367 166.786 192.734 167.493 191.506C170.12 186.945 171.74 184.826 175.244 181.365C180.475 176.199 181.817 175.405 181.817 177.474C181.817 178.438 183.356 183.521 184.849 187.488C185.382 188.906 186.017 190.611 186.259 191.279C186.783 192.721 187.053 193.038 187.631 192.899C187.98 192.815 187.89 192.323 187.17 190.369ZM174.379 91.6729C173.025 90.1647 170.599 87.8276 168.92 86.4152C165.425 83.4732 162.422 80.6498 159.228 77.3037C155.555 73.4541 154.842 72.8995 150.795 70.7381C147.942 69.2143 142.513 65.5322 139.69 63.2064C138.547 62.2651 136.905 60.9115 136.04 60.1983C135.175 59.4854 133.862 58.7228 133.122 58.5035C131.739 58.0939 131.102 57.4013 132.109 57.4013C132.421 57.4013 133.181 57.6593 133.799 57.975C134.416 58.2907 134.921 58.4298 134.921 58.2846C134.921 57.9516 132.536 56.6756 131.804 56.6168C131.503 56.5926 130.841 56.1453 130.331 55.6225C129.821 55.0997 129.159 54.6722 128.86 54.6722C128.561 54.6722 128.27 54.5697 128.215 54.4448C128.031 54.0296 122.997 51.0925 121.371 50.4512C120.491 50.1043 119.437 49.8205 119.029 49.8205C118.05 49.8205 114.601 48.6221 109.204 46.407C106.792 45.4166 103.66 44.2194 102.246 43.747C95.8964 41.6253 86.7354 38.2549 83.4097 36.8169C82.6183 36.4749 80.8483 35.9958 79.4766 35.7526C76.5509 35.2334 71.7836 33.7634 66.685 31.8078C64.6821 31.0397 61.6187 30.0836 59.8775 29.6831C55.9589 28.7822 44.7511 25.8948 44.4516 25.7092C44.3306 25.6343 42.8871 25.429 41.2436 25.2531C39.6005 25.077 36.4848 24.6685 34.32 24.3453C29.2245 23.5845 9.16251 23.3592 7.01559 24.0384C6.30733 24.2628 5.78511 24.5036 5.85501 24.5736C5.9249 24.644 6.84495 24.7619 7.89905 24.8359C8.95343 24.9099 10.851 25.1716 12.116 25.4178C13.381 25.664 15.8997 25.9385 17.7132 26.0279C20.9381 26.1868 24.9376 26.789 26.9577 27.42C27.5138 27.5938 29.6123 27.8446 31.6203 27.9771C35.3986 28.2266 36.5426 28.5751 37.6514 29.8138C37.9839 30.1849 39.1799 30.9409 40.3091 31.4934C41.4385 32.0459 43.2356 33.186 44.3033 34.0269C46.8702 36.0485 51.1946 38.4438 56.7328 40.9109C59.2171 42.0177 62.7475 43.6045 64.578 44.4372C73.6049 48.5432 78.6485 50.6765 80.1594 51.0276C81.0746 51.2402 82.9807 51.7269 84.3952 52.1093C90.2214 53.6849 96.215 54.9754 97.7056 54.9754C98.5788 54.9754 101.081 55.4005 103.266 55.92C107.302 56.88 109.839 57.048 111.927 56.4934C113.368 56.1107 115.392 56.0649 119.34 56.3254C121.17 56.4461 123.008 56.5289 123.424 56.5098C129.259 56.2384 130.686 56.3512 130.686 57.0835C130.686 57.2306 130.353 57.4644 129.946 57.6035L129.207 57.8561L131.109 60.8885C132.155 62.5562 133.564 64.876 134.239 66.0434C134.915 67.2109 136.309 69.2346 137.338 70.541C138.367 71.847 139.139 72.9853 139.054 73.0702C138.365 73.7613 134.627 69.5451 132.959 66.195C132.155 64.5791 128.911 59.2243 128.55 58.9174C128.453 58.8341 128.285 58.5272 128.177 58.2352C128.069 57.9432 127.671 57.703 127.291 57.7009C126.912 57.6988 123.742 57.6508 120.248 57.5944C114.767 57.5056 113.624 57.5687 111.928 58.0529C110.847 58.3616 109.09 58.6142 108.023 58.6142L106.084 58.6142L108.266 60.1501C109.466 60.9949 111.632 62.8046 113.079 64.1719C115.729 66.6769 122.755 72.8422 125.646 75.1998C126.504 75.8997 127.631 76.8191 128.151 77.2427C128.93 77.8783 129.616 78.0687 132.084 78.3334C133.728 78.5099 136.271 78.788 137.736 78.9517C139.202 79.1155 140.525 79.1722 140.677 79.0779C140.955 78.9056 139.948 75.7814 139.386 75.0685C139.223 74.862 139.183 74.4527 139.296 74.1588C139.49 73.6582 139.53 73.6615 139.934 74.2113C140.171 74.5342 140.703 75.9076 141.115 77.2636C141.831 79.6152 141.937 79.7756 143.42 80.7384C144.274 81.2933 145.585 82.2148 146.331 82.7858C147.077 83.3568 147.776 83.7358 147.883 83.6282C148.078 83.4335 147.187 82.5687 143.847 79.7089C142.03 78.153 140.847 76.1295 141.037 74.9008C141.114 74.4026 141.277 74.6258 141.669 75.7699C142.224 77.391 143.377 78.6764 145.318 79.8387L146.486 80.5385L146.263 79.5072C146.14 78.9402 145.732 77.5617 145.356 76.4443C144.981 75.3269 144.748 74.3377 144.84 74.2459C145.562 73.5217 146.663 75.5143 147.472 79.013C147.719 80.0816 148.588 82.3764 149.403 84.1127C152.433 90.5707 153.075 92.0004 153.075 92.2967C153.075 92.8243 154.205 94.8096 155.124 95.8967L156.008 96.9428L161.594 96.9428C167.468 96.9428 168.534 96.7545 169.934 95.4685C170.304 95.1286 171.461 94.5339 172.506 94.1467C173.55 93.7598 174.665 93.3416 174.984 93.2176C175.513 93.0123 175.46 92.8774 174.379 91.6729ZM157.613 127.518C157.03 127.518 156.792 127.581 157.083 127.657C157.374 127.733 157.851 127.733 158.142 127.657C158.433 127.581 158.195 127.518 157.613 127.518ZM152.88 70.3026C152.107 69.7113 151.309 69.2274 151.106 69.2274C150.353 69.2274 146.051 66.7936 144.522 65.5024C143.651 64.7674 142.117 63.6136 141.112 62.9383C140.107 62.2627 139.103 61.4913 138.881 61.2235C138.659 60.9558 138.335 60.7368 138.16 60.7368C137.338 60.7368 141.195 63.9456 145.711 67.0174C147.522 68.2497 154.285 71.7997 154.285 71.518C154.285 71.4409 153.652 70.8939 152.88 70.3026ZM149.734 47.5462C149.61 46.3788 149.351 44.946 149.158 44.3623C148.966 43.7785 148.414 41.7302 147.933 39.8104C147.451 37.8907 146.627 35.298 146.102 34.049C145.577 32.8 144.5 29.936 143.708 27.6845C142.917 25.433 141.693 21.9534 140.988 19.952C138.365 12.5022 136.132 5.39141 136.132 4.49263C136.132 3.43617 135.494 1.87027 135.114 1.99551C134.585 2.16956 134.519 4.80617 135.023 5.61035C135.354 6.13858 135.464 7.48493 135.479 11.1862C135.497 15.8899 135.965 20.0142 137.197 26.3199C137.425 27.4874 137.833 30.1482 138.104 32.233C138.942 38.6873 138.74 54.9945 137.771 59.0691C137.663 59.5266 137.908 59.8353 138.77 60.3266C139.399 60.6844 141.656 62.2879 143.786 63.8895C145.917 65.4912 147.84 66.8015 148.061 66.8015C148.318 66.8015 148.747 65.6607 149.255 63.6266C149.976 60.7435 150.045 59.9569 150.005 55.0603C149.98 52.095 149.859 48.7137 149.734 47.5462ZM147.704 69.5521C147.352 69.5858 144.553 73.5236 144.745 73.7155C144.984 73.9551 146.988 71.9719 147.503 70.9861C147.975 70.084 148.054 69.5188 147.704 69.5521ZM141.578 80.3824C141.328 80.2884 139.966 80.0506 138.552 79.8541C137.138 79.658 135.327 79.3699 134.528 79.214C133.73 79.0582 132.436 78.9263 131.654 78.9208C129.943 78.909 127.478 78.0996 126.271 77.1539C125.787 76.7745 124.622 75.8933 123.683 75.1959C121.354 73.4665 115.366 68.7316 114.222 67.7142C113.709 67.2582 112.336 66.0279 111.171 64.9806C108.873 62.9134 105.444 60.3963 103.759 59.5375C103.176 59.241 101.338 58.6242 99.6741 58.1672C98.01 57.7103 95.6955 57.0617 94.5307 56.7257C91.5112 55.8548 88.8584 55.5479 83.3362 55.4303C80.6738 55.3733 76.5893 55.1807 74.2597 55.0021C71.93 54.8235 66.2378 54.6764 61.6099 54.6749C53.7508 54.6725 52.983 54.7213 49.9617 55.4166C45.3453 56.4794 40.5798 58.4753 35.8664 61.3203C34.5182 62.1338 31.5771 63.8128 29.3306 65.0512C24.5152 67.706 14.9609 73.0751 13.9498 73.6943C12.8948 74.3408 13.3662 74.4875 14.6998 73.9281C15.3418 73.6588 17.9093 72.9034 20.4053 72.2497C22.9014 71.5959 26.7136 70.5895 28.8768 70.013C33.3044 68.8331 40.6176 67.3045 45.0086 66.6411C50.9014 65.7508 55.4545 66.1726 64.8663 68.4811C70.0865 69.7613 74.4385 70.356 81.3696 70.7356C84.8381 70.9255 88.0209 71.3002 90.5975 71.8215C93.6741 72.444 95.9805 72.6742 101.187 72.8783C110.728 73.2525 117.824 74.1798 122.271 75.6334C124.206 76.266 126.542 77.4234 126.324 77.6418C126.259 77.7073 125.273 77.485 124.134 77.1481C118.852 75.5849 110.919 74.5385 101.792 74.2013C97.5175 74.0433 95.435 73.8095 92.1102 73.1148C89.1362 72.4932 86.3285 72.1451 82.6845 71.9458C76.0586 71.5835 69.8875 70.7123 64.4264 69.3684C56.0148 67.2982 55.7922 67.2645 50.6606 67.2727C46.1876 67.28 45.3369 67.3782 39.4661 68.5648C35.9717 69.271 30.5938 70.5164 27.5153 71.3327C24.4369 72.149 20.8289 73.0884 19.4977 73.4201C18.1665 73.7522 16.6688 74.1937 16.1696 74.402C15.2943 74.7668 15.3533 74.7947 17.8336 75.1843C22.8509 75.9725 24.1464 75.9873 28.243 75.3038C30.3902 74.9457 32.5005 74.4708 32.9325 74.2489C36.8742 72.223 41.5196 71.9719 46.1205 73.536C47.1198 73.8756 51.4094 75.8551 55.6527 77.935C59.896 80.0145 65.0028 82.3667 67.0011 83.1621C68.9995 83.9572 71.314 84.9509 72.1445 85.3699C72.975 85.7887 74.7437 86.5159 76.075 86.9856C78.3968 87.8043 78.7731 87.8443 85.3028 87.9629C94.1143 88.123 96.3535 87.8543 106.33 85.4415C109.325 84.7174 113.001 83.8993 114.499 83.6242C115.997 83.3489 118.814 82.5896 120.759 81.937C122.704 81.2842 124.747 80.7463 125.297 80.7414C125.848 80.7366 127.228 80.4782 128.364 80.1671C130.846 79.4881 135.174 79.5461 138.494 80.3029C140.477 80.7547 142.718 80.8127 141.578 80.3824ZM139.597 71.2487C139.363 70.6095 139.086 69.3814 138.982 68.5196C138.878 67.6581 138.588 66.1344 138.337 65.1337C138.086 64.133 137.879 63.0074 137.876 62.632C137.87 61.7942 137.605 61.7612 137.121 62.5377C136.822 63.0181 136.865 63.3765 137.357 64.4909C137.688 65.2417 138.1 66.9765 138.271 68.3459C138.6 70.9767 139.217 72.8661 139.747 72.8661C140.143 72.8661 140.127 72.6975 139.597 71.2487ZM138.441 81.0534C138.169 81.0534 137.947 81.1853 137.947 81.3469C137.947 81.5083 137.229 82.1836 136.351 82.8477L134.756 84.0551L132.494 83.7361C129.993 83.3838 123.439 83.5888 122.598 84.0457C121.134 84.8414 119.427 87.5687 118.254 90.9864C117.42 93.4168 114.657 97.4313 111.707 100.498C107.562 104.807 104.158 107.397 99.0656 110.116C92.8485 113.436 91.1518 114.397 91.5003 114.404C91.7847 114.409 93.8656 113.621 103.305 109.931C105.634 109.021 108.63 107.759 109.961 107.128C111.292 106.496 113.993 105.22 115.962 104.29C120.029 102.371 122.755 100.142 124.03 97.6936C124.446 96.8946 125.545 95.3139 126.473 94.181C127.401 93.0484 128.655 91.2345 129.26 90.1504C130.33 88.2322 133.906 84.389 134.62 84.389C134.816 84.389 134.101 85.3781 133.031 86.5874C131.961 87.7967 130.758 89.3999 130.357 90.1504C129.4 91.944 127.64 94.3581 126.598 95.3054C126.14 95.7223 125.186 96.9504 124.478 98.0345C123.771 99.1185 122.598 100.568 121.871 101.255C120.257 102.783 116.973 104.708 114.197 105.756C113.058 106.185 111.979 106.658 111.8 106.807C110.769 107.659 101.456 111.419 93.2276 114.306C92.0116 114.733 91.077 115.143 91.1508 115.216C91.2247 115.29 93.1044 114.946 95.3282 114.451C97.5519 113.956 100.461 113.395 101.792 113.205C103.123 113.014 105.71 112.538 107.54 112.146C109.371 111.754 112.026 111.275 113.44 111.082C118.238 110.425 119.284 110.166 120.674 109.293C121.438 108.814 122.943 107.961 124.018 107.397C126.75 105.966 129.182 103.591 131.4 100.187C133.037 97.6748 133.413 96.8197 134.145 93.9408C135.393 89.0294 135.774 86.8364 135.603 85.5546C135.459 84.4818 135.558 84.3059 137.193 82.7321C138.276 81.689 138.749 81.0534 138.441 81.0534ZM135.753 80.7347C134.88 80.7259 133.212 80.6113 132.047 80.4794C130.282 80.2799 129.705 80.3354 128.587 80.8118C127.848 81.1265 126.623 81.4643 125.864 81.5629C123.126 81.9179 123.762 82.1614 127.565 82.2142C129.698 82.2436 132.228 82.4104 133.189 82.5848C134.859 82.8883 134.988 82.8649 136.132 82.0535C136.79 81.5868 137.332 81.1029 137.335 80.9776C137.339 80.8524 136.627 80.7432 135.753 80.7347ZM136.72 35.9182C136.575 35.1928 136.312 32.8731 136.136 30.7632C135.959 28.653 135.691 26.1759 135.54 25.2586C134.291 17.7133 134.254 17.2505 134.451 11.8105C134.609 7.44551 134.571 6.42301 134.255 6.5258C134.039 6.59615 133.681 7.46249 133.459 8.45103C133.236 9.43957 132.787 11.1553 132.46 12.2636C132.133 13.3716 131.744 15.4184 131.595 16.8121C131.285 19.7267 130.238 22.6187 128.862 24.3601C128.336 25.0251 127.716 26.2841 127.483 27.1575C126.985 29.0299 126.456 35.0024 126.188 41.7848L125.996 46.6365L127.151 48.3937C127.787 49.3602 128.959 51.0261 129.757 52.0953C130.554 53.1648 131.369 54.4332 131.568 54.9142C131.778 55.4224 132.385 56.0067 133.017 56.3084C133.614 56.5941 134.677 57.2991 135.378 57.8746L136.653 58.9214L136.831 57.0244C137.106 54.1015 137.018 37.4031 136.72 35.9182ZM131.571 180.425C130.915 180.14 130.297 179.907 130.197 179.907C129.856 179.907 125.998 177.993 124.786 177.222C124.12 176.799 122.895 176.091 122.063 175.65C116.942 172.936 115.194 171.566 106.795 163.683C103.544 160.631 100.272 157.625 99.5228 157.003C97.725 155.508 92.6403 152.177 91.2988 151.615C90.7143 151.37 89.9524 150.711 89.6057 150.15C89.259 149.588 87.6385 147.82 86.0044 146.22C81.386 141.696 76.8235 138.562 72.5956 137.007C64.4055 133.995 56.429 128.985 48.9965 122.185C46.5389 119.937 43.6489 118.036 40.2906 116.458C37.9161 115.343 33.2638 113.706 33.2638 113.985C33.2638 114.049 35.2041 115.073 37.5752 116.26C40.7783 117.863 42.5476 118.978 44.4582 120.596C45.8727 121.793 48.3597 123.764 49.985 124.975C51.61 126.185 54.2649 128.499 55.8847 130.117C58.9027 133.131 60.1181 134.127 65.6372 138.111C68.7804 140.38 71.8078 142.065 75.6211 143.67C81.6528 146.207 85.7636 148.515 88.9334 151.143C89.6823 151.763 91.7245 152.982 93.4717 153.851C97.1837 155.697 99.8571 157.778 103.15 161.387C104.456 162.817 106.373 164.67 107.412 165.504C108.451 166.338 110.284 167.932 111.485 169.047C112.687 170.162 114.449 171.574 115.403 172.185C116.356 172.796 117.631 173.738 118.238 174.279C118.844 174.819 120.359 175.777 121.604 176.407C122.848 177.037 124.556 177.994 125.397 178.534C126.239 179.073 127.467 179.69 128.126 179.905C128.785 180.119 129.685 180.549 130.127 180.859C130.946 181.435 132.346 181.617 132.614 181.183C132.695 181.05 132.226 180.709 131.571 180.425ZM116.2 132.3C116.049 132.3 115.835 132.662 115.724 133.106C115.613 133.549 114.375 135.054 112.972 136.451C110.668 138.744 109.724 140.199 110.219 140.695C110.317 140.794 110.546 140.483 110.728 140.005C110.909 139.526 111.151 139.059 111.266 138.967C111.38 138.874 112.387 137.848 113.503 136.686C115.357 134.756 116.867 132.3 116.2 132.3ZM102.586 162.243C100.11 159.801 99.3594 159.301 100.313 160.728C101.362 162.297 102.246 164.242 102.246 164.98C102.246 165.724 100.111 169.451 96.647 174.752C94.2544 178.415 93.6899 179.516 94.0801 179.758C94.2472 179.861 94.4732 179.698 94.5827 179.396C94.6922 179.093 95.5424 177.823 96.4715 176.572C98.721 173.544 99.9857 171.493 100.398 170.204C100.762 169.068 102.77 166.716 104.137 165.825C104.594 165.526 104.969 165.127 104.969 164.938C104.969 164.748 103.897 163.535 102.586 162.243ZM102.351 152.92C102.163 150.93 101.57 148.525 100.968 147.31C100.027 145.412 97.1719 141.804 95.8259 140.812C93.8557 139.359 87.6231 133.717 82.7311 128.957C78.3692 124.713 74.849 121.6 70.3265 117.986C67.5082 115.734 59.5859 110.945 59.5859 111.493C59.5859 111.549 60.3162 112.08 61.2091 112.674C63.339 114.092 67.6952 118.265 70.9301 121.988C72.3545 123.627 74.9017 126.175 76.5905 127.649C85.1479 135.118 85.5246 135.519 87.2192 138.97C88.3056 141.183 89.1842 142.523 90.1016 143.367C95.5043 148.337 95.7914 148.665 97.2361 151.505C98.4139 153.821 98.9691 154.555 100.381 155.665C101.323 156.407 102.196 157.059 102.321 157.114C102.541 157.212 102.556 155.09 102.351 152.92ZM89.4296 152.465C87.8615 151.537 84.8677 149.512 84.6977 149.263C84.6145 149.142 83.0685 148.269 81.2619 147.324C79.4554 146.38 77.7535 145.487 77.48 145.341C77.2065 145.194 74.8042 143.994 72.1418 142.673C65.171 139.214 62.6126 137.341 55.5014 130.491C53.5046 128.567 50.8748 126.311 49.6576 125.477C48.4401 124.643 46.3298 122.994 44.968 121.812C43.606 120.63 41.3344 119.014 39.92 118.222C37.3586 116.788 33.8617 115.225 33.6623 115.425C33.6045 115.483 34.4102 116.054 35.4528 116.694C42.7594 121.179 47.213 126.185 51.7343 134.993C53.2967 138.038 55.0088 139.834 58.7541 142.358C64.1444 145.99 73.1862 149.425 82.126 151.238C83.4572 151.507 85.4583 152.074 86.5726 152.496C87.6872 152.918 89.0166 153.22 89.527 153.167L90.455 153.071L89.4296 152.465ZM13.9005 19.22C13.6509 19.2291 13.1743 19.3538 12.8415 19.4972L12.2364 19.7577L12.8415 19.7743C13.1743 19.7837 13.6509 19.6588 13.9005 19.4972C14.3038 19.2358 14.3038 19.2052 13.9005 19.22Z" fill="white"/>
</g>
<defs>
<clipPath id="clip0_1_2755">
<rect width="239" height="172" fill="white"/>
</clipPath>
</defs>
</svg>
