<svg width="535" height="437" viewBox="0 0 535 437" fill="none" xmlns="http://www.w3.org/2000/svg">
<path fill-rule="evenodd" clip-rule="evenodd" d="M5.33813 155.531C8.27444 155.408 10.9717 155.02 11.332 154.669C12.6641 153.369 15.8084 154.042 18.1875 156.135C22.011 159.498 31.094 173.441 36.7435 184.617C38.7589 188.605 39.9002 195.035 39.9271 202.554C39.9498 208.901 40.2735 212.076 42.1236 224.082C42.9481 229.438 47.0836 242.021 49.9476 247.893C52.638 253.409 54.6059 255.753 60.371 260.307C66.2485 264.952 72.4 271.59 74.3218 275.364C79.9533 286.426 84.0337 301.483 84.0337 311.204C84.0337 322.961 79.7852 339.138 74.7832 346.423C67.998 356.307 65.9778 362.241 67.2424 368.576C67.925 371.996 69.0422 370.29 68.5352 366.6C67.9821 362.569 68.4808 361.506 75.0381 352.757C80.3438 345.677 82.7677 340.515 86.2206 328.94C88.2146 322.256 88.4716 320.454 88.4791 313.114C88.4846 307.759 88.0548 302.802 87.262 299.086C86.0029 293.181 81.0609 279.104 78.4393 273.955C76.238 269.632 69.9851 262.076 66.287 259.269C61.6136 255.724 55.0791 248.136 52.8253 243.637C50.8313 239.657 49.5185 235.558 47.824 228.022C47.2875 225.633 46.4093 222.217 45.8734 220.43C44.2864 215.142 43.4089 208.064 43.2243 199.073L43.0507 190.629L51.8624 199.419C61.7052 209.236 62.4553 210.276 78.3353 236.093C80.764 240.042 83.9455 244.701 85.4051 246.445C86.8646 248.191 88.8958 251.793 89.9194 254.45C90.9422 257.107 92.2137 260.368 92.7441 261.697C93.2745 263.025 94.805 268.46 96.1447 273.775C98.1697 281.808 98.6966 285.474 99.2704 295.515C99.6499 302.158 99.7911 308.922 99.5845 310.546C98.7049 317.445 92.7655 331.629 85.6468 343.827C72.586 366.209 66.8188 378.006 67.6763 380.583C67.8127 380.993 68.7605 379.899 69.7819 378.153C70.8041 376.406 72.2072 374.796 72.9008 374.575C75.1166 373.871 115.329 332.681 116.722 329.689C118.874 325.068 119.159 322.508 118.089 317.411C116.816 311.348 116.815 297.923 118.085 290.166C118.63 286.845 119.236 281.798 119.434 278.951C119.948 271.564 120.626 267.246 121.343 266.802C121.684 266.591 125.44 268.435 129.689 270.901C138.098 275.78 158.591 286.152 169.275 290.935C179.124 295.345 183.496 296.853 190.796 298.361C194.395 299.105 197.843 299.865 198.459 300.049C199.447 300.345 199.569 302.019 199.506 314.342C199.431 329.276 200.148 335.82 202.814 344.517C203.687 347.364 204.619 351.246 204.885 353.144C205.152 355.042 206.381 358.924 207.616 361.771C210.511 368.445 212.804 374.688 215.977 384.547C217.383 388.912 220.548 397.609 223.009 403.872C229.602 420.647 232.123 427.868 232.123 429.979C232.123 432.143 235.164 437 236.519 437C237.151 437 238.971 432.625 239.678 429.408C241.321 421.927 243.345 414.311 244.538 411.119C245.987 407.243 247.618 400.808 248.231 396.553C248.788 392.683 251.794 386.208 254.725 382.563C258.283 378.138 260.368 369.008 260.34 357.976C260.32 350.445 260.03 346.944 258.651 337.615L258.192 334.51L260.355 336.925C261.544 338.254 266.839 344.776 272.121 351.419C277.402 358.062 283.176 365.162 284.952 367.195C291.498 374.696 307.282 385.268 322.121 392.093C333.796 397.462 336.34 397.887 356.794 397.897C367.63 397.902 375.967 397.589 378.559 397.081C383.551 396.102 412.805 397.145 418.441 398.502C423.946 399.828 483.868 399.416 496.274 397.967C501.578 397.348 507.157 396.593 508.672 396.29L511.427 395.737L508.011 395.664C506.133 395.623 500.563 396.083 495.634 396.687C483.65 398.154 430.236 397.711 418.441 396.047C410.681 394.951 383.304 393.23 382.413 393.782C382.141 393.95 378.512 394.278 374.35 394.51C370.188 394.741 363.682 395.267 359.894 395.677C343.863 397.414 335.586 396.025 322.346 389.374C304.897 380.61 287.653 367.766 282.043 359.356C278.409 353.908 269.736 342.603 264.662 336.7C262.108 333.729 258.928 329.692 257.594 327.727C256.26 325.764 253.815 322.363 252.16 320.17C250.504 317.977 249.293 316.04 249.468 315.865C249.643 315.689 250.849 316.339 252.148 317.308C257.066 320.977 265.896 325.264 271.415 326.663C274.549 327.457 282.41 330.267 288.885 332.908C295.36 335.548 304.377 339.052 308.923 340.693C313.469 342.334 322.303 345.608 328.554 347.967C343.53 353.621 358.735 358.655 364.715 359.94C371.171 361.327 384.345 365.297 393.644 368.657C400.802 371.243 413.531 375.004 422.615 377.216C424.865 377.764 430.271 379.173 434.627 380.347C438.984 381.521 446.733 382.971 451.847 383.57C456.961 384.168 463.316 384.972 465.967 385.355C475.021 386.664 521.464 387.453 527.958 386.408L531.402 385.854L529.333 387.158C528.195 387.875 524.785 389.752 521.757 391.329C518.727 392.905 516.597 394.198 517.024 394.203C518.019 394.212 532.362 387.008 534.088 385.633C535.361 384.617 535.351 384.552 533.744 383.194C531.661 381.434 531.045 381.292 521.415 380.34C517.058 379.911 511.324 379.303 508.672 378.99C506.02 378.677 501.834 378.402 499.369 378.378C496.904 378.355 490.448 377.404 485.023 376.265C479.597 375.126 473.207 374.195 470.821 374.195C465.608 374.195 461.195 372.751 458.393 370.13C457.256 369.066 454.155 367.015 451.503 365.574C448.851 364.132 444.667 361.346 442.204 359.383C436.617 354.93 426.726 349.089 416.58 344.253C385.774 329.566 364.713 320.45 358.172 318.97C348.332 316.744 352.641 316.584 376.769 318.279C381.883 318.639 393.68 318.943 402.982 318.957C417.027 318.977 421.176 318.746 427.434 317.596C443.132 314.711 448.513 312.175 490.419 287.909C497.428 283.851 505.332 279.363 507.983 277.935C514.183 274.598 515.706 273.157 516.037 270.314C516.383 267.346 515.026 266.671 508.594 266.611C505.971 266.586 501.351 266.092 498.327 265.512C495.304 264.932 491.435 264.457 489.731 264.457C483.806 264.457 470.097 267.154 463.194 269.677C456.72 272.042 455.967 272.167 450.125 271.842C446.716 271.653 442.221 270.935 440.138 270.247C438.054 269.559 428.136 264.863 418.096 259.811C408.057 254.759 397.519 249.722 394.678 248.617C391.836 247.512 386.257 245.154 382.279 243.378C366.169 236.182 365.171 235.953 348.529 235.613C329.644 235.229 317.971 236.247 306.168 239.309C295.759 242.01 277.765 247.109 271.557 249.117C269.189 249.882 267.252 250.37 267.252 250.199C267.252 250.029 268.181 248.896 269.317 247.684C271.377 245.484 275.596 237.998 276.552 234.844C278.006 230.052 283.789 222.27 292.008 214.048C302.834 203.216 308.539 198.905 320.288 192.678C325.402 189.968 330.051 187.352 330.62 186.864C331.189 186.376 334.83 184.192 338.714 182.009C342.596 179.827 345.774 177.646 345.774 177.163C345.774 174.161 339.802 174.18 325.177 177.228C320.784 178.143 313.934 179.374 309.957 179.963C305.979 180.551 301.175 181.471 299.28 182.008C297.386 182.545 290.482 183.746 283.939 184.676C272.977 186.234 271.678 186.572 267.408 188.981C264.859 190.419 261.07 192.431 258.986 193.452C254.321 195.739 248.958 200.189 245.363 204.758C242.109 208.89 237.634 218 237.634 220.487C237.634 221.466 237.318 223.1 236.931 224.119C235.563 227.725 232.864 242.972 233.17 245.365C233.447 247.537 233.226 247.951 231.091 249.273C229.777 250.087 228.083 251.541 227.327 252.505C226.242 253.886 225.269 254.284 222.734 254.386C219.884 254.499 218.88 254.087 213.939 250.772C210.87 248.715 207.895 246.965 207.327 246.885C206.735 246.801 205.669 244.935 204.829 242.512C204.024 240.188 202.751 237.109 201.999 235.67C195.874 223.939 193.82 219.511 194.353 219.182C194.694 218.97 198.605 218.894 203.044 219.012C212.748 219.271 219.636 217.885 225.112 214.568C231.003 211.001 243.889 198.592 257.879 183.017C266.592 173.315 271.384 166.635 271.384 164.191C271.384 163.284 271.538 162.388 271.726 162.2C271.914 162.012 274.626 162.27 277.753 162.774C284.216 163.815 292.306 164.049 297.073 163.332C299.618 162.95 300.314 162.566 300.314 161.543C300.314 160.828 299.947 160.242 299.499 160.242C299.051 160.242 296.483 157.99 293.792 155.238C291.101 152.486 286.915 148.576 284.489 146.55C282.064 144.523 279.13 141.551 277.971 139.945C275.067 135.924 266.688 128.393 260.417 124.17C257.547 122.237 253.058 118.925 250.442 116.81C247.826 114.695 244.107 111.867 242.177 110.524C230.248 102.229 226.692 99.9098 223.241 98.1754C217.157 95.118 201.953 90.1957 196.456 89.5034C194.877 89.3047 191.624 88.6863 189.227 88.1293C183.122 86.711 166.378 86.1202 158.079 87.0305C146.339 88.3191 145.306 88.6324 138.922 92.8445C135.631 95.0165 132.938 96.9559 132.938 97.154C132.938 97.5267 133.788 97.1319 140.982 93.4202C143.912 91.9087 146.205 91.2247 148.342 91.2247C150.049 91.2247 152.318 90.8824 153.384 90.4641C154.451 90.0452 161.987 89.4351 170.132 89.1073C184.551 88.5269 185.096 88.5544 190.796 90.1508C194.016 91.0522 198.975 92.3338 201.817 92.9984C216.349 96.3976 230.344 103.956 248.999 118.48C253.166 121.725 258.738 125.849 261.382 127.644C265.889 130.707 272.705 137.115 280.687 145.794C282.583 147.857 286.707 151.831 289.849 154.627C292.992 157.422 295.436 159.838 295.278 159.995C294.431 160.844 281.928 157.727 271.384 154.038C264.755 151.719 256.337 148.899 252.678 147.773C244.413 145.229 231.85 140.527 229.841 139.225C229.013 138.689 226.63 137.583 224.547 136.767C222.463 135.951 215.644 132.847 209.393 129.869C195.536 123.268 189.72 120.964 179.819 118.154C172.87 116.181 162.361 111.975 155.323 108.347C151.509 106.382 148.078 105.193 140.859 103.337C137.449 102.459 133.446 101.234 131.962 100.612C129.417 99.5454 129.339 99.4267 130.583 98.515C131.309 97.9836 131.718 97.3638 131.492 97.1381C131.023 96.6681 127.427 99.328 127.427 100.145C127.427 101.006 136.387 104.905 143.452 107.117C147.027 108.237 153.64 110.893 158.148 113.019C168.477 117.891 171.429 119.019 180.809 121.678C190.511 124.429 199.559 128.043 210.593 133.574C223.45 140.018 238.514 146.152 250.902 149.987C256.895 151.842 265.428 154.627 269.863 156.173C274.299 157.72 279.788 159.495 282.061 160.118C290.501 162.432 278.956 161.589 263.808 158.784C259.408 157.97 249.779 154.958 247.277 153.613C243.424 151.544 236.266 149.712 230.746 149.383C227.526 149.192 224.47 148.695 223.954 148.28C222.796 147.345 198.388 146.928 194.117 147.77C191.826 148.222 193.443 148.394 201.128 148.513C206.621 148.598 211.425 148.74 211.804 148.828C212.183 148.917 213.423 149.055 214.559 149.138C216.527 149.28 216.551 149.316 215.054 149.919C214.191 150.266 210.936 150.732 207.822 150.954C204.709 151.176 199.216 151.944 195.618 152.66C183.6 155.053 180.857 155.396 172.888 155.501C161.207 155.655 151.658 153.361 133.41 146.017C117.76 139.718 113.171 136.582 107.806 128.522C106.153 126.039 103.693 122.937 102.338 121.629C100.984 120.321 99.8758 118.974 99.8758 118.636C99.8758 118.297 101.109 118.229 102.617 118.484C104.903 118.871 105.963 118.606 108.989 116.887C112.647 114.81 122.973 111.24 125.322 111.24C126.083 111.24 126.754 111.897 127.002 112.886C127.737 115.824 134.718 123.883 141.119 129.184C144.556 132.031 147.138 134.44 146.857 134.537C146.289 134.733 132.733 130.754 126.564 128.579C124.384 127.811 120.82 126.855 118.643 126.456C116.466 126.056 111.74 124.254 108.141 122.453C100.012 118.383 100.273 118.491 100.865 119.451C101.794 120.957 112.244 125.733 118.285 127.414C121.609 128.338 128.357 130.464 133.282 132.137C138.207 133.81 144.251 135.59 146.714 136.092C149.777 136.717 152.496 137.886 155.323 139.795C162.218 144.451 173.902 148.612 179.53 148.416L182.186 148.325L179.087 147.835C175.986 147.344 168.004 144.384 161.522 141.322C157.466 139.406 152.901 136.18 144.741 129.465C134.395 120.95 129.362 114.829 127.815 108.877C127.238 106.659 126.182 103.852 125.469 102.64C124.151 100.403 124.523 98.7683 126.511 98.0657C126.954 97.9097 131.818 93.7922 137.32 88.9161C142.823 84.0401 148.57 79.3814 150.093 78.5636C151.615 77.7457 154.079 75.9892 155.57 74.6606C158.046 72.4528 163.769 69.8294 166.108 69.8294C166.634 69.8294 168.74 68.7238 170.788 67.3718C181.472 60.3217 194.683 52.8015 206.511 47.0379C211.933 44.396 218.432 40.678 220.951 38.7773C223.472 36.8766 226.013 35.3209 226.6 35.3209C228.066 35.3209 232.147 33.0599 235.997 30.115C237.764 28.7636 239.553 27.8146 239.971 28.0058C240.39 28.197 243.395 29.4372 246.647 30.7624C249.9 32.0868 254.837 34.7412 257.618 36.6613C260.4 38.5813 263.007 40.1542 263.414 40.1563C263.82 40.1583 266.856 41.9438 270.16 44.1247C274.291 46.8509 279.949 51.8471 288.277 60.1236L300.386 72.1581L298.678 75.9975C297.739 78.1094 296.334 83.098 295.555 87.0837C294.776 91.0694 293.333 97.2665 292.349 100.855C291.18 105.119 290.638 108.616 290.787 110.949L291.015 114.519L285.819 114.585C282.961 114.621 279.388 115.088 277.878 115.622C274.08 116.964 264.007 122.091 263.476 122.952C262.926 123.844 264.759 123.159 271.51 119.949C277.991 116.867 282.47 115.852 287.08 116.419L290.722 116.867L289.146 118.101C288.28 118.78 286.021 120.135 284.127 121.113C279.672 123.412 271.206 129.376 270.841 130.472C270.686 130.939 272.681 129.898 275.276 128.158C277.871 126.418 281.889 124.105 284.206 123.019C286.521 121.933 289.508 119.95 290.843 118.613C293.048 116.403 293.238 115.907 292.929 113.158C292.688 111.015 293.22 107.927 294.751 102.577C295.94 98.4211 297.206 92.2255 297.562 88.8091C298.259 82.1262 299.695 76.462 301.223 74.3673C302.129 73.1264 302.331 73.2064 305.378 76.0202L308.579 78.9777L308.593 85.6185C308.62 98.7994 310.899 106.765 316.634 113.718C318.075 115.466 325.454 122.197 333.031 128.676C340.608 135.155 349.408 143.219 352.588 146.597C362.572 157.203 382.348 173.337 393.096 179.645C396.429 181.6 400.705 184.138 402.599 185.286C404.493 186.433 408.057 188.107 410.52 189.005L414.997 190.638L410.175 190.373C406.274 190.159 404.499 189.645 400.877 187.68C398.414 186.345 394.167 184.417 391.439 183.397C385.311 181.105 379.768 177.563 373.729 172.08C362.444 161.833 344.025 148.99 336.131 145.864C329.885 143.391 317.869 137.514 308.846 132.52C302.308 128.902 294.974 122.3 295.874 120.842C296.087 120.496 295.779 120.212 295.188 120.212C293.159 120.212 294.121 122.252 298.075 126.338C303.089 131.518 323 144.464 332.043 148.423C337.078 150.628 341.335 153.347 350.097 159.955C356.404 164.711 363.619 170.469 366.131 172.75C372.139 178.206 378.139 181.986 387.723 186.352C392.043 188.321 397.149 190.9 399.071 192.084C403.238 194.654 409.779 195.865 415.57 195.14C419.035 194.706 419.639 194.404 420.247 192.803C421.095 190.567 420.648 190.149 410.498 183.708C405.024 180.234 401.548 177.28 395.093 170.616C378.707 153.7 365.108 140.33 355.441 131.63C354.132 130.453 351.708 126.584 349.706 122.479C346.13 115.146 345.119 113.958 335.071 105.276C332.813 103.324 329.972 100.063 328.76 98.0291C325.195 92.0508 325.211 91.8024 329.024 93.7514C331.117 94.8212 333.01 95.3181 334.152 95.0959C336.388 94.6611 337.369 95.4493 340.15 99.9195C342.896 104.333 355.267 116.422 362.993 122.242C366.213 124.668 371.793 128.017 375.392 129.684C396.07 139.261 413.708 150.419 428.084 163.018C435.024 169.099 441.592 173.536 449.156 177.252C455.203 180.222 478.514 187.849 481.546 187.849C483.914 187.849 486.287 185.984 486.287 184.122C486.287 182.817 485.487 182.23 481.637 180.711C474.944 178.071 464.035 171.899 457.949 167.309C444.798 157.391 439.463 150.656 430.557 132.723C426.071 123.692 423.893 120.529 419.33 116.415C411.585 109.434 403.689 104.787 390.639 99.5302C377.574 94.267 370.022 92.1903 357.985 90.5504C352.595 89.8161 347.169 88.8575 345.929 88.4206C343.291 87.4923 339.387 88.0603 337.856 89.5945C336.883 90.5684 336.573 90.5159 334.562 89.0355C333.341 88.1362 331.526 86.9857 330.528 86.4784C329.53 85.9704 327.05 84.2395 325.018 82.6307C321.816 80.0971 320.745 78.5532 317.017 71.1007C314.649 66.3675 312.712 62.1375 312.712 61.7006C312.712 61.263 313.605 59.8848 314.698 58.6383C315.789 57.3912 318.615 53.2654 320.977 49.4694C323.338 45.6735 326.122 41.4807 327.165 40.1521C328.207 38.8236 329.759 36.3389 330.613 34.6308C331.468 32.9226 332.246 31.4339 332.342 31.3228C332.501 31.1371 336.334 32.6672 338.942 33.9579C339.54 34.2539 342.33 34.2298 345.141 33.904C347.951 33.5776 352.493 33.2974 355.235 33.2808C357.976 33.2642 361.54 32.9488 363.156 32.5803C377.413 29.3261 379.092 28.756 384.088 25.4701C386.874 23.637 390.784 21.6521 392.777 21.0599C394.769 20.4671 398.146 19.0992 400.28 18.0197C404.697 15.7864 417.955 12.1174 423.607 11.566C425.69 11.3624 432.067 11.0104 437.777 10.7847C448.947 10.3423 452.143 10.8123 461.49 14.2749C468.666 16.9327 485.402 20.6341 492.274 21.0834C497.475 21.4229 498.798 21.305 499.679 20.4229C501.15 18.9487 501.043 18.4242 498.857 16.3965C494.211 12.0877 476.311 -0.111719 475.186 0.263739C474.655 0.441107 486.203 9.28217 495.757 16.0127C498.777 18.1405 499.484 19.447 497.614 19.447C496.031 19.447 483.976 15.3046 471.683 10.5362C465.735 8.22898 457.228 5.38065 452.78 4.20737C448.331 3.03409 443.535 1.61027 442.121 1.04365C440.707 0.477026 438.855 0.115362 438.005 0.24027C437.102 0.372808 440.306 1.70136 445.703 3.43299C468.52 10.7536 492.676 19.3407 490.625 19.4015C489.791 19.4263 487.324 18.9811 485.141 18.4117C482.959 17.8424 480.697 17.5242 480.114 17.7057C479.531 17.8865 478.589 17.7368 478.021 17.371C477.162 16.8189 477.219 16.6939 478.366 16.6284C480.653 16.4966 476.754 15.4558 473.671 15.375C472.226 15.337 470.388 14.9554 469.588 14.5261C468.789 14.0975 466.407 13.4963 464.296 13.1913C462.185 12.8862 457.667 11.8283 454.258 10.8406C448.211 9.08896 447.653 9.051 431.528 9.29184C416.295 9.51963 414.699 9.66041 411.209 11.0897C409.125 11.9428 406.323 13.0485 404.983 13.5461C403.642 14.0444 400.377 15.5455 397.728 16.8823C395.079 18.2192 391.619 19.6617 390.038 20.0882C388.457 20.5147 386.29 21.6003 385.223 22.5003C382.179 25.0664 377.733 27.148 373.102 28.1742C359.857 31.1116 351.896 31.8873 341.641 31.2399C332.687 30.6747 330.524 30.1274 326.488 27.4081C325.162 26.5143 321.629 24.7758 318.637 23.5439C309.379 19.732 297.346 10.5466 294.574 5.17704L293.495 3.08652L299.832 1.94983C303.317 1.32453 307.253 0.706791 308.579 0.577732C309.905 0.448673 305.875 0.298221 299.625 0.243015C293.374 0.188511 288.579 0.371402 288.968 0.650241C290.483 1.7338 294.755 8.40497 293.941 8.41532C292.937 8.42774 298.702 13.8228 302.784 16.6905C305.59 18.6623 319.692 25.9587 324.593 27.9761C326.014 28.5607 327.176 29.4062 327.176 29.8555C327.176 30.3048 325.005 33.7204 322.349 37.446C319.695 41.1722 316.241 46.7936 314.675 49.9387C311.109 57.0992 309.706 59.0028 306.358 61.2223L303.691 62.9912L296.32 56.5257C284.55 46.2022 263.658 32.7563 253.131 28.727C251.437 28.079 249.699 27.1238 249.269 26.6041C248.838 26.0837 248.059 25.6585 247.537 25.6585C247.015 25.6585 246.605 25.426 246.626 25.1409C246.685 24.3238 259.689 16.3178 263.079 15.0106C266.193 13.8097 269.461 11.791 271.459 9.83435C272.069 9.23804 275.14 6.88593 278.285 4.60834L284.001 0.467319L281.053 0.251316C278.478 0.0621981 277.287 0.541873 271.625 4.04724C268.06 6.25373 262.75 9.45679 259.822 11.165C256.896 12.8731 253.573 14.8739 252.439 15.6104C251.304 16.3474 247.742 18.6623 244.522 20.7542C241.302 22.8468 237.117 25.8428 235.223 27.413C230.315 31.4808 225.514 34.6308 224.223 34.6308C222.861 34.6308 218.768 36.6888 214.788 39.3757C213.147 40.4841 209.169 42.7817 205.949 44.4816C192.311 51.6835 185.775 55.3 184.704 56.2372C184.077 56.7866 178.383 59.9138 172.05 63.1866C154.563 72.2236 149.761 75.2307 141.548 82.2905C138.896 84.5701 135.176 87.7049 133.282 89.2563C127.893 93.6728 124.672 96.6902 124.672 97.3237C124.672 97.6433 123.975 98.2313 123.122 98.6295C122.27 99.0285 119.713 101.052 117.44 103.127C115.167 105.202 110.363 108.825 106.764 111.178C103.165 113.532 99.9103 115.833 99.5314 116.292C98.7269 117.268 91.4451 122.118 83.9145 126.695C81.0078 128.461 76.6154 131.685 74.1537 133.859C69.1717 138.258 68.6689 139.774 70.9494 143.522C71.7057 144.765 72.3243 146.278 72.3243 146.886C72.3243 149.208 85.5972 168.82 97.0112 183.362C106.034 194.858 136.415 223.027 141.049 224.192C143.074 224.702 151.567 221.628 155.668 218.902C157.373 217.769 158.995 216.841 159.272 216.838C159.55 216.837 162.707 215.426 166.288 213.704C172.41 210.759 182.631 203.638 188.041 198.548C189.367 197.3 193.551 194.323 197.34 191.932C206.036 186.443 208.031 184.911 217.226 176.662C222.161 172.235 227.329 168.417 232.38 165.466C236.596 163.004 241.362 159.734 242.973 158.2C244.584 156.666 246.134 155.413 246.417 155.415C246.7 155.418 249.722 156.469 253.131 157.75C256.541 159.031 261.561 160.474 264.286 160.955L269.242 161.83L268.83 163.969C268.603 165.145 267.479 167.506 266.332 169.214C264.142 172.476 253.282 184.804 251.27 186.312C250.625 186.795 248.795 189.052 247.203 191.326C245.611 193.599 243.194 196.146 241.832 196.984C240.47 197.823 236.38 201.312 232.743 204.739C225.71 211.365 217.717 216.239 216.085 214.896C214.897 213.92 178.673 213.847 170.734 214.805C164.507 215.557 160.172 217.342 154.979 221.291C153.952 222.073 147.78 224.602 144.819 225.455C142.561 226.105 142.874 228.244 145.789 232.073C148.279 235.345 152.164 239.009 162.9 248.21C165.931 250.808 168.72 253.274 169.099 253.691C169.478 254.108 172.965 257.357 176.848 260.91C180.731 264.463 183.908 267.683 183.908 268.064C183.908 268.447 182.719 267.714 181.264 266.435C179.81 265.158 176.478 262.456 173.859 260.432C171.241 258.407 165.69 253.567 161.522 249.676C157.355 245.784 149.761 238.856 144.647 234.28C135.073 225.714 109.449 199.843 100.909 190.12C98.2572 187.1 92.9879 180.338 89.1996 175.092C85.4113 169.846 79.5221 162.417 76.1126 158.583C72.7031 154.748 68.7081 149.532 67.2355 146.991L64.5575 142.373L60.2326 146.048C55.4028 150.154 52.3418 151.103 38.918 152.65C27.4083 153.976 27.7865 153.869 26.8786 156.065C26.1148 157.914 26.2594 158.346 28.7831 161.742C30.2861 163.764 31.8744 166.116 32.3132 166.971C33.6763 169.623 31.4157 168.865 29.2226 165.936C27.5344 163.681 24.2447 159.991 18.8019 154.252C17.7839 153.177 16.4979 152.65 14.8978 152.65C13.5857 152.65 11.9712 152.442 11.3099 152.187C10.4317 151.85 10.2575 151.969 10.6638 152.627C11.1102 153.35 10.1114 153.464 5.61089 153.203C0.281039 152.894 0.0013909 152.95 1.33099e-05 154.317C-0.00205307 155.671 0.313413 155.743 5.33813 155.531ZM4.65072 150.029C12.7722 150.48 12.9369 149.093 5.51171 142.77C-1.01251 137.214 -2.07186 138.263 4.30632 143.965C6.74946 146.148 8.16423 147.847 7.57807 147.893C7.00982 147.937 5.61502 148.04 4.47852 148.122C0.446349 148.415 0.00139096 148.516 0.00139095 149.14C0.00139095 149.488 2.09324 149.888 4.65072 150.029ZM4.65072 134.487C7.20819 136.447 11.5427 140.08 14.2834 142.56C17.0248 145.04 19.9694 147.43 20.8269 147.87C23.1881 149.084 16.2458 142.083 10.3332 137.288C7.49197 134.984 4.00532 132 2.58435 130.656C0.386424 128.577 0.0013912 128.416 0.00139118 129.569C0.00139117 130.43 1.69719 132.224 4.65072 134.487ZM5.6839 108.845C14.7215 108.101 20.0631 107.127 23.4085 105.613C25.1202 104.84 29.9293 103.178 34.0965 101.921C50.0557 97.1063 57.414 93.848 63.3728 88.9554C65.455 87.2466 70.9253 83.931 75.5299 81.5886L83.9014 77.3289L87.2393 79.692C92.8337 83.6535 99.9819 87.6255 104.734 89.413C110.487 91.5767 115.718 94.1186 115.718 94.7508C115.718 95.3285 104.597 105.869 101.598 108.135C100.461 108.993 97.2068 110.948 94.3655 112.479C91.5243 114.009 86.565 116.842 83.3449 118.775C80.1248 120.707 75.3205 123.374 72.6687 124.701C68.6496 126.713 66.4213 128.617 59.2841 136.137C54.5749 141.098 49.5446 145.759 48.1064 146.494C45.9698 147.587 43.5136 147.899 34.6551 148.201C28.6943 148.405 23.6971 148.692 23.5497 148.839C23.4023 148.986 23.5015 149.463 23.7694 149.897C24.1207 150.467 27.0729 150.56 34.3424 150.231C47.5823 149.631 49.4695 148.781 58.7524 139.231C62.4636 135.414 66.015 131.439 66.6452 130.399C67.3767 129.192 68.9485 128.124 70.9922 127.443C72.7527 126.858 77.1052 124.643 80.6634 122.523C84.2217 120.403 89.4434 117.59 92.2675 116.271C100.352 112.495 109.525 105.558 116.054 98.281C119.923 93.9695 119.911 93.6969 115.338 81.3926C109.682 66.1764 106.058 58.2118 89.035 23.588C80.2054 5.62979 77.0707 0.140901 75.638 0.130555C74.5553 0.122956 74.5504 0.350678 75.5685 3.40054C76.1705 5.20328 77.3083 7.6037 78.0963 8.73422C79.5159 10.7695 85.2225 21.748 93.1726 37.7365C95.438 42.2917 98.8055 48.5418 100.657 51.6255C102.508 54.7092 104.6 58.902 105.307 60.9428C106.013 62.9836 108.054 68.0695 109.843 72.245C113.263 80.231 117.371 91.8687 116.927 92.3138C116.29 92.9522 100.859 86.2507 95.3161 82.9282C85.2673 76.9051 80.9706 73.0374 76.1636 65.6884C66.3656 50.709 59.0093 37.3224 55.8174 28.6622C54.7188 25.6813 53.0657 21.6901 52.1434 19.7921C50.4676 16.3412 47.096 5.44 46.7034 2.19968C46.5883 1.25482 46.0063 0.38794 45.4091 0.274048C44.4676 0.094605 44.3973 0.644043 44.8767 4.4082C45.7632 11.3713 49.0232 21.2242 53.0712 29.1743C54.32 31.6264 54.3538 32.053 53.4342 33.7715C51.0669 38.1969 42.8289 44.1565 35.9989 46.385C33.4373 47.2215 29.9465 48.78 28.2418 49.8497C23.1488 53.0438 10.3525 57.4899 3.55348 58.4265C0.681227 58.8226 0.00139202 59.1698 0.00139201 60.2402C0.001392 61.4032 0.356807 61.5129 2.92875 61.145C10.9228 60.0021 26.7629 54.2447 31.3413 50.8187C32.4778 49.9677 35.8412 48.265 38.8147 47.0345C44.8278 44.5464 49.3814 41.4007 53.1057 37.1623L55.5832 34.3423L58.4348 40.0093C64.3309 51.7249 75.109 68.4995 80.1338 73.78L82.9075 76.6946L77.7877 79.019C74.9727 80.2966 71.1189 81.9129 69.2247 82.61C67.3305 83.3078 63.4561 85.4894 60.6148 87.4591C57.7736 89.4296 54.4729 91.5401 53.2806 92.1496C49.4365 94.1145 34.7419 98.7855 28.0895 100.158C24.5347 100.89 20.0038 102.131 18.0208 102.914C15.1906 104.032 12.8645 104.338 7.20819 104.338L0.00139148 104.338L0.00139145 106.825L0.00139143 109.313L5.6839 108.845ZM30.6525 158.527C31.4102 159.292 33.9573 162.043 36.3123 164.641L40.5945 169.364L45.9553 170.32C57.4388 172.369 56.7686 172.332 56.1894 170.873C55.296 168.625 53.4879 156.801 53.9639 156.323C54.8146 155.471 55.3022 156.763 56.2858 162.468C56.8265 165.609 57.6806 168.645 58.182 169.214C58.6842 169.783 59.2083 170.87 59.3468 171.63C59.552 172.757 60.3235 173.088 63.5574 173.437C68.7253 173.995 78.781 178.878 84.7225 183.714C88.5143 186.801 97.8625 191.99 99.6327 191.99C99.9275 191.99 98.7414 190.515 96.9967 188.711C95.252 186.908 90.9464 181.395 87.4287 176.461C83.9104 171.526 78.4758 164.475 75.3522 160.791C72.2278 157.107 68.5325 152.052 67.1404 149.557L64.6091 145.022L59.8868 149.485C54.216 154.845 52.607 155.384 42.0175 155.46C37.6609 155.491 33.0116 155.881 31.6857 156.326L29.2749 157.136L30.6525 158.527ZM37.9833 176.806C39.0062 178.894 40.04 181.422 40.2804 182.426C40.7819 184.522 44.5523 188.881 48.561 192C55.2519 197.207 67.2272 209.777 69.4162 213.892C70.6443 216.201 73.4057 220.526 75.5519 223.502C77.6975 226.479 80.6882 230.777 82.1974 233.055C83.7065 235.332 86.0229 238.412 87.3447 239.899C92.4314 245.621 100.988 267.35 103.675 281.367C105.108 288.847 105.724 306.799 104.717 311.734C102.625 321.986 97.0442 334.677 89.7293 345.819C85.361 352.471 79.0696 363.239 79.3733 363.543C79.4863 363.656 83.6238 359.81 88.568 354.996C93.5128 350.181 100.689 343.251 104.517 339.594C112.845 331.637 114.681 328.543 114.058 323.518C112.443 310.489 112.367 308.086 113.315 300.001C113.849 295.446 114.608 290.046 115.002 288.002C115.396 285.957 115.729 282.851 115.742 281.1C115.755 279.349 116.241 275.431 116.822 272.394C118.658 262.795 119.249 248.383 118.066 242.027C115.167 226.441 110.307 210.801 106.522 204.872C103.423 200.018 97.6469 195.362 90.5772 192.019C87.5465 190.586 83.1018 187.829 80.6999 185.891C74.4561 180.854 66.0645 176.968 59.5817 176.109C57.3087 175.809 52.3838 174.895 48.6368 174.08C44.8905 173.265 40.5422 172.69 38.9745 172.804L36.1236 173.01L37.9833 176.806ZM72.1624 141.607C73.3492 145.217 75.804 149.646 79.6234 155.065C98.0595 181.233 100.567 184.199 124.601 208.277C136.481 220.179 141.946 224.434 143.592 223.066C144.042 222.691 146.535 221.583 149.131 220.604C151.727 219.625 154.958 217.957 156.31 216.896C157.661 215.836 161.712 213.268 165.311 211.19C168.91 209.112 175.419 204.536 179.775 201.022C184.132 197.507 189.091 193.839 190.796 192.869C196.816 189.444 206.139 182.83 212.793 177.263C216.496 174.165 223.168 169.3 227.619 166.453C237.658 160.032 241.003 157.56 242.265 155.63C243.202 154.197 243.122 154.087 240.614 153.355C236.242 152.078 222.321 151.25 221.019 152.189C215.751 155.992 205.833 163.652 203.883 165.423C202.557 166.627 199.922 168.496 198.028 169.576C196.134 170.656 192.223 173.733 189.335 176.415C181.86 183.36 173.938 189.983 171.3 191.493C170.055 192.206 168.122 194.238 167.005 196.008C165.887 197.779 163.667 200.7 162.072 202.499C159.372 205.545 157.045 210.943 157.045 214.159C157.045 214.827 156.735 215.566 156.357 215.8C155.463 216.354 155.477 216.11 156.713 209.639C157.665 204.654 160.194 199.584 161.73 199.58C161.994 199.579 163.111 198.152 164.211 196.408C166.332 193.044 166.347 193.107 162.9 191.169C162.142 190.743 160.251 189.356 158.697 188.087C157.143 186.817 151.719 183.766 146.643 181.306C132.146 174.28 121.48 168.489 113.817 163.488C109.931 160.951 104.972 157.983 102.796 156.895C98.1876 154.587 88.6238 151.594 83.6982 150.918C80.4954 150.478 76.0058 148.73 76.5858 148.149C76.8813 147.854 91.6007 150.822 94.7299 151.809C99.01 153.158 107.343 157.121 114.729 161.319C118.919 163.702 124.964 166.965 128.16 168.572C131.356 170.178 135.301 172.4 136.926 173.511C138.551 174.621 142.892 176.982 146.572 178.756C154.117 182.393 157.246 184.243 162.211 187.998C164.105 189.431 166.241 190.604 166.956 190.606C167.671 190.608 170.404 188.824 173.029 186.641C175.653 184.458 179.304 181.585 181.141 180.257C182.979 178.928 186.461 176.071 188.881 173.908C191.3 171.744 195.014 168.949 197.133 167.696C199.252 166.443 202.8 164.123 205.017 162.541C210.022 158.97 218.495 151.004 216.626 151.628C215.868 151.881 212.149 152.403 208.36 152.79C204.572 153.176 197.052 154.389 191.648 155.486C181.542 157.538 168.48 158.26 162.211 157.11C156.02 155.977 144.135 152.777 141.997 151.669C140.741 151.018 136.197 149.149 131.9 147.515C117.688 142.112 111.996 138.163 106.058 129.587C104.196 126.898 101.624 123.867 100.342 122.852L98.012 121.005L92.917 124.435C90.115 126.322 85.9217 128.945 83.5984 130.264C79.1543 132.787 73.3891 137.511 72.4042 139.434C72.0839 140.06 71.9751 141.038 72.1624 141.607ZM103.891 117.451C104.728 117.451 108.119 116.106 111.427 114.462C114.734 112.818 119.254 110.916 121.469 110.235C125.237 109.077 125.475 108.879 125.136 107.185C124.541 104.215 123.375 101.577 122.658 101.577C122.288 101.577 120.851 102.937 119.464 104.6C116.596 108.038 112.342 111.433 106.437 114.996C103.513 116.76 102.796 117.451 103.891 117.451ZM111.348 207.173C114.497 213.292 118.971 227.928 120.633 237.541C121.659 243.486 121.95 247.807 121.788 254.761L121.573 264.043L132.938 269.757C164.648 285.7 177.201 291.453 185.516 293.851C190.124 295.18 195.342 296.45 197.11 296.671L200.325 297.074L201.067 294.396C201.475 292.924 201.817 291.409 201.828 291.029C201.839 290.649 202.453 289.562 203.194 288.613C203.935 287.664 204.548 286.644 204.557 286.346C204.565 286.047 203.229 285.227 201.587 284.521C198.46 283.179 189.686 276.178 179.775 267.118C176.555 264.174 172.252 260.519 170.214 258.995C166.744 256.402 158.547 249.129 141.25 233.291C137.247 229.626 128.314 221.067 121.401 214.272C114.487 207.477 108.878 202.09 108.935 202.302C108.993 202.514 110.079 204.706 111.348 207.173ZM117.997 5.98868C122.808 19.0315 126.715 31.2496 127.854 36.8214C129.023 42.5374 129.025 43.2551 127.88 52.6953C126.697 62.4446 124.872 72.9842 122.917 81.3594C122.367 83.715 121.917 86.6309 121.917 87.8394C121.917 89.1328 121.421 90.4048 120.712 90.9294C119.858 91.5622 119.72 92.0391 120.239 92.5678C121.125 93.4705 124.667 92.4063 127.772 90.3054C130.676 88.3398 140.788 79.8535 145.491 75.435C150.693 70.5465 153.588 68.4491 155.133 68.4491C156.944 68.4491 164.221 64.6635 169.444 61.0042C175.772 56.5692 185.304 51.2452 192.293 48.2409C195.579 46.8288 198.483 45.6735 198.747 45.6735C199.588 45.6735 207.592 40.6656 209.838 38.7338C212.257 36.653 218.372 33.592 222.746 32.2731C224.327 31.7969 230.415 28.346 236.276 24.606C242.137 20.8653 249.226 16.4434 252.03 14.7801C254.833 13.1168 259.483 10.0048 262.362 7.86527C265.24 5.72504 269.146 3.11277 271.04 2.06095L274.484 0.147098L270.655 0.134677C266.517 0.121555 266.633 0.0649446 252.787 8.87912C249.188 11.1705 244.229 14.1831 241.766 15.5738C239.304 16.9645 234.363 20.1172 230.787 22.5797C227.211 25.0429 222.58 27.8402 220.495 28.7968C218.41 29.7533 213.224 32.8481 208.97 35.6743C204.716 38.5006 198.191 42.3904 194.469 44.318C190.746 46.2456 187.08 48.4031 186.321 49.1112C185.563 49.82 182.816 51.1983 180.218 52.1742C177.62 53.1508 172.351 56.0205 168.509 58.552C164.666 61.0829 159.508 64.2411 157.045 65.5697C148.009 70.4444 144.775 72.7365 132.938 82.6514C127.772 86.9781 124.709 89.1542 123.785 89.1542C123.627 89.1542 123.921 87.524 124.439 85.5308C128.038 71.6888 131.984 46.6149 131.221 42.42C130.838 40.3129 130.995 40.1128 134.365 38.4018C139.345 35.873 151.322 24.3562 157.437 16.2156C159.818 13.0457 166 1.70755 166 0.50873C166 -0.83502 164.402 0.604677 162.792 3.40055C156.811 13.7821 153.125 18.605 145.147 26.4812C133.237 38.2404 130.183 40.0479 130.183 35.3368C130.183 33.1448 126.679 21.5741 123.281 12.5453C122.067 9.31876 120.621 5.43656 120.069 3.91818C118.876 0.635744 118.263 -0.0875535 116.945 0.229921C116.151 0.421083 116.356 1.54193 117.997 5.98868ZM147.116 230.625C150.199 234.058 155.722 239.377 159.543 242.591C167.5 249.287 174.337 255.714 181.608 263.33C189.972 272.091 191.594 273.354 200.807 278.273C207.301 281.741 219.661 290.122 226.088 295.416C228.69 297.558 232.429 300.639 234.398 302.262C236.367 303.885 239.356 305.621 241.04 306.12C244.19 307.052 245.64 308.628 243.347 308.628C242.638 308.628 240.908 308.041 239.501 307.323C238.095 306.604 236.945 306.287 236.945 306.618C236.945 307.376 242.376 310.28 244.043 310.414C244.726 310.469 246.235 311.487 247.396 312.677C248.557 313.867 250.064 314.84 250.745 314.84C251.426 314.84 252.087 315.073 252.213 315.358C252.632 316.302 264.091 322.987 267.794 324.447C269.797 325.237 272.196 325.883 273.126 325.883C275.353 325.883 283.205 328.61 295.492 333.652C300.985 335.906 308.114 338.631 311.334 339.706C325.789 344.535 346.645 352.206 354.216 355.479C356.018 356.258 360.047 357.348 363.17 357.902C369.831 359.083 380.684 362.429 392.292 366.88C396.852 368.628 403.825 370.804 407.789 371.716C416.711 373.767 442.226 380.338 442.908 380.761C443.184 380.931 446.47 381.399 450.211 381.799C453.952 382.2 461.045 383.129 465.974 383.865C477.574 385.597 523.247 386.11 528.135 384.564C529.747 384.053 530.936 383.505 530.777 383.345C530.618 383.185 528.523 382.917 526.123 382.748C523.723 382.58 519.403 381.984 516.523 381.424C513.643 380.864 507.909 380.239 503.781 380.035C496.439 379.674 487.334 378.303 482.735 376.867C481.469 376.471 476.691 375.901 472.12 375.599C463.518 375.031 460.914 374.238 458.389 371.419C457.632 370.574 454.91 368.853 452.339 367.596C449.768 366.338 445.676 363.743 443.246 361.829C437.402 357.228 427.557 351.776 414.949 346.161C409.293 343.642 401.256 340.03 397.088 338.135C376.538 328.79 365.056 323.934 361.616 323.135C359.532 322.651 355.193 321.543 351.973 320.673C338.709 317.087 325.064 314.15 321.67 314.15C319.682 314.15 313.986 313.182 309.012 312C299.823 309.815 294.048 309.432 289.293 310.695C286.014 311.566 281.405 311.67 272.418 311.077C268.25 310.802 264.066 310.614 263.119 310.657C249.837 311.275 246.588 311.018 246.588 309.352C246.588 309.017 247.346 308.485 248.271 308.168L249.955 307.593L245.624 300.691C243.242 296.895 240.035 291.616 238.497 288.958C236.96 286.301 233.785 281.695 231.444 278.722C229.101 275.749 227.343 273.158 227.536 272.965C229.105 271.392 237.614 280.988 241.412 288.613C243.244 292.291 250.629 304.479 251.449 305.177C251.672 305.367 252.054 306.066 252.299 306.73C252.544 307.395 253.451 307.942 254.315 307.946C255.179 307.951 262.396 308.06 270.351 308.189C282.829 308.391 285.431 308.247 289.291 307.145C291.752 306.443 295.752 305.868 298.181 305.868L302.596 305.868L297.628 302.372C294.896 300.449 289.965 296.33 286.671 293.218C280.638 287.517 264.643 273.484 258.061 268.118C256.108 266.525 253.541 264.433 252.359 263.468C250.584 262.022 249.022 261.588 243.405 260.986C239.662 260.584 233.872 259.951 230.536 259.579C227.201 259.206 224.188 259.077 223.841 259.292C223.208 259.684 225.501 266.794 226.782 268.417C227.152 268.887 227.244 269.819 226.985 270.487C226.544 271.627 226.453 271.619 225.533 270.368C224.994 269.633 223.784 266.507 222.844 263.421C221.214 258.069 220.973 257.703 217.598 255.512C215.652 254.249 212.669 252.152 210.97 250.852C209.271 249.553 207.68 248.69 207.436 248.935C206.994 249.378 209.021 251.346 216.626 257.855C220.762 261.397 223.454 266.002 223.022 268.799C222.846 269.933 222.477 269.425 221.584 266.821C220.319 263.131 217.695 260.205 213.276 257.56L210.616 255.967L211.124 258.314C211.405 259.605 212.333 262.742 213.189 265.286C214.043 267.829 214.573 270.08 214.364 270.289C212.72 271.938 210.215 267.402 208.372 259.439C207.809 257.007 205.831 251.784 203.976 247.832C197.078 233.133 195.618 229.879 195.618 229.205C195.618 228.004 193.044 223.485 190.952 221.011L188.938 218.63L176.222 218.63C162.85 218.63 160.422 219.059 157.235 221.986C156.393 222.759 153.758 224.113 151.381 224.994C149.003 225.875 146.464 226.827 145.738 227.109C144.534 227.576 144.654 227.883 147.116 230.625ZM185.286 149.039C186.612 149.039 187.154 148.897 186.491 148.723C185.828 148.55 184.743 148.55 184.08 148.723C183.418 148.897 183.96 149.039 185.286 149.039ZM196.061 279.264C197.82 280.61 199.637 281.712 200.099 281.712C201.813 281.712 211.606 287.251 215.088 290.19C217.071 291.863 220.564 294.489 222.852 296.026C225.14 297.564 227.426 299.319 227.931 299.929C228.435 300.538 229.174 301.036 229.573 301.036C231.444 301.036 222.661 293.733 212.382 286.742C208.258 283.937 192.862 275.857 192.862 276.498C192.862 276.673 194.302 277.919 196.061 279.264ZM203.222 331.059C203.505 333.716 204.094 336.977 204.533 338.306C204.971 339.634 206.227 344.296 207.324 348.666C208.42 353.035 210.296 358.936 211.491 361.779C212.686 364.622 215.139 371.141 216.94 376.265C218.743 381.39 221.53 389.309 223.134 393.864C229.104 410.82 234.19 427.005 234.19 429.051C234.19 431.455 235.642 435.019 236.507 434.734C237.711 434.338 237.861 428.337 236.713 426.507C235.959 425.304 235.709 422.24 235.676 413.816C235.635 403.11 234.569 393.723 231.765 379.371C231.246 376.714 230.317 370.657 229.7 365.912C227.792 351.222 228.252 314.106 230.456 304.832C230.704 303.791 230.146 303.088 228.182 301.97C226.751 301.156 221.612 297.506 216.763 293.861C211.913 290.215 207.534 287.233 207.032 287.233C206.447 287.233 205.47 289.829 204.312 294.459C202.671 301.021 202.514 302.812 202.607 313.956C202.662 320.706 202.939 328.402 203.222 331.059ZM207.844 280.973C208.645 280.896 215.018 271.933 214.581 271.496C214.037 270.951 209.475 275.465 208.302 277.709C207.228 279.762 207.047 281.048 207.844 280.973ZM221.792 256.322C222.36 256.536 225.459 257.077 228.679 257.525C231.9 257.971 236.022 258.627 237.84 258.982C239.658 259.336 242.603 259.637 244.383 259.649C248.278 259.676 253.891 261.518 256.638 263.671C257.74 264.534 260.392 266.54 262.531 268.127C267.833 272.063 281.464 282.84 284.07 285.156C285.238 286.194 288.363 288.994 291.015 291.378C296.248 296.082 304.052 301.812 307.89 303.766C309.216 304.441 313.401 305.845 317.189 306.885C320.977 307.925 326.246 309.401 328.898 310.166C335.772 312.148 341.812 312.847 354.383 313.114C360.445 313.244 369.744 313.682 375.047 314.089C380.351 314.495 393.31 314.83 403.845 314.834C421.737 314.839 423.486 314.728 430.364 313.146C440.873 310.726 451.723 306.184 462.453 299.709C465.522 297.857 472.218 294.035 477.332 291.217C488.295 285.174 510.046 272.954 512.348 271.545C514.75 270.073 513.677 269.739 510.641 271.013C509.179 271.626 503.334 273.345 497.652 274.833C491.969 276.321 483.29 278.611 478.366 279.923C468.286 282.609 451.636 286.088 441.64 287.598C428.224 289.625 417.859 288.664 396.432 283.41C384.548 280.496 374.64 279.143 358.861 278.279C350.964 277.847 343.718 276.994 337.853 275.807C330.848 274.39 325.598 273.867 313.745 273.402C292.023 272.55 275.87 270.44 265.745 267.131C261.34 265.691 256.022 263.057 256.517 262.56C256.666 262.411 258.91 262.917 261.503 263.684C273.529 267.242 291.589 269.623 312.367 270.391C322.099 270.75 326.839 271.283 334.409 272.864C341.179 274.279 347.571 275.071 355.867 275.524C370.952 276.349 385.001 278.332 397.434 281.391C416.583 286.103 417.09 286.179 428.773 286.161C438.956 286.144 440.893 285.92 454.258 283.22C462.213 281.612 474.457 278.778 481.465 276.92C488.474 275.062 496.687 272.924 499.718 272.169C502.749 271.413 506.158 270.408 507.295 269.934C509.287 269.104 509.153 269.04 503.506 268.153C492.084 266.36 489.135 266.326 479.809 267.881C474.92 268.696 470.116 269.777 469.132 270.282C460.159 274.894 449.583 275.465 439.109 271.905C436.834 271.132 427.068 266.627 417.408 261.893C407.747 257.16 396.121 251.806 391.572 249.996C387.022 248.186 381.753 245.924 379.863 244.97C377.972 244.017 373.945 242.362 370.914 241.293C365.629 239.43 364.772 239.339 349.906 239.069C329.846 238.704 324.748 239.316 302.035 244.808C295.216 246.456 286.848 248.318 283.438 248.944C280.029 249.57 273.615 251.299 269.187 252.784C264.758 254.27 260.109 255.494 258.855 255.505C257.601 255.516 254.459 256.104 251.872 256.812C246.222 258.358 236.37 258.226 228.811 256.503C224.298 255.475 219.195 255.343 221.792 256.322ZM226.301 277.111C226.834 278.566 227.463 281.361 227.7 283.323C227.936 285.283 228.597 288.751 229.168 291.029C229.74 293.307 230.212 295.868 230.218 296.723C230.232 298.63 230.836 298.705 231.937 296.938C232.619 295.844 232.52 295.029 231.4 292.492C230.646 290.783 229.709 286.835 229.319 283.718C228.57 277.73 227.165 273.43 225.959 273.43C225.058 273.43 225.094 273.813 226.301 277.111ZM228.932 254.795C229.551 254.795 230.057 254.495 230.057 254.127C230.057 253.76 231.692 252.223 233.69 250.711L237.322 247.963L242.472 248.689C248.164 249.491 263.085 249.025 264.999 247.984C268.332 246.173 272.219 239.966 274.89 232.187C276.789 226.655 283.079 217.518 289.794 210.539C299.23 200.731 306.98 194.837 318.574 188.648C332.728 181.092 336.591 178.903 335.797 178.889C335.15 178.877 330.412 180.671 308.923 189.067C303.62 191.139 296.801 194.011 293.77 195.448C290.739 196.886 284.591 199.792 280.108 201.907C270.849 206.275 264.643 211.348 261.741 216.921C260.794 218.74 258.291 222.338 256.179 224.916C254.067 227.494 251.212 231.623 249.834 234.09C247.397 238.456 239.256 247.203 237.631 247.203C237.185 247.203 238.814 244.952 241.249 242.199C243.685 239.447 246.423 235.798 247.335 234.09C249.514 230.008 253.522 224.513 255.894 222.357C256.937 221.408 259.109 218.613 260.719 216.146C262.33 213.678 265.001 210.379 266.655 208.815C270.33 205.338 277.806 200.956 284.127 198.571C286.719 197.594 289.174 196.517 289.583 196.18C291.93 194.24 313.132 185.681 331.865 179.11C334.633 178.139 336.761 177.207 336.593 177.039C336.425 176.871 332.145 177.655 327.083 178.781C322.02 179.907 315.398 181.184 312.367 181.617C309.337 182.05 303.448 183.135 299.28 184.027C295.113 184.919 289.069 186.009 285.849 186.45C274.926 187.945 272.546 188.534 269.38 190.52C267.641 191.611 264.215 193.553 261.768 194.835C255.547 198.093 250.011 203.499 244.962 211.245C241.235 216.964 240.379 218.91 238.713 225.463C235.871 236.642 235.003 241.633 235.394 244.55C235.72 246.992 235.495 247.392 231.774 250.974C229.308 253.348 228.232 254.795 228.932 254.795ZM235.051 255.52C237.039 255.54 240.837 255.801 243.488 256.102C247.506 256.556 248.82 256.429 251.366 255.345C253.047 254.629 255.837 253.86 257.565 253.636C263.799 252.827 262.351 252.273 253.691 252.153C248.838 252.086 243.077 251.707 240.89 251.31C237.087 250.619 236.793 250.672 234.188 252.519C232.69 253.581 231.457 254.683 231.449 254.968C231.441 255.253 233.062 255.501 235.051 255.52ZM232.85 357.525C233.181 359.176 233.78 364.456 234.181 369.258C234.582 374.061 235.192 379.699 235.538 381.786C238.379 398.96 238.464 400.013 238.015 412.395C237.656 422.33 237.742 424.657 238.462 424.423C238.953 424.263 239.77 422.291 240.275 420.041C240.781 417.791 241.804 413.886 242.549 411.364C243.293 408.842 244.179 404.183 244.517 401.011C245.223 394.377 247.608 387.795 250.741 383.831C251.937 382.318 253.349 379.452 253.879 377.465C255.014 373.203 256.218 359.609 256.828 344.172L257.264 333.129L254.634 329.13C253.188 326.93 250.519 323.138 248.703 320.705C246.888 318.271 245.032 315.384 244.579 314.289C244.101 313.132 242.719 311.802 241.282 311.116C239.92 310.466 237.501 308.861 235.906 307.551L233.004 305.169L232.597 309.486C231.973 316.139 232.172 354.145 232.85 357.525ZM244.573 28.6221C246.065 29.2695 247.472 29.7996 247.7 29.7996C248.477 29.7996 257.26 34.1573 260.019 35.9117C261.535 36.8752 264.324 38.4847 266.218 39.4889C277.878 45.6673 281.855 48.7848 300.977 66.7278C308.378 73.673 315.828 80.5147 317.533 81.9316C321.626 85.3341 333.202 92.9156 336.256 94.1945C337.587 94.7515 339.321 96.2526 340.11 97.5294C340.9 98.8069 344.589 102.832 348.309 106.474C358.823 116.769 369.21 123.904 378.836 127.443C397.481 134.298 415.64 145.701 432.561 161.178C438.156 166.295 444.735 170.622 452.381 174.212C457.787 176.75 468.378 180.478 468.378 179.841C468.378 179.695 463.961 177.366 458.563 174.664C451.271 171.015 447.243 168.478 442.893 164.795C439.673 162.069 434.011 157.585 430.311 154.829C426.611 152.073 420.567 146.806 416.879 143.125C410.009 136.265 407.242 133.997 394.677 124.93C387.521 119.765 380.629 115.929 371.948 112.278C358.216 106.502 348.857 101.249 341.641 95.2691C339.936 93.8563 335.287 91.0826 331.309 89.1052C322.858 84.9041 316.772 80.1668 309.275 71.9531C306.303 68.6976 301.937 64.4806 299.572 62.5826C297.208 60.6847 293.035 57.0558 290.3 54.518C287.564 51.9803 283.551 48.7661 281.381 47.3755C279.212 45.9847 276.307 43.8404 274.927 42.6098C273.547 41.3799 270.098 39.2004 267.264 37.7662C264.43 36.3321 260.544 34.1539 258.627 32.9261C256.711 31.6975 253.916 30.293 252.415 29.8051C250.915 29.3171 248.865 28.3399 247.859 27.6332C245.994 26.3232 242.808 25.9084 242.198 26.8967C242.013 27.1976 243.081 27.9741 244.573 28.6221ZM279.566 138.156C279.909 138.156 280.396 137.331 280.649 136.322C280.901 135.313 283.721 131.887 286.915 128.708C292.16 123.488 294.309 120.177 293.183 119.049C292.959 118.824 292.437 119.531 292.024 120.62C291.611 121.709 291.06 122.772 290.799 122.982C290.539 123.193 288.247 125.528 285.706 128.172C281.484 132.566 278.046 138.156 279.566 138.156ZM310.559 70.0034C316.196 75.5613 317.905 76.7008 315.734 73.4528C313.347 69.8819 311.334 65.4552 311.334 63.7753C311.334 62.0816 316.195 53.5994 324.08 41.5325C329.527 33.1959 330.812 30.6906 329.924 30.1398C329.544 29.9045 329.029 30.2751 328.78 30.9639C328.53 31.652 326.595 34.5445 324.48 37.3915C319.359 44.2821 316.479 48.9504 315.54 51.885C314.713 54.4697 310.14 59.824 307.029 61.8517C305.988 62.5309 305.135 63.4399 305.135 63.8712C305.135 64.3033 307.575 67.0626 310.559 70.0034ZM311.094 91.2247C311.522 95.7529 312.872 101.227 314.244 103.993C316.386 108.313 322.885 116.525 325.95 118.783C330.435 122.088 344.624 134.93 355.761 145.764C365.691 155.424 373.705 162.51 384.001 170.734C390.418 175.86 408.453 186.761 408.453 185.514C408.453 185.387 406.791 184.177 404.758 182.825C399.909 179.599 389.992 170.099 382.627 161.626C379.384 157.895 373.586 152.097 369.741 148.742C350.259 131.743 349.401 130.829 345.544 122.974C343.07 117.937 341.07 114.887 338.981 112.966C326.682 101.655 326.028 100.909 322.739 94.4437C320.058 89.1735 318.794 87.502 315.581 84.9752C313.434 83.2878 311.446 81.8039 311.162 81.6776C310.662 81.4547 310.627 86.2845 311.094 91.2247ZM340.511 92.26C344.081 94.3705 350.897 98.9808 351.284 99.5468C351.473 99.8236 354.993 101.81 359.106 103.96C363.219 106.11 367.093 108.141 367.716 108.474C368.338 108.807 373.807 111.54 379.869 114.547C395.738 122.42 401.563 126.683 417.752 142.274C422.298 146.652 428.285 151.787 431.056 153.685C433.828 155.583 438.632 159.338 441.732 162.028C444.833 164.718 450.005 168.395 453.225 170.197C459.056 173.462 467.017 177.02 467.471 176.564C467.603 176.432 465.768 175.133 463.395 173.676C446.76 163.467 436.621 152.074 426.328 132.026C422.771 125.097 418.873 121.009 410.347 115.264C398.075 106.996 377.491 99.1776 357.139 95.0531C354.108 94.4388 349.552 93.1503 347.016 92.1889C344.478 91.2282 341.451 90.5401 340.289 90.6608L338.177 90.8796L340.511 92.26ZM512.461 395.53C513.029 395.51 514.114 395.226 514.871 394.9L516.249 394.307L514.871 394.269C514.114 394.247 513.029 394.532 512.461 394.9C511.542 395.495 511.542 395.564 512.461 395.53Z" fill="#F7ECD7"/>
</svg>
