<svg width="176" height="176" viewBox="0 0 176 176" fill="none" xmlns="http://www.w3.org/2000/svg">
<path d="M38.9914 142.548C43.4524 132.038 53.868 124.666 66.0052 124.666H110.005C122.142 124.666 132.558 132.038 137.019 142.548M117.339 69.6665C117.339 85.8669 104.206 98.9998 88.0052 98.9998C71.8049 98.9998 58.6719 85.8669 58.6719 69.6665C58.6719 53.4661 71.8049 40.3332 88.0052 40.3332C104.206 40.3332 117.339 53.4661 117.339 69.6665ZM161.339 87.9998C161.339 128.501 128.506 161.333 88.0052 161.333C47.5043 161.333 14.6719 128.501 14.6719 87.9998C14.6719 47.499 47.5043 14.6665 88.0052 14.6665C128.506 14.6665 161.339 47.499 161.339 87.9998Z" stroke="#E9DABC" stroke-width="5" stroke-linecap="round" stroke-linejoin="round"/>
</svg>
